<svg width="234" height="49" viewBox="0 0 234 49" fill="none" xmlns="http://www.w3.org/2000/svg">
<g clip-path="url(#clip0_7_422974)">
<path d="M0 26.5691H234V23.6944H0V26.5691ZM5.82947 14.6323H8.86737V3.5169V0.833864H0.437895V3.5169H5.82947V14.6323ZM29.8316 11.8397H24.0568V9.04721H28.6821V6.25468H24.0568V3.68117H29.4758V0.88862H21.0189V14.6871H29.8316V11.8397ZM66.9706 4.85841H66.9977L73.0188 14.6871H76.9875V0.88862H73.9496V10.4709H73.922L68.0653 0.88862H63.9327V14.6871H66.9706V4.85841ZM117.328 11.8945H113.278V0.915998H110.24V14.7145H117.328V11.8945ZM151.101 13.1265C151.758 13.7562 152.552 14.249 153.455 14.5776C154.358 14.9061 155.343 15.0977 156.438 15.0977C157.451 15.0977 158.436 14.9882 159.421 14.7966C160.406 14.5776 161.337 14.249 162.213 13.7836V6.58324H156.821V9.37577H159.284V11.6207C159.01 11.785 158.627 11.9219 158.135 12.0862C157.642 12.2231 157.095 12.3052 156.41 12.3052C155.754 12.3052 155.179 12.1957 154.659 11.9766C154.139 11.7576 153.673 11.4565 153.318 11.0458C152.935 10.6625 152.661 10.1697 152.442 9.64955C152.223 9.12938 152.169 8.49965 152.169 7.84259C152.169 7.21291 152.278 6.61062 152.47 6.06306C152.661 5.5155 152.962 5.05006 153.345 4.63939C153.728 4.2561 154.167 3.92757 154.686 3.70854C155.207 3.48952 155.809 3.38001 156.438 3.38001C157.204 3.38001 157.861 3.48952 158.381 3.70854C158.901 3.92757 159.366 4.2561 159.777 4.69415L161.912 2.36703C161.2 1.70996 160.406 1.27191 159.476 0.998132C158.545 0.724356 157.533 0.587466 156.438 0.587466C155.37 0.587466 154.358 0.751734 153.455 1.08027C152.552 1.4088 151.758 1.9016 151.101 2.5313C150.444 3.16099 149.924 3.92757 149.541 4.83104C149.158 5.7345 148.993 6.72013 148.993 7.84259C148.993 8.93771 149.186 9.95072 149.541 10.8542C149.924 11.7302 150.444 12.4969 151.101 13.1265ZM175.732 0.970754H172.695V14.7692H175.732V0.970754ZM187.31 13.1539C187.967 13.7836 188.76 14.2764 189.663 14.6049C190.566 14.9335 191.579 15.1251 192.647 15.1251C193.604 15.1251 194.507 14.9335 195.41 14.5502C196.314 14.1669 197.053 13.5646 197.628 12.7433L195.109 10.8542C194.808 11.3196 194.398 11.6755 193.933 11.9493C193.44 12.2231 192.893 12.3326 192.291 12.3326C191.743 12.3326 191.223 12.2231 190.758 12.004C190.293 11.785 189.882 11.4839 189.526 11.0732C189.17 10.6899 188.897 10.1971 188.705 9.67694C188.514 9.15677 188.404 8.55443 188.404 7.89736C188.404 7.26769 188.514 6.66535 188.705 6.11779C188.897 5.57022 189.198 5.10482 189.554 4.69415C189.91 4.31086 190.347 3.98232 190.812 3.7633C191.305 3.54428 191.825 3.43476 192.4 3.43476C192.975 3.43476 193.467 3.54428 193.905 3.73592C194.343 3.92757 194.699 4.20135 195 4.58463L197.327 2.66819C197.025 2.28489 196.697 1.98374 196.314 1.70996C195.931 1.46355 195.547 1.24454 195.137 1.08027C194.726 0.915998 194.316 0.806491 193.878 0.724356C193.467 0.642222 193.057 0.614844 192.674 0.614844C191.607 0.614844 190.594 0.779113 189.691 1.10764C188.787 1.43618 187.994 1.92898 187.337 2.55867C186.68 3.18837 186.16 3.95494 185.777 4.85841C185.394 5.76189 185.23 6.74746 185.23 7.86998C185.23 8.9651 185.421 9.97806 185.777 10.8816C186.132 11.7576 186.653 12.5242 187.31 13.1539ZM234 11.9766H229.949V0.998132H226.911V14.7966H234V11.9766ZM91.5749 15.043C96.3916 16.056 100.634 12.4147 100.634 7.78786C100.634 3.68117 97.2948 0.341064 93.1893 0.341064C88.5641 0.341064 84.8969 4.58463 85.9369 9.40316C86.5114 12.1957 88.7556 14.4681 91.5749 15.043ZM93.1893 3.21574C96.1725 3.21574 98.5263 6.11779 97.5411 9.23888C97.1305 10.6078 96.0086 11.7029 94.6399 12.1409C91.4925 13.1265 88.6189 10.7994 88.6189 7.78786C88.6189 5.26911 90.6717 3.21574 93.1893 3.21574ZM132.436 15.043C137.253 16.056 141.495 12.4147 141.495 7.78786C141.495 3.68117 138.156 0.341064 134.051 0.341064C129.425 0.341064 125.758 4.58463 126.798 9.40316C127.373 12.1957 129.617 14.4681 132.436 15.043ZM134.051 3.21574C137.034 3.21574 139.387 6.11779 138.402 9.23888C137.991 10.6078 136.87 11.7029 135.501 12.1409C132.354 13.1265 129.48 10.7994 129.48 7.78786C129.48 5.26911 131.533 3.21574 134.051 3.21574ZM45.0484 15.043C45.5958 15.1525 46.1432 15.2072 46.6631 15.2072V15.2346H54.2988V12.5516H52.3556C53.4503 11.2649 54.1073 9.59478 54.1073 7.78786C54.1073 3.68117 50.7684 0.341064 46.6631 0.341064C42.0379 0.341064 38.3705 4.58463 39.4105 9.40316C39.9853 12.1957 42.2569 14.4681 45.0484 15.043ZM46.6631 3.21574C49.6463 3.21574 52.0002 6.11779 51.0147 9.23888C50.6042 10.6078 49.4821 11.7029 48.1137 12.1409C44.9663 13.1265 42.0927 10.7994 42.0927 7.78786C42.0927 5.26911 44.1453 3.21574 46.6631 3.21574ZM212.653 0.998132H210.135L204.168 14.7966H218.646L212.653 0.998132ZM208.684 11.8671L209.642 9.29366L211.312 5.02268L213.009 9.32099L214.076 11.9766H208.657L208.684 11.8671Z" fill="black"/>
<path d="M80.7366 37.0266H83.008L87.7976 48.3063H85.2251L84.2123 45.7876H79.4775L78.4652 48.3063H75.947L80.7366 37.0266ZM83.3091 43.5973L81.8313 39.9561L80.3536 43.5973H83.3091Z" fill="black"/>
<path d="M102.057 46.664L103.508 44.9118C104.52 45.7332 105.561 46.2807 106.847 46.2807C107.859 46.2807 108.461 45.87 108.461 45.213V45.1856C108.461 44.5559 108.078 44.2547 106.217 43.762C103.973 43.187 102.523 42.5573 102.523 40.3397V40.3123C102.523 38.2863 104.165 36.9448 106.436 36.9448C108.078 36.9448 109.446 37.465 110.596 38.3685L109.31 40.2302C108.325 39.5457 107.339 39.1351 106.409 39.1351C105.478 39.1351 104.958 39.5731 104.958 40.1207V40.148C104.958 40.8873 105.423 41.1337 107.367 41.6264C109.638 42.2288 110.925 43.0227 110.925 44.9939V45.0213C110.925 47.239 109.228 48.4983 106.819 48.4983C105.122 48.4436 103.398 47.8686 102.057 46.664Z" fill="black"/>
<path d="M127.619 37.1086H130.082V48.3062H127.619V37.1086Z" fill="black"/>
<path d="M150.991 37.0266H153.263L158.052 48.3063H155.48L154.467 45.7876H149.732L148.72 48.3063H146.202L150.991 37.0266ZM153.592 43.5973L152.114 39.9561L150.636 43.5973H153.592Z" fill="black"/>
</g>
<defs>
<clipPath id="clip0_7_422974">
<rect width="234" height="49" fill="white"/>
</clipPath>
</defs>
</svg>
    