<svg width="18" height="18" viewBox="0 0 18 18" fill="none" xmlns="http://www.w3.org/2000/svg">
<path d="M16.5 13.5037C16.5 13.9162 16.1655 14.25 15.7537 14.25H9.74625C9.54833 14.25 9.35852 14.1714 9.21857 14.0314C9.07862 13.8915 9 13.7017 9 13.5037C9 13.3058 9.07862 13.116 9.21857 12.9761C9.35852 12.8361 9.54833 12.7575 9.74625 12.7575H15.7537C16.1662 12.7575 16.5 13.0912 16.5 13.5037ZM16.5 9C16.5 9.4125 16.1655 9.74625 15.7537 9.74625H2.24625C2.04833 9.74625 1.85852 9.66763 1.71857 9.52768C1.57862 9.38773 1.5 9.19792 1.5 9C1.5 8.80208 1.57862 8.61227 1.71857 8.47232C1.85852 8.33237 2.04833 8.25375 2.24625 8.25375H15.7537C16.1662 8.25375 16.5 8.58825 16.5 9ZM15.7537 5.2425C15.9517 5.2425 16.1415 5.16388 16.2814 5.02393C16.4214 4.88398 16.5 4.69417 16.5 4.49625C16.5 4.29833 16.4214 4.10852 16.2814 3.96857C16.1415 3.82862 15.9517 3.75 15.7537 3.75H6.74625C6.64825 3.75 6.55121 3.7693 6.46067 3.8068C6.37013 3.84431 6.28787 3.89928 6.21857 3.96857C6.14928 4.03787 6.09431 4.12013 6.0568 4.21067C6.0193 4.30121 6 4.39825 6 4.49625C6 4.59425 6.0193 4.69129 6.0568 4.78183C6.09431 4.87237 6.14928 4.95463 6.21857 5.02393C6.28787 5.09322 6.37013 5.14819 6.46067 5.18569C6.55121 5.2232 6.64825 5.2425 6.74625 5.2425H15.7537Z" fill="black"/>
</svg>
