<svg width="834" height="1125" viewBox="0 0 834 1125" fill="none" xmlns="http://www.w3.org/2000/svg">
<mask id="mask0_9_431112" style="mask-type:alpha" maskUnits="userSpaceOnUse" x="0" y="0" width="834" height="1125">
<rect width="834" height="1125" fill="white"/>
</mask>
<g mask="url(#mask0_9_431112)">
<g opacity="0.3">
<path d="M1002 0.247559L-664 0.247559L-664 1125L1002 1125L1002 0.247559Z" fill="#CECECE"/>
<g style="mix-blend-mode:multiply" opacity="0.3">
<path d="M956.796 187.789C926.072 197.042 895.951 208.237 866.61 221.306C807.722 247.108 750.167 278.511 719.891 330.925C710.811 346.729 704.16 363.842 700.165 381.673C696.145 399.265 695.723 416.833 694.168 434.604C691.946 459.889 685.66 486.635 664.268 505.486C638.945 527.756 598.05 535.517 563.153 537.204C510.641 539.769 459.462 526.542 408.215 519.006C362.478 512.257 315.897 511.267 271.581 524.607C234.485 535.855 201.254 556.527 180.973 585.681C155.761 621.921 155.894 666.663 154.695 707.514C153.495 749.085 157.182 791.151 153.029 832.609C150.341 859.378 143.01 888.329 119.709 907.81C91.0533 931.542 46.8266 933.072 9.33051 931.138C-43.8482 928.393 -95.0721 914.964 -146.807 904.818C-199.741 894.403 -252.898 889.724 -307.032 895.505C-358.5 900.994 -408.302 914.694 -455.506 932.825C-500.465 950.101 -545.403 970.009 -583.543 996.958C-613.569 1017.96 -640.636 1043 -664 1071.39L-664 1125L1002 1125L1002 176.833C986.721 179.526 971.623 183.185 956.796 187.789Z" fill="#D7D7D7"/>
</g>
<g style="mix-blend-mode:multiply" opacity="0.4">
<path d="M-645.652 327.168C-589.766 314.95 -532.288 312.032 -475.475 318.53C-455.889 320.785 -436.5 324.545 -417.476 329.777C-418.254 315.043 -419.698 300.286 -419.342 285.71C-418.787 259.165 -410.657 230.867 -389.31 213.725C-370.74 198.879 -346.216 194.627 -323.225 193.232C-297.613 191.68 -271.624 193.03 -246.012 193.862C-180.46 195.977 -113.642 201.578 -55.8877 236.085C-32.7858 249.875 -12.2385 267.781 9.6416 283.325C31.5217 298.869 54.5792 313.918 79.9024 323.096C103.382 331.622 129.571 334.344 152.629 323.096C165.221 316.565 176.193 307.237 184.727 295.81C190.782 288.612 195.46 280.335 198.522 271.403C200.827 263.122 201.905 254.54 201.72 245.938C201.72 230.192 199.499 214.22 202.142 198.564C204.774 185.327 211.05 173.114 220.246 163.337C238.683 142.619 265.184 128.942 291.595 121.968C321.583 114.05 352.682 118.864 383.203 118.189C416.212 117.447 449.199 107.391 469.147 78.9126C486.095 54.7304 486.051 26.2517 476.61 0L-664 0V331.487C-657.914 329.942 -651.797 328.503 -645.652 327.168Z" fill="#DBDBDB"/>
</g>
<g style="mix-blend-mode:multiply" opacity="0.6">
<path d="M721.868 53.8083C697.532 72.6978 675.643 94.6154 656.716 119.044C636.835 144.126 619.131 171.66 607.38 201.646C596.518 229.292 590.72 260.133 597.695 289.376C604.535 317.64 622.092 342.038 646.564 357.289C684.127 380.616 737.484 386.78 764.628 425.022C777.49 443.018 782.088 469.157 775.18 490.482C769.138 509.175 753.677 521.548 736.306 529.016C715.692 537.879 693.035 541.073 670.932 543.39C643.965 546.202 618.109 550.251 593.941 563.636C570.373 576.661 551.292 597.379 543.983 623.855C535.098 656.068 544.694 688.236 556.245 718.334C566.33 744.654 578.903 770.635 581.813 799.092C584.878 828.695 576.57 858.906 562.465 884.753C513.018 975.295 392 984.496 304.257 955.725C282.044 948.414 258.364 938.651 239.838 923.894C216.27 905.223 202.675 877.262 182.461 855.442C159.004 830.135 127.95 821.474 94.5187 828.065C63.5977 834.184 33.6541 851.505 16.3277 878.612C2.46655 900.319 -3.66425 926.234 -18.5472 947.334C-33.4301 968.434 -57.576 979.232 -82.7881 982.044C-111.735 985.049 -140.852 978.296 -165.622 962.833C-188.857 948.279 -205.472 925.851 -215.579 900.409C-226.598 872.883 -230.653 843.005 -227.375 813.488C-223.821 784.245 -210.426 761.57 -189.101 741.909C-165.466 720.134 -134.812 701.576 -124.816 668.913C-115.331 637.915 -127.526 605.049 -148.606 581.992C-158.729 570.839 -170.948 561.846 -184.547 555.538C-196.898 549.892 -209.982 545.932 -222.31 540.309C-246.523 529.331 -259.873 509.603 -270.069 485.331C-284.263 451.588 -292.438 412.762 -319.294 386.15C-338.441 367.164 -361.876 353.127 -386.622 342.915C-395.979 339.086 -405.521 335.738 -415.211 332.882C-414.877 339.338 -414.7 345.771 -414.877 352.16C-414.976 367.795 -418.281 383.238 -424.585 397.51C-429.738 408.51 -437.913 417.958 -446.798 426.236C-483.25 460.766 -534.963 476.783 -583.454 483.239C-610.144 486.996 -637.177 487.577 -664 484.971L-664 1125L1002 1125L1002 0.247559L806.723 0.247559C776.971 15.5993 748.581 33.5191 721.868 53.8083Z" fill="#EDEDED"/>
</g>
<g opacity="0.6">
<path d="M-22 38L169 229" stroke="white" stroke-width="2" stroke-miterlimit="10" stroke-linecap="round"/>
<path d="M-47 -7.00001L124 165" stroke="white" stroke-width="2" stroke-miterlimit="10" stroke-linecap="round"/>
<path d="M-34 -60L112 86" stroke="white" stroke-width="2" stroke-miterlimit="10" stroke-linecap="round"/>
<path d="M-26 -80L139 85" stroke="white" stroke-width="2" stroke-miterlimit="10" stroke-linecap="round"/>
<path d="M-44 79L77 200" stroke="white" stroke-width="2" stroke-miterlimit="10" stroke-linecap="round"/>
</g>
<g opacity="0.6">
<path d="M737 364L928 555" stroke="white" stroke-width="2" stroke-miterlimit="10" stroke-linecap="round"/>
<path d="M712 319L883 491" stroke="white" stroke-width="2" stroke-miterlimit="10" stroke-linecap="round"/>
<path d="M725 266L871 412" stroke="white" stroke-width="2" stroke-miterlimit="10" stroke-linecap="round"/>
<path d="M733 246L898 411" stroke="white" stroke-width="2" stroke-miterlimit="10" stroke-linecap="round"/>
<path d="M715 405L836 526" stroke="white" stroke-width="2" stroke-miterlimit="10" stroke-linecap="round"/>
</g>
</g>
</g>
</svg>
