<svg width="344" height="269" viewBox="0 0 344 269" fill="none" xmlns="http://www.w3.org/2000/svg">
<g clip-path="url(#clip0_6_421708)">
<path d="M77.2545 10.6721C79.7512 6.15714 86.2407 6.15714 88.7374 10.6721L111.33 51.5084C113.751 55.8834 110.586 61.2501 105.587 61.2501H60.4078C55.4057 61.2501 52.2412 55.8834 54.662 51.5084L77.2545 10.6751V10.6721ZM85.9082 49.5834C85.9206 49.1932 85.8544 48.8045 85.7136 48.4404C85.5728 48.0762 85.3603 47.7441 85.0886 47.4637C84.817 47.1833 84.4917 46.9604 84.1323 46.8082C83.7728 46.6559 83.3864 46.5775 82.996 46.5775C82.6056 46.5775 82.2191 46.6559 81.8597 46.8082C81.5002 46.9604 81.1749 47.1833 80.9033 47.4637C80.6316 47.7441 80.4191 48.0762 80.2783 48.4404C80.1375 48.8045 80.0713 49.1932 80.0837 49.5834C80.1076 50.3398 80.4249 51.0573 80.9685 51.5839C81.512 52.1105 82.2391 52.405 82.996 52.405C83.7528 52.405 84.4799 52.1105 85.0234 51.5839C85.567 51.0573 85.8843 50.3398 85.9082 49.5834ZM85.1528 26.6788C85.0773 26.1295 84.7959 25.6294 84.3656 25.2796C83.9354 24.9298 83.3884 24.7565 82.8352 24.7947C82.282 24.8328 81.764 25.0796 81.3858 25.4852C81.0077 25.8907 80.7977 26.4247 80.7982 26.9792L80.8099 40.1071L80.8303 40.4046C80.9059 40.954 81.1873 41.4541 81.6175 41.8038C82.0478 42.1536 82.5948 42.327 83.148 42.2888C83.7011 42.2506 84.2192 42.0038 84.5973 41.5983C84.9755 41.1927 85.1855 40.6587 85.1849 40.1042L85.1732 26.9734L85.1528 26.6788Z" fill="#222222"/>
<path d="M271.199 30.2001V110.8M98.1992 29.8001L271.199 29.8" stroke="#222222" stroke-width="2.4" stroke-linecap="square"/>
<line x1="83.2" y1="61" x2="83.2" y2="130" stroke="#222222" stroke-width="2.4"/>
<g clip-path="url(#clip1_6_421708)">
<path d="M161.751 221.726H1.24025C0.912006 221.724 0.597834 221.593 0.365721 221.36C0.133609 221.128 0.00222549 220.813 0 220.484L0 143.785C0.00449663 139.865 1.56144 136.107 4.32928 133.335C7.09711 130.564 10.8498 129.005 14.7641 129H148.236C152.15 129.005 155.903 130.564 158.671 133.335C161.439 136.107 162.996 139.865 163 143.785V220.484C162.998 220.815 162.865 221.131 162.631 221.363C162.397 221.596 162.081 221.727 161.751 221.726ZM2.489 219.242H160.553V143.785C160.552 142.168 160.233 140.566 159.613 139.072C158.993 137.579 158.085 136.222 156.941 135.08C155.797 133.939 154.439 133.034 152.945 132.418C151.451 131.803 149.851 131.488 148.236 131.493H14.7641C11.5092 131.495 8.38833 132.791 6.08679 135.095C3.78524 137.4 2.49125 140.526 2.489 143.785V219.242Z" fill="#222222"/>
<path d="M1.24023 220.484V228.949C1.24023 230.727 1.5901 232.488 2.26984 234.13C2.94959 235.773 3.94588 237.265 5.2018 238.522C6.45772 239.779 7.94864 240.776 9.58939 241.456C11.2301 242.135 12.9885 242.485 14.7641 242.484H148.236C151.82 242.484 155.258 241.058 157.793 238.519C160.327 235.981 161.751 232.538 161.751 228.949V220.484H1.24023Z" fill="#E6E7E8"/>
<path d="M148.236 243.726H14.7641C10.8506 243.723 7.09788 242.166 4.3298 239.396C1.56172 236.625 0.00450025 232.868 0 228.949V220.484C0 220.155 0.130669 219.839 0.363262 219.606C0.595855 219.373 0.911318 219.242 1.24025 219.242H161.794C161.957 219.241 162.12 219.273 162.271 219.335C162.422 219.396 162.56 219.488 162.676 219.603C162.792 219.719 162.884 219.856 162.947 220.007C163.01 220.158 163.042 220.321 163.042 220.484V228.949C163.039 230.893 162.653 232.817 161.908 234.612C161.162 236.406 160.07 238.036 158.695 239.408C157.32 240.78 155.689 241.868 153.894 242.609C152.1 243.349 150.177 243.729 148.236 243.726ZM2.489 221.727V228.94C2.4935 232.199 3.78849 235.322 6.08979 237.625C8.39109 239.928 11.5107 241.222 14.7641 241.225H148.236C149.85 241.229 151.449 240.915 152.941 240.3C154.434 239.686 155.791 238.783 156.935 237.643C158.079 236.503 158.987 235.148 159.608 233.656C160.229 232.165 160.55 230.565 160.553 228.949V221.727H2.489Z" fill="#222222"/>
<path d="M116.066 269H46.9258C46.7622 269 46.6003 268.967 46.4492 268.905C46.2982 268.842 46.1611 268.749 46.0458 268.633C45.9305 268.517 45.8394 268.379 45.7775 268.227C45.7157 268.076 45.6845 267.913 45.6856 267.749V264.108C45.6878 262.232 46.4332 260.433 47.7582 259.106C49.0831 257.779 50.8795 257.033 52.7533 257.031H110.247C112.121 257.033 113.917 257.779 115.242 259.106C116.567 260.433 117.312 262.232 117.315 264.108V267.749C117.315 268.081 117.183 268.399 116.949 268.634C116.715 268.868 116.397 269 116.066 269ZM48.1746 266.507H114.826V264.108C114.826 262.891 114.343 261.724 113.485 260.863C112.627 260.002 111.462 259.517 110.247 259.515H52.7533C52.1513 259.515 51.5552 259.633 50.9992 259.864C50.4431 260.095 49.9379 260.434 49.5127 260.861C49.0874 261.287 48.7503 261.794 48.5207 262.351C48.2911 262.908 48.1735 263.505 48.1746 264.108V266.507Z" fill="#222222"/>
<path d="M97.6491 242.484H65.3516V258.273H97.6491V242.484Z" fill="#E6E7E8"/>
<path d="M97.6917 259.515H65.4111C65.2461 259.523 65.0812 259.498 64.926 259.441C64.7708 259.384 64.6285 259.297 64.5075 259.185C64.3864 259.072 64.289 258.936 64.221 258.786C64.153 258.635 64.1157 258.472 64.1114 258.307V242.484C64.1102 242.32 64.1415 242.157 64.2033 242.006C64.2651 241.854 64.3563 241.716 64.4716 241.6C64.5869 241.484 64.724 241.391 64.875 241.329C65.026 241.266 65.188 241.233 65.3516 241.233H97.6322C97.9619 241.235 98.2774 241.368 98.5097 241.602C98.7421 241.837 98.8725 242.153 98.8725 242.484V258.307C98.8642 258.62 98.7379 258.919 98.5189 259.143C98.2999 259.367 98.0044 259.5 97.6917 259.515ZM66.5919 257.031H96.4004V243.726H66.5919V257.031Z" fill="#222222"/>
<path d="M91.7455 231.484C91.7455 231.957 91.6526 232.424 91.472 232.861C91.2914 233.298 91.0268 233.694 90.6931 234.028C90.3594 234.363 89.9633 234.628 89.5273 234.809C89.0913 234.989 88.6241 235.082 88.1522 235.082H74.8577C74.3851 235.084 73.9169 234.991 73.48 234.811C73.043 234.631 72.6459 234.366 72.3113 234.031C71.9768 233.697 71.7113 233.3 71.5302 232.863C71.3491 232.426 71.2559 231.957 71.2559 231.484C71.2559 231.011 71.3491 230.542 71.5302 230.105C71.7113 229.668 71.9768 229.271 72.3113 228.936C72.6459 228.602 73.043 228.337 73.48 228.157C73.9169 227.977 74.3851 227.884 74.8577 227.886H88.1437C89.0967 227.886 90.0107 228.265 90.6846 228.939C91.3585 229.614 91.737 230.53 91.737 231.484H91.7455Z" fill="white"/>
<path d="M88.1437 236.333H74.8577C73.5735 236.333 72.3419 235.822 71.4338 234.913C70.5258 234.003 70.0156 232.77 70.0156 231.484C70.0156 230.198 70.5258 228.965 71.4338 228.055C72.3419 227.146 73.5735 226.635 74.8577 226.635H88.1437C89.4279 226.635 90.6595 227.146 91.5676 228.055C92.4757 228.965 92.9858 230.198 92.9858 231.484C92.9858 232.77 92.4757 234.003 91.5676 234.913C90.6595 235.822 89.4279 236.333 88.1437 236.333ZM74.8577 229.128C74.2336 229.128 73.6351 229.376 73.1938 229.818C72.7525 230.26 72.5046 230.859 72.5046 231.484C72.5046 232.109 72.7525 232.708 73.1938 233.15C73.6351 233.592 74.2336 233.84 74.8577 233.84H88.1437C88.7678 233.84 89.3663 233.592 89.8076 233.15C90.2489 232.708 90.4968 232.109 90.4968 231.484C90.4968 230.859 90.2489 230.26 89.8076 229.818C89.3663 229.376 88.7678 229.128 88.1437 229.128H74.8577Z" fill="#222222"/>
<path d="M132.096 181H86.1175C85.5559 181 85.0173 180.789 84.6202 180.414C84.2231 180.039 84 179.53 84 179C84 178.47 84.2231 177.961 84.6202 177.586C85.0173 177.211 85.5559 177 86.1175 177H132.096C132.615 177.041 133.099 177.264 133.451 177.626C133.804 177.988 134 178.461 134 178.953C134 179.445 133.804 179.919 133.451 180.281C133.099 180.643 132.615 180.866 132.096 180.907V181Z" fill="#222222"/>
<path d="M132.096 169H86.1175C85.5559 169 85.0173 168.789 84.6202 168.414C84.2231 168.039 84 167.53 84 167C84 166.47 84.2231 165.961 84.6202 165.586C85.0173 165.211 85.5559 165 86.1175 165H132.096C132.615 165.041 133.099 165.264 133.451 165.626C133.804 165.988 134 166.461 134 166.953C134 167.445 133.804 167.919 133.451 168.281C133.099 168.643 132.615 168.866 132.096 168.907V169Z" fill="#222222"/>
<path d="M132.088 193H85.9123C85.3911 192.958 84.9051 192.73 84.5509 192.359C84.1966 191.989 84 191.504 84 191C84 190.496 84.1966 190.011 84.5509 189.641C84.9051 189.27 85.3911 189.042 85.9123 189H132.088C132.609 189.042 133.095 189.27 133.449 189.641C133.803 190.011 134 190.496 134 191C134 191.504 133.803 191.989 133.449 192.359C133.095 192.73 132.609 192.958 132.088 193Z" fill="#222222"/>
<g clip-path="url(#clip2_6_421708)">
<path d="M51.0009 156.444C47.1332 156.444 43.3523 157.591 40.1364 159.74C36.9205 161.889 34.414 164.943 32.9339 168.516C31.4538 172.09 31.0665 176.022 31.8211 179.815C32.5756 183.608 34.4381 187.093 37.173 189.828C39.9079 192.563 43.3924 194.425 47.1858 195.18C50.9792 195.934 54.9112 195.547 58.4845 194.067C62.0578 192.587 65.1119 190.08 67.2607 186.864C69.4095 183.648 70.5564 179.868 70.5564 176C70.5564 170.813 68.4961 165.839 64.8287 162.172C61.1614 158.505 56.1873 156.444 51.0009 156.444ZM60.7787 183.455C61.1028 183.78 61.2849 184.219 61.2849 184.678C61.2849 185.136 61.1028 185.576 60.7787 185.9C60.4545 186.224 60.0149 186.406 59.5564 186.406C59.098 186.406 58.6584 186.224 58.3342 185.9L51.0009 178.567L43.6675 185.924C43.507 186.085 43.3165 186.212 43.1068 186.299C42.8971 186.386 42.6723 186.431 42.4453 186.431C42.2183 186.431 41.9936 186.386 41.7839 186.299C41.5742 186.212 41.3836 186.085 41.2231 185.924C41.0626 185.764 40.9353 185.573 40.8484 185.364C40.7615 185.154 40.7168 184.929 40.7168 184.702C40.7168 184.475 40.7615 184.25 40.8484 184.041C40.9353 183.831 41.0626 183.64 41.2231 183.48L48.5564 176.098L41.0153 168.495C40.6912 168.171 40.5091 167.732 40.5091 167.273C40.5091 166.815 40.6912 166.375 41.0153 166.051C41.3395 165.727 41.7791 165.545 42.2375 165.545C42.696 165.545 43.1356 165.727 43.4598 166.051L51.0009 173.678L58.542 166.137C58.7025 165.976 58.893 165.849 59.1028 165.762C59.3125 165.675 59.5372 165.63 59.7642 165.63C59.9912 165.63 60.216 165.675 60.4257 165.762C60.6354 165.849 60.8259 165.976 60.9864 166.137C61.1469 166.297 61.2743 166.488 61.3611 166.697C61.448 166.907 61.4927 167.132 61.4927 167.359C61.4927 167.586 61.448 167.811 61.3611 168.02C61.2743 168.23 61.1469 168.42 60.9864 168.581L53.4453 176.098L60.7787 183.455Z" fill="#222222"/>
</g>
</g>
<g clip-path="url(#clip3_6_421708)">
<path d="M328.204 153.722H211.796C207.61 153.717 203.596 152.051 200.635 149.089C197.673 146.127 196.007 142.11 196 137.92V125.802C196.007 121.611 197.673 117.595 200.635 114.633C203.596 111.67 207.61 110.004 211.796 110H328.204C332.39 110.004 336.404 111.67 339.365 114.633C342.327 117.595 343.993 121.611 344 125.802V137.92C343.993 142.11 342.327 146.127 339.365 149.089C336.404 152.051 332.39 153.717 328.204 153.722ZM211.796 112.486C208.268 112.489 204.885 113.892 202.389 116.388C199.893 118.885 198.489 122.27 198.484 125.802V137.92C198.489 141.452 199.893 144.839 202.388 147.336C204.884 149.834 208.267 151.239 211.796 151.244H328.204C331.733 151.239 335.116 149.834 337.612 147.336C340.107 144.839 341.511 141.452 341.516 137.92V125.802C341.511 122.27 340.107 118.885 337.611 116.388C335.115 113.892 331.732 112.489 328.204 112.486H211.796Z" fill="#222222"/>
<path d="M220.055 131.971C220.055 132.901 219.779 133.81 219.263 134.583C218.747 135.356 218.013 135.959 217.155 136.315C216.297 136.671 215.352 136.764 214.441 136.582C213.53 136.401 212.693 135.953 212.036 135.296C211.379 134.638 210.932 133.8 210.75 132.888C210.569 131.976 210.662 131.031 211.018 130.172C211.373 129.313 211.975 128.579 212.748 128.062C213.52 127.546 214.428 127.27 215.357 127.27C216.603 127.272 217.796 127.768 218.677 128.649C219.557 129.53 220.053 130.725 220.055 131.971Z" fill="#E6E7E8"/>
<path d="M215.357 137.92C214.183 137.92 213.036 137.572 212.06 136.919C211.084 136.266 210.323 135.338 209.874 134.253C209.424 133.167 209.307 131.973 209.536 130.821C209.765 129.668 210.33 128.61 211.16 127.779C211.99 126.948 213.048 126.382 214.199 126.153C215.351 125.924 216.544 126.042 217.628 126.491C218.713 126.941 219.64 127.702 220.292 128.679C220.944 129.656 221.292 130.805 221.292 131.979C221.292 133.555 220.667 135.066 219.554 136.18C218.441 137.294 216.931 137.92 215.357 137.92ZM215.357 128.509C214.673 128.509 214.004 128.712 213.435 129.092C212.866 129.473 212.423 130.013 212.161 130.646C211.899 131.279 211.831 131.975 211.964 132.646C212.098 133.318 212.427 133.935 212.911 134.419C213.395 134.904 214.011 135.233 214.682 135.367C215.353 135.501 216.049 135.432 216.681 135.17C217.313 134.908 217.853 134.464 218.234 133.895C218.614 133.325 218.817 132.656 218.817 131.971C218.817 131.053 218.452 130.172 217.803 129.523C217.155 128.873 216.275 128.509 215.357 128.509Z" fill="#222222"/>
<path d="M236.835 131.971C236.837 132.903 236.563 133.815 236.047 134.59C235.53 135.366 234.796 135.971 233.936 136.329C233.077 136.686 232.13 136.781 231.217 136.6C230.303 136.419 229.464 135.971 228.805 135.313C228.146 134.655 227.697 133.816 227.515 132.902C227.333 131.988 227.425 131.04 227.781 130.179C228.137 129.318 228.74 128.582 229.514 128.064C230.288 127.546 231.199 127.27 232.13 127.27C233.376 127.27 234.572 127.765 235.454 128.646C236.336 129.528 236.833 130.724 236.835 131.971Z" fill="#E6E7E8"/>
<path d="M232.129 137.92C230.955 137.92 229.807 137.572 228.831 136.919C227.855 136.266 227.094 135.338 226.645 134.253C226.196 133.167 226.078 131.973 226.307 130.821C226.536 129.668 227.102 128.61 227.932 127.779C228.762 126.948 229.819 126.382 230.971 126.153C232.122 125.924 233.315 126.042 234.4 126.491C235.484 126.941 236.411 127.702 237.064 128.679C237.716 129.656 238.064 130.805 238.064 131.979C238.064 133.555 237.439 135.066 236.325 136.18C235.212 137.294 233.703 137.92 232.129 137.92ZM232.129 128.509C231.445 128.51 230.777 128.715 230.209 129.096C229.641 129.478 229.199 130.019 228.939 130.652C228.678 131.285 228.611 131.981 228.745 132.652C228.88 133.323 229.21 133.939 229.694 134.422C230.178 134.906 230.794 135.235 231.465 135.368C232.136 135.5 232.831 135.431 233.463 135.169C234.095 134.907 234.634 134.463 235.014 133.894C235.394 133.325 235.597 132.655 235.597 131.971C235.597 131.516 235.507 131.065 235.332 130.644C235.158 130.223 234.902 129.841 234.58 129.52C234.258 129.198 233.876 128.943 233.455 128.77C233.034 128.596 232.584 128.507 232.129 128.509Z" fill="#222222"/>
<path d="M329.347 133.21H246.474C246.146 133.21 245.831 133.08 245.599 132.847C245.367 132.615 245.236 132.3 245.236 131.971C245.236 131.643 245.367 131.327 245.599 131.095C245.831 130.863 246.146 130.732 246.474 130.732H329.347C329.676 130.732 329.991 130.863 330.223 131.095C330.455 131.327 330.585 131.643 330.585 131.971C330.585 132.3 330.455 132.615 330.223 132.847C329.991 133.08 329.676 133.21 329.347 133.21Z" fill="#222222"/>
<path d="M328.204 211.361H211.796C207.608 211.356 203.593 209.689 200.632 206.725C197.67 203.761 196.004 199.742 196 195.551V183.441C196.007 179.25 197.673 175.234 200.635 172.272C203.596 169.31 207.61 167.644 211.796 167.639H328.204C332.39 167.644 336.404 169.31 339.365 172.272C342.327 175.234 343.993 179.25 344 183.441V195.551C343.996 199.742 342.33 203.761 339.368 206.725C336.407 209.689 332.392 211.356 328.204 211.361ZM211.796 170.126C208.268 170.128 204.885 171.531 202.389 174.028C199.893 176.524 198.489 179.909 198.484 183.441V195.551C198.487 199.084 199.89 202.471 202.386 204.969C204.882 207.468 208.266 208.872 211.796 208.874H328.204C331.734 208.872 335.118 207.468 337.614 204.969C340.11 202.471 341.513 199.084 341.516 195.551V183.441C341.511 179.909 340.107 176.524 337.611 174.028C335.115 171.531 331.732 170.128 328.204 170.126H211.796Z" fill="#222222"/>
<path d="M220.055 189.61C220.053 190.54 219.776 191.448 219.259 192.22C218.742 192.992 218.008 193.593 217.149 193.948C216.291 194.302 215.347 194.394 214.436 194.212C213.525 194.03 212.689 193.581 212.033 192.923C211.377 192.265 210.93 191.428 210.75 190.516C210.569 189.604 210.663 188.659 211.019 187.801C211.374 186.942 211.976 186.208 212.749 185.692C213.521 185.176 214.429 184.9 215.357 184.9C215.975 184.9 216.587 185.022 217.157 185.259C217.728 185.496 218.246 185.843 218.682 186.28C219.118 186.718 219.464 187.237 219.7 187.809C219.935 188.38 220.056 188.992 220.055 189.61Z" fill="#222222"/>
<path d="M215.357 195.559C214.183 195.559 213.036 195.211 212.06 194.558C211.084 193.905 210.323 192.978 209.874 191.892C209.424 190.807 209.307 189.612 209.536 188.46C209.765 187.308 210.33 186.249 211.16 185.418C211.99 184.588 213.048 184.022 214.199 183.793C215.351 183.563 216.544 183.681 217.628 184.131C218.713 184.58 219.64 185.342 220.292 186.319C220.944 187.295 221.292 188.444 221.292 189.619C221.292 191.194 220.667 192.705 219.554 193.819C218.441 194.933 216.931 195.559 215.357 195.559ZM215.357 186.14C214.671 186.138 214 186.34 213.428 186.72C212.857 187.101 212.411 187.642 212.147 188.276C211.883 188.91 211.814 189.608 211.946 190.282C212.079 190.956 212.409 191.575 212.893 192.062C213.378 192.548 213.996 192.879 214.669 193.014C215.342 193.149 216.04 193.08 216.674 192.818C217.308 192.555 217.85 192.111 218.232 191.54C218.613 190.969 218.817 190.297 218.817 189.61C218.817 188.691 218.452 187.81 217.804 187.159C217.155 186.508 216.275 186.142 215.357 186.14Z" fill="#222222"/>
<path d="M236.835 189.61C236.835 190.542 236.559 191.452 236.042 192.227C235.525 193.002 234.79 193.605 233.93 193.962C233.071 194.318 232.124 194.411 231.212 194.23C230.299 194.048 229.46 193.599 228.802 192.941C228.144 192.282 227.696 191.443 227.514 190.529C227.333 189.616 227.426 188.669 227.782 187.808C228.138 186.947 228.741 186.212 229.515 185.694C230.289 185.177 231.199 184.9 232.13 184.9C232.748 184.899 233.36 185.02 233.932 185.257C234.503 185.493 235.022 185.84 235.46 186.277C235.897 186.715 236.243 187.235 236.48 187.807C236.716 188.379 236.837 188.991 236.835 189.61Z" fill="#E6E7E8"/>
<path d="M232.129 195.559C230.955 195.559 229.807 195.211 228.831 194.558C227.855 193.905 227.094 192.978 226.645 191.892C226.196 190.807 226.078 189.612 226.307 188.46C226.536 187.308 227.102 186.249 227.932 185.418C228.762 184.588 229.819 184.022 230.971 183.793C232.122 183.563 233.315 183.681 234.4 184.131C235.484 184.58 236.411 185.342 237.064 186.319C237.716 187.295 238.064 188.444 238.064 189.619C238.064 191.194 237.439 192.705 236.325 193.819C235.212 194.933 233.703 195.559 232.129 195.559ZM232.129 186.14C231.443 186.14 230.772 186.343 230.202 186.724C229.632 187.106 229.187 187.648 228.925 188.282C228.662 188.916 228.594 189.614 228.727 190.288C228.861 190.961 229.191 191.579 229.676 192.065C230.161 192.55 230.779 192.881 231.452 193.015C232.125 193.149 232.822 193.08 233.456 192.817C234.089 192.554 234.631 192.11 235.012 191.539C235.393 190.968 235.597 190.297 235.597 189.61C235.597 188.69 235.231 187.807 234.581 187.156C233.93 186.505 233.048 186.14 232.129 186.14Z" fill="#222222"/>
<path d="M329.349 190.849H246.476C246.164 190.823 245.873 190.681 245.661 190.451C245.45 190.221 245.332 189.919 245.332 189.606C245.332 189.293 245.45 188.991 245.661 188.761C245.873 188.531 246.164 188.389 246.476 188.363H329.349C329.661 188.389 329.951 188.531 330.163 188.761C330.375 188.991 330.493 189.293 330.493 189.606C330.493 189.919 330.375 190.221 330.163 190.451C329.951 190.681 329.661 190.823 329.349 190.849Z" fill="#222222"/>
<path d="M328.204 269H211.796C207.608 268.996 203.593 267.328 200.632 264.364C197.67 261.401 196.004 257.382 196 253.19V241.08C196.004 236.888 197.67 232.87 200.632 229.906C203.593 226.942 207.608 225.275 211.796 225.27H328.204C332.392 225.275 336.407 226.942 339.368 229.906C342.33 232.87 343.996 236.888 344 241.08V253.19C343.996 257.382 342.33 261.401 339.368 264.364C336.407 267.328 332.392 268.996 328.204 269ZM211.796 227.757C208.266 227.759 204.882 229.163 202.386 231.661C199.89 234.16 198.487 237.547 198.484 241.08V253.19C198.487 256.723 199.89 260.111 202.386 262.609C204.882 265.107 208.266 266.511 211.796 266.514H328.204C331.734 266.511 335.118 265.107 337.614 262.609C340.11 260.111 341.513 256.723 341.516 253.19V241.08C341.513 237.547 340.11 234.16 337.614 231.661C335.118 229.163 331.734 227.759 328.204 227.757H211.796Z" fill="#222222"/>
<path d="M220.055 247.241C220.055 248.171 219.779 249.08 219.263 249.853C218.747 250.626 218.013 251.229 217.155 251.585C216.297 251.94 215.352 252.033 214.441 251.852C213.53 251.671 212.693 251.223 212.036 250.565C211.379 249.908 210.932 249.07 210.75 248.158C210.569 247.246 210.662 246.301 211.018 245.442C211.373 244.583 211.975 243.848 212.748 243.332C213.52 242.815 214.428 242.54 215.357 242.54C216.603 242.54 217.798 243.035 218.679 243.917C219.56 244.798 220.055 245.994 220.055 247.241Z" fill="#E6E7E8"/>
<path d="M215.357 253.19C214.183 253.19 213.036 252.842 212.06 252.189C211.084 251.536 210.323 250.608 209.874 249.523C209.424 248.437 209.307 247.243 209.536 246.091C209.765 244.938 210.33 243.88 211.16 243.049C211.99 242.218 213.048 241.652 214.199 241.423C215.351 241.194 216.544 241.312 217.628 241.761C218.713 242.211 219.64 242.972 220.292 243.949C220.944 244.926 221.292 246.075 221.292 247.25C221.292 248.825 220.667 250.336 219.554 251.45C218.441 252.564 216.931 253.19 215.357 253.19ZM215.357 243.779C214.671 243.777 213.999 243.979 213.427 244.36C212.856 244.741 212.41 245.283 212.146 245.917C211.883 246.552 211.813 247.25 211.947 247.925C212.081 248.599 212.411 249.218 212.897 249.704C213.382 250.19 214.001 250.52 214.674 250.654C215.348 250.788 216.046 250.718 216.68 250.455C217.314 250.191 217.855 249.745 218.236 249.173C218.616 248.6 218.818 247.928 218.817 247.241C218.817 246.323 218.452 245.442 217.803 244.793C217.155 244.143 216.275 243.779 215.357 243.779Z" fill="#222222"/>
<path d="M236.835 247.241C236.837 248.173 236.563 249.084 236.047 249.86C235.53 250.636 234.796 251.241 233.936 251.598C233.077 251.956 232.13 252.051 231.217 251.87C230.303 251.689 229.464 251.241 228.805 250.583C228.146 249.925 227.697 249.085 227.515 248.171C227.333 247.258 227.425 246.31 227.781 245.449C228.137 244.588 228.74 243.852 229.514 243.334C230.288 242.816 231.199 242.54 232.13 242.54C232.747 242.538 233.359 242.659 233.93 242.895C234.501 243.131 235.02 243.477 235.457 243.914C235.894 244.35 236.24 244.869 236.477 245.44C236.714 246.011 236.835 246.623 236.835 247.241Z" fill="#E6E7E8"/>
<path d="M232.129 253.19C230.955 253.19 229.807 252.842 228.831 252.189C227.855 251.536 227.094 250.608 226.645 249.523C226.196 248.437 226.078 247.243 226.307 246.091C226.536 244.938 227.102 243.88 227.932 243.049C228.762 242.218 229.819 241.652 230.971 241.423C232.122 241.194 233.315 241.312 234.4 241.761C235.484 242.211 236.411 242.972 237.064 243.949C237.716 244.926 238.064 246.075 238.064 247.25C238.064 248.825 237.439 250.336 236.325 251.45C235.212 252.564 233.703 253.19 232.129 253.19ZM232.129 243.779C231.442 243.779 230.772 243.982 230.201 244.364C229.631 244.746 229.186 245.289 228.924 245.923C228.662 246.558 228.594 247.256 228.728 247.93C228.863 248.603 229.194 249.222 229.679 249.707C230.165 250.192 230.784 250.522 231.457 250.655C232.131 250.788 232.828 250.718 233.462 250.454C234.095 250.19 234.636 249.744 235.016 249.172C235.396 248.6 235.598 247.928 235.597 247.241C235.597 246.786 235.507 246.335 235.332 245.914C235.158 245.493 234.902 245.111 234.58 244.79C234.258 244.468 233.876 244.213 233.455 244.04C233.034 243.866 232.584 243.777 232.129 243.779Z" fill="#222222"/>
<path d="M329.349 248.488H246.476C246.164 248.463 245.873 248.321 245.661 248.09C245.45 247.86 245.332 247.558 245.332 247.245C245.332 246.932 245.45 246.631 245.661 246.4C245.873 246.17 246.164 246.028 246.476 246.002H329.349C329.661 246.028 329.951 246.17 330.163 246.4C330.375 246.631 330.493 246.932 330.493 247.245C330.493 247.558 330.375 247.86 330.163 248.09C329.951 248.321 329.661 248.463 329.349 248.488Z" fill="#222222"/>
<path d="M324.905 152.483H215.094V168.878H324.905V152.483Z" fill="#E6E7E8"/>
<path d="M324.879 170.126H215.094C214.763 170.126 214.446 169.994 214.213 169.76C213.979 169.526 213.848 169.209 213.848 168.878V152.483C213.848 152.319 213.88 152.157 213.943 152.007C214.005 151.856 214.097 151.719 214.213 151.604C214.329 151.488 214.467 151.397 214.618 151.336C214.769 151.274 214.931 151.243 215.094 151.244H324.879C325.208 151.244 325.523 151.374 325.755 151.607C325.987 151.839 326.117 152.154 326.117 152.483V168.878C326.118 169.042 326.087 169.204 326.026 169.355C325.964 169.506 325.873 169.644 325.758 169.76C325.643 169.876 325.506 169.968 325.355 170.031C325.204 170.093 325.043 170.126 324.879 170.126ZM216.349 167.639H323.667V153.722H216.349V167.639Z" fill="#222222"/>
<path d="M324.905 210.122H215.094V226.517H324.905V210.122Z" fill="#E6E7E8"/>
<path d="M324.879 227.756H215.094C214.931 227.758 214.769 227.726 214.618 227.665C214.467 227.603 214.329 227.512 214.213 227.397C214.097 227.281 214.005 227.144 213.943 226.994C213.88 226.843 213.848 226.681 213.848 226.517V210.139C213.848 209.808 213.979 209.491 214.213 209.257C214.446 209.023 214.763 208.891 215.094 208.891H324.879C325.043 208.891 325.204 208.924 325.355 208.986C325.506 209.049 325.643 209.141 325.758 209.257C325.873 209.373 325.964 209.511 326.026 209.662C326.087 209.813 326.118 209.975 326.117 210.139V226.517C326.117 226.846 325.987 227.161 325.755 227.394C325.523 227.626 325.208 227.756 324.879 227.756ZM216.349 225.27H323.667V211.361H216.349V225.27Z" fill="#222222"/>
</g>
</g>
<defs>
<clipPath id="clip0_6_421708">
<rect width="344" height="269" fill="white"/>
</clipPath>
<clipPath id="clip1_6_421708">
<rect width="163" height="140" fill="white" transform="translate(0 129)"/>
</clipPath>
<clipPath id="clip2_6_421708">
<rect width="44" height="44" fill="white" transform="translate(29 154)"/>
</clipPath>
<clipPath id="clip3_6_421708">
<rect width="148" height="159" fill="white" transform="translate(196 110)"/>
</clipPath>
</defs>
</svg>
