<svg width="1440" height="256" viewBox="0 0 1440 256" fill="none" xmlns="http://www.w3.org/2000/svg">
<g opacity="0.8" clip-path="url(#clip0_6_9714)">
<g opacity="0.35">
<path d="M172.293 106.004V163.899H144.142C144.237 147.686 144.36 131.676 144.454 121.769H143.546C143.437 134.095 143.301 149.248 143.234 163.899H107.31V145.864H73.8009V109.456H129.938V41.627C130.666 41.435 131.293 40.9751 131.697 40.3394C132.1 39.7036 132.249 38.9388 132.113 38.1979C131.978 37.457 131.569 36.7945 130.967 36.3429C130.365 35.8914 129.615 35.684 128.867 35.7623C128.12 35.8406 127.429 36.1987 126.933 36.7651C126.438 37.3315 126.174 38.0645 126.194 38.8174C126.215 39.5704 126.518 40.2878 127.044 40.8263C127.569 41.3649 128.279 41.6848 129.03 41.7221V108.546H72.9056V145.864H39.4238V219.578H40.3328V146.775H72.892V256H73.7874V146.775H106.347V164.796H143.166C143.016 193.05 143.03 219.306 143.613 219.891L143.939 220.027V219.578L144.346 219.388C143.925 218.029 143.953 191.283 144.088 164.796H173.134V106.004H172.293ZM127.103 38.7051C127.095 38.2868 127.211 37.8756 127.438 37.5239C127.664 37.1722 127.989 36.8958 128.373 36.7301C128.756 36.5644 129.18 36.5169 129.591 36.5935C130.001 36.6701 130.38 36.8674 130.678 37.1603C130.976 37.4532 131.18 37.8285 131.265 38.2382C131.349 38.6478 131.31 39.0735 131.152 39.4608C130.994 39.848 130.725 40.1795 130.378 40.4128C130.032 40.6461 129.624 40.7707 129.206 40.7708C128.656 40.7675 128.129 40.55 127.737 40.1645C127.345 39.7789 127.117 39.2556 127.103 38.7051Z" fill="#BCBCBC"/>
<path d="M91.9256 19.6516H160.775C160.89 21.0099 161.525 22.2711 162.547 23.1717C163.568 24.0723 164.898 24.5429 166.257 24.485C167.617 24.4271 168.901 23.8453 169.843 22.8611C170.785 21.8769 171.31 20.5664 171.31 19.2031C171.31 17.8399 170.785 16.5293 169.843 15.5451C168.901 14.5609 167.617 13.9792 166.257 13.9213C164.898 13.8634 163.568 14.3339 162.547 15.2345C161.525 16.1352 160.89 17.3963 160.775 18.7546H91.0166V57.7587H0V58.6693H91.9256V19.6516ZM166.039 14.8135C166.905 14.8135 167.752 15.0709 168.473 15.5533C169.194 16.0356 169.755 16.7212 170.087 17.5233C170.419 18.3254 170.505 19.208 170.336 20.0595C170.167 20.911 169.75 21.6932 169.137 22.3071C168.524 22.921 167.743 23.3391 166.893 23.5084C166.043 23.6778 165.162 23.5909 164.362 23.2586C163.561 22.9264 162.877 22.3638 162.395 21.6419C161.914 20.92 161.657 20.0713 161.657 19.2031C161.657 18.0389 162.118 16.9224 162.94 16.0992C163.762 15.2759 164.876 14.8135 166.039 14.8135Z" fill="#BCBCBC"/>
<path d="M64.3045 94.5068V94.0583H10.8666V94.9553H64.3045V94.5068Z" fill="#BCBCBC"/>
<path d="M386.641 51.4121H394.944H386.641ZM232.934 64.119H235.647H232.934ZM426.417 51.4121H419.295H426.417ZM322.391 87.6981H316.964H322.391ZM433.798 109.932V87.4671C434.491 87.1791 435.053 86.6432 435.374 85.9634C435.695 85.2837 435.752 84.5087 435.534 83.789C435.317 83.0693 434.84 82.4564 434.196 82.0693C433.553 81.6822 432.789 81.5486 432.052 81.6944C431.316 81.8402 430.66 82.255 430.212 82.8583C429.764 83.4616 429.556 84.2102 429.628 84.9587C429.7 85.7072 430.047 86.402 430.602 86.9083C431.157 87.4146 431.88 87.6961 432.631 87.6981H432.902V109.035H392.067V127.626H319.515V88.6086H357.121V108.994C355.762 109.111 354.501 109.75 353.6 110.776C352.7 111.803 352.23 113.138 352.289 114.503C352.348 115.868 352.93 117.157 353.915 118.102C354.9 119.047 356.211 119.575 357.575 119.575C358.939 119.575 360.25 119.047 361.235 118.102C362.22 117.157 362.802 115.868 362.861 114.503C362.92 113.138 362.45 111.803 361.55 110.776C360.649 109.75 359.388 109.111 358.03 108.994V88.6086H389.598V52.3226H422.863V51.4121H357.121V87.6981H307.21V148.229H265.819V105.569H234.114V65.0159H265.819V39.1944H300.576C300.691 39.95 301.086 40.6343 301.683 41.1103C302.28 41.5862 303.034 41.8187 303.795 41.7612C304.556 41.7036 305.267 41.3602 305.785 40.7998C306.304 40.2394 306.592 39.5034 306.592 38.7391C306.592 37.9749 306.304 37.2388 305.785 36.6784C305.267 36.118 304.556 35.7747 303.795 35.7171C303.034 35.6595 302.28 35.892 301.683 36.368C301.086 36.844 300.691 37.5283 300.576 38.2839H264.91V64.1054H198.34V65.0023H233.206V106.48H264.91V148.229H241.359V219.578H242.268V149.14H264.91V199.777H265.819V149.14H308.119V88.6086H318.619V128.537H392.067V154.834H399.556V219.578H400.465V154.834H432.902C433.065 174.513 433.201 203.759 432.902 205.118L433.798 205.322C434.218 203.474 433.798 156.397 433.798 154.413V153.964H400.506V127.626H393.017V109.959L433.798 109.932ZM432.631 86.8283C432.215 86.8283 431.808 86.7048 431.463 86.4733C431.117 86.2418 430.847 85.9129 430.688 85.5279C430.529 85.143 430.487 84.7195 430.568 84.3109C430.65 83.9022 430.85 83.5269 431.144 83.2323C431.438 82.9377 431.813 82.7371 432.221 82.6558C432.629 82.5745 433.051 82.6162 433.436 82.7757C433.82 82.9351 434.148 83.2051 434.379 83.5515C434.61 83.8979 434.734 84.3052 434.734 84.7218C434.723 85.2664 434.503 85.7858 434.118 86.171C433.734 86.5561 433.215 86.7771 432.672 86.7875L432.631 86.8283ZM358.016 52.3634H388.676V87.6981H358.016V52.3634ZM357.568 109.973C358.436 109.973 359.283 110.23 360.004 110.713C360.725 111.196 361.287 111.883 361.618 112.686C361.949 113.488 362.035 114.372 361.865 115.224C361.695 116.075 361.276 116.858 360.662 117.471C360.048 118.084 359.266 118.501 358.415 118.669C357.564 118.837 356.682 118.748 355.882 118.414C355.081 118.079 354.398 117.515 353.918 116.791C353.438 116.067 353.184 115.217 353.186 114.349C353.183 113.769 353.294 113.194 353.513 112.657C353.733 112.121 354.056 111.633 354.465 111.222C354.874 110.812 355.359 110.486 355.894 110.265C356.429 110.043 357.003 109.93 357.582 109.932L357.568 109.973ZM303.533 36.5851C303.953 36.5824 304.364 36.7048 304.714 36.9367C305.064 37.1686 305.338 37.4996 305.5 37.8875C305.662 38.2755 305.705 38.7029 305.623 39.1154C305.542 39.5279 305.34 39.9069 305.043 40.2042C304.747 40.5016 304.368 40.7037 303.957 40.7851C303.545 40.8665 303.118 40.8234 302.731 40.6612C302.344 40.4991 302.013 40.2252 301.782 39.8745C301.55 39.5238 301.428 39.112 301.431 38.6916C301.432 38.4149 301.489 38.1414 301.596 37.8865C301.703 37.6316 301.86 37.4004 302.056 37.206C302.253 37.0117 302.485 36.858 302.741 36.7538C302.997 36.6496 303.271 36.5969 303.547 36.5987L303.533 36.5851ZM399.583 128.523V153.924H393.017V128.537L399.583 128.523ZM318.321 87.7525H320.166H318.321Z" fill="#BCBCBC"/>
<path d="M504.899 41.3689H504.003V77.7229H471.444V108.981H448.558C448.535 107.712 448.025 106.501 447.133 105.599C446.242 104.698 445.039 104.175 443.773 104.139C442.506 104.103 441.275 104.558 440.335 105.408C439.395 106.258 438.817 107.438 438.723 108.703C438.629 109.968 439.025 111.221 439.829 112.202C440.633 113.182 441.783 113.815 443.04 113.968C444.298 114.12 445.566 113.782 446.58 113.023C447.595 112.264 448.279 111.142 448.49 109.891H472.299V78.6334H504.858L504.899 41.3689ZM443.62 113.139C442.815 113.139 442.028 112.9 441.358 112.452C440.689 112.004 440.168 111.367 439.86 110.622C439.551 109.877 439.471 109.058 439.628 108.267C439.785 107.476 440.173 106.749 440.742 106.179C441.311 105.609 442.036 105.221 442.826 105.063C443.615 104.906 444.433 104.987 445.177 105.295C445.921 105.604 446.556 106.126 447.004 106.797C447.451 107.467 447.69 108.256 447.69 109.062C447.69 110.143 447.261 111.18 446.497 111.945C445.734 112.71 444.699 113.139 443.62 113.139Z" fill="#BCBCBC"/>
<path d="M453.279 74.964H409.649V75.426V75.8745H454.188V51.6431H453.74H453.279V74.964Z" fill="#BCBCBC"/>
<path d="M539.317 165.502H518.967C518.75 153.027 518.465 142.725 518.438 141.665V141.23H476.708V128.999H475.799V142.154H517.597C517.597 144.302 517.909 153.978 518.112 165.516H488.606V205.213H489.515V166.413H518.126C518.465 185.439 518.642 209.182 517.61 212.307L518.465 212.593C519.55 209.331 519.374 185.562 519.035 166.386H540.226V123.019H539.317V165.502Z" fill="#BCBCBC"/>
<path d="M577.357 109.932H640.752V10.5598C642.111 10.4425 643.372 9.804 644.272 8.77765C645.173 7.7513 645.642 6.41636 645.584 5.05136C645.525 3.68637 644.943 2.39678 643.958 1.45169C642.973 0.506595 641.662 -0.0209961 640.298 -0.0209961C638.934 -0.0209961 637.623 0.506595 636.638 1.45169C635.653 2.39678 635.07 3.68637 635.012 5.05136C634.953 6.41636 635.423 7.7513 636.323 8.77765C637.223 9.804 638.484 10.4425 639.843 10.5598V109.021H576.448V148.229H564.672V78.6335H526.686V19.2304C527.618 19.1145 528.471 18.647 529.071 17.923C529.671 17.199 529.973 16.2731 529.915 15.3339C529.857 14.3948 529.444 13.5132 528.759 12.8687C528.075 12.2243 527.171 11.8655 526.232 11.8655C525.293 11.8655 524.389 12.2243 523.704 12.8687C523.02 13.5132 522.607 14.3948 522.549 15.3339C522.491 16.2731 522.793 17.199 523.393 17.923C523.992 18.647 524.845 19.1145 525.777 19.2304V79.5305H563.763V149.14H576.434V205.213H577.343V149.14H599.985V171.564H590.489V172.474H599.985V205.213H600.894V148.229H577.357V109.932ZM635.923 5.2868C635.923 4.41977 636.179 3.57216 636.659 2.85089C637.14 2.12961 637.822 1.56698 638.621 1.23395C639.421 0.900925 640.3 0.812422 641.149 0.979607C641.999 1.14679 642.78 1.56217 643.393 2.17336C644.007 2.78455 644.427 3.56417 644.599 4.41388C644.771 5.26359 644.688 6.14534 644.361 6.9479C644.033 7.75047 643.476 8.4379 642.759 8.92349C642.042 9.40909 641.197 9.67109 640.332 9.67646C639.754 9.68004 639.181 9.56915 638.646 9.35015C638.112 9.13116 637.625 8.80838 637.216 8.40041C636.806 7.99243 636.481 7.50731 636.259 6.97295C636.037 6.4386 635.923 5.86555 635.923 5.2868Z" fill="#BCBCBC"/>
<path d="M549.288 175.709H548.379V199.75H549.288V175.709Z" fill="#BCBCBC"/>
<path d="M246.636 128.306C247.661 128.307 248.665 128.01 249.524 127.45C250.383 126.89 251.06 126.091 251.473 125.151C251.887 124.212 252.018 123.172 251.851 122.159C251.684 121.145 251.227 120.203 250.534 119.446C249.841 118.689 248.943 118.151 247.95 117.897C246.957 117.643 245.911 117.684 244.941 118.016C243.971 118.347 243.118 118.954 242.487 119.763C241.855 120.572 241.473 121.548 241.386 122.571H222.393V141.23H204.228V94.0584H161.657V52.5945C163.015 52.4771 164.277 51.8387 165.177 50.8123C166.077 49.786 166.547 48.451 166.488 47.086C166.429 45.721 165.847 44.4315 164.862 43.4864C163.877 42.5413 162.566 42.0137 161.202 42.0137C159.838 42.0137 158.527 42.5413 157.542 43.4864C156.557 44.4315 155.975 45.721 155.916 47.086C155.858 48.451 156.327 49.786 157.228 50.8123C158.128 51.8387 159.389 52.4771 160.748 52.5945V94.9554H203.319V141.23H182.495V142.141H203.319V212.443H204.228V142.141H223.221V123.468H241.359C241.471 124.791 242.077 126.023 243.054 126.919C244.032 127.816 245.311 128.311 246.636 128.306ZM156.827 47.3215C156.827 46.4533 157.084 45.6046 157.565 44.8827C158.047 44.1608 158.731 43.5982 159.532 43.266C160.333 42.9337 161.214 42.8468 162.064 43.0162C162.914 43.1855 163.695 43.6036 164.307 44.2175C164.92 44.8314 165.338 45.6136 165.507 46.4651C165.676 47.3166 165.589 48.1992 165.257 49.0013C164.926 49.8034 164.364 50.489 163.643 50.9713C162.923 51.4537 162.076 51.7111 161.209 51.7111C160.047 51.7111 158.932 51.2486 158.11 50.4254C157.289 49.6022 156.827 48.4857 156.827 47.3215ZM246.636 118.63C247.503 118.627 248.352 118.882 249.074 119.363C249.797 119.844 250.361 120.528 250.694 121.33C251.028 122.132 251.117 123.015 250.949 123.867C250.782 124.72 250.365 125.503 249.753 126.118C249.141 126.734 248.36 127.153 247.51 127.324C246.659 127.494 245.778 127.408 244.976 127.076C244.175 126.744 243.489 126.182 243.007 125.459C242.525 124.737 242.268 123.888 242.268 123.019C242.268 121.857 242.728 120.743 243.546 119.92C244.365 119.097 245.476 118.633 246.636 118.63Z" fill="#BCBCBC"/>
<path d="M246.636 125.479C247.122 125.482 247.599 125.34 248.004 125.071C248.41 124.803 248.727 124.419 248.914 123.97C249.102 123.521 249.153 123.026 249.06 122.548C248.967 122.07 248.734 121.63 248.391 121.285C248.048 120.939 247.611 120.704 247.134 120.608C246.657 120.512 246.163 120.56 245.713 120.746C245.264 120.931 244.879 121.247 244.609 121.651C244.339 122.056 244.194 122.532 244.194 123.019C244.194 123.669 244.451 124.293 244.909 124.754C245.366 125.215 245.987 125.476 246.636 125.479ZM246.636 121.402C246.942 121.402 247.241 121.493 247.495 121.663C247.75 121.833 247.948 122.075 248.065 122.359C248.182 122.642 248.213 122.953 248.153 123.254C248.093 123.554 247.946 123.83 247.73 124.047C247.514 124.264 247.238 124.411 246.938 124.471C246.638 124.531 246.327 124.5 246.044 124.383C245.762 124.266 245.52 124.067 245.35 123.812C245.18 123.557 245.09 123.258 245.09 122.951C245.107 122.552 245.278 122.176 245.566 121.9C245.854 121.624 246.238 121.47 246.636 121.47V121.402Z" fill="#BCBCBC"/>
<path d="M166.039 21.6631C166.524 21.6631 166.999 21.5188 167.403 21.2485C167.807 20.9782 168.121 20.5941 168.307 20.1446C168.493 19.6951 168.542 19.2005 168.447 18.7234C168.352 18.2462 168.118 17.8079 167.775 17.4639C167.431 17.1199 166.994 16.8856 166.518 16.7907C166.041 16.6958 165.548 16.7445 165.099 16.9307C164.65 17.1168 164.267 17.4321 163.997 17.8366C163.727 18.2412 163.583 18.7167 163.583 19.2032C163.583 19.5263 163.647 19.8461 163.77 20.1446C163.893 20.443 164.074 20.7142 164.302 20.9426C164.53 21.171 164.801 21.3522 165.099 21.4758C165.397 21.5995 165.716 21.6631 166.039 21.6631ZM166.039 17.654C166.344 17.654 166.643 17.7448 166.898 17.9151C167.152 18.0853 167.35 18.3273 167.467 18.6104C167.584 18.8935 167.615 19.205 167.555 19.5055C167.496 19.806 167.348 20.0821 167.132 20.2988C166.916 20.5154 166.64 20.663 166.34 20.7228C166.04 20.7826 165.729 20.7519 165.447 20.6346C165.164 20.5173 164.923 20.3188 164.753 20.064C164.583 19.8092 164.492 19.5097 164.492 19.2032C164.496 18.7947 164.66 18.4041 164.95 18.1165C165.239 17.8289 165.631 17.6675 166.039 17.6675V17.654Z" fill="#BCBCBC"/>
<path d="M539.778 112.283C538.73 112.28 537.706 112.589 536.833 113.171C535.961 113.752 535.281 114.58 534.879 115.549C534.477 116.518 534.371 117.584 534.574 118.614C534.778 119.643 535.282 120.589 536.023 121.331C536.764 122.073 537.708 122.578 538.735 122.782C539.763 122.986 540.828 122.88 541.795 122.477C542.763 122.074 543.589 121.393 544.169 120.519C544.75 119.646 545.058 118.619 545.055 117.57C545.052 116.169 544.494 114.826 543.506 113.835C542.517 112.845 541.176 112.287 539.778 112.283ZM539.778 121.959C538.911 121.962 538.062 121.707 537.34 121.226C536.617 120.745 536.054 120.061 535.72 119.259C535.386 118.457 535.297 117.574 535.465 116.722C535.632 115.869 536.049 115.086 536.661 114.47C537.273 113.855 538.054 113.436 538.904 113.265C539.755 113.095 540.637 113.181 541.438 113.513C542.24 113.845 542.925 114.407 543.407 115.129C543.889 115.852 544.146 116.701 544.146 117.57C544.146 118.731 543.686 119.846 542.868 120.669C542.049 121.492 540.938 121.956 539.778 121.959Z" fill="#BCBCBC"/>
<path d="M539.778 115.123C539.291 115.121 538.814 115.263 538.409 115.532C538.003 115.801 537.686 116.186 537.498 116.636C537.311 117.086 537.261 117.581 537.355 118.06C537.45 118.538 537.684 118.978 538.028 119.323C538.372 119.667 538.811 119.902 539.289 119.996C539.766 120.091 540.261 120.041 540.71 119.853C541.16 119.665 541.543 119.348 541.812 118.941C542.08 118.535 542.222 118.057 542.22 117.57C542.216 116.922 541.958 116.302 541.501 115.844C541.043 115.386 540.424 115.127 539.778 115.123ZM539.778 119.2C539.471 119.208 539.168 119.125 538.908 118.961C538.648 118.797 538.442 118.56 538.316 118.279C538.19 117.998 538.149 117.686 538.2 117.383C538.25 117.079 538.388 116.797 538.598 116.572C538.808 116.347 539.079 116.189 539.378 116.117C539.677 116.046 539.991 116.065 540.279 116.172C540.567 116.278 540.818 116.468 540.999 116.717C541.18 116.965 541.284 117.262 541.297 117.57C541.297 117.977 541.139 118.369 540.855 118.661C540.571 118.952 540.185 119.122 539.778 119.132V119.2Z" fill="#BCBCBC"/>
<path d="M642.76 5.28684C642.76 4.79918 642.615 4.32253 642.344 3.91744C642.073 3.51236 641.688 3.19711 641.238 3.01176C640.788 2.82641 640.292 2.77931 639.815 2.87644C639.338 2.97358 638.901 3.21057 638.559 3.55731C638.216 3.90405 637.985 4.34489 637.893 4.82383C637.801 5.30277 637.854 5.79819 638.044 6.24717C638.234 6.69614 638.553 7.0784 638.96 7.3454C639.367 7.61239 639.845 7.75207 640.332 7.74668C640.978 7.73952 641.596 7.4772 642.05 7.01667C642.505 6.55613 642.76 5.93455 642.76 5.28684ZM638.69 5.28684C638.683 4.98297 638.765 4.68363 638.926 4.4261C639.087 4.16856 639.32 3.96421 639.597 3.83848C639.873 3.71275 640.18 3.6712 640.479 3.71901C640.779 3.76682 641.058 3.90187 641.282 4.10735C641.505 4.31282 641.664 4.57965 641.737 4.87459C641.81 5.16954 641.795 5.47958 641.694 5.76611C641.593 6.05264 641.41 6.303 641.167 6.48601C640.925 6.66902 640.634 6.7766 640.332 6.79536C639.925 6.79915 639.533 6.64355 639.239 6.36174C638.945 6.07993 638.772 5.69421 638.758 5.28684H638.69Z" fill="#BCBCBC"/>
<path d="M620.376 47.2535C621.423 47.2562 622.448 46.9473 623.32 46.3659C624.192 45.7845 624.873 44.9569 625.275 43.9879C625.677 43.0188 625.783 41.952 625.579 40.9226C625.375 39.8932 624.871 38.9475 624.13 38.2055C623.39 37.4634 622.446 36.9583 621.418 36.7543C620.39 36.5502 619.325 36.6563 618.358 37.0591C617.391 37.462 616.565 38.1434 615.984 39.0171C615.404 39.8908 615.096 40.9174 615.098 41.9669C615.102 43.3679 615.659 44.7104 616.648 45.7011C617.637 46.6918 618.977 47.2499 620.376 47.2535ZM620.376 37.5772C621.242 37.5772 622.089 37.8346 622.81 38.317C623.531 38.7993 624.092 39.4849 624.424 40.287C624.756 41.0891 624.842 41.9717 624.673 42.8232C624.504 43.6747 624.087 44.4569 623.474 45.0708C622.861 45.6847 622.08 46.1028 621.23 46.2722C620.38 46.4415 619.499 46.3546 618.699 46.0224C617.898 45.6901 617.214 45.1275 616.732 44.4056C616.251 43.6837 615.994 42.835 615.994 41.9669C615.994 41.3904 616.107 40.8196 616.327 40.287C616.547 39.7544 616.87 39.2705 617.277 38.8629C617.684 38.4553 618.167 38.1319 618.699 37.9113C619.23 37.6907 619.8 37.5772 620.376 37.5772Z" fill="#BCBCBC"/>
<path d="M620.376 44.4131C620.862 44.4131 621.337 44.2685 621.741 43.9976C622.145 43.7267 622.46 43.3417 622.645 42.8914C622.831 42.4412 622.879 41.9459 622.783 41.4683C622.687 40.9908 622.452 40.5525 622.107 40.2091C621.762 39.8656 621.323 39.6324 620.846 39.539C620.369 39.4457 619.875 39.4963 619.426 39.6846C618.978 39.8728 618.595 40.1902 618.327 40.5965C618.059 41.0028 617.917 41.4798 617.92 41.9668C617.924 42.6169 618.184 43.2391 618.644 43.6974C619.104 44.1558 619.727 44.4131 620.376 44.4131ZM620.376 40.404C620.685 40.4013 620.988 40.4906 621.246 40.6607C621.504 40.8308 621.706 41.0739 621.827 41.3593C621.947 41.6446 621.98 41.9593 621.921 42.2633C621.862 42.5674 621.715 42.8471 621.497 43.0671C621.28 43.287 621.002 43.4372 620.699 43.4986C620.396 43.56 620.081 43.5299 619.795 43.412C619.509 43.2941 619.265 43.0938 619.093 42.8365C618.921 42.5792 618.829 42.2765 618.829 41.9668C618.829 41.5547 618.991 41.1592 619.281 40.8665C619.571 40.5738 619.964 40.4075 620.376 40.404Z" fill="#BCBCBC"/>
<path d="M370.687 138.621C369.311 138.596 367.98 139.111 366.977 140.055C365.974 140.999 365.38 142.298 365.319 143.676C365.259 145.053 365.738 146.399 366.655 147.428C367.572 148.456 368.853 149.085 370.226 149.181V162.418H318.674V225.218H319.569V163.26H371.121V149.113C372.492 149.016 373.771 148.388 374.687 147.361C375.602 146.334 376.082 144.99 376.023 143.615C375.965 142.239 375.374 140.941 374.374 139.996C373.375 139.05 372.047 138.533 370.673 138.553L370.687 138.621ZM370.687 148.297C369.82 148.3 368.971 148.045 368.249 147.564C367.526 147.083 366.963 146.399 366.629 145.597C366.295 144.795 366.206 143.912 366.374 143.06C366.542 142.207 366.958 141.424 367.57 140.809C368.182 140.193 368.963 139.774 369.813 139.603C370.664 139.433 371.546 139.519 372.347 139.851C373.149 140.183 373.834 140.745 374.316 141.467C374.798 142.19 375.055 143.039 375.055 143.908C375.037 145.058 374.57 146.155 373.753 146.963C372.936 147.771 371.835 148.226 370.687 148.229V148.297Z" fill="#BCBCBC"/>
<path d="M370.687 141.339C370.201 141.339 369.725 141.483 369.321 141.754C368.917 142.025 368.602 142.41 368.417 142.861C368.232 143.311 368.184 143.806 368.28 144.284C368.375 144.761 368.611 145.199 368.955 145.543C369.3 145.886 369.739 146.12 370.216 146.213C370.693 146.306 371.188 146.256 371.636 146.067C372.084 145.879 372.467 145.562 372.735 145.155C373.003 144.749 373.145 144.272 373.142 143.785C373.139 143.135 372.879 142.513 372.418 142.055C371.958 141.596 371.336 141.339 370.687 141.339ZM370.687 145.348C370.382 145.348 370.083 145.257 369.829 145.088C369.575 144.918 369.377 144.677 369.259 144.395C369.142 144.112 369.111 143.802 369.169 143.501C369.228 143.201 369.374 142.925 369.589 142.708C369.804 142.491 370.078 142.342 370.377 142.281C370.676 142.22 370.987 142.248 371.269 142.363C371.552 142.479 371.795 142.675 371.966 142.928C372.138 143.181 372.231 143.479 372.233 143.785C372.243 143.995 372.209 144.204 372.136 144.401C372.063 144.598 371.95 144.777 371.806 144.93C371.662 145.082 371.488 145.203 371.296 145.287C371.104 145.37 370.896 145.414 370.687 145.416V145.348Z" fill="#BCBCBC"/>
<path d="M585.659 81.5417C587.059 81.5417 588.401 80.9847 589.391 79.9933C590.381 79.0018 590.937 77.6572 590.937 76.2551C590.944 76.1419 590.944 76.0285 590.937 75.9153H620.783V47.3757H619.982V74.9776H590.787C590.548 74.0165 590.045 73.142 589.334 72.4537C588.623 71.7654 587.733 71.291 586.767 71.0846C585.8 70.8781 584.794 70.9479 583.865 71.286C582.936 71.6241 582.12 72.2169 581.51 72.9969C580.901 73.7768 580.523 74.7126 580.419 75.6974C580.314 76.6823 580.488 77.6768 580.921 78.5674C581.353 79.458 582.027 80.2091 582.864 80.7349C583.702 81.2608 584.671 81.5403 585.659 81.5417ZM585.659 71.8654C586.526 71.8654 587.373 72.1229 588.094 72.6052C588.814 73.0875 589.376 73.7731 589.708 74.5752C590.039 75.3773 590.126 76.2599 589.957 77.1114C589.788 77.963 589.371 78.7451 588.758 79.359C588.145 79.9729 587.364 80.391 586.514 80.5604C585.664 80.7298 584.783 80.6428 583.982 80.3106C583.182 79.9783 582.497 79.4157 582.016 78.6938C581.534 77.972 581.277 77.1233 581.277 76.2551C581.272 75.6752 581.381 75.1 581.599 74.5627C581.817 74.0254 582.139 73.5367 582.546 73.1247C582.954 72.7128 583.439 72.3858 583.973 72.1626C584.507 71.9395 585.08 71.8246 585.659 71.8246V71.8654Z" fill="#BCBCBC"/>
<path d="M426.648 129.108C426.072 129.107 425.508 129.271 425.022 129.582C424.536 129.893 424.15 130.336 423.908 130.86C423.667 131.384 423.581 131.967 423.66 132.539C423.739 133.11 423.98 133.647 424.354 134.086C424.729 134.525 425.221 134.846 425.773 135.013C426.324 135.18 426.912 135.185 427.466 135.027C428.021 134.869 428.518 134.555 428.9 134.123C429.281 133.69 429.531 133.157 429.619 132.587H456.901V199.777H457.81V131.703H429.619C429.515 130.986 429.159 130.33 428.614 129.854C428.069 129.378 427.371 129.113 426.648 129.108ZM426.648 134.245C426.226 134.258 425.809 134.145 425.452 133.919C425.094 133.693 424.812 133.366 424.643 132.978C424.473 132.59 424.423 132.161 424.499 131.744C424.575 131.328 424.773 130.944 425.069 130.641C425.365 130.339 425.745 130.133 426.159 130.048C426.573 129.964 427.002 130.006 427.393 130.168C427.783 130.331 428.116 130.606 428.348 130.96C428.58 131.313 428.702 131.729 428.697 132.152C428.697 132.703 428.483 133.232 428.101 133.627C427.719 134.023 427.198 134.254 426.648 134.272V134.245Z" fill="#BCBCBC"/>
<path d="M176.607 165.068C175.853 165.075 175.13 165.366 174.58 165.881C174.03 166.397 173.693 167.1 173.635 167.853C173.577 168.605 173.803 169.352 174.268 169.946C174.732 170.54 175.402 170.938 176.145 171.061V205.213H177.054V171.061C177.797 170.938 178.466 170.541 178.931 169.949C179.396 169.356 179.622 168.611 179.566 167.859C179.51 167.108 179.175 166.404 178.628 165.888C178.08 165.371 177.359 165.079 176.607 165.068ZM176.607 170.191C176.191 170.191 175.784 170.068 175.438 169.836C175.093 169.605 174.823 169.276 174.664 168.891C174.505 168.506 174.463 168.082 174.544 167.674C174.625 167.265 174.826 166.89 175.12 166.595C175.414 166.301 175.789 166.1 176.196 166.019C176.604 165.937 177.027 165.979 177.411 166.139C177.796 166.298 178.124 166.568 178.355 166.914C178.586 167.261 178.71 167.668 178.71 168.085C178.711 168.362 178.658 168.637 178.553 168.893C178.448 169.149 178.293 169.382 178.098 169.578C177.902 169.774 177.669 169.929 177.414 170.034C177.158 170.14 176.883 170.193 176.607 170.191Z" fill="#BCBCBC"/>
<path d="M548.827 165.883C547.871 165.883 546.938 166.167 546.143 166.698C545.349 167.23 544.73 167.986 544.365 168.87C543.999 169.754 543.903 170.727 544.09 171.665C544.276 172.604 544.736 173.466 545.412 174.142C546.087 174.819 546.948 175.28 547.884 175.466C548.821 175.653 549.792 175.557 550.675 175.191C551.557 174.825 552.312 174.205 552.842 173.409C553.373 172.613 553.656 171.678 553.656 170.721C553.656 169.438 553.147 168.207 552.242 167.3C551.336 166.393 550.108 165.883 548.827 165.883Z" fill="#BCBCBC"/>
<path d="M453.74 51.6431C454.695 51.6431 455.629 51.3593 456.423 50.8277C457.218 50.2961 457.837 49.5405 458.202 48.6564C458.568 47.7724 458.663 46.7996 458.477 45.8611C458.291 44.9226 457.831 44.0605 457.155 43.3839C456.48 42.7072 455.619 42.2464 454.682 42.0598C453.745 41.8731 452.774 41.9689 451.892 42.3351C451.009 42.7013 450.255 43.3214 449.724 44.117C449.194 44.9126 448.91 45.848 448.91 46.8049C448.914 48.087 449.424 49.3155 450.329 50.2221C451.234 51.1286 452.46 51.6395 453.74 51.6431Z" fill="#BCBCBC"/>
<path d="M424.111 54.7689C424.732 54.7716 425.34 54.5894 425.857 54.2455C426.375 53.9016 426.779 53.4114 427.017 52.8372C427.256 52.263 427.319 51.6307 427.199 51.0205C427.079 50.4102 426.78 49.8496 426.341 49.4097C425.902 48.9699 425.342 48.6706 424.733 48.5499C424.124 48.4292 423.492 48.4925 422.919 48.7318C422.346 48.9711 421.857 49.3756 421.513 49.8939C421.17 50.4123 420.988 51.0211 420.991 51.6432C420.995 52.4711 421.324 53.264 421.909 53.8494C422.493 54.4349 423.285 54.7653 424.111 54.7689Z" fill="#BCBCBC"/>
<path d="M479.937 125.302C479.939 124.571 479.725 123.855 479.321 123.245C478.918 122.635 478.342 122.159 477.668 121.878C476.994 121.596 476.252 121.521 475.535 121.662C474.818 121.803 474.16 122.154 473.642 122.67C473.125 123.187 472.772 123.845 472.629 124.563C472.485 125.28 472.557 126.024 472.836 126.7C473.115 127.377 473.588 127.955 474.195 128.361C474.802 128.768 475.516 128.985 476.247 128.985C477.223 128.985 478.16 128.598 478.851 127.908C479.543 127.217 479.933 126.28 479.937 125.302Z" fill="#BCBCBC"/>
<path d="M689.171 142.535C688.273 142.535 687.406 142.864 686.734 143.46C686.062 144.055 685.63 144.877 685.521 145.769H665.172V109.687C666.104 109.571 666.957 109.104 667.557 108.38C668.156 107.656 668.458 106.73 668.4 105.791C668.342 104.852 667.929 103.97 667.245 103.326C666.56 102.681 665.656 102.322 664.717 102.322C663.778 102.322 662.874 102.681 662.19 103.326C661.505 103.97 661.092 104.852 661.034 105.791C660.976 106.73 661.278 107.656 661.878 108.38C662.478 109.104 663.331 109.571 664.263 109.687V145.769H628.122V205.213H629.017V146.775H664.29V166.508H686.932V212.538H687.814V165.502H665.212V146.68H685.562C685.651 147.383 685.94 148.045 686.395 148.588C686.85 149.13 687.452 149.53 688.128 149.738C688.804 149.946 689.526 149.955 690.207 149.763C690.888 149.57 691.499 149.185 691.967 148.654C692.434 148.123 692.739 147.467 692.845 146.766C692.95 146.066 692.851 145.349 692.561 144.704C692.27 144.058 691.799 143.509 691.205 143.125C690.611 142.74 689.919 142.535 689.211 142.535H689.171Z" fill="#BCBCBC"/>
<path d="M508.128 37.6859C508.128 36.9575 507.912 36.2454 507.508 35.6398C507.104 35.0341 506.53 34.562 505.858 34.2833C505.186 34.0045 504.447 33.9316 503.734 34.0737C503.021 34.2158 502.366 34.5666 501.851 35.0816C501.337 35.5967 500.987 36.253 500.845 36.9674C500.703 37.6818 500.776 38.4223 501.054 39.0953C501.333 39.7683 501.804 40.3435 502.409 40.7482C503.013 41.1529 503.724 41.3689 504.451 41.3689C505.426 41.3689 506.361 40.9808 507.051 40.2901C507.74 39.5995 508.128 38.6627 508.128 37.6859Z" fill="#BCBCBC"/>
<path d="M405.959 71.7431C405.235 71.7564 404.531 71.9838 403.936 72.3965C403.34 72.8093 402.879 73.389 402.612 74.0631C402.344 74.7371 402.28 75.4754 402.43 76.1853C402.579 76.8952 402.935 77.545 403.451 78.0533C403.968 78.5616 404.623 78.9057 405.335 79.0424C406.046 79.1791 406.782 79.1023 407.449 78.8217C408.117 78.541 408.687 78.069 409.089 77.4649C409.49 76.8608 409.704 76.1515 409.704 75.426C409.704 74.9366 409.606 74.4521 409.417 74.0007C409.229 73.5494 408.952 73.1404 408.603 72.7975C408.254 72.4546 407.841 72.1847 407.387 72.0037C406.933 71.8226 406.448 71.734 405.959 71.7431Z" fill="#BCBCBC"/>
<path d="M194.664 60.8845C193.936 60.8845 193.226 61.1005 192.621 61.5052C192.016 61.9099 191.545 62.4851 191.267 63.1581C190.989 63.8311 190.916 64.5716 191.058 65.286C191.2 66.0004 191.55 66.6567 192.064 67.1717C192.578 67.6868 193.233 68.0376 193.946 68.1797C194.659 68.3218 195.399 68.2489 196.07 67.9701C196.742 67.6913 197.316 67.2193 197.72 66.6136C198.124 66.008 198.34 65.2959 198.34 64.5675C198.34 63.5907 197.953 62.6539 197.263 61.9632C196.574 61.2726 195.639 60.8845 194.664 60.8845Z" fill="#BCBCBC"/>
<path d="M586.812 168.329C586.082 168.327 585.367 168.541 584.759 168.946C584.15 169.35 583.675 169.927 583.394 170.602C583.112 171.277 583.037 172.021 583.178 172.739C583.319 173.457 583.669 174.117 584.185 174.635C584.7 175.153 585.358 175.507 586.074 175.65C586.79 175.794 587.533 175.722 588.208 175.442C588.883 175.163 589.46 174.689 589.866 174.081C590.272 173.473 590.489 172.758 590.489 172.026C590.491 171.541 590.397 171.061 590.213 170.612C590.029 170.164 589.758 169.756 589.417 169.413C589.075 169.069 588.669 168.797 588.222 168.611C587.776 168.425 587.296 168.329 586.812 168.329Z" fill="#BCBCBC"/>
<path d="M141.212 118.929C141.212 119.486 141.379 120.03 141.689 120.492C142 120.954 142.442 121.313 142.957 121.522C143.472 121.731 144.038 121.782 144.583 121.667C145.127 121.552 145.624 121.277 146.012 120.878C146.399 120.478 146.659 119.972 146.757 119.423C146.856 118.875 146.789 118.31 146.565 117.8C146.341 117.29 145.97 116.858 145.5 116.561C145.029 116.263 144.481 116.113 143.925 116.129C143.198 116.15 142.508 116.455 142.002 116.977C141.495 117.5 141.212 118.2 141.212 118.929Z" fill="#BCBCBC"/>
<path d="M67.0992 97.3065C67.6519 97.3065 68.1922 97.1423 68.6518 96.8347C69.1114 96.527 69.4696 96.0898 69.6811 95.5782C69.8926 95.0667 69.948 94.5038 69.8401 93.9607C69.7323 93.4176 69.4661 92.9188 69.0753 92.5273C68.6845 92.1357 68.1865 91.8691 67.6444 91.7611C67.1023 91.653 66.5403 91.7085 66.0297 91.9204C65.519 92.1323 65.0826 92.4911 64.7755 92.9515C64.4684 93.4119 64.3045 93.9532 64.3045 94.5069C64.3045 94.8745 64.3768 95.2386 64.5172 95.5782C64.6577 95.9179 64.8635 96.2265 65.123 96.4865C65.3825 96.7465 65.6906 96.9527 66.0297 97.0934C66.3688 97.2341 66.7322 97.3065 67.0992 97.3065Z" fill="#BCBCBC"/>
<path d="M178.343 137.52C177.522 137.52 176.72 137.764 176.037 138.221C175.354 138.678 174.822 139.327 174.508 140.087C174.194 140.847 174.112 141.683 174.272 142.49C174.432 143.297 174.827 144.038 175.408 144.619C175.988 145.201 176.728 145.597 177.533 145.757C178.339 145.918 179.173 145.835 179.932 145.521C180.69 145.206 181.339 144.673 181.795 143.989C182.251 143.305 182.495 142.501 182.495 141.679C182.495 141.133 182.387 140.592 182.179 140.087C181.97 139.583 181.664 139.124 181.279 138.738C180.893 138.352 180.436 138.046 179.932 137.837C179.428 137.628 178.888 137.52 178.343 137.52Z" fill="#BCBCBC"/>
<path d="M176.878 101.927C176.894 101.101 176.665 100.29 176.218 99.595C175.772 98.9005 175.13 98.3548 174.373 98.0275C173.616 97.7002 172.778 97.6061 171.968 97.7572C171.157 97.9084 170.41 98.2979 169.821 98.8761C169.233 99.4543 168.829 100.195 168.662 101.004C168.495 101.813 168.573 102.653 168.884 103.418C169.196 104.182 169.728 104.837 170.412 105.297C171.096 105.758 171.902 106.004 172.727 106.004C173.814 106.004 174.858 105.578 175.634 104.815C176.41 104.053 176.857 103.016 176.878 101.927Z" fill="#BCBCBC"/>
<path d="M1367.11 108.546H1310.97V41.7222C1311.74 41.6898 1312.48 41.3656 1313.02 40.8147C1313.57 40.2637 1313.88 39.5267 1313.91 38.7516C1313.93 37.9766 1313.66 37.2209 1313.15 36.6361C1312.65 36.0514 1311.94 35.681 1311.17 35.5992C1310.4 35.5174 1309.62 35.7303 1309 36.1952C1308.38 36.6601 1307.96 37.3425 1307.83 38.1055C1307.69 38.8685 1307.84 39.6556 1308.26 40.3088C1308.68 40.962 1309.33 41.4329 1310.08 41.627V109.456H1366.2V145.864H1332.7V163.899H1296.78C1296.7 149.194 1296.58 134 1296.45 121.769H1295.59C1295.67 131.717 1295.8 147.726 1295.88 163.899H1267.72V106.004H1266.83V164.769H1295.86C1296.01 191.256 1296.02 217.974 1295.61 219.361L1296.01 219.551V219.999L1296.35 219.863C1296.92 219.279 1296.94 193.023 1296.78 164.769H1333.57V146.775H1366.13V256H1367.04V146.775H1399.6V219.578H1400.49V145.864H1367.03L1367.11 108.546ZM1308.69 38.7051C1308.68 38.2831 1308.8 37.8674 1309.02 37.5114C1309.25 37.1554 1309.58 36.8752 1309.96 36.7068C1310.35 36.5383 1310.78 36.4893 1311.19 36.566C1311.61 36.6426 1311.99 36.8415 1312.29 37.1371C1312.59 37.4327 1312.8 37.8116 1312.88 38.2251C1312.96 38.6387 1312.92 39.0682 1312.76 39.4585C1312.6 39.8489 1312.33 40.1823 1311.98 40.4161C1311.63 40.6499 1311.22 40.7734 1310.79 40.7709C1310.24 40.7675 1309.72 40.5501 1309.33 40.1645C1308.93 39.779 1308.71 39.2556 1308.69 38.7051Z" fill="#BCBCBC"/>
<path d="M1348.98 57.7587V18.7546H1279.23C1279.11 17.3963 1278.48 16.1352 1277.45 15.2345C1276.43 14.3339 1275.1 13.8634 1273.74 13.9213C1272.38 13.9792 1271.1 14.5609 1270.16 15.5451C1269.22 16.5293 1268.69 17.8399 1268.69 19.2031C1268.69 20.5664 1269.22 21.8769 1270.16 22.8611C1271.1 23.8453 1272.38 24.4271 1273.74 24.485C1275.1 24.5429 1276.43 24.0723 1277.45 23.1717C1278.48 22.2711 1279.11 21.0099 1279.23 19.6516H1348.09V58.6693H1440V57.7587H1348.98ZM1273.98 23.5928C1273.11 23.5955 1272.26 23.3403 1271.54 22.8596C1270.81 22.3789 1270.25 21.6943 1269.92 20.8924C1269.58 20.0905 1269.49 19.2075 1269.66 18.3551C1269.83 17.5027 1270.25 16.7193 1270.86 16.104C1271.47 15.4887 1272.25 15.0693 1273.1 14.8988C1273.95 14.7284 1274.83 14.8145 1275.64 15.1463C1276.44 15.4782 1277.12 16.0408 1277.6 16.763C1278.09 17.4851 1278.34 18.3344 1278.34 19.2031C1278.34 20.365 1277.88 21.4795 1277.06 22.3023C1276.25 23.1251 1275.13 23.5892 1273.98 23.5928Z" fill="#BCBCBC"/>
<path d="M1375.71 94.5068V94.9553H1429.13V94.0583H1375.71V94.5068Z" fill="#BCBCBC"/>
<path d="M1069.77 149.113C1071.13 148.995 1072.39 148.357 1073.29 147.33C1074.19 146.304 1074.66 144.969 1074.61 143.604C1074.55 142.239 1073.96 140.95 1072.98 140.004C1071.99 139.059 1070.68 138.532 1069.32 138.532C1067.96 138.532 1066.64 139.059 1065.66 140.004C1064.68 140.95 1064.09 142.239 1064.03 143.604C1063.98 144.969 1064.45 146.304 1065.35 147.33C1066.25 148.357 1067.51 148.995 1068.87 149.113V163.26H1120.42V225.15H1121.33V162.349H1069.77V149.113ZM1064.96 143.84C1064.96 142.971 1065.22 142.123 1065.7 141.401C1066.18 140.679 1066.86 140.116 1067.66 139.784C1068.46 139.452 1069.35 139.365 1070.2 139.534C1071.05 139.704 1071.83 140.122 1072.44 140.736C1073.05 141.349 1073.47 142.132 1073.64 142.983C1073.81 143.835 1073.72 144.717 1073.39 145.519C1073.06 146.321 1072.5 147.007 1071.77 147.489C1071.05 147.972 1070.21 148.229 1069.34 148.229C1068.18 148.229 1067.06 147.767 1066.24 146.943C1065.42 146.12 1064.96 145.004 1064.96 143.84Z" fill="#BCBCBC"/>
<path d="M1175.1 106.48H1206.79V65.0159H1241.67V64.119H1206.79V20.4806C1208.02 20.2528 1209.11 19.5611 1209.84 18.5493C1210.57 17.5374 1210.88 16.2832 1210.71 15.0472C1210.54 13.8112 1209.9 12.6884 1208.92 11.9121C1207.95 11.1358 1206.71 10.7657 1205.47 10.8786C1204.23 10.9916 1203.08 11.579 1202.26 12.5187C1201.44 13.4584 1201.02 14.6782 1201.07 15.9247C1201.13 17.1713 1201.66 18.3486 1202.56 19.2122C1203.46 20.0758 1204.65 20.5593 1205.9 20.5622V64.119H1175.1V38.2975H1139.44C1139.32 37.5455 1138.93 36.8647 1138.33 36.3913C1137.74 35.9178 1136.99 35.6868 1136.23 35.7443C1135.48 35.8019 1134.77 36.1438 1134.25 36.7017C1133.74 37.2595 1133.45 37.9921 1133.45 38.7527C1133.45 39.5134 1133.74 40.246 1134.25 40.8038C1134.77 41.3616 1135.48 41.7036 1136.23 41.7611C1136.99 41.8187 1137.74 41.5876 1138.33 41.1142C1138.93 40.6408 1139.32 39.96 1139.44 39.208H1174.19V65.0295H1205.9V105.569H1174.19V148.229H1132.79V87.6981H1121.39V15.6697C1122.33 15.5538 1123.18 15.0862 1123.78 14.3622C1124.38 13.6382 1124.68 12.7123 1124.62 11.7732C1124.56 10.8341 1124.15 9.95242 1123.47 9.30795C1122.78 8.66349 1121.88 8.30469 1120.94 8.30469C1120 8.30469 1119.1 8.66349 1118.41 9.30795C1117.73 9.95242 1117.31 10.8341 1117.26 11.7732C1117.2 12.7123 1117.5 13.6382 1118.1 14.3622C1118.7 15.0862 1119.55 15.5538 1120.49 15.6697V87.6981H1082.88V51.4121H1051.39V26.9496C1052.75 26.8322 1054.01 26.1938 1054.91 25.1674C1055.81 24.1411 1056.28 22.8061 1056.22 21.4411C1056.16 20.0761 1055.58 18.7865 1054.6 17.8414C1053.61 16.8963 1052.3 16.3688 1050.94 16.3688C1049.57 16.3688 1048.26 16.8963 1047.28 17.8414C1046.29 18.7865 1045.71 20.0761 1045.65 21.4411C1045.59 22.8061 1046.06 24.1411 1046.96 25.1674C1047.86 26.1938 1049.12 26.8322 1050.48 26.9496V51.4121H1018.06V26.6098C1018.77 26.4941 1019.41 26.1302 1019.88 25.5829C1020.35 25.0355 1020.61 24.34 1020.61 23.62C1020.61 22.8198 1020.29 22.0524 1019.73 21.4866C1019.16 20.9208 1018.4 20.6029 1017.6 20.6029C1016.8 20.6029 1016.03 20.9208 1015.47 21.4866C1014.9 22.0524 1014.59 22.8198 1014.59 23.62C1014.59 24.342 1014.85 25.0391 1015.32 25.5867C1015.79 26.1344 1016.44 26.497 1017.15 26.6098V52.3226H1050.42V88.6087H1081.97V108.994C1080.61 109.111 1079.35 109.75 1078.45 110.776C1077.55 111.803 1077.08 113.138 1077.14 114.503C1077.2 115.868 1077.78 117.157 1078.77 118.102C1079.75 119.047 1081.06 119.575 1082.43 119.575C1083.79 119.575 1085.1 119.047 1086.08 118.102C1087.07 117.157 1087.65 115.868 1087.71 114.503C1087.77 113.138 1087.3 111.803 1086.4 110.776C1085.5 109.75 1084.24 109.111 1082.88 108.994V88.6087H1120.49V127.626H1047.89V109.021H1007.07V87.6845H1007.33C1008.07 87.6812 1008.79 87.4012 1009.34 86.8991C1009.89 86.3969 1010.23 85.7084 1010.3 84.967C1010.37 84.2256 1010.16 83.4844 1009.72 82.8871C1009.28 82.2898 1008.63 81.8791 1007.9 81.7347C1007.17 81.5902 1006.41 81.7224 1005.77 82.1055C1005.14 82.4886 1004.66 83.0953 1004.45 83.8079C1004.23 84.5205 1004.29 85.2881 1004.6 85.9617C1004.92 86.6354 1005.48 87.167 1006.16 87.4535V109.932H1047V127.599H1039.51V153.91H1006.16V154.358C1006.16 156.356 1005.74 203.419 1006.16 205.268L1007.04 205.064C1006.75 203.773 1006.88 174.486 1007.04 154.78H1039.48V219.524H1040.39V154.834H1047.86V128.523H1121.39V88.6087H1131.88V149.14H1174.19V199.777H1175.1V149.14H1197.75V219.578H1198.65V148.229H1175.1V106.48ZM1136.45 40.7709C1136.03 40.7709 1135.63 40.6466 1135.28 40.4136C1134.93 40.1806 1134.66 39.8495 1134.5 39.4621C1134.34 39.0747 1134.3 38.6485 1134.38 38.2372C1134.46 37.8259 1134.66 37.4482 1134.96 37.1517C1135.25 36.8552 1135.63 36.6533 1136.04 36.5715C1136.45 36.4897 1136.88 36.5316 1137.26 36.6921C1137.65 36.8526 1137.98 37.1243 1138.21 37.473C1138.45 37.8216 1138.57 38.2315 1138.57 38.6508C1138.57 39.2131 1138.35 39.7523 1137.95 40.1499C1137.55 40.5475 1137.01 40.7709 1136.45 40.7709ZM1046.49 21.6222C1046.49 20.7534 1046.75 19.9042 1047.23 19.182C1047.72 18.4599 1048.4 17.8972 1049.2 17.5654C1050 17.2336 1050.89 17.1474 1051.74 17.3179C1052.59 17.4884 1053.37 17.9078 1053.98 18.5231C1054.59 19.1383 1055.01 19.9218 1055.18 20.7742C1055.34 21.6266 1055.25 22.5096 1054.92 23.3115C1054.59 24.1133 1054.02 24.798 1053.3 25.2787C1052.58 25.7594 1051.73 26.0145 1050.86 26.0119C1049.7 26.0083 1048.59 25.5442 1047.77 24.7214C1046.95 23.8985 1046.49 22.7841 1046.49 21.6222ZM1015.5 23.62C1015.5 23.2001 1015.62 22.7896 1015.85 22.4407C1016.09 22.0918 1016.42 21.8201 1016.81 21.66C1017.19 21.4999 1017.62 21.4588 1018.03 21.5417C1018.44 21.6246 1018.82 21.8279 1019.11 22.1257C1019.41 22.4236 1019.61 22.8026 1019.69 23.2148C1019.77 23.6269 1019.73 24.0536 1019.56 24.4407C1019.4 24.8279 1019.13 25.1581 1018.78 25.3894C1018.43 25.6207 1018.02 25.7427 1017.6 25.74C1017.04 25.7365 1016.5 25.5115 1016.11 25.1143C1015.72 24.7171 1015.5 24.1799 1015.5 23.62ZM1086.8 114.308C1086.8 115.177 1086.55 116.028 1086.07 116.752C1085.59 117.476 1084.9 118.04 1084.1 118.374C1083.3 118.708 1082.42 118.796 1081.57 118.627C1080.72 118.458 1079.93 118.04 1079.32 117.425C1078.71 116.811 1078.29 116.027 1078.12 115.174C1077.95 114.322 1078.04 113.438 1078.37 112.635C1078.71 111.833 1079.27 111.147 1079.99 110.666C1080.71 110.185 1081.56 109.929 1082.43 109.932C1083.59 109.935 1084.7 110.398 1085.52 111.217C1086.34 112.037 1086.8 113.148 1086.8 114.308ZM1051.39 87.6981V52.3634H1082.04V87.6981H1051.39ZM1005.27 84.6811C1005.27 84.2612 1005.39 83.8508 1005.62 83.5018C1005.86 83.1529 1006.19 82.8812 1006.58 82.7211C1006.96 82.5611 1007.39 82.5199 1007.8 82.6028C1008.21 82.6857 1008.59 82.889 1008.88 83.1868C1009.18 83.4847 1009.38 83.8637 1009.46 84.2759C1009.54 84.688 1009.5 85.1147 1009.33 85.5019C1009.17 85.889 1008.9 86.2192 1008.55 86.4505C1008.2 86.6818 1007.79 86.8038 1007.37 86.8012C1006.81 86.7976 1006.28 86.5726 1005.88 86.1754C1005.49 85.7782 1005.27 85.241 1005.27 84.6811ZM1047.04 153.991H1040.46V128.523H1047.04V153.991Z" fill="#BCBCBC"/>
<path d="M1236.68 141.23V95.0233H1279.31V52.5945C1280.67 52.4771 1281.93 51.8387 1282.83 50.8123C1283.73 49.786 1284.2 48.451 1284.14 47.086C1284.08 45.721 1283.5 44.4315 1282.51 43.4864C1281.53 42.5413 1280.22 42.0137 1278.85 42.0137C1277.49 42.0137 1276.18 42.5413 1275.19 43.4864C1274.21 44.4315 1273.62 45.721 1273.57 47.086C1273.51 48.451 1273.98 49.786 1274.88 50.8123C1275.78 51.8387 1277.04 52.4771 1278.4 52.5945V94.0584H1235.79V141.23H1217.66V122.571H1198.67C1198.55 121.212 1197.92 119.951 1196.9 119.051C1195.87 118.15 1194.55 117.68 1193.19 117.737C1191.83 117.795 1190.54 118.377 1189.6 119.361C1188.66 120.346 1188.13 121.656 1188.13 123.019C1188.13 124.383 1188.66 125.693 1189.6 126.677C1190.54 127.661 1191.83 128.243 1193.19 128.301C1194.55 128.359 1195.87 127.889 1196.9 126.988C1197.92 126.087 1198.55 124.826 1198.67 123.468H1216.77V142.141H1235.76V212.443H1236.65V142.141H1257.49V141.23H1236.68ZM1274.42 47.3215C1274.42 46.4533 1274.68 45.6046 1275.16 44.8827C1275.64 44.1608 1276.33 43.5982 1277.13 43.266C1277.93 42.9337 1278.81 42.8468 1279.66 43.0162C1280.51 43.1855 1281.29 43.6036 1281.9 44.2175C1282.52 44.8314 1282.93 45.6136 1283.1 46.4651C1283.27 47.3166 1283.18 48.1992 1282.85 49.0013C1282.52 49.8034 1281.96 50.489 1281.24 50.9713C1280.52 51.4537 1279.67 51.7111 1278.8 51.7111C1278.23 51.7111 1277.66 51.5976 1277.13 51.377C1276.6 51.1564 1276.11 50.833 1275.71 50.4254C1275.3 50.0178 1274.98 49.5339 1274.76 49.0013C1274.54 48.4687 1274.42 47.8979 1274.42 47.3215ZM1193.36 127.409C1192.5 127.409 1191.65 127.152 1190.93 126.669C1190.21 126.187 1189.65 125.501 1189.32 124.699C1188.98 123.897 1188.9 123.014 1189.07 122.163C1189.24 121.311 1189.65 120.529 1190.27 119.915C1190.88 119.301 1191.66 118.883 1192.51 118.714C1193.36 118.545 1194.24 118.632 1195.04 118.964C1195.84 119.296 1196.53 119.859 1197.01 120.581C1197.49 121.302 1197.75 122.151 1197.75 123.019C1197.75 124.184 1197.28 125.3 1196.46 126.123C1195.64 126.946 1194.53 127.409 1193.36 127.409Z" fill="#BCBCBC"/>
<path d="M991.51 109.932C991.721 111.183 992.405 112.305 993.42 113.064C994.435 113.823 995.702 114.161 996.96 114.008C998.217 113.855 999.367 113.223 1000.17 112.243C1000.98 111.262 1001.37 110.009 1001.28 108.744C1001.18 107.479 1000.61 106.298 999.665 105.448C998.725 104.598 997.494 104.144 996.227 104.18C994.961 104.215 993.758 104.738 992.867 105.64C991.975 106.542 991.465 107.753 991.442 109.021H968.637V77.7636H936.078V41.3689H935.169V78.6334H967.728V109.891L991.51 109.932ZM996.367 105.094C997.172 105.094 997.959 105.333 998.628 105.781C999.297 106.229 999.819 106.866 1000.13 107.611C1000.44 108.356 1000.52 109.175 1000.36 109.966C1000.2 110.757 999.814 111.484 999.245 112.054C998.676 112.624 997.95 113.012 997.161 113.17C996.371 113.327 995.553 113.246 994.809 112.938C994.066 112.629 993.43 112.106 992.983 111.436C992.536 110.765 992.297 109.977 992.297 109.171C992.297 108.089 992.726 107.052 993.489 106.288C994.252 105.523 995.288 105.094 996.367 105.094Z" fill="#BCBCBC"/>
<path d="M985.812 75.8745H1030.36V75.426V74.964H986.721V51.6431H986.274H985.812V75.8745Z" fill="#BCBCBC"/>
<path d="M963.306 141.23H921.535V141.665C921.535 142.725 921.223 153.027 920.992 165.502H900.643V123.019H899.734V166.413H920.924C920.585 185.562 920.409 209.331 921.494 212.62L922.362 212.335C921.318 209.209 921.508 185.521 921.833 166.44H950.458V205.213H951.367V165.53H921.888C922.105 153.992 922.349 144.315 922.403 142.168H964.215V128.985H963.306V141.23Z" fill="#BCBCBC"/>
<path d="M775.71 109.687C776.642 109.571 777.495 109.104 778.095 108.38C778.695 107.656 778.997 106.73 778.939 105.791C778.881 104.852 778.468 103.97 777.783 103.326C777.099 102.681 776.195 102.322 775.256 102.322C774.317 102.322 773.413 102.681 772.728 103.326C772.044 103.97 771.631 104.852 771.573 105.791C771.515 106.73 771.817 107.656 772.416 108.38C773.016 109.104 773.869 109.571 774.801 109.687V145.769H754.452C754.336 144.839 753.871 143.988 753.151 143.39C752.43 142.792 751.51 142.491 750.576 142.549C749.642 142.607 748.765 143.019 748.125 143.702C747.484 144.385 747.127 145.287 747.127 146.225C747.127 147.162 747.484 148.064 748.125 148.747C748.765 149.43 749.642 149.843 750.576 149.901C751.51 149.959 752.43 149.658 753.151 149.059C753.871 148.461 754.336 147.61 754.452 146.68H774.801V165.502H752.159V212.443H753.068V166.413H775.71V146.68H810.983V205.118H811.892V145.769H775.67L775.71 109.687Z" fill="#BCBCBC"/>
<path d="M914.277 19.2304C915.209 19.1145 916.062 18.647 916.662 17.923C917.262 17.199 917.563 16.2731 917.506 15.3339C917.448 14.3948 917.034 13.5132 916.35 12.8687C915.666 12.2243 914.762 11.8655 913.822 11.8655C912.883 11.8655 911.979 12.2243 911.295 12.8687C910.611 13.5132 910.197 14.3948 910.139 15.3339C910.082 16.2731 910.383 17.199 910.983 17.923C911.583 18.647 912.436 19.1145 913.368 19.2304V78.6335H875.382V148.229H863.607V109.021H800.157V10.5598C801.516 10.4425 802.777 9.804 803.677 8.77765C804.577 7.7513 805.047 6.41636 804.988 5.05136C804.93 3.68637 804.347 2.39678 803.362 1.45169C802.377 0.506595 801.066 -0.0209961 799.702 -0.0209961C798.338 -0.0209961 797.027 0.506595 796.042 1.45169C795.058 2.39678 794.475 3.68637 794.416 5.05136C794.358 6.41636 794.828 7.7513 795.728 8.77765C796.628 9.804 797.889 10.4425 799.248 10.5598V109.932H862.643V148.229H839.106V205.213H840.001V172.474H849.498V171.564H840.001V149.14H862.643V205.213H863.552V149.14H876.237V79.5305H914.223L914.277 19.2304ZM795.327 5.2868C795.327 4.41861 795.584 3.56991 796.066 2.84804C796.547 2.12616 797.232 1.56353 798.032 1.23129C798.833 0.899043 799.714 0.812113 800.564 0.981489C801.414 1.15087 802.195 1.56894 802.808 2.18284C803.42 2.79675 803.838 3.57891 804.007 4.43042C804.176 5.28193 804.089 6.16455 803.758 6.96665C803.426 7.76876 802.864 8.45433 802.144 8.93667C801.423 9.41901 800.576 9.67646 799.709 9.67646C798.547 9.67646 797.432 9.21398 796.611 8.39076C795.789 7.56754 795.327 6.45101 795.327 5.2868Z" fill="#BCBCBC"/>
<path d="M891.635 175.709H890.726V199.75H891.635V175.709Z" fill="#BCBCBC"/>
<path d="M758.495 58.6693H775.71V26.8953C777.069 26.7779 778.33 26.1395 779.23 25.1131C780.131 24.0868 780.6 22.7518 780.542 21.3868C780.483 20.0218 779.901 18.7322 778.916 17.7871C777.931 16.842 776.62 16.3145 775.256 16.3145C773.892 16.3145 772.581 16.842 771.596 17.7871C770.611 18.7322 770.028 20.0218 769.97 21.3868C769.911 22.7518 770.381 24.0868 771.281 25.1131C772.181 26.1395 773.442 26.7779 774.801 26.8953V57.7588H757.586V101.316H682.387V57.8267H665.212V26.8953C666.571 26.7779 667.832 26.1395 668.732 25.1131C669.633 24.0868 670.102 22.7518 670.044 21.3868C669.985 20.0218 669.403 18.7322 668.418 17.7871C667.433 16.842 666.122 16.3145 664.758 16.3145C663.394 16.3145 662.083 16.842 661.098 17.7871C660.113 18.7322 659.531 20.0218 659.472 21.3868C659.413 22.7518 659.883 24.0868 660.783 25.1131C661.683 26.1395 662.945 26.7779 664.303 26.8953V58.6693H681.506V102.158H758.495V58.6693ZM770.881 21.6223C770.881 20.7535 771.138 19.9042 771.62 19.1821C772.102 18.4599 772.787 17.8973 773.589 17.5655C774.39 17.2336 775.272 17.1475 776.122 17.318C776.973 17.4884 777.754 17.9079 778.366 18.5231C778.978 19.1384 779.394 19.9218 779.562 20.7742C779.729 21.6266 779.641 22.5097 779.307 23.3115C778.973 24.1134 778.41 24.798 777.687 25.2787C776.965 25.7594 776.116 26.0146 775.249 26.0119C774.089 26.0083 772.978 25.5442 772.159 24.7214C771.34 23.8986 770.881 22.7841 770.881 21.6223ZM660.383 21.6223C660.383 20.7535 660.64 19.9042 661.122 19.1821C661.604 18.4599 662.289 17.8973 663.091 17.5655C663.892 17.2336 664.774 17.1475 665.625 17.318C666.475 17.4884 667.256 17.9079 667.868 18.5231C668.48 19.1384 668.896 19.9218 669.064 20.7742C669.232 21.6266 669.143 22.5097 668.809 23.3115C668.475 24.1134 667.912 24.798 667.189 25.2787C666.467 25.7594 665.618 26.0146 664.751 26.0119C663.591 26.0083 662.48 25.5442 661.661 24.7214C660.842 23.8986 660.383 22.7841 660.383 21.6223Z" fill="#BCBCBC"/>
<path d="M820.086 74.9776V47.335H819.177V75.8745H849.023C849.023 75.9833 849.023 76.092 849.023 76.2143C849.019 77.5696 849.532 78.8751 850.458 79.8638C851.383 80.8525 852.651 81.4496 854.001 81.533C855.351 81.6163 856.682 81.1797 857.722 80.3123C858.761 79.4449 859.431 78.2124 859.593 76.8669C859.756 75.5214 859.399 74.1646 858.595 73.0741C857.792 71.9835 856.603 71.2417 855.272 71.0004C853.941 70.759 852.567 71.0364 851.434 71.7757C850.3 72.515 849.491 73.6604 849.172 74.9776H820.086ZM854.341 71.8246C855.208 71.8219 856.056 72.0771 856.779 72.5578C857.501 73.0385 858.065 73.7231 858.399 74.525C858.733 75.3269 858.821 76.2099 858.654 77.0623C858.486 77.9147 858.07 78.6982 857.458 79.3134C856.845 79.9287 856.065 80.3481 855.214 80.5186C854.364 80.6891 853.482 80.6029 852.681 80.2711C851.879 79.9393 851.194 79.3766 850.712 78.6545C850.23 77.9323 849.972 77.0831 849.972 76.2143C849.972 75.0524 850.432 73.938 851.251 73.1151C852.07 72.2923 853.181 71.8282 854.341 71.8246Z" fill="#BCBCBC"/>
<path d="M1193.36 120.559C1192.88 120.559 1192.4 120.704 1192 120.974C1191.6 121.244 1191.28 121.628 1191.1 122.078C1190.91 122.527 1190.86 123.022 1190.96 123.499C1191.05 123.976 1191.28 124.415 1191.63 124.759C1191.97 125.103 1192.41 125.337 1192.88 125.432C1193.36 125.527 1193.85 125.478 1194.3 125.292C1194.75 125.106 1195.14 124.79 1195.41 124.386C1195.68 123.981 1195.82 123.506 1195.82 123.019C1195.82 122.367 1195.56 121.741 1195.1 121.28C1194.64 120.818 1194.02 120.559 1193.36 120.559ZM1193.36 124.636C1193.06 124.636 1192.76 124.546 1192.5 124.375C1192.25 124.205 1192.05 123.963 1191.94 123.68C1191.82 123.397 1191.79 123.085 1191.85 122.785C1191.91 122.484 1192.05 122.208 1192.27 121.992C1192.49 121.775 1192.76 121.627 1193.06 121.568C1193.36 121.508 1193.67 121.538 1193.96 121.656C1194.24 121.773 1194.48 121.972 1194.65 122.226C1194.82 122.481 1194.91 122.781 1194.91 123.087C1194.89 123.486 1194.72 123.863 1194.43 124.139C1194.15 124.415 1193.76 124.569 1193.36 124.568V124.636Z" fill="#BCBCBC"/>
<path d="M1273.98 16.7434C1273.49 16.7408 1273.01 16.8827 1272.61 17.1514C1272.2 17.42 1271.88 17.8033 1271.7 18.2525C1271.51 18.7017 1271.46 19.1967 1271.55 19.6748C1271.64 20.1528 1271.88 20.5924 1272.22 20.9378C1272.56 21.2832 1273 21.5188 1273.48 21.6148C1273.95 21.7108 1274.45 21.6629 1274.9 21.4772C1275.35 21.2914 1275.73 20.9761 1276 20.5713C1276.27 20.1665 1276.42 19.6904 1276.42 19.2033C1276.42 18.5532 1276.16 17.9296 1275.7 17.4687C1275.24 17.0078 1274.62 16.747 1273.98 16.7434ZM1273.98 20.7526C1273.67 20.7526 1273.37 20.6617 1273.12 20.4915C1272.86 20.3212 1272.66 20.0793 1272.55 19.7962C1272.43 19.5131 1272.4 19.2016 1272.46 18.901C1272.52 18.6005 1272.67 18.3244 1272.88 18.1078C1273.1 17.8911 1273.37 17.7435 1273.67 17.6838C1273.97 17.624 1274.28 17.6547 1274.57 17.7719C1274.85 17.8892 1275.09 18.0878 1275.26 18.3425C1275.43 18.5973 1275.52 18.8969 1275.52 19.2033C1275.52 19.6131 1275.35 20.0051 1275.06 20.2949C1274.78 20.5847 1274.38 20.749 1273.98 20.7526Z" fill="#BCBCBC"/>
<path d="M905.513 117.569C905.513 116.521 905.202 115.495 904.62 114.623C904.038 113.752 903.211 113.072 902.244 112.671C901.276 112.271 900.212 112.167 899.185 112.372C898.158 112.578 897.216 113.084 896.476 113.826C895.737 114.569 895.234 115.515 895.031 116.544C894.829 117.573 894.935 118.639 895.338 119.607C895.74 120.575 896.421 121.402 897.293 121.983C898.164 122.564 899.189 122.872 900.236 122.87C900.93 122.87 901.617 122.732 902.258 122.466C902.9 122.199 903.482 121.809 903.972 121.316C904.462 120.824 904.851 120.24 905.115 119.597C905.38 118.954 905.515 118.265 905.513 117.569ZM895.854 117.569C895.854 116.701 896.111 115.853 896.592 115.131C897.074 114.409 897.758 113.846 898.559 113.514C899.36 113.182 900.241 113.095 901.091 113.264C901.941 113.434 902.721 113.852 903.334 114.466C903.947 115.079 904.364 115.862 904.533 116.713C904.703 117.565 904.616 118.447 904.284 119.249C903.952 120.051 903.391 120.737 902.67 121.219C901.95 121.702 901.102 121.959 900.236 121.959C899.66 121.959 899.09 121.846 898.559 121.625C898.027 121.404 897.544 121.081 897.137 120.673C896.73 120.266 896.408 119.782 896.187 119.249C895.967 118.717 895.854 118.146 895.854 117.569Z" fill="#BCBCBC"/>
<path d="M902.691 117.569C902.691 117.083 902.547 116.607 902.277 116.203C902.008 115.798 901.624 115.483 901.175 115.297C900.727 115.111 900.233 115.062 899.757 115.157C899.28 115.252 898.843 115.486 898.499 115.83C898.156 116.174 897.922 116.612 897.827 117.09C897.733 117.567 897.781 118.061 897.967 118.511C898.153 118.96 898.468 119.344 898.872 119.615C899.275 119.885 899.75 120.029 900.236 120.029C900.887 120.029 901.512 119.77 901.972 119.309C902.433 118.848 902.691 118.222 902.691 117.569ZM898.689 117.569C898.692 117.264 898.785 116.965 898.956 116.712C899.128 116.459 899.37 116.263 899.653 116.148C899.936 116.033 900.247 116.004 900.546 116.065C900.845 116.127 901.119 116.275 901.334 116.492C901.549 116.71 901.695 116.986 901.754 117.286C901.812 117.586 901.781 117.897 901.663 118.179C901.546 118.461 901.348 118.703 901.094 118.872C900.839 119.042 900.541 119.132 900.236 119.132C899.824 119.129 899.431 118.963 899.141 118.67C898.852 118.377 898.689 117.982 898.689 117.569Z" fill="#BCBCBC"/>
<path d="M802.165 5.28675C802.165 4.80023 802.021 4.32465 801.751 3.92013C801.481 3.51561 801.097 3.20033 800.649 3.01415C800.2 2.82797 799.706 2.77926 799.23 2.87417C798.754 2.96908 798.316 3.20336 797.973 3.54738C797.629 3.89139 797.396 4.32969 797.301 4.80685C797.206 5.28402 797.255 5.77861 797.441 6.22808C797.626 6.67756 797.941 7.06174 798.345 7.33203C798.749 7.60232 799.223 7.74658 799.709 7.74658C800.36 7.74658 800.985 7.48742 801.445 7.02611C801.906 6.5648 802.165 5.93914 802.165 5.28675ZM798.163 5.28675C798.154 4.97872 798.238 4.67527 798.403 4.41518C798.568 4.1551 798.807 3.95019 799.088 3.82665C799.37 3.70311 799.683 3.66655 799.985 3.72165C800.288 3.77675 800.567 3.92099 800.788 4.13595C801.008 4.35091 801.159 4.62682 801.222 4.92841C801.285 5.23 801.257 5.54358 801.141 5.82906C801.026 6.11454 800.828 6.35895 800.572 6.53106C800.317 6.70317 800.017 6.79516 799.709 6.79527C799.307 6.79201 798.922 6.63327 798.633 6.35219C798.345 6.07112 798.177 5.68941 798.163 5.28675Z" fill="#BCBCBC"/>
<path d="M819.624 47.2535C820.672 47.2562 821.697 46.9473 822.569 46.3659C823.441 45.7845 824.121 44.9569 824.524 43.9879C824.926 43.0188 825.032 41.952 824.828 40.9226C824.624 39.8932 824.12 38.9475 823.379 38.2055C822.638 37.4634 821.695 36.9583 820.667 36.7543C819.639 36.5502 818.574 36.6563 817.607 37.0591C816.64 37.462 815.814 38.1434 815.233 39.0171C814.653 39.8908 814.345 40.9174 814.347 41.9669C814.351 43.3679 814.908 44.7104 815.897 45.7011C816.886 46.6918 818.226 47.2499 819.624 47.2535ZM819.624 37.5772C820.492 37.5745 821.34 37.8297 822.063 38.3104C822.785 38.7911 823.349 39.4757 823.683 40.2776C824.016 41.0794 824.105 41.9625 823.938 42.8149C823.77 43.6673 823.354 44.4507 822.741 45.066C822.129 45.6812 821.348 46.1007 820.498 46.2711C819.648 46.4416 818.766 46.3555 817.964 46.0237C817.163 45.6918 816.478 45.1292 815.996 44.407C815.513 43.6849 815.256 42.8356 815.256 41.9669C815.256 40.805 815.716 39.6905 816.535 38.8677C817.354 38.0449 818.465 37.5808 819.624 37.5772Z" fill="#BCBCBC"/>
<path d="M819.625 44.4131C820.111 44.4157 820.588 44.2734 820.994 44.0042C821.4 43.7349 821.717 43.3509 821.904 42.9008C822.092 42.4508 822.141 41.9551 822.047 41.4767C821.953 40.9983 821.719 40.5587 821.374 40.2139C821.03 39.869 820.591 39.6345 820.114 39.54C819.636 39.4455 819.141 39.4954 818.692 39.6833C818.243 39.8711 817.86 40.1885 817.591 40.5951C817.322 41.0017 817.18 41.4791 817.183 41.9668C817.186 42.6145 817.445 43.2346 817.902 43.6926C818.359 44.1506 818.978 44.4095 819.625 44.4131ZM819.625 40.4039C819.932 40.4066 820.233 40.5005 820.488 40.6739C820.742 40.8472 820.94 41.0923 821.056 41.3781C821.172 41.6639 821.201 41.9777 821.139 42.2799C821.078 42.5822 820.928 42.8594 820.709 43.0766C820.491 43.2939 820.213 43.4414 819.91 43.5006C819.608 43.5598 819.295 43.528 819.011 43.4094C818.727 43.2907 818.484 43.0904 818.313 42.8337C818.142 42.577 818.051 42.2753 818.051 41.9668C818.051 41.7604 818.092 41.5561 818.171 41.3656C818.25 41.175 818.366 41.0021 818.513 40.8568C818.659 40.7115 818.833 40.5967 819.023 40.519C819.214 40.4412 819.419 40.4021 819.625 40.4039Z" fill="#BCBCBC"/>
<path d="M1053.32 21.6222C1053.32 21.1357 1053.17 20.6601 1052.9 20.2556C1052.63 19.8511 1052.25 19.5358 1051.8 19.3496C1051.35 19.1634 1050.86 19.1147 1050.38 19.2096C1049.91 19.3045 1049.47 19.5388 1049.13 19.8828C1048.78 20.2268 1048.55 20.6651 1048.45 21.1423C1048.36 21.6195 1048.41 22.1141 1048.59 22.5635C1048.78 23.013 1049.09 23.3972 1049.5 23.6675C1049.9 23.9378 1050.38 24.082 1050.86 24.082C1051.51 24.082 1052.14 23.8229 1052.6 23.3616C1053.06 22.9003 1053.32 22.2746 1053.32 21.6222ZM1049.32 21.6222C1049.32 21.3158 1049.41 21.0162 1049.58 20.7615C1049.75 20.5067 1049.99 20.3081 1050.27 20.1908C1050.55 20.0736 1050.86 20.0429 1051.16 20.1027C1051.46 20.1625 1051.74 20.31 1051.96 20.5267C1052.17 20.7434 1052.32 21.0194 1052.38 21.3199C1052.44 21.6205 1052.41 21.932 1052.29 22.2151C1052.17 22.4982 1051.98 22.7401 1051.72 22.9104C1051.47 23.0806 1051.17 23.1715 1050.86 23.1715C1050.45 23.1715 1050.06 23.0083 1049.77 22.7177C1049.48 22.4272 1049.32 22.0331 1049.32 21.6222Z" fill="#BCBCBC"/>
<path d="M1071.74 143.839C1071.74 143.353 1071.6 142.877 1071.33 142.473C1071.06 142.068 1070.67 141.753 1070.23 141.567C1069.78 141.381 1069.28 141.332 1068.81 141.427C1068.33 141.522 1067.89 141.756 1067.55 142.1C1067.21 142.444 1066.97 142.882 1066.88 143.36C1066.78 143.837 1066.83 144.331 1067.02 144.781C1067.2 145.23 1067.52 145.614 1067.92 145.885C1068.33 146.155 1068.8 146.299 1069.29 146.299C1069.94 146.299 1070.56 146.04 1071.02 145.579C1071.48 145.118 1071.74 144.492 1071.74 143.839ZM1067.74 143.839C1067.74 143.534 1067.84 143.235 1068.01 142.982C1068.18 142.729 1068.42 142.533 1068.7 142.418C1068.99 142.303 1069.3 142.274 1069.6 142.335C1069.9 142.397 1070.17 142.545 1070.38 142.762C1070.6 142.98 1070.75 143.256 1070.8 143.556C1070.86 143.856 1070.83 144.167 1070.71 144.449C1070.6 144.731 1070.4 144.973 1070.14 145.142C1069.89 145.312 1069.59 145.402 1069.29 145.402C1068.88 145.392 1068.5 145.222 1068.21 144.93C1067.93 144.637 1067.78 144.246 1067.78 143.839H1067.74Z" fill="#BCBCBC"/>
<path d="M1013.41 135.169C1013.98 135.17 1014.55 135.006 1015.03 134.695C1015.52 134.384 1015.91 133.94 1016.15 133.415C1016.39 132.89 1016.48 132.307 1016.4 131.734C1016.32 131.162 1016.07 130.625 1015.7 130.186C1015.32 129.748 1014.83 129.427 1014.28 129.261C1013.72 129.096 1013.13 129.093 1012.58 129.253C1012.03 129.412 1011.53 129.728 1011.15 130.163C1010.77 130.597 1010.52 131.132 1010.44 131.704H982.204V199.777H983.113V132.614H1010.39C1010.51 133.332 1010.87 133.985 1011.42 134.455C1011.98 134.924 1012.68 135.178 1013.41 135.169ZM1013.41 130.046C1013.83 130.043 1014.24 130.165 1014.59 130.397C1014.94 130.629 1015.21 130.96 1015.37 131.348C1015.53 131.736 1015.58 132.163 1015.5 132.576C1015.41 132.988 1015.21 133.367 1014.92 133.665C1014.62 133.962 1014.24 134.164 1013.83 134.246C1013.42 134.327 1012.99 134.284 1012.6 134.122C1012.22 133.96 1011.89 133.686 1011.65 133.335C1011.42 132.984 1011.3 132.572 1011.3 132.152C1011.3 131.593 1011.52 131.058 1011.92 130.663C1012.31 130.267 1012.85 130.046 1013.41 130.046Z" fill="#BCBCBC"/>
<path d="M1263.41 165.068C1262.65 165.075 1261.93 165.366 1261.38 165.881C1260.83 166.397 1260.49 167.1 1260.44 167.853C1260.38 168.605 1260.6 169.352 1261.07 169.946C1261.53 170.54 1262.2 170.938 1262.95 171.061V205.213H1263.85V171.061C1264.6 170.938 1265.27 170.541 1265.73 169.949C1266.2 169.356 1266.42 168.611 1266.37 167.859C1266.31 167.108 1265.98 166.404 1265.43 165.888C1264.88 165.371 1264.16 165.079 1263.41 165.068ZM1263.41 170.191C1262.99 170.191 1262.58 170.068 1262.24 169.836C1261.89 169.605 1261.62 169.276 1261.46 168.891C1261.3 168.506 1261.26 168.082 1261.34 167.674C1261.43 167.265 1261.63 166.89 1261.92 166.595C1262.21 166.301 1262.59 166.1 1263 166.019C1263.4 165.937 1263.83 165.979 1264.21 166.139C1264.6 166.298 1264.92 166.568 1265.16 166.914C1265.39 167.261 1265.51 167.668 1265.51 168.085C1265.51 168.362 1265.46 168.637 1265.35 168.893C1265.25 169.149 1265.09 169.382 1264.9 169.578C1264.7 169.774 1264.47 169.929 1264.21 170.034C1263.96 170.14 1263.68 170.193 1263.41 170.191Z" fill="#BCBCBC"/>
<path d="M891.173 165.883C890.218 165.883 889.284 166.167 888.49 166.698C887.696 167.23 887.077 167.986 886.711 168.87C886.346 169.754 886.25 170.727 886.437 171.665C886.623 172.604 887.083 173.466 887.758 174.142C888.434 174.819 889.294 175.28 890.231 175.466C891.168 175.653 892.139 175.557 893.022 175.191C893.904 174.825 894.658 174.205 895.189 173.409C895.72 172.613 896.003 171.678 896.003 170.721C896.003 169.438 895.494 168.207 894.588 167.3C893.683 166.393 892.454 165.883 891.173 165.883Z" fill="#BCBCBC"/>
<path d="M986.274 51.6431C987.229 51.6431 988.163 51.3593 988.957 50.8277C989.751 50.2961 990.37 49.5405 990.736 48.6564C991.101 47.7724 991.197 46.7996 991.01 45.8611C990.824 44.9226 990.364 44.0605 989.689 43.3839C989.013 42.7072 988.153 42.2464 987.216 42.0598C986.279 41.8731 985.308 41.9689 984.425 42.3351C983.543 42.7013 982.789 43.3214 982.258 44.117C981.727 44.9126 981.444 45.848 981.444 46.8049C981.444 48.0881 981.953 49.3187 982.859 50.226C983.764 51.1333 984.993 51.6431 986.274 51.6431Z" fill="#BCBCBC"/>
<path d="M963.753 121.606C963.023 121.603 962.308 121.818 961.7 122.222C961.091 122.627 960.616 123.203 960.335 123.878C960.053 124.554 959.978 125.297 960.119 126.015C960.26 126.733 960.61 127.393 961.126 127.912C961.641 128.43 962.299 128.783 963.015 128.927C963.731 129.071 964.474 128.998 965.149 128.719C965.824 128.44 966.401 127.966 966.807 127.358C967.213 126.749 967.43 126.034 967.43 125.303C967.432 124.818 967.338 124.337 967.154 123.889C966.97 123.441 966.7 123.033 966.358 122.689C966.016 122.346 965.61 122.074 965.164 121.888C964.717 121.702 964.237 121.606 963.753 121.606Z" fill="#BCBCBC"/>
<path d="M939.239 37.686C939.242 36.9543 939.028 36.2383 938.624 35.6286C938.22 35.0189 937.645 34.543 936.971 34.2611C936.296 33.9793 935.554 33.9041 934.837 34.0452C934.121 34.1863 933.462 34.5373 932.945 35.0537C932.427 35.5701 932.074 36.2288 931.931 36.9462C931.787 37.6636 931.86 38.4076 932.139 39.0838C932.417 39.7601 932.89 40.3382 933.498 40.745C934.105 41.1518 934.819 41.3689 935.549 41.3689C936.525 41.3689 937.462 40.9814 938.153 40.2911C938.845 39.6008 939.235 38.664 939.239 37.686Z" fill="#BCBCBC"/>
<path d="M1034.04 79.1091C1034.77 79.1091 1035.48 78.8931 1036.08 78.4884C1036.69 78.0837 1037.16 77.5085 1037.44 76.8355C1037.72 76.1626 1037.79 75.422 1037.65 74.7076C1037.5 73.9932 1037.15 73.337 1036.64 72.8219C1036.13 72.3068 1035.47 71.956 1034.76 71.8139C1034.04 71.6718 1033.31 71.7448 1032.63 72.0235C1031.96 72.3023 1031.39 72.7743 1030.98 73.38C1030.58 73.9856 1030.36 74.6977 1030.36 75.4261C1030.36 75.9098 1030.46 76.3887 1030.64 76.8355C1030.83 77.2824 1031.1 77.6884 1031.44 78.0304C1031.78 78.3724 1032.19 78.6437 1032.63 78.8287C1033.08 79.0138 1033.56 79.1091 1034.04 79.1091Z" fill="#BCBCBC"/>
<path d="M1245.39 68.2505C1246.12 68.2505 1246.83 68.0344 1247.43 67.6298C1248.04 67.2251 1248.51 66.6499 1248.79 65.9769C1249.07 65.3039 1249.14 64.5634 1249 63.849C1248.85 63.1345 1248.5 62.4783 1247.99 61.9632C1247.48 61.4482 1246.82 61.0974 1246.11 60.9553C1245.39 60.8132 1244.66 60.8861 1243.98 61.1649C1243.31 61.4436 1242.74 61.9157 1242.33 62.5213C1241.93 63.127 1241.71 63.8391 1241.71 64.5675C1241.71 65.5443 1242.1 66.481 1242.79 67.1717C1243.48 67.8624 1244.42 68.2505 1245.39 68.2505Z" fill="#BCBCBC"/>
<path d="M853.201 175.709C853.932 175.709 854.646 175.492 855.253 175.085C855.86 174.678 856.333 174.1 856.612 173.424C856.891 172.747 856.963 172.003 856.819 171.286C856.676 170.569 856.323 169.91 855.806 169.394C855.288 168.877 854.629 168.526 853.913 168.385C853.196 168.244 852.454 168.319 851.78 168.601C851.106 168.883 850.53 169.359 850.126 169.968C849.723 170.578 849.509 171.294 849.511 172.026C849.515 173.004 849.905 173.941 850.597 174.631C851.288 175.321 852.225 175.709 853.201 175.709Z" fill="#BCBCBC"/>
<path d="M1298.8 118.929C1298.8 118.375 1298.64 117.834 1298.33 117.373C1298.02 116.913 1297.59 116.554 1297.08 116.342C1296.57 116.13 1296 116.075 1295.46 116.183C1294.92 116.291 1294.42 116.557 1294.03 116.949C1293.64 117.34 1293.37 117.839 1293.27 118.382C1293.16 118.925 1293.21 119.488 1293.42 120C1293.64 120.511 1293.99 120.949 1294.45 121.256C1294.91 121.564 1295.45 121.728 1296.01 121.728C1296.75 121.728 1297.46 121.433 1297.98 120.908C1298.51 120.383 1298.8 119.671 1298.8 118.929Z" fill="#BCBCBC"/>
<path d="M1372.91 91.7073C1372.36 91.7073 1371.82 91.8715 1371.36 92.1791C1370.9 92.4867 1370.54 92.9239 1370.33 93.4355C1370.12 93.9471 1370.07 94.51 1370.17 95.053C1370.28 95.5961 1370.55 96.095 1370.94 96.4865C1371.33 96.878 1371.83 97.1446 1372.37 97.2527C1372.91 97.3607 1373.47 97.3053 1373.98 97.0934C1374.49 96.8815 1374.93 96.5226 1375.24 96.0622C1375.55 95.6018 1375.71 95.0606 1375.71 94.5069C1375.71 93.7644 1375.41 93.0523 1374.89 92.5273C1374.37 92.0022 1373.66 91.7073 1372.91 91.7073Z" fill="#BCBCBC"/>
<path d="M1265.82 141.679C1265.82 140.856 1265.58 140.052 1265.12 139.368C1264.67 138.684 1264.02 138.151 1263.26 137.837C1262.5 137.522 1261.67 137.439 1260.86 137.6C1260.06 137.76 1259.32 138.156 1258.74 138.738C1258.15 139.32 1257.76 140.061 1257.6 140.867C1257.44 141.674 1257.52 142.51 1257.84 143.27C1258.15 144.03 1258.68 144.679 1259.36 145.136C1260.05 145.593 1260.85 145.837 1261.67 145.837C1262.77 145.837 1263.83 145.399 1264.61 144.619C1265.38 143.839 1265.82 142.782 1265.82 141.679Z" fill="#BCBCBC"/>
<path d="M1271.42 101.927C1271.44 101.101 1271.21 100.29 1270.76 99.595C1270.32 98.9005 1269.68 98.3548 1268.92 98.0275C1268.16 97.7002 1267.33 97.6061 1266.51 97.7572C1265.7 97.9084 1264.96 98.2979 1264.37 98.8761C1263.78 99.4543 1263.38 100.195 1263.21 101.004C1263.04 101.813 1263.12 102.653 1263.43 103.418C1263.74 104.182 1264.27 104.837 1264.96 105.297C1265.64 105.758 1266.45 106.004 1267.27 106.004C1268.36 106.004 1269.4 105.578 1270.18 104.815C1270.96 104.053 1271.4 103.016 1271.42 101.927Z" fill="#BCBCBC"/>
</g>
</g>
<defs>
<clipPath id="clip0_6_9714">
<rect width="1440" height="256" fill="white"/>
</clipPath>
</defs>
</svg>
