<svg width="1440" height="480" viewBox="0 0 1440 480" fill="none" xmlns="http://www.w3.org/2000/svg">
<g style="mix-blend-mode:hard-light" opacity="0.6">
<path d="M-89.668 241.652C-83.1753 243.242 12.8149 109.768 152.567 282.412C292.32 455.055 384.411 363.056 488.883 227.467C594.326 91.607 690.698 317.971 937.962 270.739C1108.24 238.074 1270.55 -37.478 1511.64 80.4749" stroke="#666666" stroke-width="0.47" stroke-miterlimit="10"/>
<path d="M-88.7609 246.773C-80.088 248.84 19.0531 111.184 158.36 279.326C297.667 447.469 387.61 366.395 493.052 233.335C599.164 99.4471 693.992 310.512 943.038 263.662C1114.2 231.299 1275.63 -27.3638 1512.26 89.5872" stroke="#666666" stroke-width="0.47" stroke-miterlimit="10"/>
<path d="M-87.7902 251.894C-76.9531 254.47 25.3389 112.599 164.2 276.257C303.061 439.915 391.063 369.91 497.238 239.171C604.24 107.446 697.286 303.054 948.178 256.665C1120.04 224.525 1280.77 -17.2333 1512.9 98.7157" stroke="#666666" stroke-width="0.47" stroke-miterlimit="10"/>
<path d="M-86.9149 257.015C-73.9136 260.1 31.561 113.998 170.008 273.188C308.456 432.377 394.58 373.377 501.471 245.055C609.396 115.446 700.644 295.611 953.255 249.508C1126.08 217.702 1285.85 -7.10312 1513.58 107.828" stroke="#666666" stroke-width="0.47" stroke-miterlimit="10"/>
<path d="M-86.0078 262.135C-70.8423 265.729 37.7674 115.414 175.737 270.087C313.707 424.76 397.969 376.923 505.576 250.908C614.425 123.445 703.874 288.137 958.268 242.416C1131.92 210.975 1290.86 2.99528 1514.14 116.925" stroke="#666666" stroke-width="0.47" stroke-miterlimit="10"/>
<path d="M-85.0848 267.256C-67.755 271.375 44.0054 116.813 181.53 267.033C319.054 417.254 401.422 380.454 509.746 256.776C619.549 131.46 707.168 280.631 963.28 235.355C1137.82 204.185 1295.9 13.1415 1514.78 126.053" stroke="#666666" stroke-width="0.47" stroke-miterlimit="10"/>
<path d="M-84.1779 272.377C-64.6679 277.005 50.2435 118.229 187.322 263.964C324.401 409.699 404.892 383.968 513.915 262.644C624.609 139.475 710.462 273.235 968.42 228.278C1143.72 197.442 1301.01 23.2715 1515.4 135.165" stroke="#666666" stroke-width="0.47" stroke-miterlimit="10"/>
<path d="M-83.2549 277.498C-61.5807 282.634 56.4815 119.644 193.115 260.879C329.748 402.114 408.361 387.483 518.084 268.512C629.717 147.474 713.82 265.793 973.497 221.201C1149.63 190.667 1306.09 33.386 1516.02 144.294" stroke="#666666" stroke-width="0.47" stroke-miterlimit="10"/>
<path d="M-82.3478 282.619C-58.4775 288.264 62.7196 121.044 198.907 257.81C335.095 394.576 411.893 390.998 522.254 274.365C634.826 155.49 717.051 258.335 978.573 214.14C1155.53 183.924 1311.17 43.5164 1516.66 153.406" stroke="#666666" stroke-width="0.47" stroke-miterlimit="10"/>
<path d="M-81.4248 287.739C-55.4222 293.894 68.9577 122.459 204.684 254.724C340.41 386.99 415.299 394.512 526.439 280.169C639.934 163.441 720.345 250.812 983.649 207.015C1161.43 177.07 1316.24 53.5988 1517.28 162.487" stroke="#666666" stroke-width="0.47" stroke-miterlimit="10"/>
<path d="M-80.5018 292.86C-52.3349 299.539 75.1958 123.874 210.476 251.655C345.757 379.436 418.784 398.043 530.608 286.101C645.058 171.599 723.655 243.433 988.726 199.986C1167.34 170.343 1321.24 63.7608 1517.88 171.631" stroke="#666666" stroke-width="0.47" stroke-miterlimit="10"/>
<path d="M-79.5947 298.012C-49.2477 305.201 81.4339 125.305 216.269 248.618C351.104 371.93 422.269 401.589 534.778 291.985C650.182 179.535 726.981 235.991 993.802 192.909C1173.24 163.568 1326.3 73.8909 1518.53 180.743" stroke="#666666" stroke-width="0.47" stroke-miterlimit="10"/>
<path d="M-78.6718 303.086C-46.1764 310.735 87.6561 126.689 222.061 245.533C356.467 364.376 425.754 405.119 538.947 297.853C655.306 187.582 730.243 228.548 998.847 185.864C1179.13 156.794 1331.38 84.0212 1519.15 189.872" stroke="#666666" stroke-width="0.47" stroke-miterlimit="10"/>
<path d="M-77.7646 308.206C-43.0891 316.428 93.8942 128.089 227.854 242.431C361.814 356.774 429.255 408.618 543.116 303.674C660.43 195.533 733.537 221.058 1003.96 178.756C1185.03 150.114 1336.47 94.1515 1519.77 198.984" stroke="#666666" stroke-width="0.47" stroke-miterlimit="10"/>
<path d="M-76.8417 313.327C-40.0497 322.074 100.132 129.44 233.662 239.362C367.193 349.284 432.772 412.149 547.301 309.542C665.587 203.58 736.847 213.615 1009.05 171.679C1190.95 143.26 1341.51 104.266 1520.43 208.097" stroke="#666666" stroke-width="0.47" stroke-miterlimit="10"/>
<path d="M-75.9347 318.448C-36.8671 327.703 106.354 130.919 239.439 236.277C372.523 341.634 436.257 415.695 551.455 315.41C670.711 211.611 740.125 206.156 1014.11 164.602C1196.84 136.485 1346.57 114.396 1521.06 217.209" stroke="#666666" stroke-width="0.47" stroke-miterlimit="10"/>
<path d="M-75.0593 323.569C-33.8911 333.333 112.561 132.319 245.184 233.208C377.807 334.096 439.71 419.273 555.592 321.263C675.803 219.642 743.372 198.698 1019.14 157.461C1202.79 129.711 1351.63 124.526 1521.65 226.322" stroke="#666666" stroke-width="0.47" stroke-miterlimit="10"/>
<path d="M-74.0886 328.69C-30.7562 338.963 118.847 133.734 251.024 230.091C383.202 326.447 443.275 422.724 559.746 327.099C680.943 227.642 746.65 191.208 1024.2 150.432C1208.59 122.904 1356.65 134.529 1522.29 235.418" stroke="#666666" stroke-width="0.47" stroke-miterlimit="10"/>
<path d="M-73.1816 333.81C-27.669 344.609 125.085 135.15 256.816 227.053C388.548 318.957 446.792 426.302 563.947 332.999C686.163 235.705 750.007 183.797 1029.34 143.387C1214.55 116.161 1361.77 144.771 1522.91 244.563" stroke="#666666" stroke-width="0.47" stroke-miterlimit="10"/>
<path d="M-72.2585 338.931C-24.5181 350.238 131.323 136.549 262.609 223.984C393.895 311.419 450.388 429.849 568.148 338.851C691.319 243.735 753.302 176.338 1034.41 136.31C1220.46 109.386 1366.85 154.885 1523.53 253.675" stroke="#666666" stroke-width="0.47" stroke-miterlimit="10"/>
<path d="M-71.3516 344.131C-21.5105 355.947 137.561 138.044 268.402 220.978C399.242 303.913 453.841 433.475 572.349 344.799C696.475 251.862 756.643 168.959 1039.52 129.313C1226.39 102.691 1371.94 165.095 1524.18 262.899" stroke="#666666" stroke-width="0.47" stroke-miterlimit="10"/>
<path d="M-70.4286 349.173C-18.4233 361.498 143.799 139.38 274.194 217.83C404.589 296.279 457.374 436.958 576.55 350.588C701.646 259.845 759.906 161.437 1044.58 122.157C1232.27 95.8374 1376.98 175.146 1524.79 271.916" stroke="#666666" stroke-width="0.47" stroke-miterlimit="10"/>
<path d="M-69.5215 354.293C-15.336 367.143 150.085 140.779 279.987 214.76C409.888 288.741 460.907 440.583 580.656 356.44C706.818 267.876 763.2 153.979 1049.66 115.128C1238.17 89.1261 1382.04 185.324 1525.47 281.076" stroke="#666666" stroke-width="0.47" stroke-miterlimit="10"/>
<path d="M-68.5985 359.414C-12.2488 372.757 156.275 142.163 285.779 211.675C415.283 281.187 464.408 444.082 584.841 362.308C711.99 275.939 766.494 146.52 1054.8 108.003C1244.17 82.3037 1387.17 195.47 1526.09 290.141" stroke="#666666" stroke-width="0.47" stroke-miterlimit="10"/>
<path d="M-67.6755 364.535C-9.17753 378.403 162.513 143.594 291.556 208.606C420.598 273.617 467.973 447.66 589.011 368.161C717.162 284.002 769.788 139.062 1059.81 100.99C1249.96 75.545 1392.18 205.584 1526.67 299.317" stroke="#666666" stroke-width="0.47" stroke-miterlimit="10"/>
<path d="M-66.7684 369.576C-6.09028 383.968 168.751 144.946 297.348 205.457C425.945 265.968 471.521 451.159 593.18 374.029C722.35 292.065 773.13 131.619 1064.89 93.8493C1255.85 68.7543 1397.24 215.651 1527.29 308.365" stroke="#666666" stroke-width="0.47" stroke-miterlimit="10"/>
<path d="M-65.8455 374.76C-3.00307 389.677 174.973 146.425 303.141 202.451C431.308 258.477 475.006 454.816 597.349 379.897C727.522 300.143 776.376 124.16 1069.98 86.7723C1261.79 61.9795 1402.33 225.765 1527.92 317.494" stroke="#666666" stroke-width="0.47" stroke-miterlimit="10"/>
<path d="M-64.9384 379.881C0.0841815 395.307 181.148 147.824 308.933 199.414C436.719 251.003 478.619 458.395 601.519 385.749C732.71 308.222 779.67 116.718 1075.04 79.7114C1267.59 55.2048 1407.38 235.895 1528.58 326.606" stroke="#666666" stroke-width="0.47" stroke-miterlimit="10"/>
<path d="M-64.0154 385.002C3.15548 400.905 187.418 149.24 314.726 196.297C442.034 243.354 482.168 461.989 605.688 391.618C737.897 316.301 782.964 109.244 1080.12 72.6348C1273.58 48.4303 1412.45 245.978 1529.16 335.719" stroke="#666666" stroke-width="0.47" stroke-miterlimit="10"/>
<path d="M-63.1084 390.123C6.24261 406.567 193.688 150.655 320.518 193.227C447.349 235.8 485.716 465.583 609.857 397.486C743.085 324.332 786.258 101.801 1085.19 65.5579C1279.48 41.7033 1417.51 256.156 1529.78 344.831" stroke="#666666" stroke-width="0.47" stroke-miterlimit="10"/>
<path d="M-62.1854 395.244C9.28207 412.212 199.926 152.054 326.311 190.158C452.696 228.262 489.265 469.193 614.043 403.259C748.289 332.411 789.568 94.2628 1090.27 58.4015C1285.39 34.8809 1422.59 266.206 1530.42 353.944" stroke="#666666" stroke-width="0.47" stroke-miterlimit="10"/>
<path d="M-61.2623 400.365C12.4172 417.858 206.164 153.47 332.103 187.073C458.043 220.676 492.83 472.803 618.212 409.207C753.477 340.585 792.863 86.8839 1095.35 51.3883C1291.29 28.1062 1427.65 276.384 1531.04 363.088" stroke="#666666" stroke-width="0.47" stroke-miterlimit="10"/>
<path d="M-60.3553 405.485C15.4884 423.472 212.402 154.885 337.896 184.004C463.39 213.122 496.378 476.413 622.381 415.059C758.68 348.711 796.157 79.5048 1100.42 44.3272C1297.19 21.3473 1432.71 286.53 1531.68 372.184" stroke="#666666" stroke-width="0.47" stroke-miterlimit="10"/>
<path d="M-59.4324 410.606C18.5438 429.101 218.64 156.285 343.688 180.919C468.737 205.552 499.943 480.039 626.551 420.927C763.868 356.854 799.451 71.9827 1105.5 37.2028C1303.05 14.5728 1437.79 296.645 1532.3 381.297" stroke="#666666" stroke-width="0.47" stroke-miterlimit="10"/>
<path d="M-58.5253 415.695C21.6628 434.779 224.878 157.668 349.481 177.817C474.084 197.967 503.508 483.665 630.72 426.827C769.072 364.98 802.745 64.5559 1110.58 30.2054C1309 7.8298 1442.85 306.807 1532.92 390.441" stroke="#666666" stroke-width="0.47" stroke-miterlimit="10"/>
<path d="M-57.5546 420.848C24.75 440.376 231.116 159.099 355.273 174.78C479.43 190.46 507.056 487.259 634.889 432.648C774.26 373.075 806.039 57.0656 1115.65 23.0967C1314.9 1.02327 1447.86 316.905 1533.54 399.522" stroke="#666666" stroke-width="0.47" stroke-miterlimit="10"/>
<path d="M-56.6952 425.968C27.8214 446.006 237.354 160.515 361.066 171.695C484.777 182.875 510.653 490.932 639.059 438.516C779.463 381.265 809.333 49.6231 1120.73 16.0359C1320.79 -5.73538 1452.99 327.02 1534.18 408.65" stroke="#666666" stroke-width="0.47" stroke-miterlimit="10"/>
<path d="M-55.7722 431.089C30.9086 451.636 243.592 161.93 366.858 168.689C490.124 175.448 514.17 494.701 643.244 444.448C784.667 389.423 812.627 42.2282 1125.8 9.02262C1326.7 -12.4624 1458.06 337.214 1534.78 417.826" stroke="#666666" stroke-width="0.47" stroke-miterlimit="10"/>
<path d="M-54.8492 436.21C33.9958 457.266 249.831 163.33 372.635 165.556C495.439 167.783 517.734 498.232 647.413 450.236C789.855 397.518 815.921 34.7059 1130.88 1.88208C1332.6 -19.3008 1463.12 347.312 1535.39 426.827" stroke="#666666" stroke-width="0.47" stroke-miterlimit="10"/>
</g>
<g style="mix-blend-mode:multiply" opacity="0.6">
<path d="M1657.38 139.129C1657.38 139.129 1573.84 344.725 1432.6 366.371C1291.37 388.017 1256.85 34.0572 1109.14 56.7149C961.436 79.3727 945.414 398.817 845.442 414.133C745.471 429.45 651.591 121.909 564.664 135.216C477.737 148.524 491.205 381.295 421.66 391.868C352.116 402.442 327.947 291.993 269.512 300.935C211.077 309.878 202.068 468.331 134.7 478.648C67.3321 488.964 7.82391 275.166 -103 292.174" stroke="#383838" stroke-width="0.75" stroke-miterlimit="10"/>
</g>
</svg>
