<svg width="390" height="282" viewBox="0 0 390 282" fill="none" xmlns="http://www.w3.org/2000/svg">
<path d="M318.167 44.5003L155.768 44.5002L106.637 94.1827L41.1666 93.9266" stroke="#D3D3D3"/>
<path d="M348.167 79.5L164.768 79.5L132.637 114.182L65.1666 113.926" stroke="#D3D3D3"/>
<path d="M176.667 47.6454V42H182.312V47.6454H176.667Z" fill="white" stroke="#D3D3D3"/>
<path d="M167.667 47.6454V42H173.312V47.6454H167.667Z" fill="white" stroke="#D3D3D3"/>
<path d="M185.667 47.6454V42H191.312V47.6454H185.667Z" fill="white" stroke="#D3D3D3"/>
<path d="M148.489 99.6454C146.931 99.6454 145.667 98.3816 145.667 96.8227C145.667 95.2638 146.931 94 148.489 94C150.048 94 151.312 95.2638 151.312 96.8227C151.312 98.3816 150.048 99.6454 148.489 99.6454Z" fill="white" stroke="#D3D3D3"/>
<path d="M312.291 185.642L155.768 186.182L119.637 156.5L54.1666 156.756" stroke="#D3D3D3"/>
<path d="M181.667 190V182H189.667V190H181.667Z" fill="white" stroke="#D3D3D3"/>
<path d="M184.667 187V185H186.667V187H184.667Z" fill="#D3D3D3" stroke="#D3D3D3"/>
<path d="M169.667 190V182H177.667V190H169.667Z" fill="white" stroke="#D3D3D3"/>
<path d="M172.667 187V185H174.667V187H172.667Z" fill="#D3D3D3" stroke="#D3D3D3"/>
<path d="M193.667 190V182H201.667V190H193.667Z" fill="white" stroke="#D3D3D3"/>
<path d="M196.667 187V185H198.667V187H196.667Z" fill="#D3D3D3" stroke="#D3D3D3"/>
<path d="M333.167 228.182L143.768 228.182L93.6371 183.5L45.1666 183.756" stroke="#D3D3D3"/>
<path d="M333.167 147.182L158.768 147.182L144.637 135.5L34.1666 135.756" stroke="#D3D3D3"/>
<path d="M158.489 149.645C156.93 149.645 155.667 148.382 155.667 146.823C155.667 145.264 156.93 144 158.489 144C160.048 144 161.312 145.264 161.312 146.823C161.312 148.382 160.048 149.645 158.489 149.645Z" fill="white" stroke="#D3D3D3"/>
<path d="M118.489 208.645C116.93 208.645 115.667 207.382 115.667 205.823C115.667 204.264 116.93 203 118.489 203C120.048 203 121.312 204.264 121.312 205.823C121.312 207.382 120.048 208.645 118.489 208.645Z" fill="white" stroke="#D3D3D3"/>
<rect x="232.667" y="133" width="66" height="28" fill="white" stroke="#D3D3D3"/>
<rect x="167.667" y="214" width="96" height="28" fill="white" stroke="#D3D3D3"/>
<rect x="192.667" y="65" width="66" height="28" fill="white" stroke="#D3D3D3"/>
<path d="M268.164 140.543L268.256 140.601C269.34 141.286 270.117 142.224 270.628 143.358C270.751 143.534 270.669 143.631 270.423 143.69L270.008 143.792C269.069 144.023 268.324 144.217 267.397 144.449L266.869 144.58C266.678 144.625 266.626 144.606 266.423 144.386L266.395 144.355C266.106 144.042 265.89 143.833 265.508 143.646L265.434 143.612C264.145 143.006 262.898 143.182 261.733 143.905C260.342 144.765 259.626 146.036 259.647 147.619C259.667 149.183 260.792 150.473 262.407 150.688C263.798 150.864 264.963 150.395 265.884 149.398C266.068 149.183 266.231 148.948 266.436 148.675H262.489C262.06 148.675 261.958 148.421 262.101 148.088L262.172 147.929C262.434 147.344 262.842 146.504 263.107 146.024L263.164 145.92C263.235 145.803 263.379 145.645 263.655 145.645H270.236C270.531 144.75 271.011 143.904 271.65 143.104C273.143 141.227 274.943 140.249 277.376 139.839C279.462 139.487 281.425 139.683 283.204 140.836C284.82 141.892 285.822 143.319 286.087 145.195C286.435 147.834 285.638 149.984 283.736 151.822C282.386 153.132 280.73 153.953 278.828 154.324C278.276 154.422 277.724 154.441 277.192 154.5C275.331 154.461 273.634 153.953 272.202 152.78C271.196 151.948 270.502 150.925 270.158 149.735C269.916 150.201 269.628 150.645 269.299 151.059C267.826 152.917 265.904 154.07 263.471 154.383C261.467 154.637 259.606 154.265 257.97 153.093C256.457 151.998 255.598 150.551 255.373 148.753C255.107 146.622 255.761 144.706 257.111 143.025C258.563 141.207 260.485 140.054 262.837 139.644C264.723 139.317 266.531 139.518 268.164 140.543H268.164ZM277.891 143.344L277.826 143.358C275.924 143.768 274.697 144.921 274.247 146.759C273.879 148.284 274.656 149.828 276.129 150.454C277.253 150.923 278.378 150.864 279.462 150.336C281.077 149.535 281.957 148.284 282.059 146.603C282.038 146.349 282.038 146.153 281.997 145.957C281.634 144.044 279.81 142.952 277.891 143.344ZM253.716 146.915C253.798 146.915 253.839 146.974 253.839 147.052L253.798 147.521C253.798 147.6 253.716 147.658 253.655 147.658L249.197 147.639C249.115 147.639 249.095 147.58 249.136 147.521L249.422 147.033C249.463 146.974 249.545 146.915 249.627 146.915H253.716ZM254.166 145.117C254.248 145.117 254.289 145.176 254.269 145.234L254.105 145.703C254.085 145.782 254.003 145.821 253.921 145.821L244.249 145.84C244.167 145.84 244.146 145.801 244.187 145.742L244.617 145.215C244.658 145.156 244.76 145.117 244.842 145.117H254.166ZM255.23 143.319C255.311 143.319 255.332 143.377 255.291 143.436L254.943 143.944C254.902 144.003 254.8 144.061 254.739 144.061L247.336 144.042C247.255 144.042 247.234 144.003 247.275 143.944L247.704 143.416C247.745 143.358 247.848 143.319 247.929 143.319H255.23Z" fill="#00ACD7"/>
<path d="M216.959 70.5C216.616 70.5 216.259 70.5209 215.892 70.5664L216.105 71.2452C216.426 71.213 216.748 71.1978 217.071 71.1997H217.181L216.961 70.5H216.959ZM221.203 71.1788L221.159 71.9373C221.526 72.0644 221.881 72.199 222.237 72.3488L222.285 71.5827C222.184 71.5258 221.903 71.3855 221.203 71.1788ZM212.058 71.615C211.765 71.7709 211.476 71.9353 211.191 72.108L211.705 72.9157C211.992 72.7318 212.269 72.5555 212.559 72.4076L212.058 71.615ZM217.357 71.6567C216.956 71.6496 216.556 71.6666 216.158 71.7079C215.346 71.7837 214.491 72.0283 213.628 72.4189C211.028 73.5908 208.351 76.0558 206.601 79.0745C204.85 82.0914 204.234 84.7631 204.034 85.9065C203.966 86.2895 203.942 86.5 203.942 86.5H212.724C212.724 86.5 212.619 86.007 212.548 85.2144C212.508 84.7529 212.488 84.2898 212.487 83.8264C212.487 82.7835 212.588 81.5453 212.935 80.3033C213.108 79.6651 213.35 79.0488 213.655 78.4659C213.967 77.8705 214.354 77.294 214.84 76.7707C215.325 76.2473 215.91 75.7752 216.605 75.3751C217.06 75.1475 217.885 74.683 219.073 74.4479C219.469 74.3701 219.903 74.3151 220.38 74.3037C220.857 74.2943 221.374 74.3265 221.929 74.4175C223.04 74.6014 224.309 75.0243 225.733 75.8207C226.445 76.2208 227.196 76.7119 227.985 77.3149C228.186 77.1442 228.371 77.0077 228.371 77.0077C228.371 77.0077 228.012 76.6342 227.369 76.0862C226.727 75.5363 225.805 74.8119 224.679 74.1084C224.087 73.7356 223.476 73.3951 222.849 73.0883C222.179 72.7616 221.487 72.4829 220.78 72.254C220.046 72.0185 219.294 71.8472 218.532 71.742C218.143 71.6921 217.751 71.6636 217.359 71.6567H217.357ZM221.181 74.7854L221.139 75.5116C221.506 75.523 221.872 75.5685 222.239 75.6481L222.285 74.9371C221.921 74.8598 221.552 74.8091 221.181 74.7854ZM218.581 75.0622C218.248 75.1631 217.922 75.286 217.604 75.4301L217.859 76.2227C218.171 76.0639 218.494 75.9301 218.825 75.8226L218.581 75.0622ZM207.567 75.1077C207.279 75.3941 206.998 75.6823 206.744 75.9705L207.6 76.729C207.833 76.4199 208.089 76.1089 208.355 75.8226L207.567 75.1077ZM215.523 76.8105C215.267 77.0532 215.036 77.3168 214.836 77.5822L215.369 78.4071C215.558 78.1208 215.78 77.8572 216.026 77.5917L215.523 76.8105ZM217.337 78.3028V86.5H219.471V84.5223L221.317 86.5H224.472L221.995 83.9136C221.995 83.9136 223.938 83.7429 223.938 81.1452C223.938 78.5474 221.583 78.3028 221.583 78.3028H217.337ZM227.039 78.3635C225.495 78.3635 224.974 79.8103 224.974 80.5005V86.5H227.139V85.0627H229.174V86.5H231.275V80.5005C231.275 78.7522 229.739 78.3635 229.206 78.3635H227.039ZM232.264 78.3635V86.4981H234.519V78.3635H232.264ZM235.441 78.3635V86.5H240.721V84.3952H237.685V78.3635H235.441ZM243.432 78.3635C242.543 78.3635 241.355 79.1201 241.355 80.5327V81.2589C241.355 82.6735 242.532 83.3959 243.432 83.3959C245.933 83.4073 242.833 83.3959 245.143 83.3959V84.4066L241.467 84.418V86.5H245.101C245.845 86.5 247.123 85.9368 247.167 84.363V83.559C247.167 82.2127 246.102 81.4182 245.101 81.4182H243.289V80.455H246.877V78.3635H243.432ZM213.558 80.0169C213.423 80.4306 213.311 80.8523 213.224 81.2798L214.123 82.0155C214.169 81.568 214.249 81.1205 214.361 80.6711L213.558 80.0169ZM227.805 80.3014H228.551C229.151 80.3014 229.163 80.7489 229.163 80.7489V82.7399H227.128V80.7489C227.128 80.7489 227.127 80.3014 227.805 80.3014ZM219.471 80.3602H221.181C221.181 80.3602 221.661 80.5441 221.661 81.2893C221.661 82.0383 221.17 82.2355 221.17 82.2355H219.471V80.3602ZM203.722 80.4758C203.511 80.9688 203.279 81.5434 203.167 81.8543L204.445 82.3379C204.591 81.9473 204.822 81.3822 205 80.9575L203.722 80.4758ZM213.058 84.198C213.08 84.8067 213.136 85.3054 213.193 85.6486L214.524 86.1416C214.412 85.6491 214.324 85.151 214.26 84.6493L213.058 84.198Z" fill="#CC0000"/>
<path d="M197.285 232.5V223.74H199.889C200.481 223.74 200.993 223.852 201.425 224.076C201.865 224.3 202.205 224.616 202.445 225.024C202.685 225.432 202.805 225.916 202.805 226.476V229.752C202.805 230.304 202.685 230.788 202.445 231.204C202.205 231.612 201.865 231.932 201.425 232.164C200.993 232.388 200.481 232.5 199.889 232.5H197.285ZM198.785 231.12H199.889C200.321 231.12 200.665 231 200.921 230.76C201.177 230.512 201.305 230.176 201.305 229.752V226.476C201.305 226.06 201.177 225.732 200.921 225.492C200.665 225.244 200.321 225.12 199.889 225.12H198.785V231.12ZM206.449 232.62C205.769 232.62 205.233 232.44 204.841 232.08C204.449 231.72 204.253 231.236 204.253 230.628C204.253 229.98 204.469 229.48 204.901 229.128C205.333 228.776 205.945 228.6 206.737 228.6H208.381V228.036C208.381 227.716 208.277 227.468 208.069 227.292C207.861 227.108 207.577 227.016 207.217 227.016C206.889 227.016 206.617 227.088 206.401 227.232C206.185 227.376 206.057 227.572 206.017 227.82H204.553C204.625 227.196 204.905 226.7 205.393 226.332C205.881 225.964 206.505 225.78 207.265 225.78C208.073 225.78 208.709 225.984 209.173 226.392C209.645 226.792 209.881 227.336 209.881 228.024V232.5H208.429V231.348H208.189L208.429 231.024C208.429 231.512 208.249 231.9 207.889 232.188C207.529 232.476 207.049 232.62 206.449 232.62ZM206.941 231.492C207.365 231.492 207.709 231.384 207.973 231.168C208.245 230.952 208.381 230.672 208.381 230.328V229.524H206.761C206.457 229.524 206.213 229.612 206.029 229.788C205.845 229.964 205.753 230.196 205.753 230.484C205.753 230.796 205.857 231.044 206.065 231.228C206.281 231.404 206.573 231.492 206.941 231.492ZM215.096 232.5C214.464 232.5 213.968 232.324 213.608 231.972C213.256 231.62 213.08 231.136 213.08 230.52V227.256H211.292V225.9H213.08V224.04H214.592V225.9H217.124V227.256H214.592V230.52C214.592 230.936 214.796 231.144 215.204 231.144H217.004V232.5H215.096ZM220.839 232.62C220.159 232.62 219.623 232.44 219.231 232.08C218.839 231.72 218.643 231.236 218.643 230.628C218.643 229.98 218.859 229.48 219.291 229.128C219.723 228.776 220.335 228.6 221.127 228.6H222.771V228.036C222.771 227.716 222.667 227.468 222.459 227.292C222.251 227.108 221.967 227.016 221.607 227.016C221.279 227.016 221.007 227.088 220.791 227.232C220.575 227.376 220.447 227.572 220.407 227.82H218.943C219.015 227.196 219.295 226.7 219.783 226.332C220.271 225.964 220.895 225.78 221.655 225.78C222.463 225.78 223.099 225.984 223.563 226.392C224.035 226.792 224.271 227.336 224.271 228.024V232.5H222.819V231.348H222.579L222.819 231.024C222.819 231.512 222.639 231.9 222.279 232.188C221.919 232.476 221.439 232.62 220.839 232.62ZM221.331 231.492C221.755 231.492 222.099 231.384 222.363 231.168C222.635 230.952 222.771 230.672 222.771 230.328V229.524H221.151C220.847 229.524 220.603 229.612 220.419 229.788C220.235 229.964 220.143 230.196 220.143 230.484C220.143 230.796 220.247 231.044 220.455 231.228C220.671 231.404 220.963 231.492 221.331 231.492ZM229.331 232.62C228.787 232.62 228.355 232.468 228.035 232.164C227.715 231.852 227.555 231.428 227.555 230.892L227.891 231.24H227.555V232.5H226.091V223.74H227.591V225.588L227.543 227.16H227.891L227.555 227.508C227.555 226.972 227.715 226.552 228.035 226.248C228.355 225.936 228.787 225.78 229.331 225.78C229.995 225.78 230.527 226.008 230.927 226.464C231.327 226.92 231.527 227.536 231.527 228.312V230.1C231.527 230.868 231.327 231.48 230.927 231.936C230.527 232.392 229.995 232.62 229.331 232.62ZM228.803 231.324C229.187 231.324 229.487 231.212 229.703 230.988C229.919 230.764 230.027 230.444 230.027 230.028V228.372C230.027 227.956 229.919 227.636 229.703 227.412C229.487 227.188 229.187 227.076 228.803 227.076C228.427 227.076 228.131 227.192 227.915 227.424C227.699 227.648 227.591 227.964 227.591 228.372V230.028C227.591 230.436 227.699 230.756 227.915 230.988C228.131 231.212 228.427 231.324 228.803 231.324ZM235.23 232.62C234.55 232.62 234.014 232.44 233.622 232.08C233.23 231.72 233.034 231.236 233.034 230.628C233.034 229.98 233.25 229.48 233.682 229.128C234.114 228.776 234.726 228.6 235.518 228.6H237.162V228.036C237.162 227.716 237.058 227.468 236.85 227.292C236.642 227.108 236.358 227.016 235.998 227.016C235.67 227.016 235.398 227.088 235.182 227.232C234.966 227.376 234.838 227.572 234.798 227.82H233.334C233.406 227.196 233.686 226.7 234.174 226.332C234.662 225.964 235.286 225.78 236.046 225.78C236.854 225.78 237.49 225.984 237.954 226.392C238.426 226.792 238.662 227.336 238.662 228.024V232.5H237.21V231.348H236.97L237.21 231.024C237.21 231.512 237.03 231.9 236.67 232.188C236.31 232.476 235.83 232.62 235.23 232.62ZM235.722 231.492C236.146 231.492 236.49 231.384 236.754 231.168C237.026 230.952 237.162 230.672 237.162 230.328V229.524H235.542C235.238 229.524 234.994 229.612 234.81 229.788C234.626 229.964 234.534 230.196 234.534 230.484C234.534 230.796 234.638 231.044 234.846 231.228C235.062 231.404 235.354 231.492 235.722 231.492ZM242.905 232.608C242.401 232.608 241.961 232.528 241.585 232.368C241.209 232.208 240.913 231.988 240.697 231.708C240.489 231.42 240.377 231.084 240.361 230.7H241.861C241.877 230.908 241.977 231.076 242.161 231.204C242.353 231.332 242.601 231.396 242.905 231.396H243.433C243.801 231.396 244.077 231.324 244.261 231.18C244.445 231.036 244.537 230.84 244.537 230.592C244.537 230.36 244.453 230.18 244.285 230.052C244.125 229.916 243.873 229.828 243.529 229.788L242.713 229.668C241.961 229.564 241.409 229.364 241.057 229.068C240.705 228.772 240.529 228.328 240.529 227.736C240.529 227.12 240.737 226.644 241.153 226.308C241.569 225.964 242.181 225.792 242.989 225.792H243.445C244.181 225.792 244.769 225.956 245.209 226.284C245.649 226.612 245.885 227.052 245.917 227.604H244.417C244.393 227.428 244.293 227.284 244.117 227.172C243.949 227.06 243.725 227.004 243.445 227.004H242.989C242.645 227.004 242.393 227.068 242.233 227.196C242.081 227.316 242.005 227.496 242.005 227.736C242.005 227.96 242.073 228.128 242.209 228.24C242.345 228.344 242.565 228.42 242.869 228.468L243.721 228.588C244.505 228.7 245.081 228.912 245.449 229.224C245.825 229.528 246.013 229.98 246.013 230.58C246.013 231.22 245.793 231.72 245.353 232.08C244.921 232.432 244.281 232.608 243.433 232.608H242.905ZM250.365 232.62C249.805 232.62 249.317 232.512 248.901 232.296C248.485 232.08 248.161 231.78 247.929 231.396C247.705 231.004 247.593 230.548 247.593 230.028V228.372C247.593 227.852 247.705 227.4 247.929 227.016C248.161 226.624 248.485 226.32 248.901 226.104C249.317 225.888 249.805 225.78 250.365 225.78C250.917 225.78 251.397 225.888 251.805 226.104C252.221 226.32 252.541 226.624 252.765 227.016C252.997 227.4 253.113 227.852 253.113 228.372V229.56H249.045V230.028C249.045 230.492 249.157 230.844 249.381 231.084C249.605 231.316 249.937 231.432 250.377 231.432C250.713 231.432 250.985 231.376 251.193 231.264C251.401 231.144 251.533 230.972 251.589 230.748H253.065C252.953 231.316 252.649 231.772 252.153 232.116C251.665 232.452 251.069 232.62 250.365 232.62ZM251.661 228.72V228.36C251.661 227.904 251.553 227.556 251.337 227.316C251.121 227.068 250.797 226.944 250.365 226.944C249.933 226.944 249.605 227.068 249.381 227.316C249.157 227.564 249.045 227.916 249.045 228.372V228.624L251.769 228.6L251.661 228.72Z" fill="#333333"/>
<path d="M268.863 70.4492H263.167V76.1453H268.863V70.4492Z" fill="#333333"/>
<path opacity="0.8" d="M279.442 70.4492H273.746V76.1453H279.442V70.4492Z" fill="#333333"/>
<path opacity="0.5" d="M290.015 70.4492H284.319V76.1453H290.015V70.4492Z" fill="#333333"/>
<path opacity="0.2" d="M300.594 70.4492H294.898V76.1453H300.594V70.4492Z" fill="#333333"/>
<path opacity="0.05" d="M311.167 70.4492H305.471V76.1453H311.167V70.4492Z" fill="#333333"/>
<path d="M272.863 232.5H267.167V238.196H272.863V232.5Z" fill="#333333"/>
<path opacity="0.8" d="M283.442 232.5H277.746V238.196H283.442V232.5Z" fill="#333333"/>
<path opacity="0.5" d="M294.015 232.5H288.319V238.196H294.015V232.5Z" fill="#333333"/>
<path opacity="0.2" d="M304.594 232.5H298.898V238.196H304.594V232.5Z" fill="#333333"/>
<path opacity="0.05" d="M315.167 232.5H309.471V238.196H315.167V232.5Z" fill="#333333"/>
<path d="M229.167 141.5C229.167 139.843 227.823 138.5 226.167 138.5C224.51 138.5 223.167 139.843 223.167 141.5C223.167 143.157 224.51 144.5 226.167 144.5C227.823 144.5 229.167 143.157 229.167 141.5Z" fill="#333333"/>
<path opacity="0.8" d="M219.167 141.5C219.167 139.843 217.823 138.5 216.167 138.5C214.51 138.5 213.167 139.843 213.167 141.5C213.167 143.157 214.51 144.5 216.167 144.5C217.823 144.5 219.167 143.157 219.167 141.5Z" fill="#333333"/>
<path opacity="0.5" d="M209.167 141.5C209.167 139.843 207.823 138.5 206.167 138.5C204.51 138.5 203.167 139.843 203.167 141.5C203.167 143.157 204.51 144.5 206.167 144.5C207.823 144.5 209.167 143.157 209.167 141.5Z" fill="#333333"/>
<path opacity="0.2" d="M199.167 141.5C199.167 139.843 197.823 138.5 196.167 138.5C194.51 138.5 193.167 139.843 193.167 141.5C193.167 143.157 194.51 144.5 196.167 144.5C197.823 144.5 199.167 143.157 199.167 141.5Z" fill="#333333"/>
<path opacity="0.05" d="M189.167 141.5C189.167 139.843 187.823 138.5 186.167 138.5C184.51 138.5 183.167 139.843 183.167 141.5C183.167 143.157 184.51 144.5 186.167 144.5C187.823 144.5 189.167 143.157 189.167 141.5Z" fill="#333333"/>
<path d="M36.8453 135.839C36.8453 133.995 35.3503 132.5 33.506 132.5C31.6618 132.5 30.1667 133.995 30.1667 135.839C30.1667 137.684 31.6618 139.179 33.506 139.179C35.3503 139.179 36.8453 137.684 36.8453 135.839Z" fill="#D3D3D3"/>
<path d="M67.8463 113.839C67.8463 111.995 66.3513 110.5 64.507 110.5C62.6628 110.5 61.1677 111.995 61.1677 113.839C61.1677 115.684 62.6628 117.179 64.507 117.179C66.3513 117.179 67.8463 115.684 67.8463 113.839Z" fill="#D3D3D3"/>
<path d="M56.8463 156.839C56.8463 154.995 55.3513 153.5 53.507 153.5C51.6628 153.5 50.1677 154.995 50.1677 156.839C50.1677 158.684 51.6628 160.179 53.507 160.179C55.3513 160.179 56.8463 158.684 56.8463 156.839Z" fill="#D3D3D3"/>
<path d="M47.8453 183.839C47.8453 181.995 46.3503 180.5 44.506 180.5C42.6618 180.5 41.1667 181.995 41.1667 183.839C41.1667 185.684 42.6618 187.179 44.506 187.179C46.3503 187.179 47.8453 185.684 47.8453 183.839Z" fill="#D3D3D3"/>
<path d="M43.8463 93.8394C43.8463 91.9952 42.3513 90.5001 40.507 90.5001C38.6628 90.5001 37.1677 91.9952 37.1677 93.8394C37.1677 95.6837 38.6628 97.1787 40.507 97.1787C42.3513 97.1787 43.8463 95.6837 43.8463 93.8394Z" fill="#D3D3D3"/>
<path d="M319.167 39.5V49.5L329.167 44.5L319.167 39.5Z" fill="#444444"/>
<path d="M349.167 74.5V84.5L359.167 79.5L349.167 74.5Z" fill="#444444"/>
<path d="M334.167 142.5V152.5L344.167 147.5L334.167 142.5Z" fill="#444444"/>
<path d="M313.167 180.5V190.5L323.167 185.5L313.167 180.5Z" fill="#444444"/>
<path d="M334.167 223.5V233.5L344.167 228.5L334.167 223.5Z" fill="#444444"/>
<path d="M188.621 220.5H177.712C177.41 220.5 177.167 220.739 177.167 221.036V224.786H189.167V221.036C189.167 220.739 188.923 220.5 188.621 220.5ZM188.621 220.5H177.712C177.41 220.5 177.167 220.739 177.167 221.036V224.786H189.167M188.621 220.5H177.712C177.41 220.5 177.167 220.739 177.167 221.036V224.786H189.167V221.036C189.167 220.739 188.923 220.5 188.621 220.5ZM188.621 220.5H177.712C177.41 220.5 177.167 220.739 177.167 221.036V224.786H189.167M188.621 220.5H177.712C177.41 220.5 177.167 220.739 177.167 221.036V224.786H189.167M188.621 220.5H177.712C177.41 220.5 177.167 220.739 177.167 221.036V224.786H189.167" fill="#333333"/>
<path d="M178.667 222.643C178.667 223.013 178.972 223.313 179.349 223.313C179.725 223.313 180.03 223.013 180.03 222.643C180.03 222.273 179.725 221.973 179.349 221.973C178.972 221.973 178.667 222.273 178.667 222.643Z" fill="white"/>
<path d="M177.712 234.786C177.41 234.786 177.167 234.546 177.167 234.25V230.5H189.167V234.25C189.167 234.546 188.923 234.786 188.621 234.786H177.712Z" fill="#333333"/>
<path d="M180.03 232.643C180.03 232.273 179.725 231.973 179.349 231.973C178.972 231.973 178.667 232.273 178.667 232.643C178.667 233.013 178.972 233.312 179.349 233.312C179.725 233.312 180.03 233.013 180.03 232.643Z" fill="white"/>
<path d="M189.167 229.786H177.167V225.5H189.167V229.786Z" fill="#333333"/>
<path d="M180.03 227.643C180.03 227.273 179.725 226.973 179.349 226.973C178.972 226.973 178.667 227.273 178.667 227.643C178.667 228.013 178.972 228.313 179.349 228.313C179.725 228.313 180.03 228.013 180.03 227.643Z" fill="white"/>
</svg>
