<svg width="24" height="24" viewBox="0 0 24 24" fill="none" xmlns="http://www.w3.org/2000/svg">
<g clip-path="url(#clip0_6_20774)">
<path d="M23.1469 9.471L22.3599 8.4C21.8145 7.65793 21.1026 7.0542 20.2815 6.63736C19.4603 6.22052 18.5528 6.00222 17.6319 6H6.38288C5.4809 6.00236 4.5915 6.21176 3.78323 6.61209C2.97495 7.01241 2.26938 7.59296 1.72087 8.309L0.899875 9.383C0.233357 10.2623 -0.0800167 11.3592 0.0213957 12.4579C0.122808 13.5566 0.631666 14.5776 1.44787 15.32L9.43788 23.027C10.1396 23.6528 11.0476 23.9979 11.9879 23.996C12.9481 23.9941 13.8739 23.638 14.5879 22.996L22.5239 15.363C23.3448 14.6361 23.8639 13.6283 23.9792 12.5379C24.0945 11.4476 23.7976 10.3535 23.1469 9.471ZM20.7469 9.578L21.5339 10.652C21.6129 10.7619 21.6825 10.8783 21.7419 11H16.9509C16.8785 10.5211 16.7537 10.0516 16.5789 9.6L15.9389 8H17.6319C18.2383 8.00115 18.836 8.1445 19.377 8.41856C19.918 8.69261 20.3872 9.08973 20.7469 9.578ZM11.9899 20.088L9.22088 13.818C9.12072 13.5528 9.04507 13.279 8.99488 13H14.9469C14.9049 13.2199 14.8461 13.4362 14.7709 13.647L11.9899 20.088ZM9.09988 11C9.1417 10.8207 9.19412 10.6441 9.25688 10.471L10.2409 8H13.7849L14.7219 10.343C14.8041 10.5569 14.871 10.7765 14.9219 11H9.09988ZM3.31088 9.521C3.67244 9.04935 4.13741 8.66695 4.67 8.40326C5.20259 8.13957 5.78858 8.00161 6.38288 8H8.08288L7.39988 9.729C7.23509 10.1392 7.11213 10.5651 7.03288 11H2.24487C2.31346 10.8587 2.39622 10.7246 2.49188 10.6L3.31088 9.521ZM2.81088 13.854C2.55 13.6174 2.34505 13.3257 2.21088 13H6.98288C7.04919 13.5388 7.1791 14.0678 7.36988 14.576L10.1969 20.976L2.81088 13.854ZM13.7709 21.014L16.6249 14.4C16.7905 13.9474 16.9059 13.4779 16.9689 13H21.7999C21.6583 13.3433 21.4421 13.6507 21.1669 13.9L13.7709 21.014Z" fill="#333333"/>
<path d="M12 4C12.2652 4 12.5196 3.89464 12.7071 3.70711C12.8947 3.51957 13 3.26522 13 3V1C13 0.734784 12.8947 0.48043 12.7071 0.292893C12.5196 0.105357 12.2652 0 12 0C11.7348 0 11.4804 0.105357 11.2929 0.292893C11.1054 0.48043 11 0.734784 11 1V3C11 3.26522 11.1054 3.51957 11.2929 3.70711C11.4804 3.89464 11.7348 4 12 4Z" fill="#333333"/>
<path d="M16.5528 3.89993C16.6709 3.95929 16.7995 3.99466 16.9313 4.004C17.0632 4.01334 17.1955 3.99646 17.3208 3.95434C17.446 3.91222 17.5617 3.84568 17.6611 3.75859C17.7605 3.6715 17.8416 3.56557 17.8998 3.44693L18.8998 1.44693C19.0184 1.20956 19.0378 0.934819 18.9538 0.683146C18.8697 0.431472 18.6892 0.223481 18.4518 0.10493C18.2144 -0.0136223 17.9397 -0.0330241 17.688 0.0509922C17.4363 0.135009 17.2284 0.315561 17.1098 0.552929L16.1098 2.55293C16.0501 2.67039 16.0142 2.7985 16.0041 2.92989C15.9941 3.06127 16.0101 3.19335 16.0513 3.31852C16.0924 3.4437 16.1579 3.5595 16.244 3.65928C16.3301 3.75906 16.435 3.84084 16.5528 3.89993Z" fill="#333333"/>
<path d="M6.10506 3.44693C6.22361 3.68496 6.43186 3.86615 6.68401 3.95063C6.93615 4.03512 7.21152 4.01598 7.44956 3.89743C7.68759 3.77888 7.86878 3.57062 7.95326 3.31848C8.03775 3.06634 8.01861 2.79096 7.90006 2.55293L6.90006 0.552929C6.84136 0.435396 6.76008 0.330576 6.66087 0.244454C6.56166 0.158331 6.44646 0.0925929 6.32184 0.0509922C6.07017 -0.0330241 5.79543 -0.0136223 5.55806 0.10493C5.32069 0.223481 5.14014 0.431472 5.05612 0.683146C4.9721 0.934819 4.9915 1.20956 5.11006 1.44693L6.10506 3.44693Z" fill="#333333"/>
</g>
<defs>
<clipPath id="clip0_6_20774">
<rect width="24" height="24" fill="white"/>
</clipPath>
</defs>
</svg>
