<svg width="74" height="74" viewBox="0 0 74 74" fill="none" xmlns="http://www.w3.org/2000/svg">
<path d="M37 0C46.813 0 56.2241 3.8982 63.1629 10.837C70.1018 17.7759 74 27.187 74 37C74 46.813 70.1018 56.2241 63.1629 63.1629C56.2241 70.1018 46.813 74 37 74C27.187 74 17.7759 70.1018 10.837 63.1629C3.8982 56.2241 0 46.813 0 37C0 27.187 3.8982 17.7759 10.837 10.837C17.7759 3.8982 27.187 0 37 0ZM32.3909 44.2996L24.1716 36.075C23.8769 35.7803 23.5271 35.5466 23.1421 35.3871C22.7571 35.2277 22.3445 35.1456 21.9278 35.1456C21.5111 35.1456 21.0984 35.2277 20.7135 35.3871C20.3285 35.5466 19.9787 35.7803 19.684 36.075C19.0889 36.6701 18.7546 37.4772 18.7546 38.3188C18.7546 39.1604 19.0889 39.9675 19.684 40.5626L30.1497 51.0283C30.4435 51.3244 30.7931 51.5595 31.1782 51.7199C31.5633 51.8803 31.9763 51.9628 32.3935 51.9628C32.8107 51.9628 33.2237 51.8803 33.6088 51.7199C33.9939 51.5595 34.3435 51.3244 34.6373 51.0283L56.3087 29.3516C56.6073 29.0581 56.8449 28.7085 57.0076 28.3228C57.1704 27.9371 57.2552 27.523 57.2572 27.1043C57.2591 26.6857 57.1782 26.2708 57.019 25.8836C56.8598 25.4964 56.6255 25.1446 56.3297 24.8484C56.0338 24.5522 55.6822 24.3175 55.2952 24.1578C54.9082 23.9982 54.4934 23.9167 54.0748 23.9182C53.6561 23.9196 53.2419 24.004 52.856 24.1663C52.4701 24.3286 52.1202 24.5658 51.8264 24.864L32.3909 44.2996Z" fill="#222222"/>
</svg>
