<svg width="465" height="464" viewBox="0 0 465 464" fill="none" xmlns="http://www.w3.org/2000/svg">
<g clip-path="url(#clip0_6_421394)">
<path d="M257.993 226.992H39.1631V0.88916H257.993V226.992ZM43.7473 222.428H253.425V5.45307H43.7316L43.7473 222.428Z" fill="#ECECEC"/>
<path d="M149.082 6.64136H144.514V224.702H149.082V6.64136Z" fill="#ECECEC"/>
<path d="M262.128 10.1113H35.0195V16.4615H262.128V10.1113Z" fill="#ECECEC"/>
<path d="M262.128 17.2563H35.0195V23.6065H262.128V17.2563Z" fill="#ECECEC"/>
<path d="M262.128 24.4089H35.0195V30.7591H262.128V24.4089Z" fill="#ECECEC"/>
<path d="M262.128 31.554H35.0195V37.9041H262.128V31.554Z" fill="#ECECEC"/>
<path d="M262.128 38.6987H35.0195V45.0489H262.128V38.6987Z" fill="#ECECEC"/>
<path d="M262.128 45.8438H35.0195V52.1939H262.128V45.8438Z" fill="#ECECEC"/>
<path d="M262.128 52.9885H35.0195V59.3387H262.128V52.9885Z" fill="#ECECEC"/>
<path d="M262.128 60.1335H35.0195V66.4837H262.128V60.1335Z" fill="#ECECEC"/>
<path d="M262.128 67.2861H35.0195V73.6363H262.128V67.2861Z" fill="#ECECEC"/>
<path d="M248.573 8.82104H247.431V155.236H248.573V8.82104Z" fill="#515151"/>
<path d="M250.029 160.555H245.973L246.989 154.74H249.013L250.029 160.555Z" fill="#515151"/>
<path d="M252.684 8.82104H251.542V220.634H252.684V8.82104Z" fill="#515151"/>
<path d="M254.141 224.914H250.085L251.101 219.099H253.125L254.141 224.914Z" fill="#515151"/>
<path d="M269.225 0H27.9385V13.2904H269.225V0Z" fill="#DCDCDC"/>
<path d="M40.7227 410.099L93.0317 409.902L145.333 409.839L249.935 409.705L354.545 409.831L406.847 409.902L459.156 410.099L406.847 410.288L354.545 410.358L249.935 410.484L145.333 410.358L93.0317 410.288L40.7227 410.099Z" fill="#515151"/>
<path d="M62.8162 464C90.7356 464 113.369 459.66 113.369 454.306C113.369 448.952 90.7356 444.611 62.8162 444.611C34.8968 444.611 12.2637 448.952 12.2637 454.306C12.2637 459.66 34.8968 464 62.8162 464Z" fill="#ECECEC"/>
<path d="M265.885 459.688C375.849 459.688 464.992 450.031 464.992 438.119C464.992 426.208 375.849 416.551 265.885 416.551C155.921 416.551 66.7783 426.208 66.7783 438.119C66.7783 450.031 155.921 459.688 265.885 459.688Z" fill="#ECECEC"/>
<path d="M258.497 300.242L261.451 317.931L281.45 425.821H284.671L270.131 317.931L267.981 300.242H258.497Z" fill="#AEAEAE"/>
<path d="M267.981 300.242H258.497L261.451 317.931H270.131L267.981 300.242Z" fill="#515151"/>
<path d="M195.696 425.821H198.918L218.917 317.931L221.871 300.242H212.387L210.237 317.931L195.696 425.821Z" fill="#AEAEAE"/>
<path d="M212.387 300.242L210.236 317.931H218.916L221.87 300.242H212.387Z" fill="#515151"/>
<path d="M135.707 425.821H138.929L158.928 317.931L161.881 300.242H152.398L150.247 317.931L135.707 425.821Z" fill="#AEAEAE"/>
<path d="M150.248 317.931H158.928L161.882 300.242H152.398L150.248 317.931Z" fill="#515151"/>
<path d="M140.819 308.552H287.365V293.129H232.504L214.072 163.152H146.412L140.819 308.552Z" fill="#AEAEAE"/>
<path d="M140.819 308.552H148.814L154.013 163.152H146.412L140.819 308.552Z" fill="#DCDCDC"/>
<path d="M236.931 173.405L234.111 173.114C234.182 169.471 232.457 163.671 232.756 166.559C232.908 168.693 232.812 170.837 232.473 172.949L189.253 168.526C189.253 163.018 192.601 154.362 192.601 154.362C189.371 158.572 187.646 164.836 186.89 168.306L182.361 167.842C182.227 164.545 183.936 159.115 183.936 159.115C182.471 161.177 181.314 165.198 180.715 167.677L175.556 167.149C175.926 161.688 178.502 154.732 183.511 148.705C187.52 143.858 189.253 139.648 189.907 128.395C190.695 114.885 200.107 111.131 201.572 109.628C214.49 96.393 235.757 109.762 233.63 126.546C232.055 139.184 230.543 140.553 235.206 152.513C238.735 161.476 236.931 173.405 236.931 173.405Z" fill="#515151"/>
<path d="M208.622 167.787C215.167 191.598 220.626 210.05 227.455 214.535C232.969 218.155 240.703 220.696 248.667 222.475C257.176 224.262 265.793 225.492 274.463 226.157C277.133 226.378 279.354 226.519 280.938 226.629C284.837 226.873 291.225 201.127 288.46 197.987C287.83 197.271 285.254 196.712 281.646 196.256C269.501 194.737 245.579 194.383 244.153 193.022C242.728 191.66 234.969 181.407 224.485 168.007C217.262 158.745 211.355 156.023 208.937 158.564C207.614 160.051 207.361 163.191 208.622 167.787Z" fill="#F2B2AA"/>
<path d="M273.109 224.033C276.879 225.706 280.754 227.131 284.711 228.298C287.862 229.085 297.014 231.115 298.227 227.731C299.062 225.426 293.824 223.6 290.146 222.223C288.216 221.499 285.79 219.595 286.302 218.352C287.208 216.172 292.202 218.139 295.494 219.925C301.874 223.325 310.46 229.541 314.122 226.22C315.524 224.969 313.768 222.853 311.24 220.807C315.304 223.167 319.62 225.032 321.227 223.71C322.149 222.923 322.157 221.963 321.582 220.854C322.826 221.208 323.945 221.09 324.63 220.264C325.874 218.863 325.173 216.896 323.685 214.905C323.923 214.87 324.149 214.78 324.347 214.644C324.545 214.508 324.709 214.328 324.827 214.118C327.41 209.853 313.28 198.381 308.506 197.452C294.454 194.659 279.678 196.413 279.678 196.413C274.369 200.93 273.093 224.017 273.109 224.033Z" fill="#F2B2AA"/>
<path d="M293.107 210.302C296.459 210.664 299.688 211.769 302.559 213.536C305.898 215.645 308.592 218.595 311.688 221.003C311.698 221.019 311.704 221.038 311.702 221.057C311.701 221.076 311.694 221.094 311.681 221.109C311.669 221.123 311.652 221.133 311.633 221.137C311.614 221.14 311.595 221.138 311.578 221.129C310.12 219.878 308.521 218.769 307.017 217.573C305.512 216.376 304.087 215.212 302.535 214.134C299.729 212.176 296.512 210.884 293.13 210.357C293.059 210.357 293.075 210.302 293.107 210.302Z" fill="#515151"/>
<path d="M295.486 204.306C299.24 205.041 302.909 206.159 306.435 207.642C310.224 209.405 313.248 212.363 316.218 215.243C317.998 216.969 319.744 218.729 321.456 220.523C321.527 220.594 321.456 220.728 321.345 220.649C318.329 217.691 315.225 214.811 312.035 212.041C309.09 209.449 305.661 207.464 301.945 206.202C299.826 205.478 297.644 204.919 295.478 204.369C295.431 204.361 295.447 204.29 295.486 204.306Z" fill="#515151"/>
<path d="M299.204 198.994C302.788 199.592 305.915 200.104 309.137 201.89C313.398 204.251 317.58 208.358 319.046 209.814C320.668 211.388 322.236 213.072 323.772 214.756C323.835 214.826 323.716 214.937 323.653 214.866C320.129 211.186 316.372 207.735 312.405 204.534C310.538 202.983 308.442 201.73 306.191 200.82C303.916 200.019 301.575 199.416 299.196 199.018L299.204 198.994Z" fill="#515151"/>
<path d="M208.622 167.787C215.167 191.598 220.626 210.05 227.455 214.535C232.969 218.155 240.704 220.697 248.667 222.475L208.968 158.596C207.614 160.052 207.362 163.191 208.622 167.787Z" fill="#515151"/>
<path d="M206.558 163.781C207.244 171.029 212.009 183.509 212.009 183.509L237.215 181.376C237.215 181.376 227.479 167.118 217.35 159.013C216.388 158.244 215.329 157.606 214.199 157.117C209.788 155.212 205.92 156.983 206.558 163.781Z" fill="#1D45D1"/>
<path d="M206.558 163.781C206.597 164.159 206.645 164.568 206.708 164.946C206.771 165.324 206.818 165.583 206.897 165.914C208.129 171.905 209.839 177.789 212.009 183.508L213.009 183.43L213.994 183.343L221.91 182.666L223.083 182.58L230.96 181.903L231.968 181.817L234.875 181.565L214.246 157.116C209.787 155.212 205.857 156.991 206.558 163.781Z" fill="#515151"/>
<path d="M389.47 425.766C386.745 426.671 306.993 426.01 304.04 424.129C303.685 423.924 303.599 416.716 303.63 406.818V406.621C303.544 399.658 303.087 392.706 302.26 385.792C302.212 385.414 302.173 385.005 302.126 384.651C300.023 366.254 296.415 348.368 296.415 348.368L346.337 348.187L353.222 384.651L353.348 385.792L354.75 399.381C354.75 399.381 365.501 403.922 374.867 408.423C380.64 411.185 385.65 413.703 386.808 414.631C389.825 417.047 392.188 424.916 389.47 425.766Z" fill="#F2B2AA"/>
<path d="M389.471 425.765C386.745 426.67 306.994 426.009 304.04 424.129C303.686 423.924 303.599 416.716 303.63 406.817V406.621C303.544 399.658 303.087 392.706 302.26 385.792C302.213 385.414 302.173 385.005 302.126 384.651H353.222L353.348 385.792L354.75 399.381C354.75 399.381 365.502 403.922 374.867 408.423C380.641 411.184 385.65 413.703 386.808 414.631C389.825 417.047 392.188 424.916 389.471 425.765Z" fill="#ECECEC"/>
<path d="M389.801 426.072C387.005 426.977 307.143 426.12 304.118 424.16C302.968 423.429 301.897 411.114 303.142 397.524L354.624 398.138C354.624 398.138 384.059 412.129 387.146 414.623C390.234 417.118 392.605 425.168 389.801 426.072Z" fill="#1D45D1"/>
<path d="M388.69 422.87C375.3 422.398 321.282 421.752 308.017 422.303C307.907 422.303 307.907 422.382 308.017 422.39C321.274 423.177 375.3 423.35 388.69 423.09C388.974 423.082 388.974 422.878 388.69 422.87Z" fill="#515151"/>
<path d="M382.019 411.704C380.534 411.643 379.052 411.892 377.667 412.433C376.283 412.975 375.026 413.799 373.977 414.851C372.081 416.73 370.981 419.266 370.905 421.933C370.905 422.012 371.055 422.02 371.071 421.933C371.858 416.708 376.703 412.16 382.019 411.814C382.031 411.828 382.046 411.838 382.063 411.842C382.08 411.847 382.099 411.846 382.115 411.84C382.132 411.834 382.147 411.823 382.157 411.809C382.167 411.794 382.173 411.777 382.173 411.759C382.173 411.741 382.167 411.724 382.157 411.709C382.147 411.695 382.132 411.683 382.115 411.677C382.099 411.671 382.08 411.671 382.063 411.675C382.046 411.68 382.031 411.69 382.019 411.704Z" fill="#515151"/>
<path d="M358.815 399.523C353.451 399.389 347.22 401.215 343.849 405.55C343.723 405.724 343.959 405.905 344.125 405.826C348.833 403.421 353.788 401.53 358.901 400.184C358.978 400.16 359.043 400.11 359.086 400.043C359.129 399.976 359.146 399.896 359.136 399.817C359.126 399.738 359.088 399.665 359.029 399.612C358.97 399.558 358.894 399.526 358.815 399.523Z" fill="#515151"/>
<path d="M362.934 401.176C357.57 401.042 351.339 402.867 347.968 407.211C347.842 407.376 348.079 407.557 348.244 407.478C352.954 405.077 357.908 403.186 363.021 401.837C363.097 401.813 363.162 401.763 363.205 401.696C363.248 401.629 363.266 401.549 363.255 401.47C363.245 401.391 363.207 401.318 363.148 401.264C363.089 401.21 363.014 401.179 362.934 401.176Z" fill="#515151"/>
<path d="M367.053 402.828C361.689 402.702 355.459 404.52 352.087 408.863C351.961 409.036 352.198 409.217 352.363 409.139C357.072 406.731 362.026 404.837 367.14 403.489C367.216 403.465 367.281 403.415 367.324 403.348C367.367 403.281 367.385 403.201 367.374 403.122C367.364 403.043 367.326 402.97 367.267 402.916C367.209 402.863 367.133 402.831 367.053 402.828Z" fill="#515151"/>
<path d="M371.165 404.457C365.809 404.323 359.579 406.149 356.2 410.492C356.074 410.657 356.31 410.838 356.475 410.76C361.186 408.358 366.139 406.467 371.252 405.118C371.328 405.094 371.393 405.044 371.436 404.977C371.479 404.91 371.497 404.83 371.487 404.751C371.476 404.672 371.438 404.599 371.38 404.545C371.321 404.492 371.245 404.46 371.165 404.457Z" fill="#515151"/>
<path d="M311.563 409.634C305.553 409.587 305.466 418.92 311.492 418.967C317.517 419.014 317.588 409.682 311.563 409.634Z" fill="#515151"/>
<path d="M364.753 385.296C362.067 383.022 358.625 385.186 356.932 387.5C354.09 391.526 352.36 396.229 351.914 401.136C351.913 401.158 351.916 401.179 351.924 401.199C351.932 401.219 351.945 401.237 351.961 401.251C351.977 401.265 351.996 401.276 352.016 401.282C352.037 401.288 352.059 401.289 352.08 401.286C352.101 401.386 352.145 401.481 352.209 401.562C352.273 401.642 352.354 401.707 352.448 401.751C352.541 401.794 352.643 401.815 352.746 401.813C352.849 401.81 352.95 401.783 353.041 401.734C356.885 399.137 361.311 396.84 364.241 393.141C365.959 390.985 367.298 387.452 364.753 385.296ZM358.058 396.588C356.199 397.91 354.285 399.137 352.482 400.522C353.383 397.849 354.418 395.223 355.585 392.654C356.17 391.413 356.836 390.211 357.578 389.058C358.759 387.303 364.068 382.888 364.541 388.719C364.801 391.922 360.272 395.014 358.058 396.588Z" fill="#515151"/>
<path d="M338.579 402.977C343.234 403.764 348.031 402.466 352.655 401.805C352.756 401.781 352.849 401.734 352.928 401.668C353.007 401.601 353.069 401.517 353.109 401.421C353.149 401.326 353.166 401.223 353.158 401.12C353.15 401.017 353.118 400.917 353.065 400.829C353.082 400.817 353.097 400.8 353.107 400.781C353.117 400.762 353.122 400.741 353.122 400.719C353.122 400.697 353.117 400.676 353.107 400.657C353.097 400.638 353.082 400.621 353.065 400.609C349.431 397.275 344.985 394.955 340.17 393.881C337.358 393.314 333.357 394.023 332.9 397.516C332.491 400.813 335.862 402.529 338.579 402.977ZM335.381 399.893C331.797 395.266 338.705 394.967 340.761 395.47C342.086 395.821 343.386 396.26 344.652 396.785C347.253 397.91 349.795 399.165 352.269 400.546C349.993 400.735 347.756 401.112 345.487 401.388C342.785 401.703 337.351 402.45 335.381 399.893Z" fill="#515151"/>
<path d="M357.373 380.677L299.487 380.433C299.487 380.433 279.417 303.319 274.723 297.913C266.058 287.927 196.743 292.759 177.973 272.04C159.754 251.967 177.973 215.637 177.973 215.637H229.211C229.825 222.185 230.801 228.695 232.133 235.136C232.133 235.136 296.675 245.428 315.855 265.234C330.458 280.342 357.373 380.677 357.373 380.677Z" fill="#6A6A6A"/>
<path d="M353.387 371.612C349.819 371.321 346.298 370.959 342.691 370.825C339.083 370.692 335.523 370.605 331.939 370.542C324.819 370.432 317.698 370.445 310.578 370.581C306.561 370.66 302.536 370.833 298.518 370.857C298.408 370.857 298.432 371.038 298.518 371.038C305.741 370.991 312.988 371.313 320.211 371.502C327.3 371.691 334.389 371.919 341.439 372.021C345.416 372.084 349.386 371.974 353.364 371.943C353.553 371.927 353.553 371.628 353.387 371.612Z" fill="#515151"/>
<path d="M291.437 322.779C289.132 315.356 286.645 307.996 283.978 300.699C282.844 297.551 281.891 294.034 279.661 291.484C277.432 288.935 274.148 288.179 271.076 287.503C256.244 284.237 241.074 282.954 226.132 280.358C218.741 279.14 211.445 277.405 204.297 275.164C200.781 274.103 197.382 272.687 194.152 270.939C191.234 269.29 188.627 267.143 186.449 264.597C182.351 259.64 179.702 253.649 178.793 247.285C177.643 239.786 178.667 232.098 180.793 224.875C181.313 223.096 181.928 221.357 182.589 219.626C182.589 219.516 182.455 219.477 182.416 219.579C177.414 232.563 175.327 247.568 182.416 260.229C183.921 262.958 185.833 265.441 188.087 267.595C190.59 269.9 193.449 271.787 196.555 273.181C203.242 276.29 210.583 278.147 217.767 279.689C232.646 282.884 247.855 284.158 262.829 286.771C266.478 287.341 270.096 288.097 273.667 289.037C275.388 289.384 276.986 290.182 278.297 291.349C279.608 292.516 280.584 294.01 281.127 295.678C282.592 299.156 283.757 302.76 285.01 306.348C286.302 310.021 287.554 313.721 288.767 317.451C293.619 332.308 297.841 347.353 301.559 362.54C302.008 364.389 302.449 366.246 302.89 368.095C302.937 368.276 303.205 368.189 303.166 368.016C300.031 352.747 296.117 337.648 291.437 322.779Z" fill="#515151"/>
<path d="M302.338 439.229C299.526 439.803 220.421 429.7 217.711 427.426C217.396 427.174 218.239 420.029 219.357 410.217C220.003 404.457 221.311 397.367 222.839 390.088C226.911 370.762 232.693 350.162 232.693 350.162L284.553 358.818L274.061 395.628L270.461 408.218C270.461 408.218 281.126 414.686 289.862 420.281C295.257 423.712 299.952 426.804 300.984 427.858C303.733 430.636 305.142 438.67 302.338 439.229Z" fill="#F2B2AA"/>
<path d="M302.338 439.229C299.526 439.804 220.421 429.7 217.711 427.426C217.396 427.174 218.239 420.029 219.357 410.217C220.003 404.457 221.311 397.367 222.839 390.088L274.037 395.597L270.438 408.187C270.438 408.187 281.126 414.686 289.862 420.281C295.257 423.712 299.952 426.804 300.984 427.859C303.733 430.636 305.142 438.67 302.338 439.229Z" fill="#ECECEC"/>
<path d="M302.661 439.496C299.778 440.079 220.539 430.054 217.758 427.788C216.703 426.93 217.876 414.662 220.673 401.309L270.619 407.73C270.619 407.73 298.565 424.986 301.338 427.827C304.11 430.668 305.552 438.922 302.661 439.496Z" fill="#1D45D1"/>
<path d="M301.929 436.192C288.688 434.185 235.095 427.363 221.846 426.387C221.744 426.387 221.736 426.458 221.846 426.474C234.93 428.74 288.578 435.129 301.913 436.404C302.181 436.436 302.204 436.231 301.929 436.192Z" fill="#515151"/>
<path d="M296.604 424.333C295.138 424.115 293.642 424.202 292.211 424.587C290.78 424.973 289.444 425.65 288.286 426.576C286.184 428.231 284.801 430.632 284.427 433.28C284.427 433.359 284.561 433.383 284.584 433.28C286.002 428.181 291.303 424.215 296.628 424.475C296.638 424.465 296.646 424.453 296.65 424.44C296.655 424.426 296.656 424.412 296.654 424.398C296.651 424.384 296.646 424.371 296.637 424.359C296.628 424.348 296.617 424.339 296.604 424.333Z" fill="#515151"/>
<path d="M274.896 409.571C269.587 408.832 263.184 409.926 259.332 413.852C259.182 414.009 259.403 414.214 259.568 414.151C264.526 412.299 269.667 410.98 274.904 410.217C274.973 410.194 275.032 410.15 275.074 410.092C275.116 410.033 275.138 409.963 275.137 409.891C275.136 409.819 275.112 409.749 275.069 409.692C275.026 409.634 274.965 409.592 274.896 409.571Z" fill="#515151"/>
<path d="M278.835 411.688C273.526 410.948 267.13 412.042 263.27 415.969C263.121 416.126 263.341 416.331 263.514 416.268C268.466 414.412 273.602 413.091 278.835 412.326C278.9 412.302 278.957 412.259 278.998 412.202C279.038 412.145 279.06 412.077 279.06 412.007C279.06 411.937 279.038 411.869 278.998 411.812C278.957 411.755 278.9 411.712 278.835 411.688Z" fill="#515151"/>
<path d="M282.725 413.805C277.424 413.065 271.021 414.159 267.169 418.085C267.019 418.235 267.24 418.447 267.405 418.384C272.36 416.532 277.498 415.213 282.733 414.45C282.802 414.428 282.861 414.384 282.903 414.325C282.945 414.267 282.967 414.196 282.966 414.125C282.965 414.053 282.941 413.983 282.898 413.925C282.855 413.868 282.794 413.826 282.725 413.805Z" fill="#515151"/>
<path d="M286.633 415.922C281.324 415.182 274.92 416.276 271.068 420.202C270.919 420.352 271.139 420.564 271.305 420.501C276.262 418.649 281.403 417.33 286.64 416.567C286.709 416.544 286.768 416.501 286.81 416.442C286.852 416.384 286.874 416.313 286.873 416.241C286.872 416.169 286.848 416.1 286.805 416.042C286.762 415.985 286.701 415.942 286.633 415.922Z" fill="#515151"/>
<path d="M226.849 414.214C220.886 413.474 219.76 422.744 225.707 423.476C231.654 424.207 232.804 414.946 226.849 414.214Z" fill="#515151"/>
<path d="M282.458 396.132C280.055 393.558 276.385 395.345 274.431 397.414C271.148 401.091 268.891 405.566 267.886 410.39C267.886 410.5 267.949 410.555 268.035 410.563C268.043 410.665 268.076 410.764 268.129 410.851C268.183 410.938 268.257 411.012 268.345 411.065C268.433 411.118 268.532 411.149 268.634 411.156C268.736 411.163 268.839 411.146 268.933 411.106C273.053 408.973 277.716 407.171 281.056 403.859C283.001 401.915 284.742 398.555 282.458 396.132ZM274.51 406.589C272.509 407.691 270.469 408.69 268.516 409.863C269.719 407.299 271.052 404.799 272.509 402.371C273.218 401.206 274.008 400.091 274.872 399.035C276.243 397.422 282.024 393.645 281.827 399.491C281.741 402.71 276.897 405.283 274.51 406.589Z" fill="#515151"/>
<path d="M254.417 410.689C258.954 411.987 263.869 411.271 268.532 411.137C268.635 411.126 268.733 411.09 268.819 411.033C268.905 410.976 268.976 410.899 269.027 410.809C269.078 410.72 269.106 410.619 269.111 410.516C269.115 410.413 269.095 410.311 269.052 410.217C269.072 410.207 269.089 410.194 269.102 410.177C269.116 410.16 269.126 410.14 269.13 410.118C269.135 410.097 269.134 410.075 269.129 410.054C269.123 410.033 269.113 410.013 269.099 409.996C265.872 406.272 261.721 403.461 257.064 401.844C254.33 400.955 250.274 401.199 249.423 404.614C248.628 407.848 251.778 409.965 254.417 410.689ZM251.589 407.258C248.565 402.254 255.457 402.749 257.442 403.489C258.718 403.988 259.961 404.571 261.159 405.236C263.614 406.653 265.996 408.192 268.296 409.847C266.011 409.768 263.743 409.894 261.459 409.902C258.757 409.91 253.267 410.02 251.605 407.258H251.589Z" fill="#515151"/>
<path d="M286.924 393.44L223.8 385.768C223.8 385.768 245.8 298.96 244.799 297.638C241.318 293.152 188.048 294.954 169.884 276.919C150.657 257.821 169.097 215.59 169.097 215.59L217.003 215.771C217.003 215.771 217.318 234.695 219.484 236.481C220.909 237.669 287.137 248.835 297.912 262.873C314.398 284.387 286.924 393.44 286.924 393.44Z" fill="#6A6A6A"/>
<path d="M302.464 270.687C301.563 268.291 300.275 266.058 298.652 264.077C296.825 261.956 294.681 260.13 292.295 258.663C287.357 255.516 281.82 253.155 276.392 251.007C270.749 248.772 264.991 246.836 259.143 245.208C253.219 243.547 247.217 242.147 241.199 240.856C235.182 239.566 229.164 238.566 223.138 237.449L220.295 236.93C223.398 235.694 226.486 234.396 229.581 233.113C229.62 233.102 229.653 233.076 229.672 233.04C229.691 233.005 229.695 232.963 229.684 232.925C229.672 232.886 229.646 232.853 229.61 232.834C229.575 232.815 229.533 232.811 229.495 232.822C223.227 234.014 217.248 236.4 211.882 239.849C211.804 239.904 211.882 240.038 211.953 240.006C214.647 239.125 217.294 238.126 219.925 237.079C225.383 238.22 230.826 239.44 236.269 240.652C242.153 241.966 248.029 243.359 253.834 245.003C265.334 248.253 276.771 252.085 287.404 257.593C292.225 260.095 296.777 263.219 299.487 268.051C302 272.544 302.748 277.777 302.866 282.852C302.866 288.552 302.543 294.248 301.897 299.912C301.32 306.348 300.64 312.769 299.857 319.175C299.069 325.588 294.564 359.195 294.052 360.62C293.981 360.824 294.312 360.95 294.406 360.753C295.076 359.392 302.866 310.857 303.449 304.334C303.984 298.33 304.559 292.279 304.654 286.236C304.725 281.019 304.347 275.605 302.464 270.687Z" fill="#515151"/>
<path d="M251.857 290.705C250.182 290.258 248.472 289.955 246.745 289.8L241.027 288.888L229.676 287.094C222.398 285.937 215.112 284.875 207.858 283.6C195.492 281.412 182.054 277.439 174.941 266.202C173.295 263.616 172.169 260.735 171.625 257.719C171.06 254.022 170.796 250.285 170.838 246.546C170.734 239.009 171.224 231.477 172.303 224.017C172.563 222.184 172.901 220.366 173.256 218.548C173.258 218.537 173.259 218.525 173.257 218.514C173.255 218.502 173.25 218.491 173.244 218.481C173.238 218.472 173.23 218.463 173.22 218.456C173.211 218.45 173.2 218.445 173.189 218.442C173.177 218.44 173.166 218.439 173.154 218.441C173.143 218.443 173.132 218.447 173.122 218.454C173.112 218.46 173.103 218.468 173.097 218.477C173.09 218.487 173.085 218.498 173.082 218.509C171.649 225.778 170.752 233.142 170.396 240.542C170.239 244.24 170.226 247.938 170.357 251.637C170.362 255.033 170.877 258.41 171.885 261.654C175.957 273.37 187.859 279.689 199.186 282.593C206.157 284.379 213.364 285.292 220.453 286.401L242.854 289.911L248.462 290.792C249.967 291.028 252.7 290.973 253.015 292.916C253.084 293.711 253.004 294.512 252.779 295.277L252.141 298.212L250.912 303.925C249.305 311.337 247.73 318.752 246.186 326.17C243.035 341.121 240.018 356.072 236.923 371.022L235.773 376.593C235.773 376.688 235.899 376.727 235.915 376.633C239.191 361.682 242.531 346.818 245.784 331.899C247.423 324.386 249.029 316.867 250.605 309.339L252.968 298.204C253.299 296.631 253.874 294.931 253.834 293.31C253.834 292.72 253.641 292.146 253.284 291.676C252.927 291.206 252.426 290.865 251.857 290.705Z" fill="#515151"/>
<path d="M285.577 385.721C281.883 384.934 278.22 384.084 274.495 383.447C270.769 382.81 267.028 382.227 263.286 381.677C255.851 380.575 248.397 379.597 240.924 378.741C236.702 378.261 232.473 377.876 228.258 377.341C228.148 377.341 228.148 377.506 228.258 377.522C235.828 378.482 243.366 379.812 250.904 381C258.277 382.164 265.649 383.36 273.037 384.462C277.196 385.076 281.363 385.517 285.53 386.036C285.711 386.059 285.75 385.76 285.577 385.721Z" fill="#515151"/>
<path d="M232.362 226.157C229.038 226.817 225.68 227.292 222.303 227.582C216.995 228.109 209.59 228.589 200.02 228.581H199.233C198.035 228.581 196.791 228.581 195.523 228.542C186.677 228.392 176.209 227.857 164.095 226.637C164.095 226.637 178.115 175.034 192.451 158.234C192.774 157.848 193.105 157.447 193.435 157.14C193.498 157.061 193.561 157.006 193.624 156.935C194.735 155.755 196.028 154.759 197.452 153.985C197.708 153.844 197.971 153.718 198.24 153.607C203.754 151.073 209.575 153.174 213.773 156.754C215.112 157.895 230.204 177.512 231.535 184.996C232.693 191.598 228.227 198.687 228.227 198.687L232.362 226.157Z" fill="#1D45D1"/>
<path d="M200.005 228.581H199.217C198.02 228.581 196.775 228.581 195.507 228.542C186.662 228.392 176.193 227.857 164.079 226.637C164.079 226.637 178.1 175.034 192.435 158.234C192.758 157.848 193.089 157.447 193.42 157.14C193.483 157.061 193.546 157.006 193.609 156.935C194.72 155.755 196.012 154.759 197.437 153.985C197.692 153.844 197.955 153.718 198.225 153.607L200.005 228.581Z" fill="#515151"/>
<path d="M188.387 163.002C175.674 182.328 160.818 215.346 169.995 221.027C185.047 230.367 225.581 231.555 234.828 231.445C238.821 231.406 243.303 204.691 240.239 201.733C237.175 198.774 194.909 201.953 194.279 199.419C193.916 197.979 197.272 184.712 199.312 168.605C201.643 150.027 191.971 157.557 188.387 163.002Z" fill="#F2B2AA"/>
<path d="M233.087 200.529C233.087 200.529 245.115 198.845 253.031 198.121C257.45 197.712 265.082 197.688 268.469 198.908C273.526 200.678 293.549 211.317 291.075 216.219C288.831 220.657 272.786 209.342 272.786 209.342C272.786 209.342 289.988 219.335 286.302 224.182C282.616 229.03 266.232 213.803 266.232 213.803C266.232 213.803 283.671 224.466 279.079 228.872C275.606 232.201 259.955 219.272 259.955 219.272C259.955 219.272 274.849 228.542 271.431 232.13C267.65 236.064 252.456 225.048 252.456 225.048C242.216 232.673 234.245 232.13 228.605 231.06C227.235 230.792 233.087 200.529 233.087 200.529Z" fill="#F2B2AA"/>
<path d="M267.059 205.47C269.122 206.572 271.218 207.674 273.179 208.956C275.14 210.239 277.046 211.584 278.882 213.04C281.308 214.898 283.514 217.026 285.459 219.382C281.701 215.448 274.762 210.727 272.809 209.475C270.855 208.224 268.965 206.824 267.011 205.541C266.964 205.51 267.019 205.447 267.059 205.47Z" fill="#515151"/>
<path d="M262.293 212.458C264.861 213.976 267.476 215.393 269.981 217.022C272.486 218.651 275.896 221.051 278.267 222.837C278.448 222.978 278.33 223.301 278.141 223.167C275.692 221.468 272.1 219.186 269.634 217.517C267.169 215.849 264.767 214.087 262.246 212.513C262.222 212.458 262.293 212.458 262.293 212.458Z" fill="#515151"/>
<path d="M257.15 217.706C261.151 219.936 264.909 222.573 268.367 225.575C268.548 225.717 268.367 225.764 268.178 225.63C264.491 222.939 261.624 220.799 257.072 217.832C257.001 217.801 257.064 217.659 257.15 217.706Z" fill="#515151"/>
<path d="M233.008 200.371C238.522 199.585 252.96 197.444 258.497 197.137C263.373 196.87 267.532 197.389 271.958 199.537C278.506 202.679 284.478 206.898 289.626 212.017C290.634 213.127 292.13 214.913 291.201 216.416C290.051 218.241 284.774 217.305 278.795 213.182C278.575 213.032 278.685 212.906 278.905 213.04C287.208 218.123 290.098 217.03 290.721 215.881C291.138 215.149 290.5 214.047 289.933 213.221C289.025 212.039 287.965 210.981 286.782 210.074C282.858 206.824 278.612 203.984 274.109 201.599C269.257 198.887 263.734 197.607 258.182 197.908C252.511 198.192 238.656 200.387 232.977 200.584C232.89 200.592 232.89 200.387 233.008 200.371Z" fill="#515151"/>
<path d="M286.877 221.625C286.365 220.169 285.105 218.942 284.089 217.816C282.844 216.401 281.461 215.112 279.961 213.969C279.898 213.921 279.804 214.008 279.875 214.071C281.176 215.244 282.407 216.492 283.561 217.809C284.178 218.538 284.751 219.302 285.278 220.098C285.895 220.83 286.25 221.747 286.286 222.703C286.137 224.536 283.868 224.796 282.458 224.489C281.546 224.278 280.655 223.983 279.796 223.608C278.629 223.057 277.505 222.42 276.433 221.704C276.338 221.633 276.125 221.704 276.22 221.767C278.473 223.403 282.781 226.858 285.672 225.001C286.234 224.665 286.661 224.145 286.881 223.529C287.101 222.913 287.1 222.24 286.877 221.625Z" fill="#515151"/>
<path d="M171.058 184.051L197.744 183.768C197.744 183.768 199.319 171.918 200.438 163.962C201.674 154.842 200.981 149.082 190.253 159.131C182.818 166.095 171.058 184.051 171.058 184.051Z" fill="#1D45D1"/>
<path d="M202.549 152.474C197.326 153.977 197.823 159.847 199.8 163.97C201.777 168.093 205.581 172.878 208.385 172.736C211.189 172.594 211.709 165.583 211.709 165.583C211.709 165.583 215.695 169.943 217.782 168.424C219.87 166.905 215.679 158.887 212.702 156.4C208.385 152.781 205.321 151.679 202.549 152.474Z" fill="white"/>
<path d="M199.682 155.802C199.918 157.054 205.495 165.387 211.189 165.371C213.04 165.371 213.45 155.252 213.45 155.252L213.655 154.512L216.459 144.149L204.51 135.721L202.785 134.557C202.785 134.557 202.202 137.444 201.517 141.041C201.478 141.206 201.446 141.371 201.415 141.552C201.383 141.733 201.328 141.945 201.296 142.134C201.186 142.669 201.076 143.22 200.973 143.771C200.903 144.188 200.824 144.558 200.761 145.03C200.698 145.502 200.619 145.903 200.548 146.344C200.041 149.473 199.751 152.633 199.682 155.802Z" fill="#F2B2AA"/>
<path d="M201.517 141.072C202.442 144.057 204.008 146.805 206.104 149.124C208.2 151.444 210.777 153.28 213.655 154.504L216.459 144.141L204.51 135.713L202.785 134.557C202.785 134.557 202.202 137.476 201.517 141.072Z" fill="#515151"/>
<path d="M231.464 128.057C232.338 146.871 221.161 149.515 217.097 149.704C213.41 149.869 200.839 149.972 198.027 131.346C195.215 112.721 203.691 106.371 212.103 105.544C220.515 104.718 230.589 109.251 231.464 128.057Z" fill="#F2B2AA"/>
<path d="M228.66 124.933C228.228 124.879 227.799 124.8 227.376 124.697C226.913 124.679 226.47 124.507 226.116 124.209C226.033 124.094 225.989 123.957 225.989 123.816C225.989 123.675 226.033 123.537 226.116 123.422C226.324 123.212 226.586 123.062 226.873 122.987C227.159 122.912 227.461 122.916 227.746 122.997C228.352 123.052 228.914 123.333 229.321 123.784C229.409 123.897 229.46 124.032 229.47 124.174C229.48 124.316 229.447 124.457 229.376 124.581C229.306 124.704 229.199 124.803 229.072 124.866C228.944 124.929 228.801 124.952 228.66 124.933Z" fill="#515151"/>
<path d="M216.609 125.311C217.037 125.235 217.461 125.135 217.877 125.012C218.339 124.97 218.774 124.776 219.114 124.461C219.196 124.346 219.24 124.209 219.24 124.067C219.24 123.926 219.196 123.789 219.114 123.674C218.895 123.476 218.627 123.34 218.338 123.279C218.048 123.218 217.748 123.235 217.468 123.328C216.87 123.43 216.331 123.749 215.955 124.225C215.885 124.336 215.846 124.464 215.845 124.596C215.843 124.728 215.878 124.857 215.946 124.97C216.014 125.083 216.112 125.174 216.229 125.234C216.346 125.295 216.478 125.321 216.609 125.311Z" fill="#515151"/>
<path d="M218.972 129.757C218.972 129.709 218.869 129.82 218.877 129.875C218.98 131.149 218.877 132.637 217.743 133.117C217.704 133.117 217.743 133.195 217.743 133.187C219.145 132.92 219.255 130.953 218.972 129.757Z" fill="#515151"/>
<path d="M217.743 128.474C215.68 128.419 215.711 132.558 217.633 132.605C219.555 132.652 219.484 128.521 217.743 128.474Z" fill="#515151"/>
<path d="M216.932 128.702C216.577 128.938 216.223 129.355 215.79 129.403C215.357 129.45 214.9 129.025 214.561 128.616C214.561 128.576 214.498 128.616 214.498 128.663C214.498 129.45 214.805 130.237 215.656 130.378C216.507 130.52 216.979 129.772 217.176 128.978C217.208 128.82 217.082 128.6 216.932 128.702Z" fill="#515151"/>
<path d="M225.967 129.426C225.967 129.379 226.069 129.489 226.061 129.536C226.022 130.819 226.195 132.298 227.361 132.684C227.361 132.684 227.361 132.762 227.361 132.755C225.927 132.597 225.722 130.622 225.967 129.426Z" fill="#515151"/>
<path d="M227.109 128.089C229.172 127.923 229.338 132.062 227.424 132.212C225.51 132.361 225.384 128.214 227.109 128.089Z" fill="#515151"/>
<path d="M227.983 128.325C228.321 128.529 228.66 128.915 229.054 128.923C229.448 128.931 229.842 128.474 230.094 128.033C230.094 127.986 230.157 128.033 230.165 128.081C230.212 128.868 229.983 129.702 229.235 129.883C228.487 130.064 228.006 129.395 227.786 128.608C227.746 128.466 227.849 128.262 227.983 128.325Z" fill="#515151"/>
<path d="M218.972 139.648C219.263 139.954 219.554 140.379 220.019 140.434C220.497 140.444 220.973 140.353 221.413 140.167C221.413 140.167 221.492 140.167 221.468 140.23C221.276 140.475 221.02 140.664 220.729 140.776C220.438 140.888 220.122 140.92 219.814 140.867C219.554 140.791 219.322 140.639 219.15 140.43C218.977 140.221 218.871 139.965 218.846 139.695C218.83 139.624 218.924 139.6 218.972 139.648Z" fill="#515151"/>
<path d="M224.045 135.54C224.045 135.54 224.352 137.452 224.368 138.349C224.368 138.436 221.091 139.183 219.602 136.988C219.592 136.97 219.588 136.948 219.591 136.927C219.594 136.906 219.604 136.887 219.62 136.872C219.635 136.858 219.655 136.849 219.676 136.847C219.697 136.845 219.719 136.85 219.736 136.862C220.903 137.624 222.284 137.988 223.675 137.901C223.738 137.657 223.045 134.651 223.186 134.635C223.89 134.687 224.584 134.829 225.25 135.06C224.738 131.063 223.58 127.191 223.123 123.202C223.123 123.174 223.132 123.146 223.149 123.124C223.166 123.102 223.19 123.085 223.217 123.078C223.244 123.071 223.273 123.073 223.299 123.084C223.325 123.095 223.346 123.114 223.36 123.139C224.856 127.121 225.557 131.7 226.195 135.816C226.29 136.327 224.415 135.69 224.045 135.54Z" fill="#515151"/>
<path d="M225.045 130.213C224.966 127.262 226.486 124.815 228.44 124.76C230.393 124.705 232.047 127.066 232.134 130.008C232.221 132.951 230.693 135.406 228.739 135.462C226.786 135.517 225.132 133.164 225.045 130.213ZM225.762 130.213C225.84 132.77 227.164 134.816 228.723 134.769C230.283 134.722 231.488 132.613 231.417 130.048C231.346 127.483 230.015 125.452 228.456 125.492C226.896 125.531 225.691 127.64 225.762 130.189V130.213Z" fill="#6A6A6A"/>
<path d="M211.583 130.622C211.622 129.646 211.945 128.702 212.514 127.907C213.082 127.112 213.871 126.5 214.783 126.147C215.695 125.794 216.69 125.715 217.647 125.919C218.603 126.124 219.479 126.603 220.166 127.298C220.853 127.993 221.322 128.874 221.515 129.832C221.708 130.789 221.617 131.783 221.252 132.689C220.888 133.596 220.266 134.376 219.463 134.935C218.661 135.493 217.712 135.804 216.734 135.831C215.361 135.819 214.049 135.264 213.083 134.288C212.118 133.312 211.579 131.994 211.583 130.622ZM212.3 130.622C212.383 131.455 212.708 132.245 213.235 132.896C213.761 133.547 214.467 134.03 215.265 134.286C216.063 134.542 216.918 134.559 217.725 134.336C218.533 134.113 219.258 133.659 219.81 133.031C220.363 132.402 220.72 131.625 220.838 130.796C220.955 129.968 220.827 129.123 220.47 128.365C220.113 127.608 219.543 126.972 218.829 126.534C218.115 126.096 217.288 125.876 216.451 125.901C215.285 125.984 214.198 126.519 213.422 127.393C212.646 128.266 212.243 129.409 212.3 130.575V130.622Z" fill="#6A6A6A"/>
<path d="M221.335 129.835C223.99 128.82 225.226 129.662 225.234 129.67L225.659 129.096C225.604 129.048 224.131 127.994 221.075 129.166L221.335 129.835Z" fill="#6A6A6A"/>
<path d="M211.93 130.119L212.04 129.41C211.576 129.34 200.588 127.632 199.438 127.601C198.288 127.569 195.31 129.284 194.987 129.481L195.358 130.095C196.145 129.599 198.445 128.348 199.367 128.324H199.422C200.296 128.348 207.992 129.513 211.93 130.119Z" fill="#6A6A6A"/>
<path d="M199.445 131.976C204.077 131.976 205.896 117.812 206.101 116.081C206.022 117.182 205.668 123.021 206.101 123.273C206.596 123.277 207.088 123.2 207.558 123.045C207.585 122.345 207.664 121.648 207.795 120.959C207.842 120.637 207.889 121.668 208.023 122.934L208.89 122.722C208.887 121.228 209.086 119.741 209.48 118.3C209.63 117.749 209.693 120.235 210.15 122.423C214.134 121.406 218.217 120.828 222.327 120.7C223.477 120.7 224.47 120.739 225.352 120.818C225.415 119.087 225.281 117.245 225.391 117.67C225.704 118.722 225.91 119.803 226.006 120.896L227.321 121.038C227.518 118.607 226.486 114.68 226.856 115.286C227.953 117.159 228.686 119.223 229.015 121.369C230.669 121.746 231.118 122.085 231.173 121.652C231.283 120.865 230.558 114.027 225.407 108.849C219.815 103.223 208.338 101.476 201.556 109.636C201.556 109.636 196.09 112.949 195.058 118.536C194.026 124.123 196.775 131.976 199.445 131.976Z" fill="#515151"/>
<path d="M201.084 131.244C201.084 131.244 197.208 125.208 194.483 126.562C191.758 127.915 194.483 136.555 197.586 137.846C197.973 138.037 198.394 138.149 198.825 138.173C199.256 138.197 199.688 138.134 200.094 137.987C200.499 137.84 200.871 137.612 201.186 137.317C201.501 137.022 201.753 136.667 201.926 136.272L201.084 131.244Z" fill="#F2B2AA"/>
<path d="M195.342 129.049C195.333 129.052 195.326 129.058 195.321 129.066C195.316 129.074 195.313 129.083 195.313 129.092C195.313 129.101 195.316 129.11 195.321 129.118C195.326 129.125 195.333 129.131 195.342 129.135C197.508 130.111 198.579 132.196 199.28 134.336C198.658 133.494 197.791 133.014 196.665 133.746C196.656 133.757 196.65 133.769 196.648 133.783C196.646 133.797 196.648 133.811 196.654 133.823C196.66 133.836 196.669 133.847 196.681 133.854C196.693 133.861 196.706 133.865 196.72 133.864C197.114 133.761 197.53 133.781 197.912 133.922C198.293 134.063 198.623 134.317 198.855 134.651C199.238 135.211 199.56 135.81 199.816 136.437C199.91 136.634 200.265 136.548 200.202 136.319C200.202 136.319 200.202 136.28 200.202 136.264C200.344 133.424 198.327 129.426 195.342 129.049Z" fill="#515151"/>
<path d="M238.317 224.214H171.838V227.196H238.317V224.214Z" fill="#3A3A3A"/>
<path d="M238.317 224.214H204.856V227.196H238.317V224.214Z" fill="#515151"/>
<path d="M205.629 227.188H140.843L131.69 183.233H196.476L205.629 227.188Z" fill="#6A6A6A"/>
<path d="M173.681 206.163C173.754 206.708 173.708 207.262 173.546 207.787C173.385 208.312 173.111 208.796 172.744 209.206C172.378 209.616 171.927 209.941 171.422 210.16C170.917 210.379 170.372 210.487 169.822 210.475C168.64 210.45 167.507 210 166.63 209.208C165.754 208.416 165.192 207.335 165.048 206.163C164.975 205.618 165.021 205.064 165.183 204.539C165.345 204.014 165.618 203.529 165.985 203.12C166.352 202.71 166.803 202.385 167.307 202.166C167.812 201.946 168.358 201.839 168.908 201.851C170.089 201.876 171.222 202.326 172.099 203.118C172.976 203.91 173.537 204.991 173.681 206.163Z" fill="white"/>
<path d="M331.947 227.196H277.952V223.002L331.947 221.263V227.196Z" fill="#6A6A6A"/>
<path d="M387.313 208.822H292.729L307.774 138.483H402.349L387.313 208.822Z" fill="#3A3A3A"/>
<path d="M390.81 208.822H296.227L311.271 138.483H405.846L390.81 208.822Z" fill="#6A6A6A"/>
<path d="M339.8 183.603H337.579L340.95 167.826H343.164L339.8 183.603Z" fill="#515151"/>
<path d="M344.171 183.603H341.958L345.321 167.826H347.543L344.171 183.603Z" fill="#515151"/>
<path d="M348.551 183.603H346.33L349.701 167.826H351.923L348.551 183.603Z" fill="#515151"/>
<path d="M352.93 183.603H350.709L354.072 167.826H356.294L352.93 183.603Z" fill="#515151"/>
<path d="M357.302 183.603H355.089L358.452 167.826H360.673L357.302 183.603Z" fill="#515151"/>
<path d="M361.681 183.603H359.46L362.831 167.826H365.045L361.681 183.603Z" fill="#515151"/>
<path d="M366.061 183.603H363.84L367.203 167.826H369.424L366.061 183.603Z" fill="#515151"/>
<path d="M364.061 227.196H317.541V223.584L364.061 222.081V227.196Z" fill="#3A3A3A"/>
<path d="M376.702 227.188H351.733L336.688 187.773H361.665L376.702 227.188Z" fill="#3A3A3A"/>
<path d="M380.814 227.188H355.845L340.801 187.773H365.778L380.814 227.188Z" fill="#515151"/>
<path d="M104.807 208.822H133.998L118.961 138.483H89.7705L104.807 208.822Z" fill="#3A3A3A"/>
<path d="M101.31 208.822H130.501L115.464 138.483H86.2734L101.31 208.822Z" fill="#6A6A6A"/>
<path d="M105.287 183.603H105.705L102.333 167.826H101.924L105.287 183.603Z" fill="#515151"/>
<path d="M106.17 183.603H106.587L103.216 167.826H102.807L106.17 183.603Z" fill="#515151"/>
<path d="M107.052 183.603H107.469L104.106 167.826H103.688L107.052 183.603Z" fill="#515151"/>
<path d="M107.935 183.603H108.352L104.989 167.826H104.571L107.935 183.603Z" fill="#515151"/>
<path d="M108.824 183.603H109.234L105.871 167.826H105.453L108.824 183.603Z" fill="#515151"/>
<path d="M109.706 183.603H110.116L106.752 167.826H106.335L109.706 183.603Z" fill="#515151"/>
<path d="M110.589 183.603H110.999L107.635 167.826H107.218L110.589 183.603Z" fill="#515151"/>
<path d="M111.471 183.603H111.888L108.517 167.826H108.1L111.471 183.603Z" fill="#515151"/>
<path d="M100.751 227.196H135.668V223.584L100.751 222.081V227.196Z" fill="#3A3A3A"/>
<path d="M88.1006 227.188H101.475L116.52 187.773H103.145L88.1006 227.188Z" fill="#3A3A3A"/>
<path d="M88.1006 227.188H97.3636L112.408 187.773H103.145L88.1006 227.188Z" fill="#515151"/>
<path d="M272.722 227.228H237.088C234.048 227.228 238.451 218.572 249.541 215.267C260.632 211.962 276.228 223.986 272.722 227.228Z" fill="#6A6A6A"/>
<path d="M258.749 227.228C258.723 226.224 258.856 225.223 259.143 224.261C259.419 223.299 259.816 222.377 260.325 221.515C260.84 220.648 261.495 219.872 262.262 219.217C263.013 218.557 263.889 218.054 264.838 217.738C264.064 218.311 263.344 218.953 262.688 219.658C262.05 220.354 261.485 221.113 261.002 221.924C260.03 223.59 259.273 225.372 258.749 227.228Z" fill="#515151"/>
<path d="M262.971 219.005C265.124 219.594 267.158 220.556 268.981 221.845C269.912 222.488 270.747 223.259 271.462 224.135C272.222 224.992 272.667 226.083 272.722 227.228C272.381 226.203 271.788 225.28 270.997 224.544C270.239 223.784 269.411 223.097 268.524 222.491C266.759 221.232 264.869 220.146 262.971 219.005Z" fill="#515151"/>
<path d="M105.209 367.835H74.9707V373.147H105.209V367.835Z" fill="#3A3A3A"/>
<path d="M121.6 445.556H118.339L91.7079 321.354L90.1877 314.272L85.4065 291.972L83.6264 283.663L76.9234 252.455L74.584 241.533H86.2178L88.1082 252.455L89.3528 259.631L90.1877 264.408L94.961 291.972L96.5048 300.848L121.6 445.556Z" fill="#3A3A3A"/>
<path d="M86.2178 241.533L88.1082 252.455H76.9234L74.584 241.533H86.2178Z" fill="#515151"/>
<path d="M96.5053 300.848L91.7084 321.354L90.1882 314.272L85.4071 291.972L83.627 283.663L89.3533 259.631L90.1882 264.408L94.9615 291.972L96.5053 300.848Z" fill="#515151"/>
<path d="M105.783 241.533L103.444 252.455L94.9609 291.972L90.1876 314.272L62.0285 445.556H58.7754L85.4065 291.972L90.1876 264.408L92.2513 252.455L94.1496 241.533H105.783Z" fill="#3A3A3A"/>
<path d="M105.784 241.533L103.445 252.455H92.252L94.1502 241.533H105.784Z" fill="#515151"/>
<path d="M425.293 241.525L381.546 445.555H378.277L413.659 241.525H425.293Z" fill="#3A3A3A"/>
<path d="M394.094 241.525L437.849 445.555H441.11L405.728 241.525H394.094Z" fill="#3A3A3A"/>
<path d="M424.719 367.835H394.48V373.147H424.719V367.835Z" fill="#3A3A3A"/>
<path d="M443.166 227.196H56.7041V241.533H443.166V227.196Z" fill="#3A3A3A"/>
<path d="M53.8922 354.096C45.535 336.942 30.9159 328.129 14.4379 333C-2.04016 337.871 -4.5922 360.816 7.7033 366.616C19.9988 372.415 32.2943 355.489 38.8004 352.011C45.3066 348.533 53.8922 354.096 53.8922 354.096Z" fill="#1D45D1"/>
<path d="M61.9733 399.735C61.934 397.674 61.8552 395.604 61.7764 393.535C61.6346 389.406 61.4902 385.278 61.3432 381.149C61.0597 373.595 60.2484 366.199 57.1134 359.219C54.3437 352.909 49.7209 347.588 43.857 343.961C41.6842 342.648 39.3414 341.64 36.894 340.963C34.8539 338.681 31.6717 337.202 28.7653 336.494C24.9529 335.573 21.0382 335.778 17.1708 336.211C17.0369 336.211 17.0369 336.439 17.1708 336.423C20.8417 335.959 24.5683 336.226 28.1351 337.21C29.6639 337.63 31.1449 338.207 32.5539 338.933C33.442 339.41 34.2948 339.949 35.106 340.546C31.7821 339.858 28.3487 339.893 25.0396 340.649C23.845 340.938 22.6755 341.322 21.5423 341.797C20.6431 341.598 19.7214 341.519 18.8012 341.561C17.5968 341.601 16.4003 341.773 15.2331 342.073C12.8463 342.741 10.5639 343.737 8.45128 345.032C8.33313 345.102 8.45128 345.283 8.56943 345.212C10.6467 344.077 12.8742 343.239 15.1858 342.726C16.3031 342.474 17.438 342.308 18.5807 342.23C19.2142 342.212 19.8481 342.233 20.479 342.293C15.7799 344.451 12.0024 348.208 9.82183 352.892C9.76669 353.026 9.95573 353.129 10.0109 353.003C12.4841 347.424 17.7536 343.615 23.5903 342.128C23.9526 342.033 24.3228 341.986 24.693 341.915C24.6024 342.465 24.5419 343.019 24.5118 343.576C24.4016 344.41 24.2677 345.236 24.0944 346.062C23.7519 347.762 23.3047 349.438 22.7553 351.083C22.1995 352.748 21.5337 354.376 20.7625 355.953C20.0221 357.631 19.0862 359.216 17.9742 360.675C17.9633 360.686 17.9548 360.699 17.9494 360.714C17.944 360.728 17.9418 360.744 17.9428 360.759C17.9439 360.775 17.9482 360.79 17.9556 360.804C17.9629 360.818 17.9731 360.83 17.9854 360.839C17.9978 360.849 18.012 360.855 18.0271 360.859C18.0423 360.863 18.058 360.863 18.0733 360.86C18.0887 360.857 18.1032 360.851 18.116 360.842C18.1287 360.833 18.1395 360.822 18.1475 360.808C19.1399 359.235 20.2899 357.826 21.1958 356.221C22.0592 354.682 22.8044 353.08 23.4249 351.429C24.0625 349.739 24.5578 347.999 24.9057 346.228C25.0868 345.299 25.2286 344.371 25.3389 343.434C25.4477 342.875 25.4821 342.303 25.4413 341.734C27.3785 341.441 29.3456 341.398 31.2937 341.609C30.5611 345.7 29.7735 349.965 27.4813 353.522C27.4026 353.64 27.6074 353.75 27.6704 353.632C28.7442 351.755 29.6889 349.807 30.4981 347.801C31.2559 345.845 31.7332 343.792 31.9159 341.703C35.3172 342.159 38.6001 343.26 41.5885 344.945C47.2168 348.217 51.7101 353.129 54.4669 359.022C57.5624 365.365 58.8069 372.195 59.2401 379.198C59.7915 387.964 59.9018 396.785 60.8155 405.527C60.8706 406.101 61.7764 406.314 61.8867 405.645C62.1034 403.682 62.1324 401.704 61.9733 399.735Z" fill="#515151"/>
<path d="M42.6682 342.608C42.1155 341.944 41.4772 341.357 40.7699 340.861C40.0847 340.294 39.3836 339.744 38.6511 339.248C37.21 338.257 35.6124 337.515 33.9251 337.052C33.7912 337.052 33.7361 337.233 33.87 337.257C35.5888 337.689 37.1985 338.474 38.596 339.563C39.297 340.074 39.9665 340.625 40.6203 341.191C41.2001 341.799 41.8415 342.345 42.5343 342.82C42.5973 342.883 42.7549 342.734 42.6682 342.608Z" fill="#515151"/>
<path d="M16.0057 348.832C14.6203 350.435 13.3391 352.125 12.1697 353.892C11.0299 355.673 10.0745 357.567 9.31836 359.542C9.31836 359.597 9.38925 359.628 9.42076 359.581C11.4451 355.938 13.4851 352.192 16.1632 348.982C16.2498 348.871 16.0923 348.722 16.0057 348.832Z" fill="#515151"/>
<path d="M33.9797 347.132C33.8006 348.202 33.4829 349.245 33.0345 350.233C32.5802 351.189 32.0536 352.11 31.4592 352.987C31.4198 353.042 31.5065 353.105 31.5537 353.058C32.9967 351.402 33.9175 349.357 34.2003 347.18C34.2082 347.014 34.0034 347.014 33.9797 347.132Z" fill="#515151"/>
<path d="M60.8076 354.521C60.8076 354.521 72.6226 339.665 95.465 344.929C117.165 349.934 127.184 389.687 105.256 394.448C83.3271 399.208 87.1866 362.414 79.1997 356.166C73.3394 351.586 64.9114 352.57 60.8076 354.521Z" fill="#1D45D1"/>
<path d="M113.109 366.639C111.615 365.336 110.036 364.132 108.383 363.035C106.834 361.976 105.146 361.137 103.366 360.541C102.477 359.189 101.481 357.91 100.388 356.717C98.3795 354.544 96.0532 352.687 93.4885 351.208L94.1659 351.161C95.3754 351.098 96.5875 351.098 97.797 351.161C100.233 351.314 102.622 351.906 104.847 352.908C104.973 352.971 105.067 352.766 104.941 352.711C102.682 351.741 100.319 351.031 97.8994 350.595C96.7242 350.386 95.5327 350.284 94.3392 350.288C93.6933 350.288 93.0553 350.343 92.4172 350.406H92.0549C89.9591 349.353 87.7498 348.543 85.47 347.99C85.6827 347.935 85.8875 347.864 86.108 347.817C87.2238 347.572 88.3517 347.385 89.4871 347.258C91.7613 347 94.0594 347.037 96.3241 347.369C96.458 347.369 96.4974 347.172 96.3635 347.156C94.0722 346.877 91.7621 346.782 89.4556 346.873C87.5212 346.927 85.5972 347.177 83.7135 347.62C82.3372 347.365 80.945 347.205 79.5467 347.14C71.5834 346.81 62.9112 349.776 58.004 356.315C53.0968 362.854 52.1438 371.589 51.2773 379.481C49.9408 390.508 49.6507 401.637 50.4109 412.719C50.466 413.364 51.3797 413.246 51.4034 412.632C51.7027 403.253 52.0335 393.881 52.9314 384.541C53.3489 380.213 53.8057 375.885 54.5068 371.581C55.0302 367.892 56.0917 364.3 57.6574 360.919C59.3554 357.458 62.0415 354.578 65.3766 352.641C68.7195 350.73 72.4457 349.585 76.2858 349.288C79.7285 349.001 83.1951 349.323 86.5255 350.241C86.4008 350.908 86.3822 351.59 86.4704 352.263C86.5405 353.11 86.707 353.947 86.9666 354.757C87.2171 355.521 87.5361 356.262 87.9197 356.968C88.345 357.755 88.8806 358.448 89.3453 359.195C89.4241 359.321 89.6132 359.195 89.5265 359.069C88.5895 357.732 87.9823 356.193 87.7543 354.576C87.6154 353.809 87.5233 353.034 87.4786 352.255C87.4786 351.665 87.4786 351.075 87.4786 350.485C91.0996 351.599 94.4793 353.382 97.4426 355.741C98.0018 356.189 98.5374 356.662 99.0179 357.142C98.2678 357.835 97.6183 358.629 97.0881 359.502C96.3031 360.642 95.6229 361.851 95.0559 363.114C93.9973 365.651 93.2872 368.319 92.945 371.046C92.9453 371.071 92.9545 371.096 92.971 371.115C92.9874 371.135 93.0101 371.148 93.0352 371.153C93.0602 371.157 93.0862 371.153 93.1085 371.141C93.1308 371.128 93.1482 371.109 93.1577 371.085C93.5783 368.448 94.4581 365.904 95.757 363.57C96.357 362.412 97.0333 361.295 97.7813 360.226C98.1594 359.675 98.5689 359.132 98.9785 358.613C99.1991 358.33 99.4432 358.039 99.6559 357.74C102.342 360.363 104.535 363.446 106.131 366.844H106.091C105.01 367.982 104.107 369.276 103.413 370.684C102.596 372.153 101.882 373.678 101.279 375.248C100.174 378.287 99.2635 381.394 98.5532 384.549C98.5535 384.574 98.5627 384.599 98.5792 384.618C98.5956 384.638 98.6183 384.651 98.6434 384.655C98.6684 384.66 98.6944 384.656 98.7167 384.644C98.739 384.631 98.7564 384.612 98.7659 384.588C99.4603 381.412 100.548 378.336 102.003 375.429C102.688 373.997 103.405 372.588 104.169 371.203C104.957 369.914 105.673 368.582 106.312 367.214C107.833 370.543 108.717 374.127 108.919 377.781C108.919 377.923 109.147 377.899 109.132 377.781C108.714 372.053 106.961 366.502 104.012 361.572C105.406 362.162 106.808 362.736 108.147 363.46C109.856 364.367 111.444 365.485 112.873 366.789C113.07 366.907 113.22 366.734 113.109 366.639Z" fill="#515151"/>
<path d="M96.3638 367.473C95.6785 369.724 94.7884 371.911 94.1977 374.185C93.5678 376.369 93.2288 378.626 93.1895 380.898C93.1895 380.96 93.2918 380.96 93.2997 380.898C93.9152 376.336 95.0109 371.852 96.5686 367.521C96.5774 367.506 96.5826 367.489 96.5837 367.472C96.5848 367.454 96.5819 367.437 96.575 367.421C96.5682 367.405 96.5577 367.391 96.5444 367.38C96.5311 367.369 96.5154 367.361 96.4985 367.357C96.4816 367.353 96.464 367.353 96.4471 367.357C96.4303 367.362 96.4147 367.37 96.4016 367.381C96.3885 367.392 96.3782 367.407 96.3716 367.423C96.365 367.439 96.3624 367.456 96.3638 367.473Z" fill="#515151"/>
<path d="M110.825 361.894C109.932 361.031 108.915 360.304 107.808 359.738C106.678 359.225 105.506 358.812 104.303 358.503C104.169 358.464 104.122 358.684 104.303 358.715C105.483 359.026 106.617 359.492 107.675 360.1C108.754 360.659 109.791 361.295 110.778 362.005C110.79 362.003 110.801 361.998 110.81 361.991C110.82 361.983 110.827 361.974 110.832 361.963C110.837 361.952 110.839 361.94 110.837 361.928C110.836 361.916 110.832 361.904 110.825 361.894Z" fill="#515151"/>
<path d="M72.0557 334.684C72.0557 334.684 74.2375 307.993 94.1104 299.345C110.651 292.122 120.19 310.739 108.462 322.165C98.9624 331.356 83.7604 327.193 72.0557 334.684Z" fill="#1D45D1"/>
<path d="M104.76 304.523C101.737 305.741 98.7891 307.136 95.9306 308.701C93.55 310.071 91.2585 311.59 89.07 313.249C89.4008 312.573 89.6922 311.864 90.0231 311.203C90.5429 310.181 91.0943 309.165 91.7087 308.19C92.933 306.181 94.4014 304.331 96.0802 302.682C96.1826 302.587 96.0251 302.43 95.9227 302.532C94.2457 304.19 92.7072 305.982 91.3227 307.891C90.6348 308.858 90.0036 309.864 89.4323 310.904C88.8465 311.863 88.3984 312.898 88.1012 313.981L87.8806 314.139C84.425 316.902 81.2582 320.008 78.4286 323.408C78.4837 323.148 78.5389 322.889 78.6019 322.621C78.98 321.32 79.3817 320.027 79.807 318.742C80.6633 316.004 81.8705 313.388 83.3988 310.96C83.4697 310.842 83.2806 310.739 83.2019 310.857C81.6466 313.288 80.2597 315.823 79.0508 318.443C78.4977 319.719 78.0396 321.034 77.6803 322.377C77.3886 323.249 77.1725 324.144 77.0344 325.053C76.168 326.146 75.3173 327.256 74.5139 328.397C65.9755 340.523 61.6906 355.19 60.6509 369.834C60.349 374.208 60.2754 378.594 60.4304 382.975C60.4635 387.398 60.8534 391.811 61.5961 396.171C61.6512 396.446 62.0766 396.36 62.0766 396.092C61.9742 392.236 61.5725 388.397 61.5016 384.541C61.4307 380.685 61.5646 376.806 61.8718 372.958C62.4969 365.255 63.9493 357.641 66.204 350.249C68.5194 342.684 71.9265 335.498 76.3176 328.916C77.1526 328.751 77.9796 328.531 78.8067 328.318C79.7991 328.058 80.7916 327.807 81.7762 327.531C83.6764 327.037 85.5232 326.357 87.2899 325.501C87.4159 325.438 87.2899 325.249 87.1717 325.32C85.4215 326.269 83.5267 326.923 81.5635 327.256C79.9882 327.563 78.4128 327.767 76.8375 328.121C78.2697 326.021 79.8104 323.996 81.4532 322.055C85.239 322.401 89.0561 322.117 92.7484 321.213C94.714 320.746 96.6456 320.147 98.5299 319.419C100.523 318.632 102.405 317.664 104.367 316.845C104.383 316.842 104.398 316.836 104.411 316.826C104.425 316.816 104.435 316.803 104.443 316.788C104.451 316.774 104.455 316.758 104.456 316.741C104.456 316.725 104.453 316.708 104.446 316.693C104.44 316.678 104.43 316.664 104.417 316.654C104.405 316.643 104.39 316.635 104.374 316.631C104.358 316.627 104.341 316.626 104.325 316.629C104.309 316.632 104.293 316.639 104.28 316.649C100.909 318.695 96.6789 319.741 92.8272 320.394C89.2844 320.963 85.703 321.257 82.1149 321.276C83.5248 319.662 84.982 318.089 86.5337 316.609C91.7481 311.644 97.947 307.088 104.815 304.712C104.973 304.68 104.902 304.46 104.76 304.523Z" fill="#515151"/>
<path d="M88.6122 304.594C87.7198 305.725 86.9065 306.916 86.1783 308.158C85.4397 309.464 84.853 310.85 84.4297 312.289C84.4297 312.3 84.4338 312.31 84.4412 312.317C84.4486 312.325 84.4586 312.329 84.4691 312.329C84.4795 312.329 84.4895 312.325 84.4969 312.317C84.5043 312.31 84.5085 312.3 84.5085 312.289C85.1701 310.983 85.7293 309.63 86.3989 308.355C87.0567 307.074 87.8488 305.865 88.7619 304.751C88.8643 304.641 88.6988 304.523 88.6122 304.594Z" fill="#515151"/>
<path d="M107.123 313.478C105.83 314.187 104.465 314.757 103.051 315.177C101.69 315.63 100.304 316 98.8995 316.287C98.8874 316.291 98.877 316.299 98.8697 316.31C98.8623 316.32 98.8584 316.333 98.8584 316.346C98.8584 316.359 98.8623 316.371 98.8697 316.382C98.877 316.392 98.8874 316.4 98.8995 316.405C100.36 316.25 101.8 315.936 103.192 315.468C104.567 314.95 105.908 314.348 107.209 313.666C107.32 313.603 107.202 313.407 107.123 313.478Z" fill="#515151"/>
<path d="M56.6171 329.876C56.4911 331.033 53.6161 320.19 36.823 310.566C21.5738 301.824 3.37075 279.091 18.3286 264.73C30.3957 253.14 62.2253 278.406 56.6171 329.876Z" fill="#1D45D1"/>
<path d="M68.1731 392.032C67.9326 380.748 67.0437 369.488 65.5108 358.306C64.1871 348.026 61.8116 337.909 58.4218 328.114C57.1773 324.588 55.7516 321.118 54.1999 317.703C54.287 316.371 54.2632 315.034 54.129 313.706C54.0502 311.998 53.8927 310.299 53.7352 308.591C53.5776 306.883 53.4043 305.184 53.1995 303.492C52.9947 301.8 52.6403 300.101 52.5694 298.401C52.5739 298.385 52.5746 298.367 52.5713 298.351C52.5681 298.334 52.5611 298.318 52.5508 298.305C52.5405 298.291 52.5272 298.281 52.512 298.273C52.4968 298.265 52.48 298.262 52.4631 298.262C52.4461 298.262 52.4294 298.265 52.4141 298.273C52.3989 298.281 52.3857 298.291 52.3754 298.305C52.3651 298.318 52.358 298.334 52.3548 298.351C52.3516 298.367 52.3522 298.385 52.3567 298.401C52.6939 300.185 52.894 301.992 52.9554 303.807C53.0866 305.454 53.1785 307.101 53.231 308.748C53.2862 310.393 53.2704 312.045 53.2783 313.698C53.2783 314.296 53.2783 314.925 53.2232 315.563C51.6478 312.226 49.9465 308.945 48.1191 305.75C49.2533 298.794 47.7804 291.524 46.3547 284.725C46.3547 284.591 46.1184 284.654 46.1499 284.788C46.8476 288.34 47.2168 291.949 47.2526 295.568C47.3157 298.425 47.1817 301.281 47.1739 304.137C46.7722 303.453 46.3862 302.768 45.953 302.091C43.779 298.535 41.4554 295.065 38.9821 291.681C39.1833 290.03 39.1275 288.358 38.8167 286.724C38.5425 284.892 38.1372 283.083 37.6037 281.31C37.0681 279.532 36.4537 277.785 35.7448 276.069C35.0359 274.354 34.0513 272.638 33.3818 270.868C33.377 270.853 33.3691 270.839 33.3585 270.827C33.3479 270.816 33.3349 270.807 33.3204 270.8C33.3059 270.794 33.2903 270.791 33.2745 270.791C33.2588 270.792 33.2432 270.795 33.229 270.802C33.2148 270.809 33.2022 270.819 33.1921 270.831C33.182 270.843 33.1746 270.857 33.1704 270.872C33.1662 270.887 33.1654 270.903 33.1679 270.919C33.1704 270.934 33.1762 270.949 33.1849 270.962C34.0786 272.631 34.784 274.394 35.288 276.219C35.845 277.931 36.3052 279.672 36.6664 281.436C37.0208 283.206 37.3123 284.977 37.5564 286.755C37.7219 287.935 37.8243 289.163 38.029 290.351C34.4333 285.526 30.5037 280.959 26.2692 276.683C26.1746 276.589 26.0329 276.738 26.1195 276.84C32.5234 284.027 38.2405 291.796 43.1961 300.045L43.7318 300.974C42.8102 300.4 41.7468 299.935 40.8804 299.455C39.2473 298.548 37.6142 297.653 35.9811 296.772C34.4058 295.914 32.8304 295.041 31.2551 294.167C30.4674 293.719 29.6798 293.247 28.8133 292.822C27.8202 292.379 26.8663 291.852 25.962 291.248C25.8359 291.154 25.702 291.35 25.8359 291.421C27.4113 292.31 28.8842 293.632 30.4438 294.624C32.0034 295.615 33.5945 296.591 35.2328 297.496C38.2181 299.156 41.4633 300.352 44.4013 302.076C46.4413 305.64 48.3396 309.299 50.0489 313.021C48.2687 311.878 46.4518 310.792 44.5982 309.763C43.4062 309.097 42.2089 308.444 41.0064 307.804C39.8084 307.251 38.6752 306.568 37.6273 305.766C37.6177 305.753 37.6054 305.743 37.5913 305.735C37.5772 305.727 37.5615 305.723 37.5455 305.722C37.5294 305.721 37.5134 305.723 37.4984 305.729C37.4834 305.735 37.4699 305.744 37.4589 305.756C37.4478 305.768 37.4394 305.781 37.4343 305.797C37.4292 305.812 37.4274 305.828 37.4292 305.844C37.431 305.86 37.4363 305.875 37.4447 305.889C37.453 305.903 37.4643 305.915 37.4777 305.923C39.435 307.678 41.6017 309.185 43.9287 310.409C46.079 311.668 48.2609 312.88 50.5057 313.981C52.3016 317.91 53.9216 321.91 55.3656 325.981C62.4546 345.976 65.0303 367.198 66.267 388.271C66.6372 394.566 66.8262 400.861 66.905 407.156C66.9837 413.451 66.6529 419.746 66.6687 425.994C66.6687 426.182 66.9759 426.222 66.9995 425.994C67.7872 420.423 67.8896 414.757 68.1337 409.139C68.3779 403.52 68.2991 397.745 68.1731 392.032Z" fill="#515151"/>
<path d="M37.6666 301.525C34.601 300.175 31.6231 298.635 28.7502 296.914C25.8312 295.277 23.002 293.486 20.2749 291.547C20.2644 291.54 20.2515 291.537 20.2389 291.539C20.2264 291.542 20.2152 291.549 20.2079 291.559C20.2006 291.569 20.1977 291.582 20.2 291.595C20.2022 291.607 20.2093 291.619 20.2197 291.626C22.7978 293.704 25.5165 295.603 28.3563 297.307C31.3296 298.971 34.405 300.445 37.5642 301.722C37.6902 301.777 37.8084 301.58 37.6666 301.525Z" fill="#515151"/>
<path d="M42.5344 278.926C42.2823 277.95 41.9752 276.998 41.6522 276.046C41.665 276.03 41.672 276.011 41.672 275.991C41.672 275.971 41.665 275.951 41.6522 275.936C41.4395 275.393 41.219 274.858 40.9984 274.322L40.9197 274.126C40.8724 274.023 40.833 273.921 40.7937 273.819C40.7543 273.717 40.7228 273.819 40.7385 273.819C40.7937 274 40.8409 274.189 40.9039 274.378C40.9265 274.482 40.9554 274.584 40.9906 274.684C42.0991 278.414 42.9311 282.219 43.4796 286.071C43.4796 286.197 43.6844 286.197 43.6765 286.071C43.5236 283.658 43.1411 281.266 42.5344 278.926Z" fill="#515151"/>
<path d="M85.919 396.084L84.7218 410.272L81.0512 453.534H41.7623L38.0918 410.272L36.8945 396.084H85.919Z" fill="#6A6A6A"/>
<path d="M85.919 396.084L84.7218 410.272H38.0918L36.8945 396.084H85.919Z" fill="#515151"/>
<path d="M89.7708 390.387H33.043V404H89.7708V390.387Z" fill="#6A6A6A"/>
<path d="M390 98L448 98C450.209 98 452 96.2091 452 94V41C452 38.7909 450.209 37 448 37L390 37C387.791 37 386 38.7909 386 41V94C386 96.2091 387.791 98 390 98Z" fill="#1D45D1"/>
<path d="M436.635 54.4256L435.692 55.2991L420.76 69.415C420.55 69.663 420.288 69.8623 419.992 69.9991C419.695 70.1359 419.373 70.2068 419.046 70.2068C418.719 70.2068 418.396 70.1359 418.1 69.9991C417.804 69.8623 417.542 69.663 417.331 69.415L402.012 55.0807L401.412 54.4954C401.808 54.2449 402.274 54.1228 402.743 54.146L413.109 54.1024L434.74 54.015C435.4 53.9507 436.063 54.0943 436.635 54.4256Z" fill="white"/>
<path d="M436.589 80.6308C436.17 80.7444 435.742 80.8204 435.31 80.8579C431.176 80.8579 427.042 80.9016 422.908 80.919L402.978 80.9976C402.413 81.0196 401.853 80.8802 401.365 80.5958L413.706 68.917L416.094 71.1444L417.108 72.0878C417.355 72.3415 417.651 72.5432 417.978 72.681C418.305 72.8188 418.657 72.8898 419.012 72.8898C419.368 72.8898 419.719 72.8188 420.047 72.681C420.374 72.5432 420.669 72.3415 420.916 72.0878C422.009 71.0658 423.093 70.0264 424.23 68.9432L436.571 80.4823L436.589 80.6308Z" fill="white"/>
<path d="M412.226 67.5019C408.215 71.3716 404.143 75.1277 400.176 79.0148C400.128 78.8259 400.098 78.6328 400.088 78.4383C400.053 71.2231 400.024 64.0079 400 56.7927C400.01 56.564 400.037 56.3363 400.079 56.1113L412.226 67.5019Z" fill="white"/>
<path d="M437.902 78.8839L433.381 74.6212L426.047 67.8078L425.756 67.5807C429.793 63.6848 433.874 59.92 437.814 56.0591C437.991 56.4522 438.079 78.2899 437.902 78.8839Z" fill="white"/>
<path d="M419.359 98.3V99.9925" stroke="#1D45D1" stroke-miterlimit="10"/>
<path d="M419.359 103.265V114.74" stroke="#1D45D1" stroke-miterlimit="10" stroke-dasharray="2.91 2.91"/>
<path d="M419.36 116.387V118.079L417.738 118.565" stroke="#1D45D1" stroke-miterlimit="10"/>
<path d="M414.629 119.512L360.193 136.132" stroke="#1D45D1" stroke-miterlimit="10" stroke-dasharray="2.89 2.89"/>
<path d="M358.639 136.606L357.017 137.091" stroke="#1D45D1" stroke-miterlimit="10"/>
<path d="M356.498 135.038C356.098 135.161 355.743 135.4 355.479 135.725C355.214 136.05 355.052 136.446 355.012 136.863C354.972 137.281 355.056 137.701 355.254 138.07C355.452 138.439 355.755 138.742 356.125 138.939C356.495 139.135 356.914 139.218 357.331 139.176C357.747 139.135 358.142 138.97 358.465 138.704C358.788 138.437 359.025 138.081 359.147 137.679C359.268 137.278 359.267 136.849 359.145 136.448C359.064 136.181 358.931 135.933 358.754 135.718C358.577 135.502 358.36 135.324 358.114 135.193C357.868 135.062 357.599 134.981 357.322 134.954C357.044 134.928 356.765 134.956 356.498 135.038Z" fill="#1D45D1"/>
</g>
<defs>
<clipPath id="clip0_6_421394">
<rect width="465" height="464" fill="white"/>
</clipPath>
</defs>
</svg>
