<svg width="24" height="24" viewBox="0 0 24 24" fill="none" xmlns="http://www.w3.org/2000/svg">
<g clip-path="url(#clip0_5_9013)">
<path d="M19.9491 5.53651L16.4651 2.05051C15.8164 1.39865 15.045 0.881842 14.1953 0.529971C13.3457 0.178099 12.4347 -0.0018556 11.5151 0.00051133H7.00012C5.67453 0.00209919 4.40368 0.529393 3.46634 1.46673C2.529 2.40407 2.00171 3.67492 2.00012 5.00051V19.0005C2.00171 20.3261 2.529 21.597 3.46634 22.5343C4.40368 23.4716 5.67453 23.9989 7.00012 24.0005H17.0001C18.3257 23.9989 19.5966 23.4716 20.5339 22.5343C21.4712 21.597 21.9985 20.3261 22.0001 19.0005V10.4855C22.0026 9.56593 21.8226 8.655 21.4705 7.80549C21.1185 6.95597 20.6014 6.18475 19.9491 5.53651ZM18.5351 6.95051C18.8405 7.26466 19.1031 7.6177 19.3161 8.00051H15.0001C14.7349 8.00051 14.4806 7.89515 14.293 7.70762C14.1055 7.52008 14.0001 7.26573 14.0001 7.00051V2.68451C14.3831 2.89744 14.7364 3.15967 15.0511 3.46451L18.5351 6.95051ZM20.0001 19.0005C20.0001 19.7962 19.6841 20.5592 19.1214 21.1218C18.5588 21.6844 17.7958 22.0005 17.0001 22.0005H7.00012C6.20447 22.0005 5.44141 21.6844 4.8788 21.1218C4.31619 20.5592 4.00012 19.7962 4.00012 19.0005V5.00051C4.00012 4.20486 4.31619 3.4418 4.8788 2.87919C5.44141 2.31658 6.20447 2.00051 7.00012 2.00051H11.5151C11.6791 2.00051 11.8381 2.03251 12.0001 2.04751V7.00051C12.0001 7.79616 12.3162 8.55922 12.8788 9.12183C13.4414 9.68444 14.2045 10.0005 15.0001 10.0005H19.9531C19.9681 10.1625 20.0001 10.3205 20.0001 10.4855V19.0005Z" fill="#333333"/>
</g>
<path d="M14.855 14.9399L12.705 12.7949C12.5177 12.6087 12.2642 12.5042 12 12.5042C11.7358 12.5042 11.4824 12.6087 11.295 12.7949L9.14503 14.9399C9.0519 15.0336 8.99963 15.1604 8.99963 15.2924C8.99963 15.4245 9.0519 15.5513 9.14503 15.6449C9.19151 15.6918 9.24681 15.729 9.30774 15.7544C9.36867 15.7798 9.43402 15.7928 9.50003 15.7928C9.56604 15.7928 9.63139 15.7798 9.69232 15.7544C9.75325 15.729 9.80855 15.6918 9.85503 15.6449L11.5 13.9999V19.4999C11.5 19.6326 11.5527 19.7597 11.6465 19.8535C11.7402 19.9473 11.8674 19.9999 12 19.9999C12.1326 19.9999 12.2598 19.9473 12.3536 19.8535C12.4474 19.7597 12.5 19.6326 12.5 19.4999V13.9999L14.145 15.6449C14.2385 15.7391 14.3656 15.7923 14.4983 15.7927C14.6309 15.7932 14.7584 15.7409 14.8525 15.6474C14.9467 15.554 14.9998 15.4269 15.0003 15.2942C15.0008 15.1615 14.9485 15.0341 14.855 14.9399Z" fill="#333333" stroke="#333333" stroke-width="0.6"/>
<defs>
<clipPath id="clip0_5_9013">
<rect width="24" height="24" fill="white"/>
</clipPath>
</defs>
</svg>
