<svg width="49" height="49" viewBox="0 0 49 49" fill="none" xmlns="http://www.w3.org/2000/svg">
<rect x="0.408142" y="0.5" width="48" height="48" rx="2" fill="#E1E1E1"/>
<g clip-path="url(#clip0_5_8888)">
<path d="M36.4082 24.5C36.4058 23.8258 36.2511 23.1609 35.9557 22.5548C35.6603 21.9488 35.2318 21.4173 34.7022 21C35.4349 20.4225 35.969 19.6306 36.2301 18.7349C36.4911 17.8392 36.4661 16.8843 36.1585 16.0035C35.8509 15.1227 35.276 14.3599 34.5141 13.8215C33.7521 13.2831 32.8411 12.9959 31.9082 13H16.9082C15.9752 12.9959 15.0642 13.2831 14.3023 13.8215C13.5404 14.3599 12.9655 15.1227 12.6579 16.0035C12.3503 16.8843 12.3252 17.8392 12.5863 18.7349C12.8474 19.6306 13.3815 20.4225 14.1142 21C13.5827 21.4156 13.1529 21.9468 12.8573 22.5532C12.5616 23.1596 12.408 23.8254 12.408 24.5C12.408 25.1747 12.5616 25.8405 12.8573 26.4469C13.1529 27.0533 13.5827 27.5845 14.1142 28C13.3815 28.5776 12.8474 29.3695 12.5863 30.2652C12.3252 31.1609 12.3503 32.1158 12.6579 32.9966C12.9655 33.8774 13.5404 34.6402 14.3023 35.1786C15.0642 35.717 15.9752 36.0042 16.9082 36H31.9082C32.8411 36.0042 33.7521 35.717 34.5141 35.1786C35.276 34.6402 35.8509 33.8774 36.1585 32.9966C36.4661 32.1158 36.4911 31.1609 36.2301 30.2652C35.969 29.3695 35.4349 28.5776 34.7022 28C35.2318 27.5828 35.6603 27.0513 35.9557 26.4453C36.2511 25.8392 36.4058 25.1743 36.4082 24.5ZM14.4082 17.5C14.4082 16.837 14.6716 16.2011 15.1404 15.7323C15.6093 15.2634 16.2451 15 16.9082 15H17.4082V16C17.4082 16.2653 17.5135 16.5196 17.7011 16.7072C17.8886 16.8947 18.143 17 18.4082 17C18.6734 17 18.9277 16.8947 19.1153 16.7072C19.3028 16.5196 19.4082 16.2653 19.4082 16V15H21.4082V16C21.4082 16.2653 21.5135 16.5196 21.7011 16.7072C21.8886 16.8947 22.143 17 22.4082 17C22.6734 17 22.9277 16.8947 23.1153 16.7072C23.3028 16.5196 23.4082 16.2653 23.4082 16V15H31.9082C32.5712 15 33.2071 15.2634 33.6759 15.7323C34.1448 16.2011 34.4082 16.837 34.4082 17.5C34.4082 18.1631 34.1448 18.799 33.6759 19.2678C33.2071 19.7367 32.5712 20 31.9082 20H16.9082C16.2451 20 15.6093 19.7367 15.1404 19.2678C14.6716 18.799 14.4082 18.1631 14.4082 17.5ZM34.4082 31.5C34.4082 32.1631 34.1448 32.799 33.6759 33.2678C33.2071 33.7367 32.5712 34 31.9082 34H16.9082C16.2451 34 15.6093 33.7367 15.1404 33.2678C14.6716 32.799 14.4082 32.1631 14.4082 31.5C14.4082 30.837 14.6716 30.2011 15.1404 29.7323C15.6093 29.2634 16.2451 29 16.9082 29H17.4082V30C17.4082 30.2653 17.5135 30.5196 17.7011 30.7072C17.8886 30.8947 18.143 31 18.4082 31C18.6734 31 18.9277 30.8947 19.1153 30.7072C19.3028 30.5196 19.4082 30.2653 19.4082 30V29H21.4082V30C21.4082 30.2653 21.5135 30.5196 21.7011 30.7072C21.8886 30.8947 22.143 31 22.4082 31C22.6734 31 22.9277 30.8947 23.1153 30.7072C23.3028 30.5196 23.4082 30.2653 23.4082 30V29H31.9082C32.5712 29 33.2071 29.2634 33.6759 29.7323C34.1448 30.2011 34.4082 30.837 34.4082 31.5ZM16.9082 27C16.2451 27 15.6093 26.7367 15.1404 26.2678C14.6716 25.799 14.4082 25.1631 14.4082 24.5C14.4082 23.837 14.6716 23.2011 15.1404 22.7323C15.6093 22.2634 16.2451 22 16.9082 22H17.4082V23C17.4082 23.2653 17.5135 23.5196 17.7011 23.7072C17.8886 23.8947 18.143 24 18.4082 24C18.6734 24 18.9277 23.8947 19.1153 23.7072C19.3028 23.5196 19.4082 23.2653 19.4082 23V22H21.4082V23C21.4082 23.2653 21.5135 23.5196 21.7011 23.7072C21.8886 23.8947 22.143 24 22.4082 24C22.6734 24 22.9277 23.8947 23.1153 23.7072C23.3028 23.5196 23.4082 23.2653 23.4082 23V22H31.9082C32.5712 22 33.2071 22.2634 33.6759 22.7323C34.1448 23.2011 34.4082 23.837 34.4082 24.5C34.4082 25.1631 34.1448 25.799 33.6759 26.2678C33.2071 26.7367 32.5712 27 31.9082 27H16.9082Z" fill="#333333"/>
</g>
<defs>
<clipPath id="clip0_5_8888">
<rect width="24" height="24" fill="white" transform="translate(12.4081 13)"/>
</clipPath>
</defs>
</svg>
