<svg width="27" height="27" viewBox="0 0 27 27" fill="none" xmlns="http://www.w3.org/2000/svg">
<g style="mix-blend-mode:luminosity">
<g clip-path="url(#clip0_5_9431)">
<rect width="27" height="27" rx="4" fill="url(#paint0_linear_5_9431)"/>
<path d="M4.71063 8.08557C6.57459 8.08557 8.08563 6.57453 8.08563 4.71057C8.08563 2.84661 6.57459 1.33557 4.71063 1.33557C2.84667 1.33557 1.33563 2.84661 1.33563 4.71057C1.33563 6.57453 2.84667 8.08557 4.71063 8.08557Z" fill="#29DA73"/>
<path d="M22.3715 25.7254C24.2355 25.7254 25.7465 24.2144 25.7465 22.3504C25.7465 20.4864 24.2355 18.9754 22.3715 18.9754C20.5076 18.9754 18.9965 20.4864 18.9965 22.3504C18.9965 24.2144 20.5076 25.7254 22.3715 25.7254Z" fill="#BAFAFE"/>
<path d="M5.57719 5.05601C5.71278 4.90871 5.81082 4.73085 5.86297 4.53754C5.91512 4.34424 5.91983 4.1412 5.87672 3.94568C5.8092 3.64171 5.63202 3.37329 5.37905 3.19173C5.12608 3.01017 4.81507 2.92821 4.50548 2.96152C4.19589 2.99483 3.90944 3.14108 3.70088 3.3723C3.49233 3.60352 3.37631 3.90349 3.375 4.21486C3.37588 4.52649 3.49326 4.82651 3.70406 5.05601C3.50534 5.05614 3.31477 5.13498 3.17403 5.27527C3.0333 5.41557 2.95387 5.6059 2.95312 5.80462V7.56042C3.46554 7.85856 4.04779 8.01562 4.64062 8.01562C5.23346 8.01562 5.81571 7.85856 6.32812 7.56042V5.80462C6.32738 5.6059 6.24795 5.41557 6.10722 5.27527C5.96648 5.13498 5.77591 5.05614 5.57719 5.05601Z" fill="black"/>
<path d="M22.3594 8.01562C24.2233 8.01562 25.7344 6.50459 25.7344 4.64062C25.7344 2.77666 24.2233 1.26562 22.3594 1.26562C20.4954 1.26562 18.9844 2.77666 18.9844 4.64062C18.9844 6.50459 20.4954 8.01562 22.3594 8.01562Z" fill="#F2994A"/>
<path d="M4.64062 25.7344C6.50459 25.7344 8.01562 24.2233 8.01562 22.3594C8.01562 20.4954 6.50459 18.9844 4.64062 18.9844C2.77666 18.9844 1.26562 20.4954 1.26562 22.3594C1.26562 24.2233 2.77666 25.7344 4.64062 25.7344Z" fill="#FFE35B"/>
<path d="M19.8281 14.5571V12.4429L18.4517 11.9871C18.3547 11.6701 18.2274 11.3632 18.0713 11.0707L18.656 9.83959C18.2445 9.26106 17.7389 8.75555 17.1604 8.34405L15.9293 8.92873C15.6368 8.77269 15.3299 8.6453 15.0129 8.54834L14.5571 7.17188H12.4429L11.9871 8.54832L11.0708 8.92868L9.83966 8.34396C9.26111 8.75546 8.7556 9.26098 8.34411 9.83953L8.92877 11.0707L8.54835 11.9871L7.17188 12.4429V14.5571L8.54832 15.0128L8.92871 15.9292L8.34399 17.1603C8.75548 17.7389 9.26101 18.2444 9.83958 18.6559L11.0707 18.0712L11.9871 18.4517L12.4429 19.8281H14.5571L15.0129 18.4517C15.3299 18.3547 15.6368 18.2273 15.9293 18.0713L17.1604 18.6559C17.739 18.2444 18.2445 17.7389 18.6559 17.1604L18.0713 15.9292C18.2273 15.6367 18.3547 15.3298 18.4517 15.0128L19.8281 14.5571Z" fill="white"/>
<path d="M22.3594 4.21875C22.2475 4.21875 22.1402 4.1743 22.0611 4.09519C21.9819 4.01607 21.9375 3.90876 21.9375 3.79688C21.9375 3.68499 21.9819 3.57768 22.0611 3.49856C22.1402 3.41945 22.2475 3.375 22.3594 3.375H23.2031V2.53125H22.3594C22.0237 2.53125 21.7018 2.66459 21.4644 2.90194C21.2271 3.13929 21.0938 3.46121 21.0938 3.79688C21.0938 4.13254 21.2271 4.45446 21.4644 4.69181C21.7018 4.92916 22.0237 5.0625 22.3594 5.0625C22.4713 5.0625 22.5786 5.10695 22.6577 5.18606C22.7368 5.26518 22.7812 5.37249 22.7812 5.48438C22.7812 5.59626 22.7368 5.70357 22.6577 5.78269C22.5786 5.8618 22.4713 5.90625 22.3594 5.90625H21.5156V6.75H22.3594C22.695 6.75 23.017 6.61666 23.2543 6.37931C23.4917 6.14196 23.625 5.82004 23.625 5.48438C23.625 5.14871 23.4917 4.82679 23.2543 4.58944C23.017 4.35209 22.695 4.21875 22.3594 4.21875Z" fill="black"/>
<path d="M3.79688 22.7812H2.95312V24.0469H3.79688V22.7812Z" fill="black"/>
<path d="M5.0625 21.5156H4.21875V24.0469H5.0625V21.5156Z" fill="black"/>
<path d="M6.32812 20.6719H5.48438V24.0469H6.32812V20.6719Z" fill="black"/>
<path d="M23.7486 20.3736L22.5751 21.5471C22.4343 21.5051 22.2844 21.5051 22.1437 21.5471L21.392 20.7955L20.7955 21.392L21.5471 22.1436C21.5272 22.2138 21.5166 22.2864 21.5156 22.3594C21.5156 22.5831 21.6045 22.7978 21.7627 22.956C21.921 23.1142 22.1356 23.2031 22.3594 23.2031C22.5831 23.2031 22.7978 23.1142 22.956 22.956C23.1142 22.7978 23.2031 22.5831 23.2031 22.3594C23.2021 22.2864 23.1915 22.2139 23.1716 22.1436L24.3451 20.9701L23.7486 20.3736Z" fill="black"/>
<path d="M21.4238 13.0781H21.0938V13.9219H21.4238C22.1192 13.9226 22.786 14.1992 23.2777 14.691C23.7695 15.1828 24.0461 15.8495 24.0469 16.545V16.7003L23.5014 16.1548L22.9049 16.7514L24.1705 18.017C24.2096 18.0562 24.2561 18.0873 24.3073 18.1085C24.3585 18.1297 24.4134 18.1406 24.4688 18.1406C24.5242 18.1406 24.579 18.1297 24.6302 18.1085C24.6814 18.0873 24.7279 18.0562 24.767 18.017L26.0327 16.7514L25.4361 16.1549L24.8906 16.7003V16.545C24.8896 15.6258 24.524 14.7446 23.874 14.0947C23.2241 13.4448 22.3429 13.0792 21.4238 13.0781Z" fill="black"/>
<path d="M13.9219 21.4238V21.0938H13.0781V21.4238C13.0774 22.1192 12.8008 22.786 12.309 23.2777C11.8172 23.7695 11.1505 24.0461 10.455 24.0469H10.2997L10.8452 23.5014L10.2486 22.9049L8.98297 24.1705C8.94379 24.2096 8.91271 24.2561 8.8915 24.3073C8.87029 24.3585 8.85938 24.4134 8.85938 24.4688C8.85938 24.5242 8.87029 24.579 8.8915 24.6302C8.91271 24.6814 8.94379 24.7279 8.98297 24.767L10.2486 26.0327L10.8451 25.4361L10.2997 24.8906H10.455C11.3741 24.8896 12.2553 24.524 12.9053 23.874C13.5552 23.2241 13.9208 22.3429 13.9219 21.4238Z" fill="black"/>
<path d="M5.57626 13.9219H5.90626V13.0781H5.57626C4.88079 13.0774 4.21403 12.8008 3.72227 12.309C3.2305 11.8172 2.95389 11.1505 2.95314 10.455V10.2997L3.49862 10.8452L4.09515 10.2486L2.82953 8.98297C2.79036 8.94379 2.74386 8.91271 2.69269 8.8915C2.64151 8.87029 2.58665 8.85938 2.53125 8.85938C2.47585 8.85938 2.42099 8.87029 2.36981 8.8915C2.31863 8.91271 2.27213 8.94379 2.23297 8.98297L0.967346 10.2486L1.5639 10.8451L2.10939 10.2997V10.455C2.11043 11.3741 2.47603 12.2553 3.12596 12.9053C3.7759 13.5552 4.65711 13.9208 5.57626 13.9219Z" fill="black"/>
<path d="M13.0781 5.90626H13.9219V5.57626C13.9226 4.88079 14.1992 4.21403 14.691 3.72227C15.1828 3.2305 15.8495 2.95389 16.545 2.95314H16.7003L16.1549 3.49862L16.7514 4.09515L18.017 2.82953C18.0562 2.79036 18.0873 2.74386 18.1085 2.69269C18.1297 2.64151 18.1406 2.58665 18.1406 2.53125C18.1406 2.47585 18.1297 2.42099 18.1085 2.36981C18.0873 2.31863 18.0562 2.27213 18.017 2.23297L16.7514 0.967346L16.1549 1.5639L16.7003 2.10939H16.545C15.6258 2.11043 14.7446 2.47603 14.0947 3.12596C13.4448 3.7759 13.0792 4.65711 13.0781 5.57626V5.90626Z" fill="black"/>
<path d="M10.8667 14.6917H11.3838V12.7957V12.336H9.94739V12.7957H10.8667V14.6917Z" fill="black"/>
<path d="M13.7779 14.2129H12.782V13.7341H13.5864V13.2553H12.782V12.8148H13.7205V12.336H12.265V14.6917H13.7779V14.2129Z" fill="black"/>
<path d="M16.7271 14.3277C16.9186 14.0979 17.0335 13.8298 17.0335 13.5042C17.0335 12.7956 16.459 12.221 15.7503 12.221C14.9651 12.221 14.3331 12.9488 14.5055 13.7723C14.6012 14.2511 14.9843 14.6341 15.4631 14.7299C15.5588 14.749 15.6546 14.749 15.7503 14.749H17.0526V14.2894H16.7271V14.3277ZM16.4973 13.7723C16.4206 14.0021 16.2291 14.1937 15.9993 14.2703C15.4631 14.4426 14.9651 14.0404 14.9651 13.5233C14.9651 13.0829 15.3099 12.7381 15.7503 12.7381C16.2674 12.7381 16.6696 13.2361 16.4973 13.7723Z" fill="black"/>
</g>
</g>
<defs>
<linearGradient id="paint0_linear_5_9431" x1="13.4247" y1="20.7439" x2="10.6119" y2="2.74294" gradientUnits="userSpaceOnUse">
<stop stop-color="#0052F0"/>
<stop offset="1" stop-color="#8BD7FF"/>
</linearGradient>
<clipPath id="clip0_5_9431">
<rect width="27" height="27" rx="4" fill="white"/>
</clipPath>
</defs>
</svg>
