<svg width="24" height="21" viewBox="0 0 24 21" fill="none" xmlns="http://www.w3.org/2000/svg">
<path d="M17.7065 13.9651C18.2343 13.6133 18.8534 13.4145 19.492 13.3918C20.1307 13.3691 20.7629 13.5233 21.3155 13.8367C21.8682 14.1502 22.3186 14.6099 22.6147 15.1628C22.9109 15.7157 23.0406 16.3392 22.9889 16.9611C21.6352 17.423 20.1974 17.6027 18.7682 17.4887C18.7638 16.2403 18.3956 15.0179 17.7065 13.9662C17.0949 13.0298 16.2513 12.259 15.2536 11.7254C14.2559 11.1917 13.1365 10.9123 11.9988 10.913C10.8614 10.9125 9.74219 11.1919 8.74472 11.7256C7.74726 12.2593 6.90376 13.0299 6.29226 13.9662M18.7671 17.4876L18.7682 17.5217C18.7682 17.7696 18.7547 18.0141 18.7265 18.2553C16.6791 19.402 14.3592 20.0037 11.9988 20C9.55058 20 7.25238 19.3655 5.27121 18.2553C5.2422 18.0004 5.22827 17.7441 5.22946 17.4876M5.22946 17.4876C3.80071 17.6057 2.36366 17.4267 1.01102 16.9622C0.959514 16.3405 1.08931 15.7172 1.3854 15.1645C1.68148 14.6118 2.13176 14.1522 2.68418 13.8388C3.2366 13.5254 3.86859 13.3711 4.50708 13.3936C5.14557 13.4162 5.76448 13.6147 6.29226 13.9662M5.22946 17.4876C5.23352 16.2393 5.60361 15.018 6.29226 13.9662M15.3835 4.30434C15.3835 5.18071 15.0269 6.02119 14.3922 6.64087C13.7574 7.26055 12.8965 7.60869 11.9988 7.60869C11.1012 7.60869 10.2403 7.26055 9.6055 6.64087C8.97075 6.02119 8.61415 5.18071 8.61415 4.30434C8.61415 3.42798 8.97075 2.58751 9.6055 1.96782C10.2403 1.34814 11.1012 1 11.9988 1C12.8965 1 13.7574 1.34814 14.3922 1.96782C15.0269 2.58751 15.3835 3.42798 15.3835 4.30434ZM22.1529 7.60869C22.1529 7.93414 22.0872 8.2564 21.9597 8.55708C21.8321 8.85776 21.6451 9.13096 21.4094 9.36108C21.1737 9.59121 20.8938 9.77376 20.5858 9.8983C20.2778 10.0228 19.9477 10.0869 19.6144 10.0869C19.281 10.0869 18.9509 10.0228 18.6429 9.8983C18.3349 9.77376 18.0551 9.59121 17.8194 9.36108C17.5837 9.13096 17.3967 8.85776 17.2691 8.55708C17.1415 8.2564 17.0759 7.93414 17.0759 7.60869C17.0759 6.95141 17.3433 6.32106 17.8194 5.8563C18.2954 5.39153 18.9411 5.13043 19.6144 5.13043C20.2876 5.13043 20.9333 5.39153 21.4094 5.8563C21.8854 6.32106 22.1529 6.95141 22.1529 7.60869ZM6.92181 7.60869C6.92181 7.93414 6.85615 8.2564 6.72858 8.55708C6.601 8.85776 6.41402 9.13096 6.17829 9.36108C5.94257 9.59121 5.66273 9.77376 5.35474 9.8983C5.04675 10.0228 4.71666 10.0869 4.38329 10.0869C4.04993 10.0869 3.71983 10.0228 3.41185 9.8983C3.10386 9.77376 2.82401 9.59121 2.58829 9.36108C2.35257 9.13096 2.16558 8.85776 2.03801 8.55708C1.91044 8.2564 1.84478 7.93414 1.84478 7.60869C1.84478 6.95141 2.11223 6.32106 2.58829 5.8563C3.06436 5.39153 3.71004 5.13043 4.38329 5.13043C5.05655 5.13043 5.70223 5.39153 6.17829 5.8563C6.65436 6.32106 6.92181 6.95141 6.92181 7.60869Z" stroke="#333333" stroke-width="2" stroke-linecap="round" stroke-linejoin="round"/>
</svg>
