<svg width="76" height="70" viewBox="0 0 76 70" fill="none" xmlns="http://www.w3.org/2000/svg">
<path d="M30.6126 4.7213C33.8226 -1.0837 42.1664 -1.0837 45.3764 4.7213L74.4239 57.2251C77.5364 62.8501 73.4676 69.7501 67.0401 69.7501H8.95265C2.52139 69.7501 -1.54736 62.8501 1.56514 57.2251L30.6126 4.72506V4.7213ZM41.7389 54.7501C41.7548 54.2484 41.6697 53.7486 41.4886 53.2804C41.3076 52.8123 41.0344 52.3853 40.6851 52.0248C40.3358 51.6643 39.9177 51.3777 39.4555 51.1819C38.9933 50.9862 38.4965 50.8853 37.9945 50.8853C37.4926 50.8853 36.9958 50.9862 36.5336 51.1819C36.0714 51.3777 35.6532 51.6643 35.304 52.0248C34.9547 52.3853 34.6814 52.8123 34.5004 53.2804C34.3194 53.7486 34.2343 54.2484 34.2501 54.7501C34.2809 55.7226 34.6889 56.645 35.3878 57.3221C36.0866 57.9992 37.0215 58.3778 37.9945 58.3778C38.9676 58.3778 39.9024 57.9992 40.6013 57.3221C41.3001 56.645 41.7081 55.7226 41.7389 54.7501ZM40.7676 25.3013C40.6705 24.595 40.3087 23.952 39.7555 23.5023C39.2024 23.0526 38.4991 22.8298 37.7878 22.8788C37.0766 22.9279 36.4105 23.2452 35.9244 23.7666C35.4382 24.2881 35.1682 24.9746 35.1689 25.6876L35.1839 42.5663L35.2101 42.9488C35.3073 43.6551 35.6691 44.2981 36.2222 44.7478C36.7754 45.1975 37.4787 45.4204 38.19 45.3713C38.9012 45.3222 39.5672 45.0049 40.0534 44.4835C40.5396 43.9621 40.8096 43.2755 40.8089 42.5626L40.7939 25.6801L40.7676 25.3013Z" fill="#222222"/>
</svg>
