<svg width="390" height="282" viewBox="0 0 390 282" fill="none" xmlns="http://www.w3.org/2000/svg">
<path fill-rule="evenodd" clip-rule="evenodd" d="M350.7 51.0218H127.246V30.9166C127.246 27.7488 129.816 25.1804 132.987 25.1804H344.959C348.13 25.1804 350.7 27.7488 350.7 30.9166V51.0218Z" fill="#E9E9E9" fill-opacity="0.52"/>
<path fill-rule="evenodd" clip-rule="evenodd" d="M132.987 194.587C129.816 194.587 127.246 192.019 127.246 188.85V51.0218H350.7V188.85C350.7 192.019 348.13 194.587 344.959 194.587H132.987Z" fill="#F3F3F3" fill-opacity="0.2"/>
<path d="M127.746 188.85V51.5218H350.2V188.85C350.2 191.742 347.854 194.087 344.959 194.087H132.987C130.092 194.087 127.746 191.742 127.746 188.85ZM350.2 30.9166V50.5218H127.746V30.9166C127.746 28.0253 130.092 25.6804 132.987 25.6804H344.959C347.854 25.6804 350.2 28.0253 350.2 30.9166Z" stroke="#E6E6E6"/>
<path d="M349.573 98.7446L349.55 98.7453L349.539 98.3806V98.2457H349.534V98.2456L349.531 98.2457H348.534V98.7457H346.523V98.2457H344.513V98.7457H342.503V98.2457H340.492V98.7457H338.482V98.2457H336.472V98.7457H334.462V98.2457H332.451V98.7457H330.441V98.2457H328.431V98.7457H326.42V98.2457H324.41V98.7457H322.4V98.2457H320.39V98.7457H318.379V98.2457H316.369V98.7457H314.359V98.2457H312.348V98.7457H310.338V98.2457H308.328V98.7457H306.318V98.2457H304.307V98.7457H302.297V98.2457H300.287V98.7457H298.276V98.2457H296.266V98.7457H294.256V98.2457H292.246V98.7457H290.235V98.2457H288.225V98.7457H286.215V98.2457H284.204V98.7457H282.194V98.2457H280.184V98.7457H278.174V98.2457H276.163V98.7457H274.153V98.2457H272.143V98.7457H270.132V98.2457H268.122V98.7457H266.112V98.2457H264.102V98.7457H262.091V98.2457H260.081V98.7457H258.071V98.2457H256.06V98.7457H254.05V98.2457H252.04V98.7457H250.03V98.2457H248.019V98.7457H246.009V98.2457H243.999V98.7457H241.988V98.2457H239.978V98.7457H237.968V98.2457H235.958V98.7457H233.947V98.2457H231.937V98.7457H229.927V98.2457H227.916V98.7457H225.906V98.2457H223.896V98.7457H221.886V98.2457H219.875V98.7457H217.865V98.2457H215.855V98.7457H213.845V98.2457H211.834V98.7457H209.824V98.2457H207.814V98.7457H205.803V98.2457H203.793V98.7457H201.783V98.2457H199.773V98.7457H197.762V98.2457H195.752V98.7457H193.742V98.2457H191.731V98.7457H189.721V98.2457H187.711V98.7457H185.701V98.2457H183.69V98.7457H181.68V98.2457H179.67V98.7457H177.659V98.2457H175.649V98.7457H173.639V98.2457H171.629V98.7457H169.618V98.2457H167.608V98.7457H165.598V98.2457H163.587V98.7457H161.577V98.2457H159.567V98.7457H157.557V98.2457H155.546V98.7457H153.536V98.2457H151.526V98.7457H149.515V98.2457H147.505V98.7457H145.495V98.2457H143.485V98.7457H141.474V98.2457H139.464V98.7457H137.454V98.2457H135.443V98.7457H133.433V98.2457H131.423V98.7457H129.413V98.2457H128.408C128.377 98.2457 128.349 98.2397 128.325 98.2294L128.133 98.6914C127.958 98.6188 127.818 98.4788 127.745 98.3038L128.207 98.1121C128.197 98.0873 128.191 98.0597 128.191 98.0296C128.191 98.0006 128.196 97.9741 128.206 97.9502L127.741 97.7659C127.808 97.5965 127.938 97.4588 128.102 97.3815L128.315 97.8338C128.337 97.8234 128.362 97.8166 128.388 97.8143L128.389 97.8143L128.389 97.8142C128.39 97.8141 128.392 97.814 128.393 97.8139L128.385 97.6775L128.374 97.3145L128.396 97.3138L128.408 97.6785V97.8135H128.412L128.412 97.8136L128.415 97.8135H129.412V97.3135H131.423V97.8135H133.433V97.3135H135.443V97.8135H137.454V97.3135H139.464V97.8135H141.474V97.3135H143.484V97.8135H145.495V97.3135H147.505V97.8135H149.515V97.3135H151.526V97.8135H153.536V97.3135H155.546V97.8135H157.556V97.3135H159.567V97.8135H161.577V97.3135H163.587V97.8135H165.598V97.3135H167.608V97.8135H169.618V97.3135H171.628V97.8135H173.639V97.3135H175.649V97.8135H177.659V97.3135H179.67V97.8135H181.68V97.3135H183.69V97.8135H185.7V97.3135H187.711V97.8135H189.721V97.3135H191.731V97.8135H193.742V97.3135H195.752V97.8135H197.762V97.3135H199.772V97.8135H201.783V97.3135H203.793V97.8135H205.803V97.3135H207.814V97.8135H209.824V97.3135H211.834V97.8135H213.844V97.3135H215.855V97.8135H217.865V97.3135H219.875V97.8135H221.886V97.3135H223.896V97.8135H225.906V97.3135H227.916V97.8135H229.927V97.3135H231.937V97.8135H233.947V97.3135H235.958V97.8135H237.968V97.3135H239.978V97.8135H241.988V97.3135H243.999V97.8135H246.009V97.3135H248.019V97.8135H250.03V97.3135H252.04V97.8135H254.05V97.3135H256.06V97.8135H258.071V97.3135H260.081V97.8135H262.091V97.3135H264.102V97.8135H266.112V97.3135H268.122V97.8135H270.132V97.3135H272.143V97.8135H274.153V97.3135H276.163V97.8135H278.174V97.3135H280.184V97.8135H282.194V97.3135H284.204V97.8135H286.215V97.3135H288.225V97.8135H290.235V97.3135H292.245V97.8135H294.256V97.3135H296.266V97.8135H298.276V97.3135H300.287V97.8135H302.297V97.3135H304.307V97.8135H306.317V97.3135H308.328V97.8135H310.338V97.3135H312.348V97.8135H314.359V97.3135H316.369V97.8135H318.379V97.3135H320.389V97.8135H322.4V97.3135H324.41V97.8135H326.42V97.3135H328.431V97.8135H330.441V97.3135H332.451V97.8135H334.461V97.3135H336.472V97.8135H338.482V97.3135H340.492V97.8135H342.503V97.3135H344.513V97.8135H346.523V97.3135H348.533V97.8135H349.539C349.569 97.8135 349.597 97.8194 349.621 97.8297L349.813 97.3678C349.988 97.4403 350.128 97.5803 350.201 97.7554L349.739 97.9471C349.749 97.9719 349.755 97.9994 349.755 98.0296C349.755 98.0585 349.75 98.085 349.74 98.1089L350.205 98.2933C350.138 98.4626 350.008 98.6003 349.844 98.6776L349.631 98.2253C349.609 98.2357 349.584 98.2425 349.558 98.2448L349.557 98.2449V98.2449C349.556 98.245 349.554 98.2452 349.553 98.2452L349.561 98.3817L349.573 98.7446Z" stroke="#E8E8E8" stroke-dasharray="2 2"/>
<path d="M201.501 194.611L201.5 194.612L201.287 194.933C201.174 194.858 201.085 194.726 201.038 194.564L201.517 194.423C201.517 194.421 201.516 194.419 201.515 194.417L201.971 194.532C201.928 194.704 201.838 194.846 201.723 194.927L201.501 194.611ZM201.501 194.611L201.5 194.609L201.435 194.517C201.438 194.515 201.445 194.511 201.457 194.507C201.469 194.503 201.484 194.5 201.5 194.5C201.515 194.5 201.529 194.502 201.541 194.506C201.553 194.51 201.56 194.514 201.564 194.517L201.501 194.611ZM201.999 53.671L202 53.6932L201.5 53.7043C201.5 53.6967 201.5 53.6892 201.5 53.682L201.999 53.671ZM201.962 53.4362L201.521 53.5654C201.531 53.5345 201.543 53.5111 201.554 53.4957C201.562 53.485 201.566 53.4813 201.566 53.4814C201.566 53.4816 201.546 53.5 201.5 53.5C201.485 53.5 201.471 53.4975 201.459 53.4937C201.447 53.49 201.44 53.4857 201.436 53.4834L201.5 53.3877L201.713 53.0672C201.826 53.142 201.915 53.2738 201.962 53.4362ZM201 56.717V54.7086H201.5L201.5 54.7086H202V56.7171H201.5L201.5 56.717H201ZM201.5 58.7255H202V60.734H201.5L201.5 60.7339H201V58.7255H201.5L201.5 58.7255ZM201.5 62.7424H202V64.7509H201.5L201.5 64.7508H201V62.7424H201.5L201.5 62.7424ZM201.5 66.7593H202V68.7678H201.5L201.5 68.7677H201V66.7593H201.5L201.5 66.7593ZM201.5 70.7762H202V72.7847H201.5L201.5 72.7846H201V70.7762H201.5L201.5 70.7762ZM201.5 74.7931H202V76.8016H201.5L201.5 76.8015H201V74.7931H201.5L201.5 74.7931ZM201.5 78.81H202V80.8184H201.5L201.5 80.8184H201V78.81H201.5L201.5 78.81ZM201.5 82.8269H202V84.8353H201.5L201.5 84.8353H201V82.8268H201.5L201.5 82.8269ZM201.5 86.8438H202V88.8522H201.5L201.5 88.8522H201V86.8437H201.5L201.5 86.8438ZM201.5 90.8607H202V92.8691H201.5L201.5 92.8691H201V90.8606H201.5L201.5 90.8607ZM201.5 94.8776H202V96.886H201.5L201.5 96.886H201V94.8775H201.5L201.5 94.8776ZM201.5 98.8945H202V100.903H201.5L201.5 100.903H201V98.8944H201.5L201.5 98.8945ZM201.5 102.911H202V104.92H201.5L201.5 104.92H201V102.911H201.5L201.5 102.911ZM201.5 106.928H202V108.937H201.5L201.5 108.937H201V106.928H201.5L201.5 106.928ZM201.5 110.945H202V112.954H201.5L201.5 112.954H201V110.945H201.5L201.5 110.945ZM201.5 114.962H202V116.97H201.5L201.5 116.97H201V114.962H201.5L201.5 114.962ZM201.5 118.979L202 118.979V120.987L201.5 120.987H201V118.979H201.5ZM201.5 122.996L202 122.996V125.004L201.5 125.004H201V122.996H201.5ZM201.5 127.013L202 127.013V129.021L201.5 129.021H201V127.013H201.5ZM201.5 131.03L202 131.03V133.038L201.5 133.038H201V131.03H201.5ZM201.5 135.046L202 135.046V137.055L201.5 137.055H201V135.046H201.5ZM201.5 139.063L202 139.063V141.072L201.5 141.072H201V139.063H201.5ZM201.5 143.08L202 143.08V145.089L201.5 145.089H201V143.08H201.5ZM201.5 147.097L202 147.097V149.106L201.5 149.106H201V147.097H201.5ZM201.5 151.114L202 151.114V153.122L201.5 153.122H201V151.114H201.5ZM201.5 155.131L202 155.131V157.139L201.5 157.139H201V155.131H201.5ZM201.5 159.148L202 159.148V161.156L201.5 161.156H201V159.148H201.5ZM201.5 163.165L202 163.165V165.173L201.5 165.173H201V163.165H201.5ZM201.5 167.182L202 167.182V169.19L201.5 169.19H201V167.182H201.5ZM201.5 171.198L202 171.199V173.207L201.5 173.207H201V171.198H201.5ZM201.5 175.215L202 175.215V177.224L201.5 177.224H201V175.215H201.5ZM201.5 179.232H202V181.241L201.5 181.241H201V179.232H201.5L201.5 179.232ZM201.5 183.249L202 183.249V185.258L201.5 185.258H201V183.249H201.5ZM201.5 187.266L202 187.266V189.275L201.5 189.275H201V187.266H201.5ZM201.5 191.283L202 191.283V193.291L201.5 193.291H201V191.283H201.5ZM201.001 194.329L201 194.307L201.5 194.296C201.5 194.303 201.5 194.311 201.5 194.318L201.001 194.329Z" stroke="#E8E8E8" stroke-dasharray="2 2"/>
<path d="M275.501 194.611L275.5 194.612L275.287 194.933C275.174 194.858 275.085 194.726 275.038 194.564L275.517 194.423C275.517 194.421 275.516 194.419 275.515 194.417L275.971 194.532C275.928 194.704 275.838 194.846 275.723 194.927L275.501 194.611ZM275.501 194.611L275.5 194.609L275.435 194.517C275.438 194.515 275.445 194.511 275.457 194.507C275.469 194.503 275.484 194.5 275.5 194.5C275.515 194.5 275.529 194.502 275.541 194.506C275.553 194.51 275.56 194.514 275.564 194.517L275.501 194.611ZM275.999 53.671L276 53.6932L275.5 53.7043C275.5 53.6967 275.5 53.6892 275.5 53.682L275.999 53.671ZM275.962 53.4362L275.521 53.5654C275.531 53.5345 275.543 53.5111 275.554 53.4957C275.562 53.485 275.566 53.4813 275.566 53.4814C275.566 53.4816 275.546 53.5 275.5 53.5C275.485 53.5 275.471 53.4975 275.459 53.4937C275.447 53.49 275.44 53.4857 275.436 53.4834L275.5 53.3877L275.713 53.0672C275.826 53.142 275.915 53.2739 275.962 53.4362ZM275 56.717V54.7086H275.5V54.7086H276V56.7171H275.5V56.717H275ZM275.5 58.7255H276V60.734H275.5V60.7339H275V58.7255H275.5V58.7255ZM275.5 62.7424H276V64.7509H275.5V64.7508H275V62.7424H275.5V62.7424ZM275.5 66.7593H276V68.7678H275.5V68.7677H275V66.7593H275.5V66.7593ZM275.5 70.7762H276V72.7847H275.5V72.7846H275V70.7762H275.5V70.7762ZM275.5 74.7931H276V76.8016H275.5V76.8015H275V74.7931H275.5V74.7931ZM275.5 78.81H276V80.8184H275.5V80.8184H275V78.81H275.5V78.81ZM275.5 82.8269H276V84.8353H275.5V84.8353H275V82.8268H275.5V82.8269ZM275.5 86.8438H276V88.8522H275.5V88.8522H275V86.8437H275.5V86.8438ZM275.5 90.8607H276V92.8691H275.5V92.8691H275V90.8606H275.5V90.8607ZM275.5 94.8776H276V96.886H275.5V96.886H275V94.8775H275.5V94.8776ZM275.5 98.8945H276V100.903H275.5V100.903H275V98.8944H275.5V98.8945ZM275.5 102.911H276V104.92H275.5V104.92H275V102.911H275.5V102.911ZM275.5 106.928H276V108.937H275.5V108.937H275V106.928H275.5V106.928ZM275.5 110.945H276V112.954H275.5V112.954H275V110.945H275.5V110.945ZM275.5 114.962H276V116.97H275.5V116.97H275V114.962H275.5V114.962ZM275.5 118.979L276 118.979V120.987L275.5 120.987H275V118.979H275.5ZM275.5 122.996L276 122.996V125.004L275.5 125.004H275V122.996H275.5ZM275.5 127.013L276 127.013V129.021L275.5 129.021H275V127.013H275.5ZM275.5 131.03L276 131.03V133.038L275.5 133.038H275V131.03H275.5ZM275.5 135.046L276 135.046V137.055L275.5 137.055H275V135.046H275.5ZM275.5 139.063L276 139.063V141.072L275.5 141.072H275V139.063H275.5ZM275.5 143.08L276 143.08V145.089L275.5 145.089H275V143.08H275.5ZM275.5 147.097L276 147.097V149.106L275.5 149.106H275V147.097H275.5ZM275.5 151.114L276 151.114V153.122L275.5 153.122H275V151.114H275.5ZM275.5 155.131L276 155.131V157.139L275.5 157.139H275V155.131H275.5ZM275.5 159.148L276 159.148V161.156L275.5 161.156H275V159.148H275.5ZM275.5 163.165L276 163.165V165.173L275.5 165.173H275V163.165H275.5ZM275.5 167.182L276 167.182V169.19L275.5 169.19H275V167.182H275.5ZM275.5 171.198L276 171.199V173.207L275.5 173.207H275V171.198H275.5ZM275.5 175.215L276 175.215V177.224L275.5 177.224H275V175.215H275.5ZM275.5 179.232H276V181.241L275.5 181.241H275V179.232H275.5V179.232ZM275.5 183.249L276 183.249V185.258L275.5 185.258H275V183.249H275.5ZM275.5 187.266L276 187.266V189.275L275.5 189.275H275V187.266H275.5ZM275.5 191.283L276 191.283V193.291L275.5 193.291H275V191.283H275.5ZM275.001 194.329L275 194.307L275.5 194.296C275.5 194.303 275.5 194.311 275.5 194.318L275.001 194.329Z" stroke="#E8E8E8" stroke-dasharray="2 2"/>
<path d="M349.573 146.766L349.55 146.767L349.539 146.402V146.267H349.534V146.267L349.531 146.267H348.534V146.767H346.523V146.267H344.513V146.767H342.503V146.267H340.492V146.767H338.482V146.267H336.472V146.767H334.462V146.267H332.451V146.767H330.441V146.267H328.431V146.767H326.42V146.267H324.41V146.767H322.4V146.267H320.39V146.767H318.379V146.267H316.369V146.767H314.359V146.267H312.348V146.767H310.338V146.267H308.328V146.767H306.318V146.267H304.307V146.767H302.297V146.267H300.287V146.767H298.276V146.267H296.266V146.767H294.256V146.267H292.246V146.767H290.235V146.267H288.225V146.767H286.215V146.267H284.204V146.767H282.194V146.267H280.184V146.767H278.174V146.267H276.163V146.767H274.153V146.267H272.143V146.767H270.132V146.267H268.122V146.767H266.112V146.267H264.102V146.767H262.091V146.267H260.081V146.767H258.071V146.267H256.06V146.767H254.05V146.267H252.04V146.767H250.03V146.267H248.019V146.767H246.009V146.267H243.999V146.767H241.988V146.267H239.978V146.767H237.968V146.267H235.958V146.767H233.947V146.267H231.937V146.767H229.927V146.267H227.916V146.767H225.906V146.267H223.896V146.767H221.886V146.267H219.875V146.767H217.865V146.267H215.855V146.767H213.845V146.267H211.834V146.767H209.824V146.267H207.814V146.767H205.803V146.267H203.793V146.767H201.783V146.267H199.773V146.767H197.762V146.267H195.752V146.767H193.742V146.267H191.731V146.767H189.721V146.267H187.711V146.767H185.701V146.267H183.69V146.767H181.68V146.267H179.67V146.767H177.659V146.267H175.649V146.767H173.639V146.267H171.629V146.767H169.618V146.267H167.608V146.767H165.598V146.267H163.587V146.767H161.577V146.267H159.567V146.767H157.557V146.267H155.546V146.767H153.536V146.267H151.526V146.767H149.515V146.267H147.505V146.767H145.495V146.267H143.485V146.767H141.474V146.267H139.464V146.767H137.454V146.267H135.443V146.767H133.433V146.267H131.423V146.767H129.413V146.267H128.408C128.377 146.267 128.349 146.261 128.325 146.251L128.133 146.713C127.958 146.64 127.818 146.5 127.745 146.325L128.207 146.134C128.197 146.109 128.191 146.081 128.191 146.051C128.191 146.022 128.196 145.996 128.206 145.972L127.741 145.787C127.808 145.618 127.938 145.48 128.102 145.403L128.315 145.855C128.337 145.845 128.362 145.838 128.388 145.836L128.389 145.836L128.389 145.836C128.39 145.836 128.392 145.835 128.393 145.835L128.385 145.699L128.374 145.336L128.396 145.335L128.408 145.7V145.835H128.412L128.412 145.835L128.415 145.835H129.412V145.335H131.423V145.835H133.433V145.335H135.443V145.835H137.454V145.335H139.464V145.835H141.474V145.335H143.484V145.835H145.495V145.335H147.505V145.835H149.515V145.335H151.526V145.835H153.536V145.335H155.546V145.835H157.556V145.335H159.567V145.835H161.577V145.335H163.587V145.835H165.598V145.335H167.608V145.835H169.618V145.335H171.628V145.835H173.639V145.335H175.649V145.835H177.659V145.335H179.67V145.835H181.68V145.335H183.69V145.835H185.7V145.335H187.711V145.835H189.721V145.335H191.731V145.835H193.742V145.335H195.752V145.835H197.762V145.335H199.772V145.835H201.783V145.335H203.793V145.835H205.803V145.335H207.814V145.835H209.824V145.335H211.834V145.835H213.844V145.335H215.855V145.835H217.865V145.335H219.875V145.835H221.886V145.335H223.896V145.835H225.906V145.335H227.916V145.835H229.927V145.335H231.937V145.835H233.947V145.335H235.958V145.835H237.968V145.335H239.978V145.835H241.988V145.335H243.999V145.835H246.009V145.335H248.019V145.835H250.03V145.335H252.04V145.835H254.05V145.335H256.06V145.835H258.071V145.335H260.081V145.835H262.091V145.335H264.102V145.835H266.112V145.335H268.122V145.835H270.132V145.335H272.143V145.835H274.153V145.335H276.163V145.835H278.174V145.335H280.184V145.835H282.194V145.335H284.204V145.835H286.215V145.335H288.225V145.835H290.235V145.335H292.245V145.835H294.256V145.335H296.266V145.835H298.276V145.335H300.287V145.835H302.297V145.335H304.307V145.835H306.317V145.335H308.328V145.835H310.338V145.335H312.348V145.835H314.359V145.335H316.369V145.835H318.379V145.335H320.389V145.835H322.4V145.335H324.41V145.835H326.42V145.335H328.431V145.835H330.441V145.335H332.451V145.835H334.461V145.335H336.472V145.835H338.482V145.335H340.492V145.835H342.503V145.335H344.513V145.835H346.523V145.335H348.533V145.835H349.539C349.569 145.835 349.597 145.841 349.621 145.851L349.813 145.389C349.988 145.462 350.128 145.602 350.201 145.777L349.739 145.969C349.749 145.993 349.755 146.021 349.755 146.051C349.755 146.08 349.75 146.107 349.74 146.13L350.205 146.315C350.138 146.484 350.008 146.622 349.844 146.699L349.631 146.247C349.609 146.257 349.584 146.264 349.558 146.266L349.557 146.266V146.266C349.556 146.267 349.554 146.267 349.553 146.267L349.561 146.403L349.573 146.766Z" stroke="#E8E8E8" stroke-dasharray="2 2"/>
<path fill-rule="evenodd" clip-rule="evenodd" d="M145.991 38.1011C145.991 40.8152 143.789 43.0153 141.073 43.0153C138.357 43.0153 136.155 40.8152 136.155 38.1011C136.155 35.3874 138.357 33.1873 141.073 33.1873C143.789 33.1873 145.991 35.3874 145.991 38.1011Z" fill="#E6E6E6"/>
<path fill-rule="evenodd" clip-rule="evenodd" d="M164.359 38.1011C164.359 40.8152 162.157 43.0153 159.44 43.0153C156.724 43.0153 154.522 40.8152 154.522 38.1011C154.522 35.3874 156.724 33.1873 159.44 33.1873C162.157 33.1873 164.359 35.3874 164.359 38.1011Z" fill="#E6E6E6"/>
<path fill-rule="evenodd" clip-rule="evenodd" d="M182.726 38.1011C182.726 40.8152 180.524 43.0153 177.808 43.0153C175.092 43.0153 172.89 40.8152 172.89 38.1011C172.89 35.3874 175.092 33.1873 177.808 33.1873C180.524 33.1873 182.726 35.3874 182.726 38.1011Z" fill="#E6E6E6"/>
<g clip-path="url(#clip0_5_4977)">
<path d="M316.887 104.284C315.982 103.977 315.07 103.692 314.151 103.43C314.305 102.805 314.448 102.187 314.574 101.581C316.645 91.62 315.291 83.5953 310.666 80.9532C306.232 78.4203 298.98 81.0615 291.656 87.3763C290.934 87.9997 290.228 88.6412 289.539 89.2999C289.078 88.8619 288.608 88.4323 288.131 88.0115C280.455 81.2595 272.761 78.4138 268.141 81.0634C263.711 83.6042 262.399 91.148 264.264 100.588C264.449 101.523 264.659 102.453 264.892 103.378C263.803 103.684 262.752 104.01 261.747 104.358C252.747 107.466 247 112.338 247 117.391C247 122.609 253.17 127.844 262.543 131.018C263.303 131.274 264.069 131.512 264.841 131.73C264.59 132.726 264.368 133.728 264.174 134.736C262.396 144.012 263.784 151.378 268.203 153.903C272.766 156.51 280.425 153.83 287.883 147.371C288.488 146.846 289.079 146.306 289.657 145.752C290.403 146.465 291.169 147.158 291.954 147.829C299.179 153.987 306.313 156.474 310.727 153.943C315.287 151.328 316.768 143.415 314.845 133.789C314.693 133.035 314.523 132.284 314.335 131.538C314.873 131.38 315.401 131.218 315.915 131.049C325.66 127.85 332 122.679 332 117.391C332 112.319 326.067 107.415 316.887 104.284ZM314.774 127.634C314.309 127.786 313.832 127.933 313.346 128.077C312.27 124.703 310.818 121.115 309.042 117.408C310.737 113.79 312.133 110.248 313.178 106.896C314.048 107.145 314.892 107.408 315.705 107.685C323.571 110.368 328.369 114.334 328.369 117.391C328.369 120.646 323.187 124.872 314.774 127.634ZM311.283 134.487C312.133 138.744 312.254 142.593 311.691 145.602C311.185 148.305 310.167 150.108 308.908 150.83C306.229 152.366 300.501 150.369 294.323 145.102C293.592 144.478 292.88 143.834 292.185 143.171C294.581 140.576 296.974 137.559 299.311 134.208C303.42 133.847 307.302 133.257 310.822 132.45C310.992 133.126 311.145 133.805 311.283 134.487ZM275.978 150.564C273.361 151.48 271.277 151.506 270.017 150.786C267.336 149.254 266.221 143.34 267.741 135.407C267.922 134.47 268.129 133.538 268.362 132.611C271.844 133.375 275.697 133.923 279.816 134.254C282.168 137.533 284.631 140.546 287.113 143.185C286.586 143.691 286.046 144.183 285.494 144.663C282.196 147.519 278.891 149.545 275.978 150.564ZM263.718 127.614C259.573 126.21 256.15 124.386 253.804 122.396C251.696 120.608 250.631 118.832 250.631 117.391C250.631 114.324 255.246 110.413 262.942 107.755C263.876 107.433 264.853 107.128 265.868 106.843C266.932 110.27 268.327 113.854 270.01 117.478C268.305 121.156 266.89 124.797 265.816 128.265C265.111 128.065 264.412 127.848 263.718 127.614ZM267.828 99.897C266.23 91.8092 267.291 85.7082 269.961 84.1769C272.804 82.546 279.092 84.8713 285.72 90.7016C286.152 91.0826 286.578 91.4714 286.995 91.8677C284.526 94.495 282.086 97.4861 279.755 100.745C275.757 101.112 271.93 101.702 268.412 102.492C268.195 101.632 268 100.767 267.828 99.897ZM304.493 108.867C303.662 107.445 302.8 106.04 301.908 104.655C304.62 104.995 307.219 105.446 309.659 105.997C308.926 108.324 308.013 110.756 306.938 113.249C306.153 111.772 305.337 110.311 304.493 108.867ZM289.541 94.4388C291.216 96.2365 292.893 98.2434 294.543 100.421C291.196 100.264 287.844 100.264 284.497 100.419C286.148 98.2615 287.84 96.2572 289.541 94.4388ZM274.493 108.891C273.659 110.324 272.859 111.776 272.093 113.246C271.036 110.761 270.131 108.318 269.393 105.959C271.818 105.422 274.404 104.982 277.099 104.649C276.197 106.042 275.328 107.457 274.493 108.891ZM277.176 130.389C274.392 130.081 271.767 129.664 269.342 129.141C270.093 126.74 271.017 124.245 272.098 121.707C272.866 123.178 273.67 124.631 274.507 126.064C275.368 127.538 276.26 128.981 277.176 130.389ZM289.641 140.596C287.92 138.757 286.203 136.721 284.527 134.533C286.154 134.596 287.814 134.628 289.5 134.628C291.233 134.628 292.945 134.589 294.631 134.515C292.976 136.743 291.305 138.782 289.641 140.596ZM306.972 121.577C308.109 124.143 309.066 126.625 309.827 128.985C307.362 129.542 304.701 129.991 301.898 130.324C302.796 128.913 303.666 127.485 304.507 126.039C305.362 124.57 306.184 123.083 306.972 121.577ZM301.362 124.242C300.074 126.458 298.714 128.632 297.284 130.76C294.693 130.942 292.097 131.032 289.5 131.031C286.855 131.031 284.282 130.949 281.804 130.79C280.337 128.667 278.951 126.489 277.649 124.262C276.354 122.046 275.145 119.783 274.023 117.477C275.142 115.17 276.348 112.905 277.639 110.688L277.639 110.688C278.929 108.471 280.304 106.302 281.76 104.188C284.288 103.999 286.88 103.9 289.5 103.9C292.131 103.9 294.727 104 297.254 104.19C298.696 106.302 300.062 108.462 301.35 110.669C302.645 112.881 303.867 115.135 305.014 117.426C303.879 119.74 302.661 122.014 301.362 124.242ZM308.852 84.0697C311.699 85.696 312.806 92.2542 311.017 100.855C310.903 101.403 310.775 101.962 310.635 102.529C307.109 101.722 303.279 101.123 299.27 100.75C296.935 97.4549 294.514 94.4592 292.085 91.8657C292.722 91.2577 293.373 90.6654 294.04 90.0894C300.315 84.6792 306.18 82.543 308.852 84.0697ZM289.5 109.871C293.692 109.871 297.09 113.238 297.09 117.391C297.09 121.544 293.692 124.91 289.5 124.91C285.308 124.91 281.91 121.544 281.91 117.391C281.91 113.238 285.308 109.871 289.5 109.871Z" fill="#00D8FF"/>
</g>
<path d="M127.5 189V31C127.5 27.9624 129.962 25.5 133 25.5H345C348.038 25.5 350.5 27.9624 350.5 31V189C350.5 192.038 348.038 194.5 345 194.5H133C129.962 194.5 127.5 192.038 127.5 189Z" stroke="#E6E6E6"/>
<g filter="url(#filter0_b_5_4977)">
<path fill-rule="evenodd" clip-rule="evenodd" d="M244 105.61H83V91.131C83 88.8496 84.8521 87 87.1365 87H239.864C242.148 87 244 88.8496 244 91.131V105.61Z" fill="#E9E9E9" fill-opacity="0.52"/>
<path fill-rule="evenodd" clip-rule="evenodd" d="M87.1365 209C84.8521 209 83 207.151 83 204.869V105.61H244V204.869C244 207.151 242.148 209 239.864 209H87.1365Z" fill="#F3F3F3" fill-opacity="0.2"/>
<path d="M83.5 204.869V106.11H243.5V204.869C243.5 206.874 241.873 208.5 239.864 208.5H87.1365C85.1276 208.5 83.5 206.874 83.5 204.869ZM243.5 91.131V105.11H83.5V91.131C83.5 89.1264 85.1276 87.5 87.1365 87.5H239.864C241.873 87.5 243.5 89.1264 243.5 91.131Z" stroke="#E6E6E6"/>
<mask id="path-15-inside-1_5_4977" fill="white">
<path d="M242.95 138.734C243.234 138.734 243.465 138.965 243.465 139.249C243.465 139.523 243.252 139.747 242.982 139.763L242.95 139.764H84.0117C83.7272 139.764 83.4966 139.534 83.4966 139.249C83.4966 138.976 83.7098 138.752 83.9791 138.735L84.0117 138.734H242.95Z"/>
</mask>
<path d="M242.982 139.763L242.998 140.263L243.006 140.263L243.013 140.262L242.982 139.763ZM242.95 139.764V140.264H242.957L242.965 140.264L242.95 139.764ZM83.9791 138.735L83.9636 138.236L83.9558 138.236L83.948 138.236L83.9791 138.735ZM84.0117 138.734V138.234H84.0039L83.9962 138.234L84.0117 138.734ZM242.95 138.234H241.956V139.234H242.95V138.234ZM239.97 138.234H237.983V139.234H239.97V138.234ZM235.996 138.234H234.009V139.234H235.996V138.234ZM232.023 138.234H230.036V139.234H232.023V138.234ZM228.049 138.234H226.062V139.234H228.049V138.234ZM224.076 138.234H222.089V139.234H224.076V138.234ZM220.102 138.234H218.116V139.234H220.102V138.234ZM216.129 138.234H214.142V139.234H216.129V138.234ZM212.155 138.234H210.169V139.234H212.155V138.234ZM208.182 138.234H206.195V139.234H208.182V138.234ZM204.209 138.234H202.222V139.234H204.209V138.234ZM200.235 138.234H198.248V139.234H200.235V138.234ZM196.262 138.234H194.275V139.234H196.262V138.234ZM192.288 138.234H190.301V139.234H192.288V138.234ZM188.315 138.234H186.328V139.234H188.315V138.234ZM184.341 138.234H182.355V139.234H184.341V138.234ZM180.368 138.234H178.381V139.234H180.368V138.234ZM176.394 138.234H174.408V139.234H176.394V138.234ZM172.421 138.234H170.434V139.234H172.421V138.234ZM168.447 138.234H166.461V139.234H168.447V138.234ZM164.474 138.234H162.487V139.234H164.474V138.234ZM160.501 138.234H158.514V139.234H160.501V138.234ZM156.527 138.234H154.54V139.234H156.527V138.234ZM152.554 138.234H150.567V139.234H152.554V138.234ZM148.58 138.234H146.593V139.234H148.58V138.234ZM144.607 138.234H142.62V139.234H144.607V138.234ZM140.633 138.234H138.647V139.234H140.633V138.234ZM136.66 138.234H134.673V139.234H136.66V138.234ZM132.686 138.234H130.7V139.234H132.686V138.234ZM128.713 138.234H126.726V139.234H128.713V138.234ZM124.74 138.234H122.753V139.234H124.74V138.234ZM120.766 138.234H118.779V139.234H120.766V138.234ZM116.793 138.234H114.806V139.234H116.793V138.234ZM112.819 138.234H110.832V139.234H112.819V138.234ZM108.846 138.234H106.859V139.234H108.846V138.234ZM104.872 138.234H102.886V139.234H104.872V138.234ZM100.899 138.234H98.9121V139.234H100.899V138.234ZM96.9254 138.234H94.9387V139.234H96.9254V138.234ZM92.9519 138.234H90.9652V139.234H92.9519V138.234ZM88.9785 138.234H86.9918V139.234H88.9785V138.234ZM85.005 138.234H84.0117V139.234H85.005V138.234ZM83.9962 138.234L83.988 138.235L84.0191 139.234L84.0273 139.234L83.9962 138.234ZM83.9717 138.235L83.9636 138.236L83.9947 139.235L84.0028 139.235L83.9717 138.235ZM83.948 138.236C83.8171 138.244 83.6923 138.278 83.5789 138.331L84.0055 139.235C84.0067 139.235 84.0081 139.234 84.0103 139.234L83.948 138.236ZM83.0678 138.876C83.0217 138.992 82.9966 139.118 82.9966 139.249H83.9966C83.9966 139.246 83.997 139.245 83.9975 139.244L83.0678 138.876ZM82.9966 139.249C82.9966 139.386 83.0239 139.518 83.0738 139.638L83.9975 139.255C83.9971 139.254 83.9966 139.252 83.9966 139.249H82.9966ZM83.623 140.187C83.7434 140.237 83.875 140.264 84.0117 140.264V139.264C84.0087 139.264 84.0071 139.264 84.006 139.263L83.623 140.187ZM84.0117 140.264H85.0051V139.264H84.0117V140.264ZM86.9918 140.264H88.9785V139.264H86.9918V140.264ZM90.9653 140.264H92.952V139.264H90.9653V140.264ZM94.9387 140.264H96.9254V139.264H94.9387V140.264ZM98.9121 140.264H100.899V139.264H98.9121V140.264ZM102.886 140.264H104.872V139.264H102.886V140.264ZM106.859 140.264H108.846V139.264H106.859V140.264ZM110.832 140.264H112.819V139.264H110.832V140.264ZM114.806 140.264H116.793V139.264H114.806V140.264ZM118.779 140.264H120.766V139.264H118.779V140.264ZM122.753 140.264H124.74V139.264H122.753V140.264ZM126.726 140.264H128.713V139.264H126.726V140.264ZM130.7 140.264H132.686V139.264H130.7V140.264ZM134.673 140.264H136.66V139.264H134.673V140.264ZM138.647 140.264H140.633V139.264H138.647V140.264ZM142.62 140.264H144.607V139.264H142.62V140.264ZM146.594 140.264H148.58V139.264H146.594V140.264ZM150.567 140.264H152.554V139.264H150.567V140.264ZM154.54 140.264H156.527V139.264H154.54V140.264ZM158.514 140.264H160.501V139.264H158.514V140.264ZM162.487 140.264H164.474V139.264H162.487V140.264ZM166.461 140.264H168.448V139.264H166.461V140.264ZM170.434 140.264H172.421V139.264H170.434V140.264ZM174.408 140.264H176.394V139.264H174.408V140.264ZM178.381 140.264H180.368V139.264H178.381V140.264ZM182.355 140.264H184.341V139.264H182.355V140.264ZM186.328 140.264H188.315V139.264H186.328V140.264ZM190.301 140.264H192.288V139.264H190.301V140.264ZM194.275 140.264H196.262V139.264H194.275V140.264ZM198.248 140.264H200.235V139.264H198.248V140.264ZM202.222 140.264H204.209V139.264H202.222V140.264ZM206.195 140.264H208.182V139.264H206.195V140.264ZM210.169 140.264H212.155V139.264H210.169V140.264ZM214.142 140.264H216.129V139.264H214.142V140.264ZM218.116 140.264H220.102V139.264H218.116V140.264ZM222.089 140.264H224.076V139.264H222.089V140.264ZM226.063 140.264H228.049V139.264H226.063V140.264ZM230.036 140.264H232.023V139.264H230.036V140.264ZM234.009 140.264H235.996V139.264H234.009V140.264ZM237.983 140.264H239.97V139.264H237.983V140.264ZM241.956 140.264H242.95V139.264H241.956V140.264ZM242.965 140.264L242.973 140.264L242.942 139.264L242.934 139.265L242.965 140.264ZM242.99 140.263L242.998 140.263L242.967 139.264L242.959 139.264L242.99 140.263ZM243.013 140.262C243.144 140.254 243.269 140.221 243.382 140.168L242.956 139.263C242.955 139.264 242.953 139.264 242.951 139.264L243.013 140.262ZM243.894 139.623C243.94 139.507 243.965 139.38 243.965 139.249H242.965C242.965 139.252 242.964 139.254 242.964 139.255L243.894 139.623ZM243.965 139.249C243.965 139.113 243.937 138.981 243.888 138.861L242.964 139.244C242.964 139.245 242.965 139.246 242.965 139.249H243.965ZM243.338 138.311C243.218 138.262 243.086 138.234 242.95 138.234V139.234C242.953 139.234 242.954 139.235 242.955 139.235L243.338 138.311ZM242.982 139.763L243.013 140.763L243.029 140.762L243.045 140.761L242.982 139.763ZM242.95 139.764V140.764H242.965L242.981 140.764L242.95 139.764ZM83.9791 138.735L83.9481 137.736L83.9325 137.736L83.9169 137.737L83.9791 138.735ZM84.0117 138.734V137.734H83.9962L83.9806 137.735L84.0117 138.734ZM242.95 137.734H241.956V139.734H242.95V137.734ZM239.97 137.734H237.983V139.734H239.97V137.734ZM235.996 137.734H234.009V139.734H235.996V137.734ZM232.023 137.734H230.036V139.734H232.023V137.734ZM228.049 137.734H226.062V139.734H228.049V137.734ZM224.076 137.734H222.089V139.734H224.076V137.734ZM220.102 137.734H218.116V139.734H220.102V137.734ZM216.129 137.734H214.142V139.734H216.129V137.734ZM212.155 137.734H210.169V139.734H212.155V137.734ZM208.182 137.734H206.195V139.734H208.182V137.734ZM204.209 137.734H202.222V139.734H204.209V137.734ZM200.235 137.734H198.248V139.734H200.235V137.734ZM196.262 137.734H194.275V139.734H196.262V137.734ZM192.288 137.734H190.301V139.734H192.288V137.734ZM188.315 137.734H186.328V139.734H188.315V137.734ZM184.341 137.734H182.355V139.734H184.341V137.734ZM180.368 137.734H178.381V139.734H180.368V137.734ZM176.394 137.734H174.408V139.734H176.394V137.734ZM172.421 137.734H170.434V139.734H172.421V137.734ZM168.447 137.734H166.461V139.734H168.447V137.734ZM164.474 137.734H162.487V139.734H164.474V137.734ZM160.501 137.734H158.514V139.734H160.501V137.734ZM156.527 137.734H154.54V139.734H156.527V137.734ZM152.554 137.734H150.567V139.734H152.554V137.734ZM148.58 137.734H146.593V139.734H148.58V137.734ZM144.607 137.734H142.62V139.734H144.607V137.734ZM140.633 137.734H138.647V139.734H140.633V137.734ZM136.66 137.734H134.673V139.734H136.66V137.734ZM132.686 137.734H130.7V139.734H132.686V137.734ZM128.713 137.734H126.726V139.734H128.713V137.734ZM124.74 137.734H122.753V139.734H124.74V137.734ZM120.766 137.734H118.779V139.734H120.766V137.734ZM116.793 137.734H114.806V139.734H116.793V137.734ZM112.819 137.734H110.832V139.734H112.819V137.734ZM108.846 137.734H106.859V139.734H108.846V137.734ZM104.872 137.734H102.886V139.734H104.872V137.734ZM100.899 137.734H98.9121V139.734H100.899V137.734ZM96.9254 137.734H94.9387V139.734H96.9254V137.734ZM92.9519 137.734H90.9652V139.734H92.9519V137.734ZM88.9785 137.734H86.9918V139.734H88.9785V137.734ZM85.005 137.734H84.0117V139.734H85.005V137.734ZM83.9806 137.735L83.9725 137.735L84.0347 139.734L84.0428 139.734L83.9806 137.735ZM83.9562 137.735L83.9481 137.736L84.0102 139.735L84.0184 139.735L83.9562 137.735ZM83.9169 137.737C83.7216 137.749 83.5351 137.799 83.3656 137.879L84.2188 139.688C84.1639 139.714 84.1036 139.729 84.0414 139.733L83.9169 137.737ZM82.6029 138.691C82.534 138.865 82.4966 139.054 82.4966 139.249H84.4966C84.4966 139.311 84.4847 139.371 84.4623 139.428L82.6029 138.691ZM82.4966 139.249C82.4966 139.453 82.5373 139.65 82.612 139.83L84.4594 139.063C84.4837 139.122 84.4966 139.185 84.4966 139.249H82.4966ZM83.4315 140.649C83.6115 140.724 83.8081 140.764 84.0117 140.764V138.764C84.0756 138.764 84.139 138.777 84.1976 138.802L83.4315 140.649ZM84.0117 140.764H85.0051V138.764H84.0117V140.764ZM86.9918 140.764H88.9785V138.764H86.9918V140.764ZM90.9653 140.764H92.952V138.764H90.9653V140.764ZM94.9387 140.764H96.9254V138.764H94.9387V140.764ZM98.9121 140.764H100.899V138.764H98.9121V140.764ZM102.886 140.764H104.872V138.764H102.886V140.764ZM106.859 140.764H108.846V138.764H106.859V140.764ZM110.832 140.764H112.819V138.764H110.832V140.764ZM114.806 140.764H116.793V138.764H114.806V140.764ZM118.779 140.764H120.766V138.764H118.779V140.764ZM122.753 140.764H124.74V138.764H122.753V140.764ZM126.726 140.764H128.713V138.764H126.726V140.764ZM130.7 140.764H132.686V138.764H130.7V140.764ZM134.673 140.764H136.66V138.764H134.673V140.764ZM138.647 140.764H140.633V138.764H138.647V140.764ZM142.62 140.764H144.607V138.764H142.62V140.764ZM146.594 140.764H148.58V138.764H146.594V140.764ZM150.567 140.764H152.554V138.764H150.567V140.764ZM154.54 140.764H156.527V138.764H154.54V140.764ZM158.514 140.764H160.501V138.764H158.514V140.764ZM162.487 140.764H164.474V138.764H162.487V140.764ZM166.461 140.764H168.448V138.764H166.461V140.764ZM170.434 140.764H172.421V138.764H170.434V140.764ZM174.408 140.764H176.394V138.764H174.408V140.764ZM178.381 140.764H180.368V138.764H178.381V140.764ZM182.355 140.764H184.341V138.764H182.355V140.764ZM186.328 140.764H188.315V138.764H186.328V140.764ZM190.301 140.764H192.288V138.764H190.301V140.764ZM194.275 140.764H196.262V138.764H194.275V140.764ZM198.248 140.764H200.235V138.764H198.248V140.764ZM202.222 140.764H204.209V138.764H202.222V140.764ZM206.195 140.764H208.182V138.764H206.195V140.764ZM210.169 140.764H212.155V138.764H210.169V140.764ZM214.142 140.764H216.129V138.764H214.142V140.764ZM218.116 140.764H220.102V138.764H218.116V140.764ZM222.089 140.764H224.076V138.764H222.089V140.764ZM226.063 140.764H228.049V138.764H226.063V140.764ZM230.036 140.764H232.023V138.764H230.036V140.764ZM234.009 140.764H235.996V138.764H234.009V140.764ZM237.983 140.764H239.97V138.764H237.983V140.764ZM241.956 140.764H242.95V138.764H241.956V140.764ZM242.981 140.764L242.989 140.764L242.927 138.765L242.919 138.765L242.981 140.764ZM243.005 140.763L243.013 140.763L242.951 138.764L242.943 138.764L243.005 140.763ZM243.045 140.761C243.24 140.749 243.426 140.7 243.596 140.62L242.743 138.811C242.797 138.785 242.858 138.769 242.92 138.765L243.045 140.761ZM244.358 139.807C244.427 139.633 244.465 139.444 244.465 139.249H242.465C242.465 139.188 242.477 139.127 242.499 139.071L244.358 139.807ZM244.465 139.249C244.465 139.046 244.424 138.849 244.349 138.669L242.502 139.435C242.478 139.377 242.465 139.313 242.465 139.249H244.465ZM243.53 137.85C243.35 137.775 243.153 137.734 242.95 137.734V139.734C242.886 139.734 242.822 139.721 242.764 139.697L243.53 137.85Z" fill="#E8E8E8" mask="url(#path-15-inside-1_5_4977)"/>
<path d="M136.629 208.598L136.886 208.663C136.854 208.787 136.79 208.889 136.707 208.947L136.548 208.72M136.629 208.598L136.656 208.557L136.568 208.583M136.629 208.598L136.568 208.583M136.629 208.598L136.548 208.72M136.568 208.583L136.547 208.578L136.426 208.547L136.471 208.611M136.568 208.583L136.547 208.589L136.471 208.611M136.471 208.611L136.214 208.686C136.249 208.803 136.313 208.898 136.393 208.952L136.547 208.721L136.548 208.72M136.471 208.611L136.547 208.719L136.548 208.72M136.906 107.342L136.906 107.358L136.688 107.363C136.688 107.357 136.688 107.352 136.688 107.347L136.906 107.342ZM136.547 107.35L136.619 107.349C136.598 107.355 136.574 107.36 136.547 107.36C136.526 107.36 136.507 107.357 136.489 107.353L136.545 107.35L136.547 107.35ZM136.547 107.271L136.437 107.303L136.547 107.138L136.7 106.908C136.781 106.962 136.845 107.057 136.879 107.173L136.547 107.271ZM136.188 110.4V108.378H136.688V108.377H136.906V110.4H136.406V110.4H136.188ZM136.688 112.423H136.906V114.445H136.406V114.445H136.188V112.423H136.688V112.423ZM136.688 116.468H136.906V118.49H136.406V118.49H136.188V116.468H136.688V116.468ZM136.688 120.513H136.906V122.535H136.406V122.535H136.188V120.513H136.688V120.513ZM136.688 124.558H136.906V126.58H136.406V126.58H136.188V124.558H136.688V124.558ZM136.688 128.603H136.906V130.625H136.406V130.625H136.188V128.603H136.688V128.603ZM136.688 132.648L136.906 132.648V134.671H136.406L136.188 134.671V132.648H136.688ZM136.688 136.693H136.906V138.716H136.406L136.188 138.716V136.693H136.406H136.688ZM136.688 140.738H136.906V142.761L136.688 142.761H136.188V140.738H136.406H136.688ZM136.406 144.783H136.906V146.806L136.688 146.806H136.188V144.783L136.406 144.783ZM136.406 148.828H136.906V150.851L136.688 150.851H136.188V148.828L136.406 148.828ZM136.406 152.873H136.906V154.896L136.688 154.896H136.188V152.873L136.406 152.873ZM136.406 156.919H136.906V158.941L136.688 158.941H136.188V156.919L136.406 156.919ZM136.406 160.964H136.906V162.986L136.688 162.986H136.188V160.964L136.406 160.964ZM136.406 165.009H136.906V167.031L136.688 167.031H136.188V165.009L136.406 165.009ZM136.406 169.054H136.906V171.076L136.688 171.076L136.406 171.076L136.188 171.076V169.054L136.406 169.054ZM136.688 173.099L136.906 173.099V175.121H136.688H136.406H136.188V173.099L136.406 173.099L136.688 173.099ZM136.688 177.144H136.906V179.166H136.688H136.406H136.188V177.144H136.406H136.688ZM136.688 181.189L136.906 181.189V183.212L136.688 183.212L136.406 183.212L136.188 183.212V181.189L136.406 181.189L136.688 181.189ZM136.688 185.234L136.906 185.234V187.257H136.406L136.188 187.257V185.234H136.688ZM136.688 189.279L136.906 189.279V191.302H136.406L136.188 191.302V189.279H136.688ZM136.688 193.324L136.906 193.324V195.347H136.406L136.188 195.347V193.324H136.688ZM136.688 197.369L136.906 197.369V199.392H136.406L136.188 199.392V197.369H136.688ZM136.688 201.414L136.906 201.414V203.437H136.406L136.188 203.437V201.414H136.688ZM136.688 205.46L136.906 205.46V207.482H136.406L136.188 207.482V205.46H136.688ZM136.188 208.517L136.188 208.501L136.406 208.497C136.406 208.502 136.406 208.507 136.405 208.513L136.188 208.517ZM136.547 208.509L136.475 208.511C136.496 208.504 136.52 208.5 136.547 208.5C136.568 208.5 136.587 208.503 136.604 208.507L136.549 208.509L136.547 208.509Z" stroke="#E8E8E8" stroke-dasharray="2 2"/>
<path d="M189.816 208.598L190.073 208.663C190.042 208.787 189.977 208.889 189.894 208.947L189.735 208.72M189.816 208.598L189.844 208.557L189.755 208.583M189.816 208.598L189.755 208.583M189.816 208.598L189.735 208.72M189.755 208.583L189.734 208.578L189.614 208.547L189.658 208.611M189.755 208.583L189.734 208.589L189.658 208.611M189.658 208.611L189.402 208.686C189.436 208.803 189.5 208.898 189.581 208.952L189.734 208.721L189.735 208.72M189.658 208.611L189.734 208.719L189.735 208.72M190.093 107.342L190.094 107.358L189.875 107.363C189.875 107.357 189.875 107.352 189.876 107.347L190.093 107.342ZM189.734 107.35L189.806 107.349C189.785 107.355 189.761 107.36 189.734 107.36C189.713 107.36 189.694 107.357 189.677 107.353L189.732 107.35L189.734 107.35ZM189.734 107.271L189.625 107.303L189.734 107.138L189.888 106.908C189.968 106.962 190.033 107.057 190.067 107.173L189.734 107.271ZM189.375 110.4V108.378H189.875V108.377H190.094V110.4H189.594V110.4H189.375ZM189.875 112.423H190.094V114.445H189.594V114.445H189.375V112.423H189.875V112.423ZM189.875 116.468H190.094V118.49H189.594V118.49H189.375V116.468H189.875V116.468ZM189.875 120.513H190.094V122.535H189.594V122.535H189.375V120.513H189.875V120.513ZM189.875 124.558H190.094V126.58H189.594V126.58H189.375V124.558H189.875V124.558ZM189.875 128.603H190.094V130.625H189.594V130.625H189.375V128.603H189.875V128.603ZM189.875 132.648L190.094 132.648V134.671H189.594L189.375 134.671V132.648H189.875ZM189.875 136.693H190.094V138.716H189.594L189.375 138.716V136.693H189.594H189.875ZM189.875 140.738H190.094V142.761L189.875 142.761H189.375V140.738H189.594H189.875ZM189.594 144.783H190.094V146.806L189.875 146.806H189.375V144.783L189.594 144.783ZM189.594 148.828H190.094V150.851L189.875 150.851H189.375V148.828L189.594 148.828ZM189.594 152.873H190.094V154.896L189.875 154.896H189.375V152.873L189.594 152.873ZM189.594 156.919H190.094V158.941L189.875 158.941H189.375V156.919L189.594 156.919ZM189.594 160.964H190.094V162.986L189.875 162.986H189.375V160.964L189.594 160.964ZM189.594 165.009H190.094V167.031L189.875 167.031H189.375V165.009L189.594 165.009ZM189.594 169.054H190.094V171.076L189.875 171.076L189.594 171.076L189.375 171.076V169.054L189.594 169.054ZM189.875 173.099L190.094 173.099V175.121H189.875H189.594H189.375V173.099L189.594 173.099L189.875 173.099ZM189.875 177.144H190.094V179.166H189.875H189.594H189.375V177.144H189.594H189.875ZM189.875 181.189L190.094 181.189V183.212L189.875 183.212L189.594 183.212L189.375 183.212V181.189L189.594 181.189L189.875 181.189ZM189.875 185.234L190.094 185.234V187.257H189.594L189.375 187.257V185.234H189.875ZM189.875 189.279L190.094 189.279V191.302H189.594L189.375 191.302V189.279H189.875ZM189.875 193.324L190.094 193.324V195.347H189.594L189.375 195.347V193.324H189.875ZM189.875 197.369L190.094 197.369V199.392H189.594L189.375 199.392V197.369H189.875ZM189.875 201.414L190.094 201.414V203.437H189.594L189.375 203.437V201.414H189.875ZM189.875 205.46L190.094 205.46V207.482H189.594L189.375 207.482V205.46H189.875ZM189.376 208.517L189.375 208.501L189.594 208.497C189.594 208.502 189.593 208.507 189.593 208.513L189.376 208.517ZM189.734 208.509L189.662 208.511C189.683 208.504 189.707 208.5 189.734 208.5C189.755 208.5 189.775 208.503 189.792 208.507L189.737 208.509L189.734 208.509Z" stroke="#E8E8E8" stroke-dasharray="2 2"/>
<mask id="path-19-inside-2_5_4977" fill="white">
<path d="M242.95 173.276C243.234 173.276 243.465 173.507 243.465 173.791C243.465 174.065 243.252 174.288 242.982 174.305L242.95 174.306H84.0117C83.7272 174.306 83.4966 174.076 83.4966 173.791C83.4966 173.518 83.7098 173.294 83.9791 173.277L84.0117 173.276H242.95Z"/>
</mask>
<path d="M242.982 174.305L242.998 174.805L243.006 174.805L243.013 174.804L242.982 174.305ZM242.95 174.306V174.806H242.957L242.965 174.806L242.95 174.306ZM83.9791 173.277L83.9636 172.777L83.9558 172.777L83.948 172.778L83.9791 173.277ZM84.0117 173.276V172.776H84.0039L83.9962 172.776L84.0117 173.276ZM242.95 172.776H241.956V173.776H242.95V172.776ZM239.97 172.776H237.983V173.776H239.97V172.776ZM235.996 172.776H234.009V173.776H235.996V172.776ZM232.023 172.776H230.036V173.776H232.023V172.776ZM228.049 172.776H226.062V173.776H228.049V172.776ZM224.076 172.776H222.089V173.776H224.076V172.776ZM220.102 172.776H218.116V173.776H220.102V172.776ZM216.129 172.776H214.142V173.776H216.129V172.776ZM212.155 172.776H210.169V173.776H212.155V172.776ZM208.182 172.776H206.195V173.776H208.182V172.776ZM204.209 172.776H202.222V173.776H204.209V172.776ZM200.235 172.776H198.248V173.776H200.235V172.776ZM196.262 172.776H194.275V173.776H196.262V172.776ZM192.288 172.776H190.301V173.776H192.288V172.776ZM188.315 172.776H186.328V173.776H188.315V172.776ZM184.341 172.776H182.355V173.776H184.341V172.776ZM180.368 172.776H178.381V173.776H180.368V172.776ZM176.394 172.776H174.408V173.776H176.394V172.776ZM172.421 172.776H170.434V173.776H172.421V172.776ZM168.447 172.776H166.461V173.776H168.447V172.776ZM164.474 172.776H162.487V173.776H164.474V172.776ZM160.501 172.776H158.514V173.776H160.501V172.776ZM156.527 172.776H154.54V173.776H156.527V172.776ZM152.554 172.776H150.567V173.776H152.554V172.776ZM148.58 172.776H146.593V173.776H148.58V172.776ZM144.607 172.776H142.62V173.776H144.607V172.776ZM140.633 172.776H138.647V173.776H140.633V172.776ZM136.66 172.776H134.673V173.776H136.66V172.776ZM132.686 172.776H130.7V173.776H132.686V172.776ZM128.713 172.776H126.726V173.776H128.713V172.776ZM124.74 172.776H122.753V173.776H124.74V172.776ZM120.766 172.776H118.779V173.776H120.766V172.776ZM116.793 172.776H114.806V173.776H116.793V172.776ZM112.819 172.776H110.832V173.776H112.819V172.776ZM108.846 172.776H106.859V173.776H108.846V172.776ZM104.872 172.776H102.886V173.776H104.872V172.776ZM100.899 172.776H98.9121V173.776H100.899V172.776ZM96.9254 172.776H94.9387V173.776H96.9254V172.776ZM92.9519 172.776H90.9652V173.776H92.9519V172.776ZM88.9785 172.776H86.9918V173.776H88.9785V172.776ZM85.005 172.776H84.0117V173.776H85.005V172.776ZM83.9962 172.776L83.988 172.776L84.0191 173.776L84.0273 173.776L83.9962 172.776ZM83.9717 172.777L83.9636 172.777L83.9947 173.777L84.0028 173.777L83.9717 172.777ZM83.948 172.778C83.8171 172.786 83.6923 172.819 83.5789 172.873L84.0055 173.777C84.0067 173.777 84.0081 173.776 84.0103 173.776L83.948 172.778ZM83.0678 173.417C83.0217 173.534 82.9966 173.66 82.9966 173.791H83.9966C83.9966 173.788 83.997 173.787 83.9975 173.786L83.0678 173.417ZM82.9966 173.791C82.9966 173.928 83.0239 174.059 83.0738 174.18L83.9975 173.797C83.9971 173.796 83.9966 173.794 83.9966 173.791H82.9966ZM83.623 174.729C83.7434 174.779 83.875 174.806 84.0117 174.806V173.806C84.0087 173.806 84.0071 173.806 84.006 173.805L83.623 174.729ZM84.0117 174.806H85.0051V173.806H84.0117V174.806ZM86.9918 174.806H88.9785V173.806H86.9918V174.806ZM90.9653 174.806H92.952V173.806H90.9653V174.806ZM94.9387 174.806H96.9254V173.806H94.9387V174.806ZM98.9121 174.806H100.899V173.806H98.9121V174.806ZM102.886 174.806H104.872V173.806H102.886V174.806ZM106.859 174.806H108.846V173.806H106.859V174.806ZM110.832 174.806H112.819V173.806H110.832V174.806ZM114.806 174.806H116.793V173.806H114.806V174.806ZM118.779 174.806H120.766V173.806H118.779V174.806ZM122.753 174.806H124.74V173.806H122.753V174.806ZM126.726 174.806H128.713V173.806H126.726V174.806ZM130.7 174.806H132.686V173.806H130.7V174.806ZM134.673 174.806H136.66V173.806H134.673V174.806ZM138.647 174.806H140.633V173.806H138.647V174.806ZM142.62 174.806H144.607V173.806H142.62V174.806ZM146.594 174.806H148.58V173.806H146.594V174.806ZM150.567 174.806H152.554V173.806H150.567V174.806ZM154.54 174.806H156.527V173.806H154.54V174.806ZM158.514 174.806H160.501V173.806H158.514V174.806ZM162.487 174.806H164.474V173.806H162.487V174.806ZM166.461 174.806H168.448V173.806H166.461V174.806ZM170.434 174.806H172.421V173.806H170.434V174.806ZM174.408 174.806H176.394V173.806H174.408V174.806ZM178.381 174.806H180.368V173.806H178.381V174.806ZM182.355 174.806H184.341V173.806H182.355V174.806ZM186.328 174.806H188.315V173.806H186.328V174.806ZM190.301 174.806H192.288V173.806H190.301V174.806ZM194.275 174.806H196.262V173.806H194.275V174.806ZM198.248 174.806H200.235V173.806H198.248V174.806ZM202.222 174.806H204.209V173.806H202.222V174.806ZM206.195 174.806H208.182V173.806H206.195V174.806ZM210.169 174.806H212.155V173.806H210.169V174.806ZM214.142 174.806H216.129V173.806H214.142V174.806ZM218.116 174.806H220.102V173.806H218.116V174.806ZM222.089 174.806H224.076V173.806H222.089V174.806ZM226.063 174.806H228.049V173.806H226.063V174.806ZM230.036 174.806H232.023V173.806H230.036V174.806ZM234.009 174.806H235.996V173.806H234.009V174.806ZM237.983 174.806H239.97V173.806H237.983V174.806ZM241.956 174.806H242.95V173.806H241.956V174.806ZM242.965 174.806L242.973 174.806L242.942 173.806L242.934 173.806L242.965 174.806ZM242.99 174.805L242.998 174.805L242.967 173.805L242.959 173.806L242.99 174.805ZM243.013 174.804C243.144 174.796 243.269 174.763 243.382 174.709L242.956 173.805C242.955 173.806 242.953 173.806 242.951 173.806L243.013 174.804ZM243.894 174.165C243.94 174.049 243.965 173.922 243.965 173.791H242.965C242.965 173.794 242.964 173.796 242.964 173.797L243.894 174.165ZM243.965 173.791C243.965 173.654 243.937 173.523 243.888 173.402L242.964 173.785C242.964 173.787 242.965 173.788 242.965 173.791H243.965ZM243.338 172.853C243.218 172.803 243.086 172.776 242.95 172.776V173.776C242.953 173.776 242.954 173.777 242.955 173.777L243.338 172.853ZM242.982 174.305L243.013 175.305L243.029 175.304L243.044 175.303L242.982 174.305ZM242.95 174.306V175.306H242.965L242.981 175.306L242.95 174.306ZM83.9791 173.277L83.9481 172.277L83.9325 172.278L83.9169 172.279L83.9791 173.277ZM84.0117 173.276V172.276H83.9962L83.9806 172.276L84.0117 173.276ZM242.95 172.276H241.956V174.276H242.95V172.276ZM239.97 172.276H237.983V174.276H239.97V172.276ZM235.996 172.276H234.009V174.276H235.996V172.276ZM232.023 172.276H230.036V174.276H232.023V172.276ZM228.049 172.276H226.062V174.276H228.049V172.276ZM224.076 172.276H222.089V174.276H224.076V172.276ZM220.102 172.276H218.116V174.276H220.102V172.276ZM216.129 172.276H214.142V174.276H216.129V172.276ZM212.155 172.276H210.169V174.276H212.155V172.276ZM208.182 172.276H206.195V174.276H208.182V172.276ZM204.209 172.276H202.222V174.276H204.209V172.276ZM200.235 172.276H198.248V174.276H200.235V172.276ZM196.262 172.276H194.275V174.276H196.262V172.276ZM192.288 172.276H190.301V174.276H192.288V172.276ZM188.315 172.276H186.328V174.276H188.315V172.276ZM184.341 172.276H182.355V174.276H184.341V172.276ZM180.368 172.276H178.381V174.276H180.368V172.276ZM176.394 172.276H174.408V174.276H176.394V172.276ZM172.421 172.276H170.434V174.276H172.421V172.276ZM168.447 172.276H166.461V174.276H168.447V172.276ZM164.474 172.276H162.487V174.276H164.474V172.276ZM160.501 172.276H158.514V174.276H160.501V172.276ZM156.527 172.276H154.54V174.276H156.527V172.276ZM152.554 172.276H150.567V174.276H152.554V172.276ZM148.58 172.276H146.593V174.276H148.58V172.276ZM144.607 172.276H142.62V174.276H144.607V172.276ZM140.633 172.276H138.647V174.276H140.633V172.276ZM136.66 172.276H134.673V174.276H136.66V172.276ZM132.686 172.276H130.7V174.276H132.686V172.276ZM128.713 172.276H126.726V174.276H128.713V172.276ZM124.74 172.276H122.753V174.276H124.74V172.276ZM120.766 172.276H118.779V174.276H120.766V172.276ZM116.793 172.276H114.806V174.276H116.793V172.276ZM112.819 172.276H110.832V174.276H112.819V172.276ZM108.846 172.276H106.859V174.276H108.846V172.276ZM104.872 172.276H102.886V174.276H104.872V172.276ZM100.899 172.276H98.9121V174.276H100.899V172.276ZM96.9254 172.276H94.9387V174.276H96.9254V172.276ZM92.9519 172.276H90.9652V174.276H92.9519V172.276ZM88.9785 172.276H86.9918V174.276H88.9785V172.276ZM85.005 172.276H84.0117V174.276H85.005V172.276ZM83.9806 172.276L83.9725 172.277L84.0347 174.276L84.0428 174.276L83.9806 172.276ZM83.9562 172.277L83.9481 172.277L84.0102 174.277L84.0184 174.276L83.9562 172.277ZM83.9169 172.279C83.7216 172.291 83.5351 172.341 83.3656 172.421L84.2188 174.229C84.1639 174.255 84.1036 174.271 84.0414 174.275L83.9169 172.279ZM82.6029 173.233C82.534 173.407 82.4966 173.596 82.4966 173.791H84.4966C84.4966 173.852 84.4847 173.913 84.4623 173.97L82.6029 173.233ZM82.4966 173.791C82.4966 173.995 82.5373 174.191 82.612 174.371L84.4594 173.605C84.4837 173.664 84.4966 173.727 84.4966 173.791H82.4966ZM83.4315 175.191C83.6116 175.265 83.8081 175.306 84.0117 175.306V173.306C84.0756 173.306 84.139 173.319 84.1975 173.343L83.4315 175.191ZM84.0117 175.306H85.0051V173.306H84.0117V175.306ZM86.9918 175.306H88.9785V173.306H86.9918V175.306ZM90.9653 175.306H92.952V173.306H90.9653V175.306ZM94.9387 175.306H96.9254V173.306H94.9387V175.306ZM98.9121 175.306H100.899V173.306H98.9121V175.306ZM102.886 175.306H104.872V173.306H102.886V175.306ZM106.859 175.306H108.846V173.306H106.859V175.306ZM110.832 175.306H112.819V173.306H110.832V175.306ZM114.806 175.306H116.793V173.306H114.806V175.306ZM118.779 175.306H120.766V173.306H118.779V175.306ZM122.753 175.306H124.74V173.306H122.753V175.306ZM126.726 175.306H128.713V173.306H126.726V175.306ZM130.7 175.306H132.686V173.306H130.7V175.306ZM134.673 175.306H136.66V173.306H134.673V175.306ZM138.647 175.306H140.633V173.306H138.647V175.306ZM142.62 175.306H144.607V173.306H142.62V175.306ZM146.594 175.306H148.58V173.306H146.594V175.306ZM150.567 175.306H152.554V173.306H150.567V175.306ZM154.54 175.306H156.527V173.306H154.54V175.306ZM158.514 175.306H160.501V173.306H158.514V175.306ZM162.487 175.306H164.474V173.306H162.487V175.306ZM166.461 175.306H168.448V173.306H166.461V175.306ZM170.434 175.306H172.421V173.306H170.434V175.306ZM174.408 175.306H176.394V173.306H174.408V175.306ZM178.381 175.306H180.368V173.306H178.381V175.306ZM182.355 175.306H184.341V173.306H182.355V175.306ZM186.328 175.306H188.315V173.306H186.328V175.306ZM190.301 175.306H192.288V173.306H190.301V175.306ZM194.275 175.306H196.262V173.306H194.275V175.306ZM198.248 175.306H200.235V173.306H198.248V175.306ZM202.222 175.306H204.209V173.306H202.222V175.306ZM206.195 175.306H208.182V173.306H206.195V175.306ZM210.169 175.306H212.155V173.306H210.169V175.306ZM214.142 175.306H216.129V173.306H214.142V175.306ZM218.116 175.306H220.102V173.306H218.116V175.306ZM222.089 175.306H224.076V173.306H222.089V175.306ZM226.063 175.306H228.049V173.306H226.063V175.306ZM230.036 175.306H232.023V173.306H230.036V175.306ZM234.009 175.306H235.996V173.306H234.009V175.306ZM237.983 175.306H239.97V173.306H237.983V175.306ZM241.956 175.306H242.95V173.306H241.956V175.306ZM242.981 175.306L242.989 175.305L242.927 173.306L242.919 173.307L242.981 175.306ZM243.005 175.305L243.013 175.305L242.951 173.306L242.943 173.306L243.005 175.305ZM243.044 175.303C243.24 175.291 243.426 175.242 243.596 175.162L242.743 173.353C242.797 173.327 242.858 173.311 242.92 173.307L243.044 175.303ZM244.358 174.349C244.427 174.175 244.465 173.986 244.465 173.791H242.465C242.465 173.73 242.477 173.669 242.499 173.612L244.358 174.349ZM244.465 173.791C244.465 173.587 244.424 173.391 244.349 173.211L242.502 173.977C242.478 173.918 242.465 173.855 242.465 173.791H244.465ZM243.53 172.391C243.35 172.317 243.153 172.276 242.95 172.276V174.276C242.886 174.276 242.822 174.263 242.764 174.239L243.53 172.391Z" fill="#E8E8E8" mask="url(#path-19-inside-2_5_4977)"/>
<path fill-rule="evenodd" clip-rule="evenodd" d="M96.6499 96.143C96.6499 98.0952 95.0672 99.6777 93.1148 99.6777C91.1626 99.6777 89.58 98.0952 89.58 96.143C89.58 94.1909 91.1626 92.6084 93.1148 92.6084C95.0672 92.6084 96.6499 94.1909 96.6499 96.143Z" fill="#E6E6E6"/>
<path fill-rule="evenodd" clip-rule="evenodd" d="M109.851 96.143C109.851 98.0952 108.269 99.6777 106.316 99.6777C104.364 99.6777 102.781 98.0952 102.781 96.143C102.781 94.1909 104.364 92.6084 106.316 92.6084C108.269 92.6084 109.851 94.1909 109.851 96.143Z" fill="#E6E6E6"/>
<path fill-rule="evenodd" clip-rule="evenodd" d="M123.053 96.143C123.053 98.0952 121.47 99.6777 119.518 99.6777C117.566 99.6777 115.983 98.0952 115.983 96.143C115.983 94.1909 117.566 92.6084 119.518 92.6084C121.47 92.6084 123.053 94.1909 123.053 96.143Z" fill="#E6E6E6"/>
<g clip-path="url(#clip1_5_4977)">
<path d="M216.8 129H230L197 185.948L164 129H189.245L197 142.205L204.59 129H216.8Z" fill="#41B883"/>
<path d="M164 129L197 185.948L230 129H216.8L197 163.169L177.035 129H164Z" fill="#41B883"/>
<path d="M177.035 129L197 163.334L216.8 129H204.59L197 142.205L189.245 129H177.035Z" fill="#35495E"/>
</g>
<path d="M83.5 205V91C83.5 89.067 85.067 87.5 87 87.5H240C241.933 87.5 243.5 89.067 243.5 91V205C243.5 206.933 241.933 208.5 240 208.5H87C85.067 208.5 83.5 206.933 83.5 205Z" stroke="#E6E6E6"/>
</g>
<g filter="url(#filter1_b_5_4977)">
<path fill-rule="evenodd" clip-rule="evenodd" d="M173 164.407H39V152.42C39 150.531 40.5415 149 42.4428 149H169.557C171.459 149 173 150.531 173 152.42V164.407Z" fill="#EBEBEB" fill-opacity="0.58"/>
<path fill-rule="evenodd" clip-rule="evenodd" d="M42.4428 250C40.5415 250 39 248.469 39 246.58V164.407H173V246.58C173 248.469 171.459 250 169.557 250H42.4428Z" fill="#F3F3F3" fill-opacity="0.2"/>
<path d="M39.5 246.58V164.907H172.5V246.58C172.5 248.19 171.186 249.5 169.557 249.5H42.4428C40.8145 249.5 39.5 248.19 39.5 246.58ZM172.5 152.42V163.907H39.5V152.42C39.5 150.811 40.8145 149.5 42.4428 149.5H169.557C171.186 149.5 172.5 150.811 172.5 152.42Z" stroke="#E6E6E6"/>
<path d="M172.126 192.159L172.126 192.16V192.231V192.366L172.132 192.585L172.146 192.585L172.139 192.367L172.126 192.159M172.126 192.159L172.126 192.159M172.126 192.159L172.126 192.159V192.158V192.157L172.126 192.157M172.126 192.159L172.126 192.159M172.126 192.159L172.126 192.159M172.126 192.159L172.127 192.159M172.127 192.157L172.132 192.144L172.133 192.156L172.129 192.158L172.127 192.157ZM172.127 192.157L172.126 192.157M172.127 192.157L172.127 192.158M172.126 192.157L172.126 192.148V192.156L172.126 192.157M172.126 192.157V192.157M172.126 192.157L172.126 192.157M172.126 192.157L172.126 192.157M172.126 192.159L172.126 192.158L172.126 192.157M172.126 192.159L172.127 192.158M172.127 192.159L172.133 192.172L172.133 192.16L172.129 192.158L172.127 192.159ZM172.127 192.159L172.127 192.158M172.127 192.158L172.126 192.157M39.8414 192.157L39.842 192.155V192.085V191.95L39.8352 191.731L39.8216 191.731L39.8284 191.949L39.8413 192.157M39.8414 192.157L39.8413 192.157M39.8414 192.157L39.842 192.157V192.158V192.159L39.8414 192.159M39.8414 192.157L39.8413 192.157M39.8413 192.157L39.8413 192.157M39.8413 192.157L39.8405 192.157M39.8386 192.158L39.8348 192.156L39.8344 192.144L39.8405 192.157M39.8386 192.158L39.8386 192.158L39.8349 192.16L39.8353 192.172L39.8406 192.159M39.8386 192.158L39.8405 192.157M39.8386 192.158L39.8386 192.158L39.8406 192.159M39.8406 192.159L39.8414 192.159M39.8406 192.159L39.8409 192.158M39.8414 192.159L39.842 192.168V192.16L39.8414 192.159M39.8414 192.159L39.8414 192.159M39.8414 192.159L39.8414 192.159M39.8414 192.159L39.8414 192.159M39.8413 192.157L39.8413 192.158L39.8414 192.159M39.8413 192.157L39.8409 192.158L39.8409 192.158M39.8405 192.157L39.8409 192.158L39.8409 192.158M39.8409 192.158L39.8414 192.159M172.308 192.545L172.141 192.187L172.14 192.162L172.524 192.315C172.484 192.416 172.406 192.499 172.308 192.545ZM172.522 191.994L172.139 192.154L172.139 192.129L172.29 191.763C172.394 191.806 172.478 191.89 172.522 191.994ZM171.124 192.231H171.124V192.585H169.119V192.085H169.119V191.731H171.124V192.231ZM167.115 192.231V192.585H165.111V192.085H165.111V191.731H167.115V192.231H167.115ZM163.106 192.231V192.585H161.102V192.085H161.102V191.731H163.106V192.231H163.106ZM159.098 192.231V192.585H157.094V192.085H157.093V191.731H159.098V192.231H159.098ZM155.089 192.231V192.585H153.085V192.085H153.085V191.731H155.089V192.231H155.089ZM151.081 192.231V192.585H149.076V192.085H149.076V191.731H151.081V192.231H151.081ZM147.072 192.231V192.585H145.068V192.085H145.068V191.731H147.072V192.231H147.072ZM143.063 192.231V192.585H141.059V192.085H141.059V191.731H143.063V192.231H143.063ZM139.055 192.231V192.585H137.051V192.085L137.05 191.731H139.055V192.231H139.055ZM135.046 192.231L135.046 192.585H133.042V192.085L133.042 191.731H135.046V192.231ZM131.038 192.231L131.038 192.585H129.033V192.085L129.033 191.731H131.038V192.231ZM127.029 192.231L127.029 192.585H125.025V192.085L125.025 191.731H127.029V192.231ZM123.02 192.231L123.02 192.585H121.016V192.085L121.016 191.731H123.02V192.231ZM119.012 192.231L119.012 192.585H117.007V192.085L117.007 191.731H119.012V192.231ZM115.003 192.231L115.003 192.585H112.999L112.999 192.231L112.999 192.085L112.999 191.731H115.003L115.003 192.085L115.003 192.231ZM110.995 192.231L110.995 192.585H108.99V192.231V192.085V191.731H110.995L110.995 192.085L110.995 192.231ZM106.986 192.231L106.986 192.585H104.982L104.982 192.231L104.982 192.085L104.982 191.731H106.986L106.986 192.085L106.986 192.231ZM102.977 192.231L102.977 192.585H100.973V192.085L100.973 191.731H102.977L102.977 192.085L102.977 192.231ZM98.9688 192.231L98.9688 192.585H96.9645V192.085L96.9645 191.731H98.9688V192.231ZM94.9602 192.231L94.9602 192.585H92.9559V192.085H92.9559V191.731H94.9602V192.231ZM90.9516 192.231L90.9516 192.585H88.9473V192.085H88.9473V191.731H90.9516V192.231ZM86.943 192.231V192.585H84.9387V192.085H84.9387V191.731H86.943V192.231H86.943ZM82.9344 192.231V192.585H80.9301V192.085H80.93V191.731H82.9343V192.231H82.9344ZM78.9258 192.231V192.585H76.9215V192.085H76.9214V191.731H78.9257V192.231H78.9258ZM74.9172 192.231V192.585H72.9129V192.085H72.9128V191.731H74.9171V192.231H74.9172ZM70.9086 192.231V192.585H68.9043V192.085H68.9042V191.731H70.9085V192.231H70.9086ZM66.9 192.231V192.585H64.8957V192.085H64.8956V191.731H66.8999V192.231H66.9ZM62.8914 192.231V192.585H60.8871V192.085H60.887V191.731H62.8913V192.231H62.8914ZM58.8828 192.231V192.585H56.8785V192.085H56.8784V191.731H58.8827V192.231H58.8828ZM54.8742 192.231V192.585H52.8699V192.085H52.8698V191.731H54.8741V192.231H54.8742ZM50.8656 192.231V192.585H48.8613V192.085H48.8612V191.731H50.8655V192.231H50.8656ZM46.857 192.231V192.585H44.8527V192.085H44.8526V191.731H46.8569V192.231H46.857ZM42.8484 192.231V192.585H40.8441V192.085H40.844V191.731H42.8483V192.231H42.8484ZM39.8289 192.187L39.6781 192.553C39.5733 192.51 39.4894 192.426 39.4459 192.322L39.8282 192.162L39.8289 192.187ZM39.8279 192.154L39.4433 192C39.4835 191.899 39.5613 191.817 39.6595 191.771L39.8271 192.129L39.8279 192.154Z" stroke="#E8E8E8" stroke-dasharray="2 2"/>
<path d="M83.6341 249.666L83.8488 249.721C83.8227 249.824 83.7689 249.908 83.6999 249.956L83.5675 249.767M83.6341 249.666L83.6566 249.632L83.5841 249.654M83.6341 249.666L83.5841 249.654M83.6341 249.666L83.5675 249.767M83.5841 249.654L83.5669 249.649L83.468 249.624L83.5048 249.677M83.5841 249.654L83.5669 249.659L83.5048 249.677M83.5048 249.677L83.2903 249.74C83.3187 249.837 83.3722 249.915 83.4394 249.96L83.5669 249.768L83.5675 249.767M83.5048 249.677L83.5669 249.766L83.5675 249.767M83.8656 165.698L83.8659 165.712L83.7679 165.714C83.7682 165.707 83.7691 165.703 83.7696 165.701L83.8656 165.698ZM83.5673 165.705L83.7694 165.701C83.7684 165.703 83.7664 165.706 83.7628 165.711C83.7622 165.712 83.7615 165.713 83.7607 165.714L83.5669 165.718L83.5658 165.718H83.4424L83.4477 165.71L83.5669 165.705L83.5673 165.705ZM83.7678 166.717V166.717H83.866V168.713H83.366L83.2678 168.713V166.717H83.7678ZM83.366 170.71H83.866V172.707L83.7678 172.707H83.2678V170.71L83.366 170.71ZM83.366 174.704H83.866V176.7H83.7678V176.7H83.2678V174.704L83.366 174.704ZM83.366 178.697H83.866V180.694H83.7678V180.694H83.2678V178.697H83.366V178.697ZM83.366 182.69H83.866V184.687H83.7678V184.687H83.2678V182.69H83.366V182.69ZM83.366 186.684H83.866V188.68L83.7678 188.68H83.2678V186.684H83.366V186.684ZM83.366 190.677H83.866V192.674L83.7678 192.674H83.2678V190.677L83.366 190.677ZM83.366 194.671H83.866V196.667L83.7678 196.667L83.366 196.667L83.2678 196.667V194.671L83.366 194.671ZM83.7678 198.664L83.866 198.664V200.661L83.7678 200.661H83.2678V198.664L83.366 198.664L83.7678 198.664ZM83.7678 202.657H83.866V204.654L83.7678 204.654L83.366 204.654L83.2678 204.654V202.657H83.366H83.7678ZM83.366 206.651H83.866V208.647L83.7678 208.647L83.366 208.647L83.2678 208.647V206.651L83.366 206.651ZM83.7678 210.644L83.866 210.644V212.641H83.7678H83.366H83.2678V210.644L83.366 210.644L83.7678 210.644ZM83.366 214.638H83.866V216.634L83.7678 216.634L83.366 216.634L83.2678 216.634V214.638L83.366 214.638ZM83.7678 218.631L83.866 218.631V220.628L83.7678 220.628H83.2678V218.631L83.366 218.631L83.7678 218.631ZM83.366 222.624H83.866V224.621L83.7678 224.621H83.2678V222.624L83.366 222.624ZM83.366 226.618H83.866V228.614L83.7678 228.614H83.2678V226.618L83.366 226.618ZM83.366 230.611H83.866V232.608L83.7678 232.608H83.2678V230.611L83.366 230.611ZM83.366 234.605H83.866V236.601L83.7678 236.601L83.366 236.601L83.2678 236.601V234.605L83.366 234.605ZM83.7678 238.598L83.866 238.598V240.595L83.7678 240.595L83.366 240.595L83.2678 240.595V238.598L83.366 238.598L83.7678 238.598ZM83.7678 242.591H83.866V244.588H83.7678H83.366H83.2678V242.591H83.366H83.7678ZM83.7678 246.585L83.866 246.585V248.581L83.7678 248.581L83.366 248.581L83.2678 248.581V246.585L83.366 246.585L83.7678 246.585ZM83.2683 249.6L83.268 249.586L83.3659 249.584C83.3657 249.59 83.3649 249.595 83.3642 249.598L83.2683 249.6ZM83.5665 249.593L83.4481 249.596L83.439 249.583L83.5669 249.58H83.568H83.6915L83.6861 249.588L83.5669 249.593L83.5665 249.593ZM83.5669 165.531L83.6944 165.338C83.7616 165.383 83.8151 165.461 83.8436 165.558L83.5669 165.64L83.4772 165.666L83.5669 165.531Z" stroke="#E8E8E8" stroke-dasharray="2 2"/>
<path d="M127.902 249.666L128.117 249.721C128.091 249.824 128.037 249.908 127.968 249.956L127.835 249.767M127.902 249.666L127.925 249.632L127.852 249.654M127.902 249.666L127.852 249.654M127.902 249.666L127.835 249.767M127.852 249.654L127.835 249.649L127.736 249.624L127.773 249.677M127.852 249.654L127.835 249.659L127.773 249.677M127.773 249.677L127.558 249.74C127.587 249.837 127.64 249.915 127.707 249.96L127.835 249.768L127.835 249.767M127.773 249.677L127.835 249.766L127.835 249.767M128.134 165.698L128.134 165.712L128.036 165.714C128.036 165.707 128.037 165.703 128.038 165.701L128.134 165.698ZM127.835 165.705L128.037 165.701C128.036 165.703 128.034 165.706 128.031 165.711C128.03 165.712 128.029 165.713 128.029 165.714L127.835 165.718L127.834 165.718H127.71L127.716 165.71L127.835 165.705L127.835 165.705ZM128.036 166.717V166.717H128.134V168.713H127.634L127.536 168.713V166.717H128.036ZM127.634 170.71H128.134V172.707L128.036 172.707H127.536V170.71L127.634 170.71ZM127.634 174.704H128.134V176.7H128.036V176.7H127.536V174.704L127.634 174.704ZM127.634 178.697H128.134V180.694H128.036V180.694H127.536V178.697H127.634V178.697ZM127.634 182.69H128.134V184.687H128.036V184.687H127.536V182.69H127.634V182.69ZM127.634 186.684H128.134V188.68L128.036 188.68H127.536V186.684H127.634V186.684ZM127.634 190.677H128.134V192.674L128.036 192.674H127.536V190.677L127.634 190.677ZM127.634 194.671H128.134V196.667L128.036 196.667L127.634 196.667L127.536 196.667V194.671L127.634 194.671ZM128.036 198.664L128.134 198.664V200.661L128.036 200.661H127.536V198.664L127.634 198.664L128.036 198.664ZM128.036 202.657H128.134V204.654L128.036 204.654L127.634 204.654L127.536 204.654V202.657H127.634H128.036ZM127.634 206.651H128.134V208.647L128.036 208.647L127.634 208.647L127.536 208.647V206.651L127.634 206.651ZM128.036 210.644L128.134 210.644V212.641H128.036H127.634H127.536V210.644L127.634 210.644L128.036 210.644ZM127.634 214.638H128.134V216.634L128.036 216.634L127.634 216.634L127.536 216.634V214.638L127.634 214.638ZM128.036 218.631L128.134 218.631V220.628L128.036 220.628H127.536V218.631L127.634 218.631L128.036 218.631ZM127.634 222.624H128.134V224.621L128.036 224.621H127.536V222.624L127.634 222.624ZM127.634 226.618H128.134V228.614L128.036 228.614H127.536V226.618L127.634 226.618ZM127.634 230.611H128.134V232.608L128.036 232.608H127.536V230.611L127.634 230.611ZM127.634 234.605H128.134V236.601L128.036 236.601L127.634 236.601L127.536 236.601V234.605L127.634 234.605ZM128.036 238.598L128.134 238.598V240.595L128.036 240.595L127.634 240.595L127.536 240.595V238.598L127.634 238.598L128.036 238.598ZM128.036 242.591H128.134V244.588H128.036H127.634H127.536V242.591H127.634H128.036ZM128.036 246.585L128.134 246.585V248.581L128.036 248.581L127.634 248.581L127.536 248.581V246.585L127.634 246.585L128.036 246.585ZM127.536 249.6L127.536 249.586L127.634 249.584C127.634 249.59 127.633 249.595 127.632 249.598L127.536 249.6ZM127.834 249.593L127.716 249.596L127.707 249.583L127.835 249.58H127.836H127.959L127.954 249.588L127.835 249.593L127.834 249.593ZM127.835 165.531L127.962 165.338C128.03 165.383 128.083 165.461 128.112 165.558L127.835 165.64L127.745 165.666L127.835 165.531Z" stroke="#E8E8E8" stroke-dasharray="2 2"/>
<path d="M172.126 220.804L172.126 220.805V220.875V221.01L172.132 221.229L172.146 221.229L172.139 221.011L172.126 220.804M172.126 220.804L172.126 220.804M172.126 220.804L172.126 220.804V220.802V220.801L172.126 220.801M172.126 220.804L172.126 220.803M172.126 220.804L172.126 220.803M172.126 220.804L172.127 220.803M172.127 220.802L172.132 220.789L172.133 220.801L172.129 220.802L172.127 220.802ZM172.127 220.802L172.126 220.801M172.127 220.802L172.127 220.802M172.126 220.801L172.126 220.792V220.8L172.126 220.801M172.126 220.801V220.801M172.126 220.801L172.126 220.801M172.126 220.801L172.126 220.801M172.126 220.803L172.126 220.802L172.126 220.801M172.126 220.803L172.127 220.802M172.127 220.803L172.133 220.816L172.133 220.804L172.129 220.802L172.127 220.803ZM172.127 220.803L172.127 220.802M172.127 220.802L172.126 220.801M39.8414 220.801L39.842 220.8V220.73V220.594L39.8352 220.375L39.8216 220.376L39.8284 220.594L39.8413 220.801M39.8414 220.801L39.8413 220.801M39.8414 220.801L39.842 220.801V220.802V220.804L39.8414 220.804M39.8414 220.801L39.8413 220.801M39.8413 220.801L39.8413 220.801M39.8413 220.801L39.8405 220.802M39.8386 220.802L39.8348 220.801L39.8344 220.789L39.8405 220.802M39.8386 220.802L39.8386 220.802L39.8349 220.804L39.8353 220.816L39.8406 220.803M39.8386 220.802L39.8405 220.802M39.8386 220.802L39.8386 220.802L39.8406 220.803M39.8406 220.803L39.8414 220.803M39.8406 220.803L39.8409 220.802M39.8414 220.803L39.842 220.812V220.805L39.8414 220.804M39.8414 220.803L39.8414 220.803M39.8414 220.803L39.8414 220.804M39.8414 220.804L39.8414 220.803M39.8413 220.801L39.8413 220.802L39.8414 220.803M39.8413 220.801L39.8409 220.802M39.8405 220.802L39.8409 220.802M39.8409 220.802L39.8409 220.802M39.8409 220.802L39.8409 220.802M39.8409 220.802L39.8414 220.803M172.308 221.189L172.141 220.832L172.14 220.807L172.524 220.96C172.484 221.061 172.406 221.143 172.308 221.189ZM172.522 220.639L172.139 220.798L172.139 220.773L172.29 220.408C172.394 220.451 172.478 220.534 172.522 220.639ZM171.124 220.875H171.124V221.23H169.119V220.73H169.119V220.375H171.124V220.875ZM167.115 220.875V221.23H165.111V220.73H165.111V220.375H167.115V220.875H167.115ZM163.106 220.875V221.23H161.102V220.73H161.102V220.375H163.106V220.875H163.106ZM159.098 220.875V221.23H157.094V220.73H157.093V220.375H159.098V220.875H159.098ZM155.089 220.875V221.23H153.085V220.73H153.085V220.375H155.089V220.875H155.089ZM151.081 220.875V221.23H149.076V220.73H149.076V220.375H151.081V220.875H151.081ZM147.072 220.875V221.23H145.068V220.73H145.068V220.375H147.072V220.875H147.072ZM143.063 220.875V221.23H141.059V220.73H141.059V220.375H143.063V220.875H143.063ZM139.055 220.875V221.23H137.051V220.73L137.05 220.375H139.055V220.875H139.055ZM135.046 220.875L135.046 221.23H133.042V220.73L133.042 220.375H135.046V220.875ZM131.038 220.875L131.038 221.23H129.033V220.73L129.033 220.375H131.038V220.875ZM127.029 220.875L127.029 221.23H125.025V220.73L125.025 220.375H127.029V220.875ZM123.02 220.875L123.02 221.23H121.016V220.73L121.016 220.375H123.02V220.875ZM119.012 220.875L119.012 221.23H117.007V220.73L117.007 220.375H119.012V220.875ZM115.003 220.875L115.003 221.23H112.999L112.999 220.875L112.999 220.73L112.999 220.375H115.003L115.003 220.73L115.003 220.875ZM110.995 220.875L110.995 221.23H108.99V220.875V220.73V220.375H110.995L110.995 220.73L110.995 220.875ZM106.986 220.875L106.986 221.23H104.982L104.982 220.875L104.982 220.73L104.982 220.375H106.986L106.986 220.73L106.986 220.875ZM102.977 220.875L102.977 221.23H100.973V220.73L100.973 220.375H102.977L102.977 220.73L102.977 220.875ZM98.9688 220.875L98.9688 221.23H96.9645V220.73L96.9645 220.375H98.9688V220.875ZM94.9602 220.875L94.9602 221.23H92.9559V220.73H92.9559V220.375H94.9602V220.875ZM90.9516 220.875L90.9516 221.23H88.9473V220.73H88.9473V220.375H90.9516V220.875ZM86.943 220.875V221.23H84.9387V220.73H84.9387V220.375H86.943V220.875H86.943ZM82.9344 220.875V221.23H80.9301V220.73H80.93V220.375H82.9343V220.875H82.9344ZM78.9258 220.875V221.23H76.9215V220.73H76.9214V220.375H78.9257V220.875H78.9258ZM74.9172 220.875V221.23H72.9129V220.73H72.9128V220.375H74.9171V220.875H74.9172ZM70.9086 220.875V221.23H68.9043V220.73H68.9042V220.375H70.9085V220.875H70.9086ZM66.9 220.875V221.23H64.8957V220.73H64.8956V220.375H66.8999V220.875H66.9ZM62.8914 220.875V221.23H60.8871V220.73H60.887V220.375H62.8913V220.875H62.8914ZM58.8828 220.875V221.23H56.8785V220.73H56.8784V220.375H58.8827V220.875H58.8828ZM54.8742 220.875V221.23H52.8699V220.73H52.8698V220.375H54.8741V220.875H54.8742ZM50.8656 220.875V221.23H48.8613V220.73H48.8612V220.375H50.8655V220.875H50.8656ZM46.857 220.875V221.23H44.8527V220.73H44.8526V220.375H46.8569V220.875H46.857ZM42.8484 220.875V221.23H40.8441V220.73H40.844V220.375H42.8483V220.875H42.8484ZM39.8289 220.831L39.6781 221.197C39.5733 221.154 39.4894 221.071 39.4459 220.966L39.8282 220.807L39.8289 220.831ZM39.8279 220.798L39.4433 220.645C39.4835 220.544 39.5613 220.462 39.6595 220.416L39.8271 220.773L39.8279 220.798Z" stroke="#E8E8E8" stroke-dasharray="2 2"/>
<path fill-rule="evenodd" clip-rule="evenodd" d="M50.3608 156.411C50.3608 158.03 49.0435 159.342 47.4185 159.342C45.7937 159.342 44.4764 158.03 44.4764 156.411C44.4764 154.792 45.7937 153.48 47.4185 153.48C49.0435 153.48 50.3608 154.792 50.3608 156.411Z" fill="#E6E6E6"/>
<path fill-rule="evenodd" clip-rule="evenodd" d="M61.3484 156.411C61.3484 158.03 60.0312 159.342 58.4062 159.342C56.7814 159.342 55.4641 158.03 55.4641 156.411C55.4641 154.792 56.7814 153.48 58.4062 153.48C60.0312 153.48 61.3484 154.792 61.3484 156.411Z" fill="#E6E6E6"/>
<path fill-rule="evenodd" clip-rule="evenodd" d="M72.3361 156.411C72.3361 158.03 71.0188 159.342 69.3939 159.342C67.769 159.342 66.4518 158.03 66.4518 156.411C66.4518 154.792 67.769 153.48 69.3939 153.48C71.0188 153.48 72.3361 154.792 72.3361 156.411Z" fill="#E6E6E6"/>
<g clip-path="url(#clip2_5_4977)">
<path d="M128.5 191C121.7 191 117.45 194.546 115.75 201.639C118.3 198.093 121.275 196.763 124.675 197.649C126.615 198.155 128.001 199.623 129.536 201.248C132.036 203.895 134.93 206.958 141.25 206.958C148.05 206.958 152.3 203.412 154 196.319C151.45 199.866 148.475 201.196 145.075 200.309C143.135 199.803 141.749 198.335 140.214 196.711C137.714 194.063 134.82 191 128.5 191ZM115.75 206.958C108.95 206.958 104.7 210.505 103 217.597C105.55 214.051 108.525 212.721 111.925 213.608C113.865 214.114 115.251 215.582 116.786 217.206C119.286 219.853 122.18 222.917 128.5 222.917C135.3 222.917 139.55 219.37 141.25 212.278C138.7 215.824 135.725 217.154 132.325 216.268C130.385 215.762 128.999 214.294 127.464 212.669C124.964 210.022 122.07 206.958 115.75 206.958Z" fill="url(#paint0_linear_5_4977)"/>
</g>
<path d="M39.5 247V152C39.5 150.619 40.6193 149.5 42 149.5H170C171.381 149.5 172.5 150.619 172.5 152V247C172.5 248.381 171.381 249.5 170 249.5H42C40.6193 249.5 39.5 248.381 39.5 247Z" stroke="#E6E6E6"/>
</g>
<defs>
<filter id="filter0_b_5_4977" x="79" y="82" width="169" height="131" filterUnits="userSpaceOnUse" color-interpolation-filters="sRGB">
<feFlood flood-opacity="0" result="BackgroundImageFix"/>
<feGaussianBlur in="BackgroundImageFix" stdDeviation="2"/>
<feComposite in2="SourceAlpha" operator="in" result="effect1_backgroundBlur_5_4977"/>
<feBlend mode="normal" in="SourceGraphic" in2="effect1_backgroundBlur_5_4977" result="shape"/>
</filter>
<filter id="filter1_b_5_4977" x="35" y="144" width="142" height="110" filterUnits="userSpaceOnUse" color-interpolation-filters="sRGB">
<feFlood flood-opacity="0" result="BackgroundImageFix"/>
<feGaussianBlur in="BackgroundImageFix" stdDeviation="2"/>
<feComposite in2="SourceAlpha" operator="in" result="effect1_backgroundBlur_5_4977"/>
<feBlend mode="normal" in="SourceGraphic" in2="effect1_backgroundBlur_5_4977" result="shape"/>
</filter>
<linearGradient id="paint0_linear_5_4977" x1="116.742" y1="191" x2="139.821" y2="223.042" gradientUnits="userSpaceOnUse">
<stop stop-color="#32B1C1"/>
<stop offset="1" stop-color="#14C6B7"/>
</linearGradient>
<clipPath id="clip0_5_4977">
<rect width="85" height="75" fill="white" transform="translate(247 80)"/>
</clipPath>
<clipPath id="clip1_5_4977">
<rect width="66" height="57" fill="white" transform="translate(164 129)"/>
</clipPath>
<clipPath id="clip2_5_4977">
<rect width="51" height="32" fill="white" transform="translate(103 191)"/>
</clipPath>
</defs>
</svg>
