<svg width="571" height="428" viewBox="0 0 571 428" fill="none" xmlns="http://www.w3.org/2000/svg">
<g clip-path="url(#clip0_6_141412)">
<path d="M0 427L71.3784 426.5L142.757 426.34L285.5 426L428.257 426.34L499.622 426.5L571 427L499.622 427.48L428.257 427.66L285.5 428L142.757 427.66L71.3784 427.48L0 427Z" fill="#333333"/>
<path d="M57.7192 427.117H183.39L158.342 280.887H64.3534L57.7192 427.117Z" fill="#D5D5D5"/>
<path d="M57.7192 427.117H68.7401L74.9275 280.887H64.3534L57.7192 427.117Z" fill="#C7C7C7"/>
<path d="M156.366 303.678C172.085 336.372 209.371 390.389 224.982 376.304C248.337 355.251 263.23 309.75 269.133 291.332C272.437 281.022 220.135 265.403 217.211 274.761C213.068 288.058 206.758 315.78 202.764 319.801C200.652 321.906 183.024 298.476 169.851 287.501C150.801 271.678 151.302 293.247 156.366 303.678Z" fill="#F2B2AA"/>
<path d="M280.181 269.138C277.947 280.33 264.462 301.41 259.263 305.24C254.064 309.07 217.454 288.33 216.655 281.729C215.856 275.128 226.376 237.015 235.258 229.504C244.14 221.993 282.483 257.552 280.181 269.138Z" fill="#F2B2AA"/>
<path d="M217.427 274.055C217.427 274.055 214.922 259.385 208.545 248.03C203.13 238.441 194.153 224.818 199.176 221.734C209.507 215.405 232.036 249.402 232.036 249.402C232.036 249.402 239.563 266 229.896 273.172C228.101 274.457 225.986 275.22 223.786 275.376C221.585 275.532 219.385 275.075 217.427 274.055Z" fill="#F2B2AA"/>
<path d="M223.899 243.793C225.943 249.484 231.454 243.793 231.454 243.793C231.454 243.793 225.483 253.871 229.856 258.91C234.229 263.949 240.484 256.669 240.958 256.193C240.647 256.737 235.407 266.149 240.308 270.754C245.426 275.549 250.639 267.318 250.977 266.788C250.842 267.386 249.19 275.331 253.685 277.994C261.456 282.544 266.249 262.346 272.64 258.774C272.64 258.774 279.91 268.907 280.181 269.151C280.181 269.151 285.123 250.027 279.843 241.687C279.102 240.451 277.962 239.507 276.612 239.013C275.261 238.519 273.783 238.504 272.423 238.971C272.423 238.971 274.698 232.981 270.947 229.218C269.011 227.303 264.178 228.689 264.178 228.689C264.178 228.689 265.789 223.813 262.255 220.689C259.426 218.176 255.066 219.955 255.066 219.955C255.066 219.955 254.457 214.522 250.747 212.933C243.327 209.687 219.526 231.623 223.899 243.793Z" fill="#F2B2AA"/>
<path d="M254.389 220.172C254.409 220.162 254.423 220.143 254.43 220.122C254.436 220.1 254.433 220.077 254.423 220.057C254.412 220.037 254.394 220.023 254.372 220.016C254.35 220.01 254.327 220.012 254.308 220.023C244.722 225.32 235.813 234.095 231.115 244.078C230.966 244.404 231.426 244.798 231.67 244.472C238.026 235.307 245.679 227.121 254.389 220.172Z" fill="#333333"/>
<path d="M264.3 228.567C264.408 228.567 264.3 228.322 264.151 228.39C254.308 233.905 244.546 244.051 240.498 256.207C240.349 256.615 240.647 257.131 240.836 256.669C244.153 248.791 256.027 234.937 264.3 228.567Z" fill="#333333"/>
<path d="M250.977 267.725C255.323 256.221 262.905 247.27 272.004 239.202C272.112 239.107 272.004 238.944 271.827 239.011C266.304 241.728 260.996 247.487 257.327 252.309C253.775 256.714 251.441 261.979 250.558 267.576C250.544 267.793 250.896 267.97 250.977 267.725Z" fill="#333333"/>
<path d="M231.251 243.847C231.061 244.241 231.833 244.078 231.67 244.472C230.939 246.156 227.46 256.628 230.641 258.924C233.214 260.771 237.411 258.584 238.765 257.117L242.028 253.395L240.227 258.027C239.435 260.082 238.978 262.251 238.873 264.452C238.762 265.466 238.867 266.493 239.179 267.465C239.492 268.436 240.006 269.33 240.687 270.088C241.331 270.783 242.191 271.237 243.127 271.376C244.062 271.514 245.016 271.328 245.832 270.849C247.636 269.727 249.122 268.161 250.151 266.299L253.184 261.273L251.966 266.992C251.627 268.584 251.49 270.214 251.559 271.841C251.576 273.387 252.047 274.894 252.913 276.173C253.324 276.734 253.882 277.168 254.526 277.427C255.169 277.687 255.872 277.76 256.555 277.64C258.038 277.139 259.352 276.231 260.346 275.019C262.519 272.412 264.484 269.637 266.222 266.72C267.156 265.28 268.091 263.827 269.106 262.428C270.03 260.96 271.258 259.709 272.707 258.761C271.392 259.851 270.302 261.189 269.499 262.7C268.605 264.153 267.793 265.661 266.967 267.168C265.391 270.266 263.528 273.209 261.402 275.956C260.271 277.461 258.728 278.603 256.961 279.243C255.967 279.478 254.926 279.418 253.965 279.071C253.003 278.723 252.163 278.104 251.546 277.287C250.429 275.734 249.806 273.878 249.759 271.963C249.648 270.144 249.771 268.318 250.124 266.53L251.938 267.223C250.756 269.444 249.015 271.317 246.888 272.656C245.687 273.356 244.279 273.616 242.908 273.389C241.567 273.132 240.335 272.473 239.374 271.501C238.51 270.541 237.858 269.407 237.461 268.176C237.064 266.945 236.932 265.643 237.072 264.357C237.224 261.935 237.783 259.556 238.724 257.321L240.2 258.231C238.481 260.051 234.013 263.012 229.68 260.662C224.386 256.764 230.073 245.803 231.251 243.847Z" fill="#333333"/>
<path d="M231.454 243.806C230.429 244.508 229.307 245.052 228.123 245.423C227.65 245.58 227.144 245.609 226.657 245.507C226.169 245.404 225.717 245.173 225.347 244.839C224.646 243.986 224.204 242.948 224.075 241.85C223.872 240.655 223.723 239.378 223.628 238.061C223.067 239.284 222.772 240.613 222.761 241.959C222.659 243.443 223.146 244.908 224.115 246.034C224.717 246.589 225.472 246.949 226.282 247.066C227.055 247.134 227.832 246.988 228.529 246.645C229.78 246.034 230.804 245.04 231.454 243.806Z" fill="#333333"/>
<path d="M214.042 275.848L269.065 312.018C269.065 312.018 238.711 379.931 218.795 380.298C198.878 380.664 168.7 331.373 158.126 309.913C147.552 288.452 152.994 269.966 173.614 289.172C194.235 308.378 201.667 316.337 202.304 316.011C203.563 315.468 214.042 275.848 214.042 275.848Z" fill="#333333"/>
<path d="M269.065 312.018C269.065 312.018 248.025 359.109 229.477 375.068C225.753 378.287 222.139 380.23 218.794 380.298C198.878 380.678 168.699 331.319 158.112 309.926C151.572 296.67 151.166 284.513 156.758 281.742C160.17 280.031 165.829 281.851 173.682 289.186C194.424 308.514 201.721 316.351 202.371 316.011C203.617 315.468 214.11 275.848 214.11 275.848L269.065 312.018Z" fill="#333333"/>
<path d="M256.474 318.66C255.025 317.519 253.549 316.405 252.06 315.291C249.072 313.055 246.067 310.818 243.043 308.582C237.059 304.154 230.952 299.902 224.792 295.719C221.299 293.342 217.874 290.829 214.272 288.615C214.256 288.595 214.236 288.58 214.213 288.569C214.19 288.559 214.165 288.554 214.14 288.555C214.114 288.556 214.09 288.563 214.068 288.576C214.045 288.588 214.027 288.605 214.012 288.626C213.998 288.647 213.989 288.671 213.985 288.696C213.982 288.721 213.984 288.747 213.993 288.771C214.001 288.795 214.014 288.817 214.032 288.834C214.05 288.852 214.072 288.865 214.096 288.873C216.967 291.277 220.026 293.464 223.005 295.732C225.984 298.001 228.935 300.31 231.954 302.524C237.948 306.943 244.009 311.262 250.137 315.481C251.857 316.677 253.536 317.94 255.309 319.054C256.217 319.624 257.069 320.263 258.017 320.819C258.965 321.376 259.886 321.865 260.793 322.449C260.888 322.449 260.982 322.381 260.901 322.3C259.385 321.118 257.977 319.842 256.474 318.66Z" fill="#333333"/>
<path d="M202.737 314.775C200.828 320.412 199.295 326.17 198.147 332.011C197.524 334.891 197.051 337.798 196.59 340.704C196.093 343.587 195.79 346.501 195.683 349.424C195.683 349.533 195.846 349.533 195.873 349.424C196.671 346.613 197.227 343.693 197.822 340.827C198.418 337.961 199.014 335.054 199.582 332.161C200.706 326.388 202.06 320.643 203.008 314.83C203.015 314.793 203.008 314.756 202.987 314.726C202.967 314.695 202.935 314.674 202.899 314.667C202.864 314.659 202.826 314.667 202.796 314.687C202.765 314.707 202.744 314.739 202.737 314.775Z" fill="#333333"/>
<path opacity="0.1" d="M229.477 375.068C225.753 378.287 222.139 380.23 218.794 380.298C198.878 380.678 168.699 331.319 158.112 309.926C151.572 296.67 151.166 284.513 156.758 281.742L229.477 375.068Z" fill="black"/>
<path d="M197.66 427.117H68.0902C67.5081 424.536 87.898 310.619 131.589 278.564C141.283 271.447 158.491 276.024 163.27 282.938C187.316 317.709 197.66 427.117 197.66 427.117Z" fill="#E4E4E4"/>
<path d="M128.718 279.42C128.718 279.42 140.159 329.838 141.337 334.185C142.515 338.531 146.753 427.117 146.753 427.117H66.8716C66.8716 427.117 84.8786 314.15 128.718 279.42Z" fill="#333333"/>
<path d="M163.271 282.938C163.271 282.938 168.266 321.553 168.876 323.821C169.485 326.09 185.84 427.117 185.84 427.117H198.337C198.337 427.117 187.506 310.32 163.271 282.938Z" fill="#333333"/>
<path d="M113.406 294.035C90.0238 327.027 56.176 386.111 71.8137 396.57C97.4433 413.86 167.942 418.505 184.094 418.899C191.039 419.076 200.53 372.719 195.385 367.285C190.241 361.852 116.425 364.786 115.505 360.318C114.963 357.791 123.994 334.402 128.57 306.354C133.809 274.055 119.986 284.744 113.406 294.035Z" fill="#F2B2AA"/>
<path d="M182.997 364.759C182.997 364.759 204.064 362.586 217.901 361.812C225.618 361.377 238.914 361.812 244.736 364.107C253.428 367.53 287.641 387.401 283.011 395.823C278.827 403.442 251.6 382.634 251.6 382.634C251.6 382.634 280.926 401.201 274.156 409.446C267.387 417.69 239.794 390.077 239.794 390.077C239.794 390.077 269.499 409.84 261.226 417.242C254.971 422.838 228.529 399.245 228.529 399.245C228.529 399.245 253.983 416.4 247.795 422.376C241.026 429.046 215.193 408.794 215.193 408.794C196.902 421.48 183.024 420.013 173.222 417.799C170.907 417.324 182.997 364.759 182.997 364.759Z" fill="#F2B2AA"/>
<path d="M241.865 375.557C245.385 377.608 248.973 379.632 252.304 382.036C255.634 384.44 258.884 386.872 261.971 389.547C266.09 392.939 269.802 396.8 273.032 401.052C266.737 393.934 254.957 385.296 251.627 382.933C248.296 380.569 245.101 378.043 241.77 375.679C241.662 375.625 241.784 375.503 241.865 375.557Z" fill="#333333"/>
<path d="M233.146 387.456C237.532 390.281 241.987 392.889 246.252 395.931C250.516 398.974 256.298 403.347 260.319 406.634C260.63 406.879 260.4 407.436 260.075 407.191C255.919 404.081 249.799 399.857 245.615 396.773C241.432 393.69 237.356 390.471 233.065 387.564C232.997 387.51 233.078 387.415 233.146 387.456Z" fill="#333333"/>
<path d="M223.831 396.325C230.662 400.49 237.045 405.351 242.881 410.831C243.178 411.089 242.881 411.157 242.542 410.913C236.246 405.969 231.426 402.003 223.682 396.57C223.574 396.488 223.682 396.244 223.831 396.325Z" fill="#333333"/>
<path d="M183.038 362.002L163.257 421.874C163.257 421.874 73.1675 410.369 66.4521 394.043C59.7367 377.717 86.639 328.236 108.979 297.824C130.898 267.942 132.753 288.14 128.678 310.048C124.603 331.957 116.94 357.492 118.226 359.217C119.512 360.942 183.038 362.002 183.038 362.002Z" fill="#333333"/>
<path d="M152.304 413.358C153.008 411.633 153.658 409.908 154.348 408.183C155.702 404.678 157.056 401.174 158.41 397.67C161.036 390.688 163.473 383.639 165.843 376.562C167.197 372.488 168.659 368.562 169.823 364.487C169.836 364.467 169.845 364.444 169.848 364.419C169.851 364.395 169.848 364.37 169.841 364.347C169.833 364.324 169.82 364.303 169.803 364.285C169.786 364.268 169.765 364.255 169.742 364.246C169.719 364.238 169.695 364.235 169.67 364.237C169.646 364.24 169.623 364.247 169.602 364.26C169.581 364.273 169.564 364.29 169.55 364.311C169.537 364.331 169.529 364.355 169.525 364.379C167.996 367.802 166.723 371.347 165.342 374.837C163.961 378.328 162.553 381.805 161.28 385.323C158.672 392.305 156.158 399.322 153.739 406.376C153.062 408.346 152.304 410.315 151.708 412.325C151.41 413.358 151.031 414.363 150.733 415.395C150.435 416.427 150.232 417.487 149.907 418.519C149.914 418.537 149.926 418.552 149.942 418.562C149.958 418.573 149.976 418.579 149.995 418.579C150.014 418.579 150.033 418.573 150.048 418.562C150.064 418.552 150.076 418.537 150.083 418.519C150.679 416.821 151.532 415.123 152.304 413.358Z" fill="#333333"/>
<path d="M164.828 417.758C164.381 419.117 163.961 420.57 163.474 421.969V422.146H163.271C154.754 421.48 146.265 420.475 137.817 419.212C129.369 417.949 120.961 416.414 112.607 414.553C104.225 412.755 95.9597 410.446 87.8575 407.639C83.7922 406.229 79.8369 404.517 76.0243 402.519C74.1297 401.491 72.3188 400.314 70.6086 399.001C68.8611 397.722 67.4639 396.022 66.5469 394.057C67.684 395.847 69.2235 397.345 71.0419 398.43C72.7769 399.546 74.5968 400.522 76.4846 401.351C80.3738 403.017 84.3566 404.455 88.4126 405.656C96.5361 408.101 104.795 410.098 113.094 411.904C121.394 413.711 129.734 415.381 138.101 416.971C146.468 418.56 154.836 420.122 163.23 421.629L162.973 421.779C163.609 420.434 164.232 419.103 164.828 417.758Z" fill="#333333"/>
<path d="M182.266 364.338L182.902 361.948L183.038 362.138C174.129 362.491 165.22 362.695 156.311 362.654C147.403 362.613 138.494 362.45 129.585 361.975C127.351 361.839 125.117 361.689 122.816 361.472C121.692 361.35 120.582 361.241 119.404 361.024C119.106 361.024 118.808 360.915 118.469 360.82L117.914 360.63C117.763 360.566 117.618 360.489 117.481 360.399C117.335 360.289 117.207 360.156 117.102 360.005C117.039 359.913 116.98 359.818 116.926 359.72C116.918 359.67 116.918 359.62 116.926 359.571C116.839 359.122 116.839 358.661 116.926 358.212C116.926 357.913 116.926 357.588 117.021 357.316C117.752 352.766 118.781 348.46 119.85 344.1C121.976 335.407 124.4 326.809 127.026 318.293C125.402 327.081 123.641 335.842 121.881 344.589C121.069 348.949 120.094 353.35 119.539 357.642C119.539 357.913 119.539 358.158 119.471 358.416C119.404 358.674 119.471 358.973 119.471 358.756C119.446 358.678 119.41 358.605 119.363 358.538C119.363 358.416 119.092 358.28 119.133 358.294C119.025 358.294 119.174 358.307 119.133 358.294C119.205 358.332 119.283 358.359 119.363 358.375L120.067 358.525C121.083 358.688 122.179 358.796 123.262 358.905C125.456 359.095 127.663 359.217 129.883 359.34C134.306 359.584 138.738 359.788 143.178 359.951L156.514 360.521C165.396 360.874 174.291 361.377 183.187 361.88H183.403L183.322 362.056L182.266 364.338Z" fill="#333333"/>
<path d="M128.461 323.699C128.038 325.284 127.405 326.806 126.579 328.222C125.814 329.681 124.807 331 123.601 332.12C124.201 330.612 124.902 329.147 125.699 327.733C126.481 326.298 127.406 324.946 128.461 323.699Z" fill="#333333"/>
<path d="M156.988 300.676C149.474 302.823 135.908 291.766 130.33 282.557C129.951 281.932 131.467 255.922 131.237 250.733C131.237 249.674 164.002 257.171 164.002 257.171C164.002 257.171 161.294 268.173 161.768 277.219C161.781 277.966 164.259 298.598 156.988 300.676Z" fill="#F2B2AA"/>
<path d="M130.776 267.019C135.18 270.265 140.226 272.526 145.575 273.648C150.923 274.771 156.45 274.729 161.781 273.525C162.042 268.034 162.799 262.579 164.042 257.226C164.042 257.226 131.223 249.742 131.277 250.801C131.345 253.178 131.074 260.187 130.776 267.019Z" fill="#333333"/>
<path d="M126.701 214.644C123.127 226.162 128.989 259.535 137.126 267.019C148.932 277.885 168.347 279.026 177.554 264.778C186.49 250.964 178.069 207.595 168.97 200.79C155.567 190.753 131.995 197.625 126.701 214.644Z" fill="#F2B2AA"/>
<path d="M154.361 235.602C154.361 235.521 154.199 235.738 154.226 235.833C154.727 238.061 154.917 240.696 153.035 241.823C153.035 241.823 153.035 241.973 153.035 241.945C155.485 241.13 155.187 237.653 154.361 235.602Z" fill="#333333"/>
<path d="M151.911 233.646C148.269 234.054 149.366 241.348 152.75 240.954C156.135 240.56 155.012 233.293 151.911 233.646Z" fill="#333333"/>
<path d="M167.292 233.85C167.292 233.755 167.481 233.932 167.495 234.013C167.765 236.281 168.456 238.835 170.595 239.283C170.663 239.283 170.676 239.405 170.595 239.405C168.063 239.433 167.197 236.037 167.292 233.85Z" fill="#333333"/>
<path d="M168.943 231.188C172.518 230.359 173.899 237.599 170.595 238.36C167.292 239.12 165.951 231.881 168.943 231.188Z" fill="#333333"/>
<path d="M148.54 230.74C149.467 230.34 150.372 229.886 151.247 229.381C152.254 229.012 153.111 228.32 153.684 227.412C153.809 227.09 153.824 226.737 153.729 226.406C153.633 226.075 153.432 225.784 153.156 225.578C152.549 225.258 151.867 225.107 151.181 225.14C150.495 225.173 149.831 225.39 149.257 225.768C147.978 226.355 146.961 227.395 146.4 228.689C146.309 228.983 146.301 229.298 146.378 229.596C146.455 229.895 146.614 230.166 146.836 230.38C147.059 230.593 147.336 230.739 147.637 230.803C147.938 230.867 148.25 230.845 148.54 230.74Z" fill="#333333"/>
<path d="M171.258 227.086C170.252 227.037 169.248 226.933 168.253 226.774C167.185 226.807 166.135 226.493 165.261 225.877C165.021 225.628 164.872 225.305 164.835 224.961C164.798 224.617 164.877 224.27 165.057 223.976C165.499 223.464 166.066 223.079 166.703 222.857C167.34 222.635 168.024 222.585 168.686 222.712C170.095 222.765 171.434 223.347 172.436 224.342C172.641 224.578 172.775 224.866 172.822 225.175C172.87 225.483 172.831 225.799 172.708 226.086C172.584 226.373 172.383 226.619 172.127 226.796C171.87 226.972 171.569 227.073 171.258 227.086Z" fill="#333333"/>
<path d="M155.594 256.764C156.203 257.212 156.853 257.851 157.679 257.796C158.514 257.657 159.308 257.338 160.007 256.859C160.022 256.843 160.042 256.833 160.064 256.832C160.085 256.831 160.106 256.838 160.122 256.852C160.139 256.867 160.148 256.887 160.15 256.909C160.151 256.93 160.144 256.952 160.129 256.968C159.871 257.465 159.482 257.882 159.005 258.174C158.528 258.466 157.98 258.622 157.421 258.625C156.944 258.577 156.492 258.387 156.123 258.08C155.754 257.772 155.485 257.362 155.35 256.9C155.336 256.764 155.499 256.669 155.594 256.764Z" fill="#333333"/>
<path d="M156.934 249.647C157.641 250.452 158.506 251.102 159.475 251.556C160.444 252.009 161.497 252.257 162.566 252.282C163.478 252.316 164.389 252.22 165.274 251.997C165.451 251.967 165.624 251.917 165.789 251.847C165.954 251.808 166.117 251.758 166.276 251.698C166.392 251.658 166.492 251.58 166.558 251.477C166.625 251.373 166.654 251.25 166.642 251.127C166.648 251.05 166.648 250.973 166.642 250.896V250.693C166.425 248.954 165.856 246.333 165.856 246.333C166.547 246.563 169.918 247.528 169.796 246.618C168.226 239.175 166.466 230.889 163.324 223.813C163.301 223.769 163.263 223.734 163.217 223.715C163.171 223.696 163.12 223.694 163.072 223.708C163.024 223.723 162.983 223.753 162.955 223.794C162.927 223.835 162.914 223.885 162.918 223.935C164.164 231.147 166.655 238.102 168.009 245.341C166.782 244.977 165.511 244.79 164.232 244.784C163.988 244.893 165.409 249.823 165.45 250.611V250.706C162.593 251.521 160.265 250.964 157.137 249.429C156.92 249.307 156.772 249.484 156.934 249.647Z" fill="#333333"/>
<path d="M164.178 251.236C163.419 252.624 162.313 253.789 160.969 254.618C160.226 255.057 159.363 255.247 158.505 255.161C156.636 254.958 156.352 253.3 156.46 251.847C156.531 251.065 156.695 250.295 156.948 249.552C159.116 250.874 161.65 251.464 164.178 251.236Z" fill="#333333"/>
<path d="M160.969 254.645C160.226 255.084 159.363 255.274 158.505 255.188C156.636 254.985 156.352 253.328 156.46 251.874C157.413 251.76 158.376 251.971 159.194 252.474C160.012 252.977 160.638 253.742 160.969 254.645Z" fill="#E35F8A"/>
<path d="M127.663 243.942C135.962 242.326 134.716 226.882 134.716 226.882C134.716 226.882 148.54 221.816 148.567 210.651C148.567 210.651 163.758 216.736 173.669 210.828C183.579 204.919 179.084 193.265 177.392 190.916C175.699 188.566 170.731 194.474 170.731 194.474C170.731 194.474 168.767 187.764 166.804 187.398C164.841 187.031 163.663 191.568 163.663 191.568C163.663 191.568 149.068 189.571 136.68 192.301C124.291 195.031 120.514 208.804 120.514 208.804C120.514 208.804 114.137 211.52 112.864 216.587C111.592 221.653 122.369 244.974 127.663 243.942Z" fill="#333333"/>
<path d="M131.372 227.629C142.691 226.991 148.621 218.244 148.215 207.323C148.215 207.188 148.391 207.174 148.418 207.323C149.975 217.279 142.826 230.006 131.359 228.145C131.074 228.145 131.074 227.643 131.372 227.629Z" fill="#333333"/>
<path d="M120.785 208.546C120.81 208.542 120.835 208.546 120.858 208.557C120.881 208.569 120.899 208.587 120.911 208.609C120.923 208.631 120.928 208.657 120.924 208.682C120.921 208.707 120.91 208.731 120.893 208.75C118.077 210.773 114.746 212.525 113.108 215.772C111.131 219.683 112.539 224.044 114.259 227.738C116.967 233.456 121.475 240.669 127.5 243.181C127.839 243.331 127.608 243.833 127.27 243.711C120.121 241.144 114.462 231.731 112.241 224.818C109.75 217.089 113.812 211.643 120.785 208.546Z" fill="#333333"/>
<path d="M161.253 211.425C166.669 213.435 173.912 212.186 178.042 207.948C183.065 202.76 180.56 196.281 176.986 191.174C176.81 190.916 177.162 190.549 177.392 190.78C181.765 195.045 183.458 202.474 179.518 207.609C175.578 212.743 166.886 214.4 160.915 212.186C160.427 212.009 160.752 211.249 161.253 211.425Z" fill="#333333"/>
<path d="M133.647 241.864C133.647 241.864 125.97 231.188 121.164 233.945C116.357 236.702 122.193 252.241 127.933 254.319C128.653 254.634 129.429 254.8 130.214 254.806C130.999 254.813 131.778 254.66 132.503 254.356C133.227 254.053 133.884 253.606 134.432 253.042C134.98 252.477 135.408 251.808 135.691 251.073L133.647 241.864Z" fill="#F2B2AA"/>
<path d="M122.924 238.359C122.843 238.359 122.816 238.482 122.924 238.509C126.986 240.084 129.125 243.793 130.668 247.636C129.45 246.169 127.812 245.368 125.848 246.821C125.74 246.903 125.848 247.066 125.957 247.039C126.658 246.801 127.415 246.789 128.124 247.003C128.832 247.217 129.457 247.647 129.91 248.234C130.665 249.222 131.314 250.287 131.846 251.412C132.036 251.766 132.686 251.562 132.537 251.154C132.543 251.123 132.543 251.091 132.537 251.059C132.51 245.925 128.434 238.794 122.924 238.359Z" fill="#333333"/>
<path d="M311.064 421.833H179.22V427.769H311.064V421.833Z" fill="#979797"/>
<path d="M311.064 421.833H244.708V427.769H311.064V421.833Z" fill="#797979"/>
<path d="M248.729 427.755H377.23L394.032 340.215H265.532L248.729 427.755Z" fill="#797979"/>
<path d="M253.969 427.755H382.456L399.258 340.215H270.758L253.969 427.755Z" fill="#979797"/>
<path d="M318.836 383.992C318.726 384.991 318.829 386.001 319.139 386.956C319.45 387.911 319.96 388.789 320.635 389.531C321.31 390.273 322.135 390.861 323.056 391.258C323.976 391.654 324.97 391.849 325.971 391.829C328.099 391.794 330.139 390.976 331.707 389.532C333.274 388.087 334.258 386.116 334.473 383.992C334.583 382.993 334.479 381.982 334.169 381.026C333.859 380.07 333.349 379.192 332.674 378.449C331.999 377.706 331.174 377.116 330.254 376.718C329.334 376.32 328.34 376.124 327.338 376.141C325.209 376.18 323.168 377.001 321.601 378.447C320.034 379.894 319.05 381.867 318.836 383.992Z" fill="white"/>
<path d="M428.593 362.828C439.098 373.15 440.862 389.111 438.642 403.086C438.642 403.404 438.096 403.315 438.096 403.086C438.096 399.904 438.198 396.722 438.185 393.604C438.122 393.464 438.083 393.324 438.02 393.184C435.19 391.316 432.849 388.793 431.194 385.827C429.444 382.365 428.758 378.458 427.388 374.843C427.261 374.499 427.629 374.601 427.87 374.779C434.214 379.501 436.295 384.593 438.134 391.389C438.095 387.836 437.722 384.295 437.018 380.812C435.793 374.235 432.771 368.127 428.289 363.171C428.244 363.131 428.216 363.074 428.212 363.013C428.209 362.952 428.23 362.893 428.27 362.847C428.31 362.801 428.367 362.774 428.428 362.77C428.488 362.767 428.548 362.787 428.593 362.828Z" fill="#D5D5D5"/>
<path d="M426.614 364.101C424.813 364.164 423.671 367.054 422.263 367.919C422.115 368.039 421.943 368.126 421.76 368.175C421.576 368.225 421.384 368.235 421.196 368.205C421.008 368.175 420.829 368.105 420.669 368.001C420.51 367.897 420.374 367.761 420.271 367.601C418.875 365.641 420.791 363.235 422.592 361.886C421.407 362.589 420.153 363.169 418.85 363.617C418.672 363.681 418.483 363.705 418.295 363.687C418.107 363.668 417.926 363.608 417.765 363.511C417.603 363.413 417.465 363.281 417.361 363.123C417.257 362.965 417.189 362.786 417.162 362.599C416.541 359.939 419.877 358.78 422.161 358.691C421.057 357.928 417.873 355.815 419.56 354.784C421.248 353.753 425.003 356.757 426.221 357.749C427.997 359.2 430.129 361.377 430.217 363.642C430.319 366.277 428.01 364.635 426.614 364.101Z" fill="#B6B6B6"/>
<path opacity="0.1" d="M426.614 364.101C424.813 364.164 423.671 367.054 422.263 367.919C422.115 368.039 421.943 368.126 421.76 368.175C421.576 368.225 421.384 368.235 421.196 368.205C421.008 368.175 420.829 368.105 420.669 368.001C420.51 367.897 420.374 367.761 420.271 367.601C418.875 365.641 420.791 363.235 422.592 361.886C421.407 362.589 420.153 363.169 418.85 363.617C418.672 363.681 418.483 363.705 418.295 363.687C418.107 363.668 417.926 363.608 417.765 363.511C417.603 363.413 417.465 363.281 417.361 363.123C417.257 362.965 417.189 362.786 417.162 362.599C416.541 359.939 419.877 358.78 422.161 358.691C421.057 357.928 417.873 355.815 419.56 354.784C421.248 353.753 425.003 356.757 426.221 357.749C427.997 359.2 430.129 361.377 430.217 363.642C430.319 366.277 428.01 364.635 426.614 364.101Z" fill="#D5D5D5"/>
<path d="M427.135 364.533C424.826 363.477 420.385 364.992 420.017 364.113C419.243 362.331 422.796 361.11 424.711 360.868C422.948 360.384 419.56 359.595 419.637 357.915C419.763 355.84 424.813 357.622 427.376 359.595C430.598 362.141 430.573 364.47 430.04 364.953C429.393 365.603 427.515 364.699 427.135 364.533Z" fill="#B6B6B6"/>
<path d="M452.509 361.861C441.623 371.763 439.263 387.647 440.938 401.712C440.938 402.03 441.471 401.954 441.484 401.712C441.61 398.53 441.636 395.348 441.763 392.229L441.94 391.822C444.837 390.064 447.269 387.632 449.033 384.733C450.923 381.334 451.76 377.465 453.232 373.901C453.372 373.558 453.004 373.647 452.763 373.812C446.191 378.292 443.97 383.307 441.877 390.027C442.048 386.475 442.553 382.946 443.387 379.489C444.86 372.966 448.11 366.982 452.775 362.204C452.821 362.169 452.85 362.117 452.857 362.059C452.864 362.002 452.849 361.944 452.813 361.899C452.778 361.853 452.726 361.824 452.669 361.816C452.612 361.809 452.554 361.825 452.509 361.861Z" fill="#D5D5D5"/>
<path d="M454.438 363.133C456.239 363.273 457.267 366.201 458.637 367.104C458.78 367.232 458.947 367.328 459.13 367.385C459.312 367.443 459.504 367.461 459.694 367.438C459.884 367.415 460.066 367.352 460.23 367.253C460.393 367.154 460.534 367.021 460.642 366.863C462.113 364.966 460.299 362.484 458.548 361.071C459.706 361.815 460.934 362.442 462.215 362.942C462.391 363.016 462.58 363.049 462.77 363.039C462.96 363.029 463.146 362.976 463.313 362.884C463.48 362.793 463.624 362.664 463.735 362.509C463.846 362.354 463.92 362.176 463.953 361.988C464.664 359.353 461.416 358.042 459.094 357.889C460.236 357.164 463.484 355.191 461.834 354.071C460.185 352.951 456.328 355.827 455.085 356.769C453.245 358.157 451.025 360.244 450.86 362.51C450.657 365.183 453.029 363.642 454.438 363.133Z" fill="#B6B6B6"/>
<path opacity="0.1" d="M454.438 363.133C456.239 363.273 457.267 366.201 458.637 367.104C458.78 367.232 458.947 367.328 459.13 367.385C459.312 367.443 459.504 367.461 459.694 367.438C459.884 367.415 460.066 367.352 460.23 367.253C460.393 367.154 460.534 367.021 460.642 366.863C462.113 364.966 460.299 362.484 458.548 361.071C459.706 361.815 460.934 362.442 462.215 362.942C462.391 363.016 462.58 363.049 462.77 363.039C462.96 363.029 463.146 362.976 463.313 362.884C463.48 362.793 463.624 362.664 463.735 362.509C463.846 362.354 463.92 362.176 463.953 361.988C464.664 359.353 461.416 358.042 459.094 357.889C460.236 357.164 463.484 355.191 461.834 354.071C460.185 352.951 456.328 355.827 455.085 356.769C453.245 358.157 451.025 360.244 450.86 362.51C450.657 365.183 453.029 363.642 454.438 363.133Z" fill="#D5D5D5"/>
<path d="M453.904 363.566C456.251 362.599 460.628 364.279 461.034 363.426C461.872 361.67 458.37 360.308 456.467 360.002C458.243 359.582 461.656 358.946 461.618 357.24C461.618 355.153 456.442 356.757 453.815 358.628C450.504 360.982 450.428 363.375 450.948 363.872C451.646 364.559 453.498 363.719 453.904 363.566Z" fill="#B6B6B6"/>
<path d="M441.382 388.029C440.643 393.329 439.51 398.566 437.995 403.697C437.962 403.785 437.899 403.858 437.818 403.903C437.736 403.949 437.641 403.964 437.55 403.945C437.458 403.927 437.376 403.877 437.318 403.803C437.26 403.73 437.23 403.638 437.234 403.544C437.957 398.721 439.251 393.973 439.974 389.149C440.753 384.265 441.034 379.314 440.811 374.372C440.355 366.239 438.147 357.584 432.857 351.207C432.742 351.067 432.983 350.851 433.11 350.991C443.704 363.375 441.991 378.572 441.991 379.934C443.488 374.843 445.036 368.925 450.707 363.706C450.961 363.477 451.151 363.579 451.101 363.961C450.086 373.481 447.46 378.458 441.953 383.536C441.814 385.051 441.623 386.553 441.382 388.029Z" fill="#D5D5D5"/>
<path d="M432.755 352.646C430.851 351.805 428.225 354.237 426.335 354.402C426.121 354.452 425.9 354.456 425.685 354.414C425.47 354.373 425.266 354.286 425.086 354.16C424.907 354.034 424.755 353.871 424.643 353.683C424.53 353.494 424.458 353.284 424.432 353.066C423.962 350.342 427.159 348.802 429.697 348.305C428.098 348.216 426.525 348.636 424.952 348.216C424.736 348.189 424.529 348.116 424.345 348.002C424.16 347.888 424.002 347.734 423.881 347.553C423.761 347.372 423.681 347.167 423.647 346.952C423.613 346.737 423.625 346.517 423.683 346.307C424.381 343.24 428.428 343.685 430.826 344.78C430.065 343.418 427.832 339.689 430.09 339.421C432.349 339.154 434.746 344.207 435.52 345.849C436.637 348.254 437.753 351.589 436.7 353.982C435.508 356.782 433.922 353.918 432.755 352.646Z" fill="#B6B6B6"/>
<path opacity="0.1" d="M432.755 352.646C430.851 351.805 428.225 354.237 426.335 354.402C426.121 354.452 425.9 354.456 425.685 354.414C425.47 354.373 425.266 354.286 425.086 354.16C424.907 354.034 424.755 353.871 424.643 353.683C424.53 353.494 424.458 353.284 424.432 353.066C423.962 350.342 427.159 348.802 429.697 348.305C428.098 348.216 426.525 348.636 424.952 348.216C424.736 348.189 424.529 348.116 424.345 348.002C424.16 347.888 424.002 347.734 423.881 347.553C423.761 347.372 423.681 347.167 423.647 346.952C423.613 346.737 423.625 346.517 423.683 346.307C424.381 343.24 428.428 343.685 430.826 344.78C430.065 343.418 427.832 339.689 430.09 339.421C432.349 339.154 434.746 344.207 435.52 345.849C436.637 348.254 437.753 351.589 436.7 353.982C435.508 356.782 433.922 353.918 432.755 352.646Z" fill="#D5D5D5"/>
<path d="M433.072 353.371C431.207 351.105 425.84 350.444 425.891 349.336C425.992 347.096 430.293 347.618 432.387 348.343C430.801 346.956 427.68 344.449 428.644 342.73C429.824 340.643 434.163 345.047 435.838 348.382C437.931 352.582 436.713 355.051 435.914 355.28C434.836 355.598 433.389 353.74 433.072 353.371Z" fill="#B6B6B6"/>
<path d="M448.348 390.893L453.017 426.709H424.584C425.168 423.54 430.471 390.855 430.471 390.855L448.348 390.893Z" fill="#B6B6B6"/>
<path d="M330.884 336.646C330.278 336.833 329.741 337.195 329.341 337.687C328.94 338.179 328.694 338.779 328.634 339.412C328.573 340.044 328.701 340.68 329.001 341.24C329.301 341.799 329.759 342.257 330.319 342.556C330.878 342.854 331.513 342.979 332.143 342.916C332.773 342.853 333.371 342.603 333.86 342.2C334.349 341.796 334.708 341.256 334.891 340.648C335.074 340.04 335.073 339.391 334.889 338.783C334.766 338.379 334.565 338.002 334.297 337.676C334.03 337.35 333.7 337.08 333.328 336.881C332.956 336.683 332.549 336.56 332.129 336.52C331.71 336.479 331.286 336.522 330.884 336.646Z" fill="#333333"/>
<path d="M333.547 338.825L402.638 294.729L402.638 233.672" stroke="#333333" stroke-dasharray="4 4"/>
</g>
<g clip-path="url(#clip1_6_141412)">
<path d="M499.195 233.002H307.278V70.0675L403.224 8.9259L499.195 70.0675V233.002Z" fill="#E0E0E0"/>
<path opacity="0.2" d="M499.195 233.002H307.278V70.0675L403.224 8.9259L499.195 70.0675V233.002Z" fill="black"/>
<path d="M488.376 1.172H318.096V220.519H488.376V1.172Z" fill="white"/>
<path d="M488.376 220.519L318.096 221.104H317.412V220.494L317.159 1.17196V0.231323H318.096L488.376 0.510973H489.06V1.17196L488.832 111.049L488.376 220.519ZM488.376 220.519L487.92 110.668L487.718 1.17196L488.376 1.85838L318.096 2.13803L319.059 1.17196L318.704 220.519L318.096 219.934L488.376 220.519Z" fill="#DBDBDB"/>
<path d="M481.536 136.522C481.857 142.929 482.101 149.336 482.27 155.742C482.397 162.149 482.65 168.453 482.65 174.962L482.802 194.207V213.426V214.545H481.688C474.999 214.545 468.336 214.341 461.647 214.189C454.959 214.036 448.143 213.782 441.556 213.426C448.245 213.096 454.908 212.791 461.597 212.663C468.285 212.536 474.948 212.308 481.637 212.308L480.522 213.426V194.207V174.962C480.522 168.555 480.801 162.25 480.902 155.742C481.004 149.234 481.232 142.929 481.536 136.522Z" fill="#E0E0E0"/>
<path d="M325.013 85.1941C324.692 78.7876 324.447 72.3811 324.278 65.9745C324.278 59.568 323.898 53.1361 323.898 46.7295L323.746 27.51L323.898 8.29038V7.14636H325.013C331.701 7.14636 338.39 7.37517 345.053 7.5277C351.717 7.68024 358.43 7.95989 365.119 8.29038C358.43 8.62088 351.742 8.90053 345.053 9.05307C338.365 9.2056 331.625 9.40898 325.013 9.40898L326.153 8.29038V27.51L326.001 46.7295C326.001 53.1361 325.748 59.568 325.621 65.9745C325.494 72.3811 325.266 78.7876 325.013 85.1941Z" fill="#E4E4E4"/>
<path d="M403.35 8.29029C409.861 7.98522 416.373 7.85811 422.884 7.65473L442.443 7.29881C448.954 7.14627 455.465 7.29881 462.002 7.12085H481.536H482.802V8.39199V27.6116C482.802 34.0181 482.802 40.3229 482.6 46.8311C482.397 59.6696 482.169 72.4826 481.637 85.2957C481.13 72.5843 480.877 59.6696 480.674 46.8311C480.522 40.4246 480.548 34.1198 480.497 27.6116V8.39199L481.764 9.66312H462.23C455.693 9.66312 449.182 9.66312 442.671 9.48516L423.112 9.12924C416.373 8.69706 409.861 8.56994 403.35 8.29029Z" fill="#E4E4E4"/>
<path d="M403.148 213.426C390.1 213.909 377.077 214.163 364.03 214.341C350.982 214.519 337.985 214.545 325.013 214.672H323.721V213.426C323.721 205.952 323.721 198.478 323.721 191.003L323.873 168.606L324.253 146.183C324.455 138.709 324.582 131.235 324.886 123.76C325.19 131.235 325.342 138.709 325.545 146.183L325.9 168.606L326.128 190.902C326.128 198.376 326.128 205.85 326.128 213.324L325.013 212.18C338.061 212.18 351.083 212.18 364.106 212.486C377.128 212.791 390.1 212.943 403.148 213.426Z" fill="#E0E0E0"/>
<path d="M499.195 110.846V233.002H307.278V110.846C315.512 115.549 323.619 120.455 331.777 125.26C339.935 130.065 348.043 134.972 356.099 140.056C365.085 145.548 374.071 151.124 383.056 156.784C383.143 156.716 383.237 156.657 383.335 156.606L383.107 156.81L403.376 169.521C410.064 165.301 416.778 161.055 423.492 156.81C423.429 156.729 423.351 156.66 423.264 156.606H423.568C432.511 151.013 441.48 145.42 450.5 139.904C458.59 134.955 466.689 130.048 474.797 125.184C482.853 120.455 490.961 115.549 499.195 110.846Z" fill="#E0E0E0"/>
<g opacity="0.2">
<path d="M499.195 110.846C491.442 116.311 483.563 121.549 475.734 126.938C467.905 132.328 459.975 137.514 452.045 142.599C444.115 147.683 435.476 153.403 427.191 158.767C426.928 158.922 426.674 159.092 426.431 159.276C419.084 164.004 411.711 168.716 404.313 173.411L403.224 174.097L402.159 173.411C394.778 168.699 387.423 163.979 380.092 159.25L379.307 158.767C370.971 153.403 362.687 148.039 354.402 142.573C346.117 137.107 338.618 132.124 330.739 126.862C322.859 121.599 315.031 116.311 307.278 110.846C315.512 115.549 323.619 120.455 331.777 125.26C339.935 130.065 348.043 134.972 356.099 140.056C365.085 145.548 374.071 151.124 383.056 156.784L403.325 169.496C410.013 165.276 416.727 161.03 423.441 156.784C432.385 151.191 441.354 145.598 450.373 140.082C458.464 135.133 466.562 130.226 474.67 125.362C482.853 120.455 490.961 115.549 499.195 110.846Z" fill="black"/>
<path d="M383.285 156.556L383.056 156.759L380.042 159.301C375.228 163.369 370.287 167.284 365.271 171.072C359.165 175.75 352.907 180.25 346.624 184.699C340.341 189.148 334.032 193.444 327.546 197.588C321.06 201.732 314.524 205.825 307.734 209.562C313.561 204.477 319.616 199.673 325.722 195.02C331.828 190.368 338.111 185.843 344.369 181.394C350.627 176.945 357.037 172.648 363.548 168.504C368.615 165.174 373.936 161.894 379.307 158.844C380.548 158.106 381.84 157.42 383.056 156.734C383.127 156.668 383.204 156.608 383.285 156.556Z" fill="black"/>
<path d="M498.738 209.562C491.974 205.825 485.412 201.757 478.951 197.588C472.491 193.419 466.106 189.097 459.772 184.724C453.439 180.351 447.231 175.775 441.125 171.097C436.058 167.309 431.219 163.471 426.431 159.352L423.365 156.81C423.302 156.729 423.225 156.66 423.137 156.606H423.441L427.191 158.767C432.537 161.818 437.756 165.098 442.95 168.428C449.436 172.572 455.769 176.919 462.078 181.317C468.387 185.715 474.619 190.266 480.725 194.944C486.831 199.622 492.911 204.452 498.738 209.562Z" fill="black"/>
</g>
<path d="M388.681 115.879L357.087 84.1772L370.059 71.1608L388.681 89.8719L447.991 30.3573L460.938 43.3737L388.681 115.879Z" fill="#333333"/>
</g>
<defs>
<clipPath id="clip0_6_141412">
<rect width="571" height="240.371" fill="white" transform="translate(0 187.398)"/>
</clipPath>
<clipPath id="clip1_6_141412">
<rect width="191.917" height="232.77" fill="white" transform="translate(307.278 0.231323)"/>
</clipPath>
</defs>
</svg>
